<svg xmlns="http://www.w3.org/2000/svg" viewBox="0 0 194.8 118.69"><defs><style>.cls-1{fill:#fff;}</style></defs><g id="Warstwa_2" data-name="Warstwa 2"><g id="Warstwa_22" data-name="Warstwa 22"><path class="cls-1" d="M137.9,41.77c.21-.2.22-.26.24-1.08,0-1,0-1.26-.49-1.48-.3-.14-.48-.16-2-.16H134v3l3.68,0Zm-5.68-1.25,0-2.92h3c3.45,0,3.66,0,4.24.62s.51.73.48,2.55c0,1.47,0,1.55-.22,1.88a1.39,1.39,0,0,1-.55.55l-.35.2-3.31,0-3.31,0Zm-19.37,2.23v-.69l1.3-.93,2-1.44c.37-.27.72-.51.78-.54.33-.13-.12-.18-1.91-.18h-2l0-.68,0-.69h6.66V39l-1.92,1.39-2.08,1.51c-.14.1.1.11,2,.11h2.13v1.41h-7Zm-4.19-2.46a1.28,1.28,0,0,0,.12-.55c0-.3,0-.39-.21-.53s-.31-.16-1.76-.16h-1.56v1.41h1.64C108.5,40.46,108.54,40.46,108.66,40.29Zm-5.19.23,0-2.92,2.27,0c4.34,0,4.75.11,4.8,1.82,0,.7,0,.83-.15,1.13A1.2,1.2,0,0,1,110,41l-.26.14.28.13c.43.21.6.62.6,1.47v.68h-1.8V42.9a1.11,1.11,0,0,0-.15-.73c-.15-.18-.18-.18-1.77-.2l-1.61,0v1.5h-1.8ZM81,40.5V37.56h2.64l1,1.84c.87,1.53,1.06,1.82,1.14,1.72s.54-.9,1.08-1.84l1-1.72h2.57v5.88H88.72l0-2,0-2-1.17,2-1.18,2-.62,0-.62,0L84,41.45c-.61-1.07-1.15-2-1.2-2a7.36,7.36,0,0,0-.08,2v2H81Zm17.66,1.41c.4-.2.5-.48.5-1.37s-.1-1.16-.46-1.37S98.27,39,97,39c-2.07,0-2.16.07-2.11,1.71,0,.78,0,.85.23,1s.74.34,2.11.32A3.56,3.56,0,0,0,98.63,41.91Zm-4.5,1.45a1.54,1.54,0,0,1-1-1,17,17,0,0,1,0-3.37,1.67,1.67,0,0,1,.81-1.17,11.46,11.46,0,0,1,3.79-.28c1.83.05,2.31.13,2.74.49s.51.74.51,2.58c0,1.57,0,1.66-.18,2a1.56,1.56,0,0,1-1.11.83,26.45,26.45,0,0,1-2.7.08A8.82,8.82,0,0,1,94.13,43.36ZM75.7,41c-.06-.17-1-2-1.08-2s-1.1,1.92-1.1,2a8.16,8.16,0,0,0,1.11,0A3,3,0,0,0,75.7,41Zm2.21,2.45-1,0L76.67,43l-.25-.47H72.83l-.57.94h-1a3.64,3.64,0,0,1-.94-.06l.8-1.47c1-1.76,1.14-2.11,1.82-3.33l.54-1,1.13,0,1.14,0,.44.83c1.55,2.87,2.72,5.07,2.7,5.08ZM127,41a21.92,21.92,0,0,0-1.09-2,11.55,11.55,0,0,0-.58,1l-.53,1h1.1A5.82,5.82,0,0,0,127,41Zm1.67,3.73a.66.66,0,0,1-.09-1.09l.24-.24h-.28c-.25,0-.3,0-.56-.47l-.28-.47h-3.58l-.58.94h-1.94l.23-.41,1.57-2.88c.73-1.35,1.38-2.49,1.43-2.53a7.06,7.06,0,0,1,1.18,0l1.09,0,1.55,2.9,1.55,2.9-.43.08c-.47.08-.61.22-.48.45s.13.15.51.1l.42-.05,0,.42,0,.41-.67,0A3.78,3.78,0,0,1,128.62,44.77Zm-4.71.94.57-.63h.78a5.51,5.51,0,0,1,.75,0l-.9.63c-.83.58-.87.6-1.31.6h-.46Zm7,6.78c0-.12-.29-.87-.54-1.67l-.87-2.71c-.21-.69-.39-1.26-.39-1.28s.39,0,.88,0h.89l.57,2c.32,1.08.6,2,.62,2.07a12.86,12.86,0,0,0,.8-2l.74-2h1.65l.41,1.21c.23.67.55,1.6.72,2.08l.3.86.33-1.06.65-2.08.33-1,.89,0c.82,0,.88,0,.84.12s-.46,1.39-1,2.92l-.93,2.78-1,0-1,0-.17-.46c-.09-.24-.38-1.1-.64-1.9s-.51-1.48-.55-1.51A4.56,4.56,0,0,0,134,50l-.66,1.95-.27.74-1,0-1,0Zm-15.75-2V48.3h-2.43V46.81l3.35,0,3.35,0v1.41l-1.23,0-1.24,0v4.38h-1.8Zm-11.42-.73,0-2.91h2.66l3.45,4.24,0-4.28h1.8v5.87H109.1l-.77-.92-1.75-2.11-1-1.19,0,2.11,0,2.11h-1.8Zm-7.77,0V46.81h6.42V48.3H97.81v.86h4.39l0,1.21-2.18,0-2.17,0v.86h4.7v1.41H96Zm-3.57,1.4c.39-.18.47-.42.47-1.36,0-.67,0-.87-.14-1-.28-.41-.51-.45-2.32-.45H88.8v3h1.69A6,6,0,0,0,92.44,51.15ZM87,49.75V46.81h2.64c2.92,0,3.6.06,4.15.34.81.41.89.63.88,2.69,0,1.77,0,2-.48,2.43s-.63.41-4,.41H87Zm-14.1.74V48.3H70.47V46.81l3.35,0,3.35,0v1.41l-1.24,0-1.23,0v4.38H72.9Zm53.14.66c.38-.18.48-.47.48-1.41,0-1.35-.14-1.46-1.89-1.51-1.48,0-2,.05-2.24.4s-.17.34-.17,1.07c0,1.23.14,1.46,1,1.58A10,10,0,0,0,126,51.15Zm-4.22,1.56a1.8,1.8,0,0,1-1.08-.67c-.31-.48-.39-1-.36-2.52,0-1.31,0-1.35.27-1.81s.65-.79,1.61-.9a29.72,29.72,0,0,1,4.22,0c1,.11,1.31.31,1.61.89l.23.47v1.57c0,1.78-.07,2.12-.55,2.54s-.82.48-3.44.47C123,52.75,121.91,52.73,121.82,52.71Zm-42,0a1.66,1.66,0,0,1-1.48-1.08,21.46,21.46,0,0,1-.09-2.57V46.8l.89,0,.88,0,0,2,0,2,.22.19a1.35,1.35,0,0,0,.81.24,7.61,7.61,0,0,0,2.24-.12c.37-.18.41-.37.44-2.45l0-1.94h1.72l0,2.45c0,2.86,0,2.82-.8,3.23l-.46.23H82.11c-1.17,0-2.21,0-2.32,0Zm112,10.55V58.87h2.74v8.78h-2.74Zm-12.85,0V58.87h2.74v3.21h1.11l1-.87,1.38-1.28.79-.73.36-.33h3.51l-.51.49c-.61.59-1.09,1-2.23,2.06l-1.26,1.15-.55.5c-.1.07-.12.13-.06.17l2.68,2.21,2.61,2.16-3.69,0-2-1.69-2-1.68h-1.07v3.37H179Zm-5,0V58.87h2.74v8.78H174Zm-14.1,0V58.83l2,0,2,0,.21.29c.12.16.46.57.74.92s1.34,1.64,2.35,2.89l1.84,2.26,0-3.2,0-3.21,1.33,0,1.33,0v8.77l-3.95,0-1.16-1.41-2.58-3.14c-.78-.94-1.44-1.73-1.48-1.75s-.07,1.38-.07,3.16v3.18h-2.66Zm-13.09,0V58.83l1.33,0,1.34,0v3.2H155V58.87h2.66v8.78H155V64.2h-5.56v3.45h-2.67Zm-24.75,0V58.87h9.63V61h-6.89v1.33h6.5v1.8h-6.5v1.41h7v2.12H122Zm-7.92,1.06V61h-3.68V58.87h10.11V61h-3.68v6.66H114.1Zm-8-1.06V58.87h2.67v8.78h-2.67Zm-10.1,0V58.83l1.33,0,1.33,0,0,3.31,0,3.3,2.91,0,2.92,0,0,1.06,0,1.06H96V63.24Zm39.83,4.37a2.56,2.56,0,0,1-2.15-2.34,22.48,22.48,0,0,1,.11-4.62c.38-1.16,1.1-1.65,2.73-1.85a53.32,53.32,0,0,1,5.93,0,2.56,2.56,0,0,1,1.69.66,2.45,2.45,0,0,1,.64,1.82l.05.73h-2.77v-.22a.82.82,0,0,0-.49-.7c-.22-.12-.5-.14-2.21-.14-1.93,0-2,0-2.35.19-.55.28-.66.62-.66,2,0,1.23.07,1.58.41,1.93s.81.42,2.67.42c2.22,0,2.58-.12,2.69-.94l0-.31h2.72V65a2.28,2.28,0,0,1-2.08,2.64,52.29,52.29,0,0,1-7,0ZM90.41,65.3c.62-.32.7-.55.7-2.08,0-1.14,0-1.28-.17-1.58-.33-.61-1.08-.77-3.43-.71-1.66,0-2,.1-2.38.42s-.44.64-.44,1.87.07,1.52.33,1.82.78.48,3.08.47C90,65.49,90,65.49,90.41,65.3Zm-6.34,2.3a2.22,2.22,0,0,1-2-1.83A11.45,11.45,0,0,1,82,63c0-2.09,0-2.28.2-2.68A2.18,2.18,0,0,1,84,58.9a54.35,54.35,0,0,1,7.11-.11c1.54.16,2.26.65,2.6,1.74a7.45,7.45,0,0,1,.18,2.61c0,2.28-.06,2.77-.46,3.43a2.45,2.45,0,0,1-1.45,1,36.38,36.38,0,0,1-3.84.11A24.72,24.72,0,0,1,84.07,67.6Zm54.38,4c1.15-1.24.91-1.12,2.21-1.1l1.13,0-1.33.91-1.33.92h-1.38Zm37,5.94V73.13h9.63v2.12h-7v1.33h6.5v1.88h-6.5v1.33h7V81.9h-9.71Zm-4.47,0V73.13h2.66V81.9H171Zm-12.3,0V73.13h2.66v3.29h.53c.47,0,.56,0,.77-.21l1.78-1.65L166,73.13h3.57l-.2.18c-.2.2-3.74,3.44-4.22,3.87l-.28.26.35.32c.2.17,1.39,1.17,2.66,2.21l2.3,1.9-1.85,0-1.85,0-2-1.65-2-1.65h-1.16V81.9h-2.66Zm-25.85,0V73.13h4l1.4,1.71L140.78,78c.65.8,1.2,1.46,1.23,1.46s.06-1.42.06-3.17V73.13h2.67V81.9h-2c-1.88,0-2,0-2.1-.15s-1.07-1.32-2.26-2.75l-2.51-3-.35-.44,0,3.19,0,3.19h-2.66Zm-5.74.45-.77-1.39c-.31-.58-.61-1.12-.67-1.2s-.18,0-.78,1.13c-.37.71-.75,1.4-.83,1.54l-.16.25h3.4Zm-7.6,3.21c.68-1.27,4.1-7.53,4.27-7.8l.15-.25,1.72,0,1.72,0,.85,1.57,2.08,3.87c.68,1.27,1.36,2.54,1.51,2.8l.27.49h-3l-.41-.74-.41-.74h-5.36l-.42.72-.42.73-1.47,0-1.48,0Zm-13.06-3.66V73.13h4l2.39,3,2.6,3.19.22.23V73.13h2.66V81.9h-4l-.36-.44c-1.62-2-4.85-5.87-4.88-5.83s0,1.45,0,3.16V81.9h-2.66Zm-11.52,3.3V79.74l1.35-1,3.1-2.23,1.75-1.26-3,0-3,0V73.13h9.95l0,1.07,0,1.08L102.71,77l-3,2.19a4.15,4.15,0,0,0-.69.54s1.41.07,3.14.07h3.13V81.9H94.91Zm92.87,1.05a2,2,0,0,1-1.15-.51c-.49-.42-.63-.9-.67-2.18l0-1.11h2.5l0,.57c0,.65.19.94.54,1.06a7.19,7.19,0,0,0,1.38.09c1,0,1.16,0,1.34-.14.37-.27.39-.47.4-3.6V73.13h2.67v3.39c0,3.74,0,3.88-.48,4.5a2.29,2.29,0,0,1-1.45.85A29.83,29.83,0,0,1,187.78,81.87ZM47,57.55V55.28l-.27-.09a2.12,2.12,0,0,1-1.2-1.8l0-.47h-6l0,1.47a5.64,5.64,0,0,0,.55,2.91,3.66,3.66,0,0,0,1.43,1.51,12.53,12.53,0,0,0,4.33.92l1,.07C47,59.81,47,59.66,47,57.55ZM69.63,68.17c1.06-.31,1.54-1,1.75-2.35.33-2.24-.21-3.66-1.61-4.22l-.44-.18-6.83,0-6.84,0v7l6.76,0C68.51,68.31,69.22,68.29,69.63,68.17ZM47,81.93S47,77.13,47,71.32V60.77l-.18-.05a6.16,6.16,0,0,0-.65,0c-.26,0-.92-.05-1.47-.11-3.6-.42-5.1-1.41-5.82-3.84a6.62,6.62,0,0,1-.25-1.89c0-.65,0-1.56,0-2l.06-.83h3.83c3.59,0,3.83,0,3.83.14s0,.46.07.85c.11,1.11.35,1.38,1.36,1.51l.49.06-1.3,0,0,.37c0,.33.05.37.26.45s10.4.16,11.11,0a2.8,2.8,0,0,0,1.48-.62l.28-.25,3.2,0,3.2,0,0-.94c.08-3.11-.72-5.25-2.29-6.13a8.8,8.8,0,0,0-3.89-.92c-.49,0-3.51-.11-6.7-.2-6.67-.17-6.77-.18-7.43-.83A2,2,0,0,1,45.7,44a1.94,1.94,0,0,1,.77-1.74c.66-.44.94-.45,6.59-.43l5.15,0,.35.19a2.24,2.24,0,0,1,1.25,1.81v.24H65.6l.05-.33a5.43,5.43,0,0,0,0-1c-.25-3.15-1.54-4.47-4.88-5-1-.14-14.29-.14-15.68,0-3.18.33-4.67,1.39-5.25,3.73a13.06,13.06,0,0,0-.25,3.81c.28,3.18,1.12,4.29,3.69,4.85,1.09.24,2.12.3,7.72.46,2.93.09,5.81.2,6.4.24,1.75.13,2.41.42,2.8,1.25a2.82,2.82,0,0,1,0,2.06l-.17.37H59c-.84,0-1,0-.66-.07a1.32,1.32,0,0,0,.94-.57,1.64,1.64,0,0,0,0-1.51c-.39-.55-.84-.6-8.2-.81-5.79-.18-6.24-.2-7.35-.37-3.76-.57-5.09-2.39-5.09-7,0-2.78.5-4.42,1.71-5.64A6.5,6.5,0,0,1,44.06,37,106.57,106.57,0,0,1,55,36.72c5.65,0,6,.07,7.48.46a5.14,5.14,0,0,1,3.43,2.66,8.59,8.59,0,0,1,.67,4.2l0,1H59v-.46a2.11,2.11,0,0,0-.45-1.44c-.44-.41-.47-.42-5.54-.41s-5.6,0-6,.37a1.37,1.37,0,0,0-.31,1.1c.12.56.19.67.52.83.51.25,1.46.3,7.53.44,6.89.15,7.6.21,9.07.74a5.05,5.05,0,0,1,2.06,1.34c1.14,1.22,1.68,3.13,1.68,6v1.05h-1l-.1.7a4.56,4.56,0,0,1-1.47,3,4.7,4.7,0,0,1-2.19,1.11c-1.62.38-2.08.4-9.15.44l-6.64,0,0,.45,0,.44,5.84,0c7.37,0,9-.08,10.83-.67a5.81,5.81,0,0,0,3-2.51,8.07,8.07,0,0,0,.7-2.41l.06-.55h1.88c4.36,0,6.71.61,8.36,2.14,1.83,1.69,2.52,4,2.52,8.19,0,6.53-1.77,9.36-6.24,10-.7.1-2.07.12-9.56.12H55.66V82H51.37C49,82,47.05,82,47,81.93Zm101.83,0c-2-.14-2.55-.6-2.61-2.17l0-.8h2.68v.2a.79.79,0,0,0,.45.72c.12,0,1.2,0,2.41,0,2,0,2.22,0,2.41-.13a.73.73,0,0,0-.13-1.22,13.76,13.76,0,0,0-2.66-.18c-3-.09-3.64-.16-4.21-.44a1.16,1.16,0,0,1-.65-.67,2.61,2.61,0,0,1-.27-1.27c-.09-1.76.35-2.57,1.59-2.91a18.58,18.58,0,0,1,3.29-.17c3,0,3.94,0,4.57.3s1.05.8,1.1,1.86l0,.72h-1.3c-1.24,0-1.3,0-1.3-.15a.83.83,0,0,0-.41-.68,8.2,8.2,0,0,0-2.16-.11c-2,0-2.47.06-2.6.31a.73.73,0,0,0,.34,1c.13,0,1.48.12,3,.16,2.79.08,3.2.12,3.72.39.77.39,1.06,1.08,1.06,2.51,0,.91,0,1-.22,1.43-.42.86-1,1.11-2.56,1.23C153.23,82.07,150.1,82.06,148.85,82ZM90.05,79.7a1.26,1.26,0,0,0,.93-.64c.11-.21.13-.46.13-1.5,0-1.42-.09-1.73-.57-2s-.92-.3-2.8-.3c-2.83,0-3,.18-3,2.35,0,1,0,1.12.19,1.48a1.14,1.14,0,0,0,.9.68A32.07,32.07,0,0,0,90.05,79.7Zm-5,2.28c-1.39-.07-2.14-.37-2.59-1S82,80.16,82,77.8s0-3,.46-3.67C83.09,73.17,84,73,88,73a18,18,0,0,1,4.16.27c1,.29,1.53,1.06,1.68,2.47a21.37,21.37,0,0,1-.11,4.34c-.39,1.39-1.06,1.79-3.19,1.93C89.26,82.06,86.52,82.06,85.08,82ZM64.2,116.89a53.7,53.7,0,0,0,6-.84l1.28-.24,0-5.84,0-5.84,1.09-.33a47.54,47.54,0,0,0,9.25-3.91l.62-.36,4.12,4.12c2.26,2.26,4.14,4.11,4.17,4.11s1.53-1,2.43-1.62c1.24-.91,2.7-2.07,3.89-3.08s4.27-4,5.1-5a58.8,58.8,0,0,0,5-6.36l.67-1-2-2-2-2H89l-1.1,1.11A40.14,40.14,0,0,1,65.06,99.33a33.4,33.4,0,0,1-5.64.38,39,39,0,0,1-15-2.85A40.39,40.39,0,0,1,63.5,19.16a39.86,39.86,0,0,1,13.74,4,38.81,38.81,0,0,1,10.47,7.49L89,31.92h14.87l2-2,2-2-.65-1A58.56,58.56,0,0,0,91.74,11.49c-.69-.46-1-.61-1.06-.56S88.75,12.82,86.54,15s-4.06,4-4.1,4a7.45,7.45,0,0,1-.77-.39,49.69,49.69,0,0,0-9.64-4l-.5-.15,0-5.8a55.26,55.26,0,0,0-.12-5.87,40.83,40.83,0,0,0-5.66-1,62,62,0,0,0-12-.07,55.2,55.2,0,0,0-6.28,1c-.13,0-.14.38-.14,5.87v5.82l-.8.25a46.38,46.38,0,0,0-8.84,3.61c-.72.38-1.34.69-1.37.69S34.34,17.22,32.08,15L28,10.84l-1.17.8a57.8,57.8,0,0,0-13.5,12.88c-.85,1.12-2.14,2.95-2.3,3.23s.1.38,4,4.33l4.14,4.14-.34.57c-.57,1-2,4-2.5,5.22s-1.21,3.28-1.53,4.43l-.22.76H2.93l-.06.18c-.11.28-.62,3.25-.79,4.6a57.54,57.54,0,0,0,.55,18.15l.25,1.28H14.57l.19.68a49.47,49.47,0,0,0,3.92,9.51l.47.83L15,86.54c-2.26,2.25-4.11,4.14-4.11,4.18A35.56,35.56,0,0,0,13,93.81a58.87,58.87,0,0,0,11.88,11.87A34.43,34.43,0,0,0,28,107.76c.05,0,1.93-1.85,4.19-4.11l4.1-4.1,1,.58A45.46,45.46,0,0,0,46,103.76l1.26.38,0,5.83,0,5.84.18,0A65,65,0,0,0,56,117C57.57,117.1,62.6,117,64.2,116.89Zm-7.52,1.76a62.73,62.73,0,0,1-9.83-1.28l-1.18-.25,0-5.88,0-5.88L44.48,105a49.67,49.67,0,0,1-7.14-3l-.81-.43-4.17,4.17-4.18,4.17-1.55-1A59.44,59.44,0,0,1,9.41,91.43l-.6-.94L13,86.33l4.16-4.16-.66-1.33a47.72,47.72,0,0,1-2.78-6.71l-.35-1.08L7.46,73,1.57,73l-.21-1a59.68,59.68,0,0,1,0-25.14l.25-1.18,5.88,0,5.89,0,.41-1.23a42.45,42.45,0,0,1,2.53-6.16l.87-1.78L13,32.32C10.73,30,8.87,28.15,8.88,28.11s1.62-2.54,2.45-3.67A60.06,60.06,0,0,1,24.83,11c1.11-.79,3.11-2.12,3.31-2.19S29.82,10.38,32.4,13l4.15,4.16.72-.39a52.21,52.21,0,0,1,7.21-3l1.15-.38V1.6l.18-.07C46.05,1.42,48.47.94,50,.7A52.72,52.72,0,0,1,59.38,0,52.94,52.94,0,0,1,71.32,1.18L73,1.53s0,2.65,0,5.9v5.91l.26.06c.53.11,3.44,1.17,4.73,1.72.74.32,2,.89,2.75,1.28l1.4.7L86.34,13c2.28-2.28,4.17-4.15,4.21-4.15s.72.44,1.53,1a57.09,57.09,0,0,1,9,7.3,53.83,53.83,0,0,1,4.33,4.72,67,67,0,0,1,4.48,6.33s-1.2,1.28-2.68,2.76l-2.69,2.68H88.36L86.76,32a38,38,0,0,0-12.22-8.31,38.57,38.57,0,0,0-32,.78,38.77,38.77,0,0,0,9.74,73,39.43,39.43,0,0,0,13.18.19,38.31,38.31,0,0,0,15-5.77,36.46,36.46,0,0,0,6.36-5.17l1.6-1.59h16.2l5.35,5.34-.19.33c-.38.67-1.79,2.72-2.74,4a59.58,59.58,0,0,1-12.5,12.42c-1.09.8-3.71,2.56-3.87,2.6s-1.94-1.84-4.22-4.12l-4.15-4.13-1.32.66a50.64,50.64,0,0,1-7.14,2.92l-.73.21v11.79l-.25,0-1.43.29a61,61,0,0,1-7.48,1.06C62.07,118.67,58.38,118.73,56.68,118.65Z"/></g></g></svg>