<?xml version="1.0" encoding="UTF-8" standalone="no"?>
<!-- Generator: Adobe Illustrator 24.3.0, SVG Export Plug-In . SVG Version: 6.00 Build 0)  -->

<svg
   xmlns:dc="http://purl.org/dc/elements/1.1/"
   xmlns:cc="http://creativecommons.org/ns#"
   xmlns:rdf="http://www.w3.org/1999/02/22-rdf-syntax-ns#"
   xmlns:svg="http://www.w3.org/2000/svg"
   xmlns="http://www.w3.org/2000/svg"
   xmlns:sodipodi="http://sodipodi.sourceforge.net/DTD/sodipodi-0.dtd"
   xmlns:inkscape="http://www.inkscape.org/namespaces/inkscape"
   version="1.1"
   x="0px"
   y="0px"
   viewBox="0 0 800 510"
   xml:space="preserve"
   id="svg135"
   sodipodi:docname="logo_final.svg"
   width="800"
   height="510"
   inkscape:version="0.92.4 (5da689c313, 2019-01-14)"><metadata
   id="metadata141"><rdf:RDF><cc:Work
       rdf:about=""><dc:format>image/svg+xml</dc:format><dc:type
         rdf:resource="http://purl.org/dc/dcmitype/StillImage" /><dc:title></dc:title></cc:Work></rdf:RDF></metadata><defs
   id="defs139" /><sodipodi:namedview
   pagecolor="#ffffff"
   bordercolor="#666666"
   borderopacity="1"
   objecttolerance="10"
   gridtolerance="10"
   guidetolerance="10"
   inkscape:pageopacity="0"
   inkscape:pageshadow="2"
   inkscape:window-width="1920"
   inkscape:window-height="1017"
   id="namedview137"
   showgrid="false"
   inkscape:zoom="0.36307692"
   inkscape:cx="400"
   inkscape:cy="325"
   inkscape:window-x="-8"
   inkscape:window-y="-8"
   inkscape:window-maximized="1"
   inkscape:current-layer="svg135" />
<style
   type="text/css"
   id="style2">
	.st0{display:none;}
	.st1{display:inline;fill:#1B2748;}
	.st2{fill:#25378A;}
	.st3{fill:#2C4A9A;}
	.st4{fill:#2B499A;}
	.st5{fill:#2C4B9B;}
	.st6{fill:#2C4E9D;}
	.st7{fill:#2D4E9D;}
	.st8{fill:#FFFFFF;}
	.st9{fill:#2F4C9C;}
	.st10{fill:none;}
	.st11{opacity:0.6;fill:#FFFFFF;}
	.st12{fill:#273579;}
	.st13{display:none;fill:#E12013;}
	.st14{display:none;fill:#BC1818;}
	.st15{fill:#E12013;}
	.st16{fill:#BC1818;}
	.st17{display:inline;}
	.st18{fill:#010202;}
	.st19{fill:#001437;}
	.st20{fill:#00305B;}
	.st21{display:inline;fill:#010202;}
</style>
<g
   id="Warstwa_2"
   class="st0"
   style="display:none"
   transform="translate(0,-140)">
</g>
<g
   id="Warstwa_1"
   transform="translate(0,-140)">
	<g
   id="Warstwa_11">
	</g>
</g>
<g
   id="Warstwa_9"
   transform="translate(0,-140)">
</g>
<g
   id="Warstwa_6"
   class="st0"
   style="display:none"
   transform="translate(0,-140)">
	<g
   id="Warstwa_10"
   class="st17"
   style="display:inline">
	</g>
	<g
   id="Warstwa_8"
   class="st17"
   style="display:inline">
	</g>
</g>
<g
   id="Warstwa_7"
   class="st0"
   style="display:none"
   transform="translate(0,-140)">
</g>
<g
   id="Warstwa_3"
   transform="translate(0,-140)">
	<g
   id="g126">
		<path
   d="M 787.8,436.1 C 787,405 777,376.5 761.2,359.9 c -10.1,-10.6 -21.2,-18.7 -33,-24 -11,-4.9 -22.5,-7.4 -34.3,-7.4 -22,0 -39.9,8.5 -50.9,15.7 -4,2.6 -7.7,5.5 -11.2,8.6 -3.4,-3.2 -7.2,-6 -11.2,-8.6 -8.2,-5.3 -16.9,-9.3 -25.9,-12 4.1,-11.8 7,-23.5 8.6,-35 0.1,-1 0.3,-2.1 0.4,-3.1 0.1,-0.4 0.1,-0.9 0.2,-1.3 0.5,-4.7 1.1,-10.9 1,-17.9 0.1,-16.2 -2.8,-32 -8.6,-46.7 -5.6,-14.4 -13.9,-27.4 -24.5,-38.7 -12.4,-13.2 -27.4,-23.5 -44.6,-30.6 -17.3,-7.2 -36.2,-10.8 -55.9,-10.8 -37.5,0 -74.9,13.3 -105.4,37.5 -28,22.2 -47.7,51.9 -55.9,84.1 -9.7,-7.8 -20.7,-14.2 -33,-18.9 -14.5,-5.6 -29.3,-8.2 -46.5,-8.2 -4.8,0 -9.9,0.2 -15.5,0.6 -29,2.2 -56.8,12.6 -80.4,30.3 -14.9,11.1 -28.2,26.6 -39.6,45.9 -11.8,20.3 -20.9,44 -27,70.6 -1.9,8.1 -0.1,16.5 4.8,23.1 4.9,6.5 12.2,10.3 20.1,10.3 H 93 c 13.1,0 25.5,-0.1 36.6,-0.1 -2.3,1.4 -4.6,2.8 -6.7,4.2 -1.4,0.9 -2.9,1.9 -4.3,2.9 -3.8,2.6 -7.6,5.4 -11.1,8.3 -3.6,2.8 -7.1,5.8 -10.4,8.8 -4.9,4.5 -9.7,9.2 -14.2,14.2 -16.8,18.4 -30.6,40.1 -42.1,66.2 -9.4,21.3 -17.4,45.4 -25,75.8 -2,8.1 -0.3,16.8 4.5,23.4 4.8,6.6 12.4,10.5 20.3,10.5 l 526.5,-0.1 c 8.5,0 16.4,-4.4 21.1,-11.7 15.9,11.3 28.1,17.4 32.8,19.6 l 0.5,0.2 c 3.3,1.6 6.9,2.4 10.5,2.4 3.6,0 7.1,-0.8 10.4,-2.3 l 0.6,-0.3 c 10.9,-5.1 67.6,-34 114.5,-105.8 26.3,-40.3 31,-78.6 30.3,-103.5 z M 469.1,290 c -0.8,7.1 -7.7,13 -15.5,13 -7.8,0 -13,-5.9 -11.8,-13 1.2,-6.9 8,-12.3 15.4,-12.3 7.3,0 12.7,5.4 11.9,12.3 z"
   id="path12"
   inkscape:connector-curvature="0" />
		<g
   id="g124">
			<g
   id="g120">
				<path
   class="st8"
   d="m 397.9,395.2 c -13.1,6.8 -26.6,12.2 -40.2,15.9 l -28,90.8 C 456.4,493.2 565.6,383 578,293.3 c 0.1,-0.8 0.2,-1.7 0.3,-2.5 0,-0.4 0.1,-0.8 0.1,-1.1 0.5,-4.7 0.9,-9.6 0.9,-14.8 0.5,-56.6 -45.8,-99.8 -108,-99.8 -66,0 -127.8,48.6 -138.3,110.3 -8.5,50 18.9,93.4 64.9,109.8 z m 15.9,-106 c 3.6,-21 24.6,-37.6 47.1,-37.6 22.5,0 38.9,16.6 36.6,37.6 -2.5,21.7 -23.7,39.8 -47.5,39.8 -23.8,0 -39.9,-18.1 -36.2,-39.8 z"
   id="path14"
   inkscape:connector-curvature="0"
   style="fill:#ffffff" />
				<path
   class="st8"
   d="m 136.8,552.5 c -1.1,0 -2,0.3 -2.6,1 -0.6,0.6 -1.2,2.1 -1.9,4.5 l -6.8,22.2 c -0.8,2.6 -1.1,4.2 -1,4.8 0.2,0.5 0.8,0.8 2,0.8 1.1,0 2,-0.3 2.5,-1 0.6,-0.6 1.2,-2.1 1.9,-4.3 l 6.9,-22.5 c 0.7,-2.4 1.1,-3.9 0.9,-4.5 -0.1,-0.7 -0.7,-1 -1.9,-1 z"
   id="path16"
   inkscape:connector-curvature="0"
   style="fill:#ffffff" />
				<g
   id="g106">
					<g
   id="g24">
						<g
   id="g22">
							<g
   id="g20">
								<path
   class="st15"
   d="m 743.1,379 c -31.3,-33.1 -65.5,-25.5 -86.7,-11.7 -19.4,12.5 -23.9,31.4 -24.6,34.7 -0.7,-3.3 -5.2,-22.2 -24.6,-34.7 -21.3,-13.8 -55.4,-21.3 -86.7,11.7 -20.3,21.4 -32.9,84.5 6.9,145.4 43.5,66.4 95.5,92.5 103.8,96.4 l 0.6,0.3 0.6,-0.3 c 8.3,-3.9 60.3,-29.9 103.8,-96.4 39.8,-60.9 27.3,-124 6.9,-145.4 z"
   id="path18"
   inkscape:connector-curvature="0"
   style="fill:#e12013" />
							</g>
						</g>
					</g>
					<g
   id="g104">
						<g
   id="g102">
							<path
   class="st8"
   d="m 706.5,404.3 -3.5,-0.3 -0.7,16.1 -2.9,-0.2 -0.2,5.6 3.2,0.2 -0.7,19.4 c -0.1,5.3 1.5,8 5,8.2 2.5,0.1 4.1,-1.5 4.8,-4.6 l 0.3,-4.9 -3.2,-0.5 c -0.4,2.6 -1.1,3.8 -2.1,3.8 -0.9,0 -1.4,-0.5 -1.5,-1.5 l -0.1,-1.4 0.7,-18.1 4.9,0.4 0.2,-5.3 -5,-0.7 z"
   id="path26"
   inkscape:connector-curvature="0"
   style="fill:#ffffff" />
							<path
   class="st8"
   d="m 736,426.4 c -0.2,-1.5 -0.4,-2.6 -0.6,-3.3 -0.9,-1.9 -2.6,-2.9 -5.3,-2.9 -2.6,-0.1 -4.4,1.4 -5.4,4.3 -0.4,1.5 -0.6,2.9 -0.6,4.3 l 3.6,-0.2 c -0.1,-0.7 0,-1.4 0.1,-2.2 0.3,-1.4 0.9,-2 1.8,-2.1 1.5,-0.1 2.2,2.4 2.1,7.2 -1.5,0 -3.2,0.5 -4.8,1.4 -3.2,1.9 -4.9,5.1 -5,9.8 -0.1,4.2 0.9,7.1 2.9,8.8 1.1,0.9 2.4,1.2 3.7,1.2 2.3,-0.2 3.6,-1.3 4,-3.6 l 0.1,3.4 4.4,-0.1 z m -9.9,15.5 c 0,-1.6 0.4,-3 1.2,-4.3 1,-1.5 2.6,-2.5 4.6,-2.6 0.1,0 0.1,2.3 0.4,7 0.2,3.6 -0.7,5.6 -2.6,5.7 -2.5,0.3 -3.7,-1.7 -3.6,-5.8 z"
   id="path28"
   inkscape:connector-curvature="0"
   style="fill:#ffffff" />
							<path
   class="st8"
   d="m 718,420 -3.6,0.1 -0.2,31.7 h 4.4 c -0.3,-11.1 -0.3,-18 -0.1,-20.6 0.1,-2 0.7,-3.6 1.8,-4.7 0.8,-0.8 1.7,-1.3 2.7,-1.5 0.1,0 0.2,-1.6 0.2,-4.9 -1.7,0.1 -3.4,1.3 -5.1,3.9 -0.1,0 -0.1,-1.2 -0.1,-4 z"
   id="path30"
   inkscape:connector-curvature="0"
   style="fill:#ffffff" />
							<path
   class="st8"
   d="m 685.6,433.2 c -0.1,-2.2 -0.4,-4.5 -0.9,-6.7 -1.2,-4.5 -3,-6.7 -5.7,-6.7 -2.8,0.1 -5,1.7 -6.5,5 -1.2,2.5 -1.8,5.2 -1.8,8.1 0,4.3 0.4,7.3 1.4,9.1 2.1,4.4 6.4,6.6 13,6.4 0.1,0 0,-1.8 -0.3,-5.3 -1.6,0.3 -3.2,0.2 -4.7,-0.5 -3.2,-1.2 -4.7,-4.3 -4.6,-9.2 z m -9.9,-2.6 c -0.3,0 -0.1,-1.2 0.4,-3.6 0.5,-2.3 1.3,-3.5 2.3,-3.6 1.5,-0.1 2.3,2.4 2.6,7.1 -2.8,0.2 -4.5,0.2 -5.3,0.1 z"
   id="path32"
   inkscape:connector-curvature="0"
   style="fill:#ffffff" />
							<path
   class="st8"
   d="m 697.5,421.5 c -1.2,-0.5 -2.4,-0.9 -3.7,-0.7 -2.6,0.1 -4.3,2 -4.9,5.6 -0.4,2.6 0.1,5.4 1.7,8.3 1.8,3.2 2.8,5.6 2.8,6.8 0.1,2.6 -0.9,4.3 -2.9,5.3 l -3.1,0.5 0.2,5.4 c 4,0 6.8,-1.2 8.6,-3.6 1.1,-1.5 1.6,-3.4 1.6,-5.5 -0.1,-3.3 -1.1,-6.7 -2.9,-10.1 -1.5,-2.7 -2.1,-4.9 -1.5,-6.4 0.4,-1.4 1.2,-1.9 2.2,-1.9 0.5,0 1,0.2 1.5,0.5 z"
   id="path34"
   inkscape:connector-curvature="0"
   style="fill:#ffffff" />
							<path
   class="st8"
   d="m 712.4,464.8 c -1.1,-0.1 -1.8,0.6 -2.4,2 -0.2,0.7 -0.4,1.4 -0.4,2.1 l 0.3,2.2 c 0.4,1.5 1.3,2.3 2.8,2.3 0.7,0.1 1.4,-0.5 1.9,-1.8 0.4,-1.1 0.7,-2 0.6,-2.9 -0.1,-2.6 -1.1,-3.9 -2.8,-3.9 z"
   id="path36"
   inkscape:connector-curvature="0"
   style="fill:#ffffff" />
							<path
   class="st8"
   d="m 687.9,477.3 c -0.7,-0.5 -1.7,-0.9 -2.9,-1 -1.7,-0.2 -3,0.2 -4.2,1.2 -0.7,0.9 -1.2,1.3 -1.2,1.3 l -0.1,-5 c 0,-0.2 -1.4,-0.2 -4,0.1 l -0.3,30.2 c 3.1,0 4.6,-0.1 4.6,-0.2 0,-0.5 0.1,-6.7 0.2,-18.9 0.3,-2.2 1.3,-3.4 3,-3.5 1.4,0 2.3,0.9 2.6,2.7 0.2,13.1 0.4,19.7 0.4,19.9 3.5,-0.1 5.3,-0.2 5.4,-0.2 -0.2,-12.8 -0.5,-19.8 -0.8,-21.2 -0.7,-2.5 -1.6,-4.4 -2.7,-5.4 z"
   id="path38"
   inkscape:connector-curvature="0"
   style="fill:#ffffff" />
							<path
   class="st8"
   d="m 705.2,481.1 c -1.3,-1.4 -2.8,-2.1 -4.4,-2.2 -1.5,-0.1 -2.9,0.5 -4.3,1.8 -2.5,2.2 -3.7,6.1 -3.6,11.8 0.1,7.4 2.2,12.1 6.4,14.2 1.4,0.6 2.9,1 4.8,1.1 1,0 2.1,0 3.5,-0.1 0.1,0 0.1,-1.6 0,-5 -1.7,0.2 -3.2,0.1 -4.8,-0.5 -3.2,-1.2 -4.8,-3.7 -4.8,-7.7 0,-0.2 1.8,-0.3 5.5,-0.4 3.6,-0.2 5.4,-0.2 5.4,-0.3 -0.1,-6 -1.4,-10.2 -3.7,-12.7 z m -6.3,3.2 c 0.4,-0.8 0.8,-1.2 1.2,-1.5 2.6,-0.1 4,2.6 4.4,8 -4.5,0.2 -6.8,0.2 -6.8,0.2 0,-3 0.4,-5.3 1.2,-6.7 z"
   id="path40"
   inkscape:connector-curvature="0"
   style="fill:#ffffff" />
							<path
   class="st8"
   d="m 715.3,480.2 -4.6,0.2 1,27.5 c -0.2,9.5 -3.2,14.5 -9,14.6 -0.1,4.8 0.1,7.2 0.3,7.2 4.5,0 8.1,-2.2 10.6,-6.6 2.1,-3.6 3.2,-7.5 3.2,-11.8 0,-0.5 -0.5,-10.8 -1.5,-31.1 z"
   id="path42"
   inkscape:connector-curvature="0"
   style="fill:#ffffff" />
							<path
   class="st8"
   d="m 664.6,411.6 c -0.1,2.2 0.6,3.4 1.9,3.4 1,0.1 1.6,-0.5 2,-1.8 0.3,-0.8 0.4,-1.5 0.4,-2.2 -0.1,-1.7 -0.9,-2.6 -2.2,-2.6 -1.2,0.1 -1.9,1.1 -2.1,3.2 z m 1.2,0.9 c 0.1,-0.1 0.1,-0.1 0,0 0.1,0.1 0.1,0.2 0.1,0.3 0,-0.1 -0.1,-0.2 -0.1,-0.3 z"
   id="path44"
   inkscape:connector-curvature="0"
   style="fill:#ffffff" />
							<path
   class="st8"
   d="m 654.4,402.8 -3.8,0.2 -1.7,45.6 4.2,-0.2 0.3,-14.3 4.3,14.1 5.4,0.2 -7.5,-16.6 7.7,-12.7 -4.3,-0.2 -5.5,7.9 z"
   id="path46"
   inkscape:connector-curvature="0"
   style="fill:#ffffff" />
							<path
   class="st8"
   d="m 582.7,399.1 h -4.4 l 0.7,49.1 h 4.4 z"
   id="path48"
   inkscape:connector-curvature="0"
   style="fill:#ffffff" />
							<path
   class="st8"
   d="m 591.5,398.3 h -4.4 l -0.7,50.3 h 3.7 v -10.8 l 3.4,11 4.6,-0.2 -6.6,-17.7 8.1,-13.2 h -4.4 l -4.4,7 z"
   id="path50"
   inkscape:connector-curvature="0"
   style="fill:#ffffff" />
							<path
   class="st8"
   d="m 602.5,424.4 c 0.7,-0.9 1.3,-1.2 2.1,-1.2 1.2,0 2.1,1.8 2.4,5.4 0,-0.2 -1.8,1.4 -5.3,4.7 -0.5,0.5 -1,1.2 -1.5,2.2 -1,1.8 -1.5,3.6 -1.4,5.5 0,2.4 0.7,4.3 1.8,5.4 0.8,0.8 1.8,1.2 2.8,1.2 2.8,0 4.6,-1.6 5.4,-4.9 l 1.2,4.6 3.8,-0.2 c -0.1,-6.4 -0.7,-13.2 -1.7,-20.3 -0.6,-4.7 -1.9,-7.8 -3.8,-9.2 -0.7,-0.5 -1.8,-0.8 -3.1,-0.8 -3.2,0 -5.4,2.7 -6.3,8.2 l 3,0.7 z m 3.9,17.4 c -1,1.2 -1.9,1.5 -2.8,0.9 -0.7,-0.4 -1,-1 -1.1,-1.8 -0.1,-1.5 0.3,-2.9 1.2,-4.3 0.9,-1.6 2.2,-2.7 3.7,-3.5 0.1,5 -0.2,8 -1,8.7 z"
   id="path52"
   inkscape:connector-curvature="0"
   style="fill:#ffffff" />
							<path
   class="st8"
   d="m 571.7,420.7 c -1.8,-1.8 -3.7,-2.3 -6.1,-1.7 -2.4,0.7 -4,2.8 -4.8,6.3 -0.5,2.3 -0.8,4.3 -0.8,5.6 -0.1,0.6 0.1,2.7 0.3,6 0.3,4.6 2.1,8.1 5.5,10.1 1.8,1.2 5.1,1.5 9.5,0.8 l -0.7,-6.2 c -2.4,1.1 -4.6,1.1 -6.7,0.2 -1.3,-0.6 -2.2,-2 -2.9,-4.3 l -0.5,-3.2 c 6.2,-0.4 9.7,-0.7 10.4,-0.9 -0.5,-6.7 -1.6,-11 -3.2,-12.7 z m -2.9,4 c 0.4,0.6 0.8,1.7 1.3,3.3 0.4,1.5 0.6,2.3 0.4,2.4 -3.9,0.5 -5.9,0.7 -5.9,0.5 -0.3,-2.5 -0.2,-4.4 0.2,-5.8 0.4,-1.2 1,-1.9 1.6,-1.9 0.9,-0.1 1.7,0.4 2.4,1.5 z"
   id="path54"
   inkscape:connector-curvature="0"
   style="fill:#ffffff" />
							<path
   class="st8"
   d="m 593.5,462.5 c -1.1,-0.1 -1.7,0.9 -1.8,3.1 0,0.8 0.3,1.5 0.8,1.9 0.5,0.5 1,0.7 1.4,0.7 1.3,0 2,-1 1.9,-3 -0.1,-1.7 -0.8,-2.6 -2.3,-2.7 z m 0.2,2.1 c 0,0.2 0.1,0.3 0,0.5 -0.1,0 -0.2,-0.1 -0.2,-0.2 v 0 c 0,-0.2 0,-0.3 0.2,-0.3 0,-0.1 0,-0.1 0,0 z"
   id="path56"
   inkscape:connector-curvature="0"
   style="fill:#ffffff" />
							<path
   class="st8"
   d="m 577.4,478.7 h -2.7 l -2.9,12.5 -3.4,-11.9 -4.7,0.3 6.6,26.3 h 3.7 l 2.2,-15.5 5.9,15.5 h 4.4 l 3.7,-27.9 h -4.4 l -2.9,17 z"
   id="path58"
   inkscape:connector-curvature="0"
   style="fill:#ffffff" />
							<path
   class="st8"
   d="m 621.4,460 -3.5,-0.1 -0.2,15.1 -3.9,-0.2 v 6.6 h 4 c -0.4,12.7 -0.6,19.5 -0.6,20.4 0,4.8 1.5,7.1 4.6,7 2.3,-0.1 4,-1.8 5.1,-5.1 l 0.8,-5 H 624 c -0.4,2.2 -1.2,3.2 -2.1,3.3 -0.6,0 -1,-0.5 -1.3,-1.6 l -0.3,-1.6 0.4,-17.3 5,-0.2 -0.3,-5.6 -4.3,-0.2 z"
   id="path60"
   inkscape:connector-curvature="0"
   style="fill:#ffffff" />
							<path
   class="st8"
   d="m 597.8,484 3.4,0.5 0.5,-1.6 c 0.5,-1 1.2,-1.6 2.3,-1.7 2.1,-0.2 3.4,1.1 3.7,3.8 0,0.5 -0.4,1.1 -1.3,1.8 -1.3,0.9 -2.3,1.6 -3,2.2 -3,2.3 -4.5,5.2 -4.5,8.4 0,3.5 0.5,5.7 1.5,6.8 0.7,0.7 1.9,1.1 3.7,1.2 2.3,0.1 4.3,-1.9 5.8,-6.1 l 0.5,5.4 4.5,-0.2 c -1,-11.8 -1.8,-18.7 -2.6,-21.1 -1.5,-4.1 -4.3,-6.2 -8.3,-6.3 -2.4,0 -4,1.1 -5.2,3.4 -0.5,1.2 -0.9,2.4 -1,3.5 z m 7.5,7.3 c 1.5,-1.3 2.4,-1.9 2.7,-1.8 l 0.2,5.5 c -0.4,2.6 -1.3,4.3 -3,5.2 -1,0.5 -1.8,0.4 -2.3,-0.5 -0.7,-0.9 -0.8,-2.2 -0.6,-3.9 0.3,-1.5 1.3,-3 3,-4.5 z"
   id="path62"
   inkscape:connector-curvature="0"
   style="fill:#ffffff" />
							<path
   class="st8"
   d="m 596.1,478.5 h -3.9 l -1.1,27.1 5.3,0.2 z"
   id="path64"
   inkscape:connector-curvature="0"
   style="fill:#ffffff" />
							<path
   class="st8"
   d="m 648.2,424.9 c 0.1,0 0.3,-2.2 0.4,-6.7 -1.5,0 -2.9,0.6 -4.3,2.1 -1,1.6 -1.5,2.3 -1.6,2.3 0,-1.7 0.1,-3 0.1,-4 l -3.2,-0.3 c -0.4,18.7 -0.7,28.6 -1,30 l 4.6,-0.1 0.1,-19.5 1.2,-1.9 c 0.9,-1.3 2.2,-1.9 3.7,-1.9 z"
   id="path66"
   inkscape:connector-curvature="0"
   style="fill:#ffffff" />
							<path
   class="st8"
   d="m 634,421.7 c -1.2,-1.6 -2.6,-2.5 -4.3,-2.4 -1.1,0.2 -2.2,0.9 -3.4,2.2 -2.3,2.6 -3.6,6.4 -4,11.7 -0.3,5.4 0.4,9.4 2.3,12 1.2,1.7 2.7,2.6 4.3,2.6 4.6,0.2 7,-4.5 7.3,-13.9 0.3,-5.6 -0.5,-9.7 -2.2,-12.2 z m -3.9,2.6 c 2.1,-0.1 3.1,3 3,9.3 0,3.2 -0.4,5.7 -1.4,7.4 -0.7,1.2 -1.5,1.9 -2.4,1.9 -1.2,0.1 -2.1,-1 -2.8,-3.2 -0.7,-1.9 -0.9,-3.8 -0.8,-5.8 0.4,-6.2 1.9,-9.4 4.4,-9.6 z"
   id="path68"
   inkscape:connector-curvature="0"
   style="fill:#ffffff" />
							<path
   class="st8"
   d="m 635.4,476.4 c -1.8,0.1 -3.5,0.9 -4.8,2.6 -2,2.4 -2.9,5.9 -2.6,10.5 0.4,8.6 3.2,13.5 8.4,14.6 2.6,0.5 5.2,0.2 7.7,-0.9 l -1,-5.9 c -4.4,1.6 -7.5,0.9 -9.2,-1.8 -0.8,-1.4 -1.3,-3.2 -1.3,-5.5 6.9,-0.5 10.6,-0.7 10.9,-0.8 0.4,-8.7 -2.3,-13 -8.1,-12.8 z m 1.2,3.8 c 0.4,0.1 0.7,0.2 1,0.5 1.1,0.9 1.8,2.9 2.1,6.1 0,0 -1.1,0.2 -3.3,0.3 -2.3,0.2 -3.6,0.2 -4,0.2 -0.1,0 -0.1,-0.3 0,-1.1 0,-0.9 0.1,-1.6 0.4,-2.4 0.6,-2.4 1.7,-3.6 3.4,-3.6 z"
   id="path70"
   inkscape:connector-curvature="0"
   style="fill:#ffffff" />
							<path
   class="st8"
   d="m 652.9,478.1 c -4,1.8 -6.4,6 -7,12.3 -0.7,7.3 0.7,12.3 4.2,15.2 2.4,1.9 5,2.6 7.6,1.9 0.1,-0.1 -0.1,-1.9 -0.6,-5.7 -4.7,-0.3 -7,-3.6 -6.8,-9.9 0.1,-2.8 1,-5 2.7,-6.4 1.5,-1.4 3.4,-2 5.4,-1.9 0.1,0 0.2,-2.2 0.2,-6.4 -1.7,-0.3 -3.6,0 -5.7,0.9 z"
   id="path72"
   inkscape:connector-curvature="0"
   style="fill:#ffffff" />
							<path
   class="st8"
   d="m 661.7,482.9 c 3.8,-0.2 5.8,-0.3 5.9,-0.1 0.2,0.1 -2.2,8.4 -7.1,24.6 2.9,0.2 6.8,0.4 12,0.4 0.1,0 0.2,-1.6 0.4,-4.6 -3,0 -4.9,-0.1 -5.7,-0.1 -0.1,0 0.9,-4.3 3,-12.9 2.2,-8.7 3.2,-13 3.1,-13 h -11.7 c -0.1,0.7 -0.1,2.7 0.1,5.7 z"
   id="path74"
   inkscape:connector-curvature="0"
   style="fill:#ffffff" />
							<path
   class="st8"
   d="m 554.5,411 c 0.6,0.2 1.1,0 1.5,-0.5 1.7,-2.3 1.2,-3.9 -1.5,-4.7 -0.8,0.1 -1.4,0.5 -1.8,1.3 -1,2.1 -0.4,3.4 1.8,3.9 z"
   id="path76"
   inkscape:connector-curvature="0"
   style="fill:#ffffff" />
							<path
   class="st8"
   d="m 557,422.4 h -3.7 l -0.7,26.2 h 5.1 z"
   id="path78"
   inkscape:connector-curvature="0"
   style="fill:#ffffff" />
							<path
   class="st8"
   d="m 561.4,459.5 -4.7,0.3 1.8,8.2 h 2.9 z"
   id="path80"
   inkscape:connector-curvature="0"
   style="fill:#ffffff" />
							<path
   class="st8"
   d="m 560.3,477.8 c 0.8,0.1 1.6,0.3 2.3,0.7 l 1,-4.5 c -1.7,-0.5 -3.4,-0.6 -5.1,-0.5 -3.6,0.3 -5.7,2.2 -6.3,5.4 -0.5,2.8 0.1,5.8 1.9,9.1 1.9,3.5 2.9,6.3 2.7,8.4 -0.1,2.3 -1.3,4 -3.5,5.2 -1.2,0.5 -2.3,0.9 -3.3,1 l 0.5,5.6 c 1.8,0 3.7,-0.5 5.5,-1.5 3.7,-1.9 5.5,-5 5.6,-9.4 0,-2.5 -1,-5.7 -2.8,-9.7 -1.6,-3.5 -2.3,-5.9 -1.8,-7.3 0.5,-1.7 1.6,-2.5 3.3,-2.5 z"
   id="path82"
   inkscape:connector-curvature="0"
   style="fill:#ffffff" />
							<path
   class="st8"
   d="m 646.5,534.5 c -0.9,2.4 -1.3,4.7 -1.4,7 0,3.9 0.4,7.1 1.5,9.8 1.3,3.4 3.2,5.1 5.9,5.3 2.6,0.1 4.4,-1.9 5.6,-5.9 0.8,-3 1.2,-6.6 1,-10.7 -0.1,-2.7 -0.6,-5.1 -1.5,-7 -1.2,-2.6 -3,-3.9 -5.4,-3.8 -2.5,0 -4.4,1.8 -5.7,5.3 z m 2.5,7.3 c 0.3,-4.8 1.3,-7.3 3.1,-7.3 2.2,-0.1 3.2,2.4 3.2,7.4 0,5.8 -1.1,8.7 -3.4,8.6 -0.9,-0.1 -1.6,-1.1 -2.2,-3.2 -0.5,-1.9 -0.8,-3.6 -0.7,-5.5 z"
   id="path84"
   inkscape:connector-curvature="0"
   style="fill:#ffffff" />
							<path
   class="st8"
   d="m 637.3,531 c -1.8,0.2 -3.2,1.1 -4.3,2.7 -0.5,0.9 -1,1.7 -1.1,2.6 -0.4,-3.5 -1.8,-5.2 -4.5,-5 -1.2,0.1 -2.3,0.5 -3.3,1.5 -0.5,0.5 -0.8,0.9 -1.1,1.4 l 0.1,-3.3 -4,0.1 -1.1,27.9 4.6,-0.1 c 0.1,-9.8 0.3,-15.5 0.5,-17 0.3,-2.6 1.3,-4.1 3,-4.3 1.6,-0.2 2.6,0.7 2.8,2.7 l -0.7,18.8 4.8,0.1 0.1,-17.7 c 0.2,-2.2 1,-3.4 2.4,-3.5 1.4,-0.1 2.1,0.9 2.1,2.9 l 0.1,18.3 5.5,0.1 -0.7,-23.2 c -0.2,-3.6 -2,-5.2 -5.2,-5 z"
   id="path86"
   inkscape:connector-curvature="0"
   style="fill:#ffffff" />
							<path
   class="st8"
   d="m 666,539.7 c 0,-2 0.5,-3.7 1.5,-5 1.2,-1.6 2.9,-2.4 5,-2.4 0.3,-3.7 0.4,-5.7 0.3,-5.7 -7.3,-0.4 -11.1,3.8 -11.3,12.6 -0.2,6.3 0.9,10.8 3.4,13.7 1.9,2.3 4.4,3.5 7.6,3.5 0.1,0 0.1,-2.4 0.1,-7.1 -2,-0.3 -3.5,-1.3 -4.8,-3 -1.2,-1.8 -1.8,-4 -1.8,-6.6 z"
   id="path88"
   inkscape:connector-curvature="0"
   style="fill:#ffffff" />
							<path
   class="st8"
   d="m 613.6,509.5 c 0,-0.1 -1,-0.1 -2.8,0 -0.2,2.1 -0.2,3.6 -0.1,4.5 0.2,1.4 0.8,2.6 1.8,3.5 2.6,-1.2 3.9,-1.9 3.9,-1.9 -1,-0.9 -1.7,-2.2 -2.3,-3.8 -0.3,-1.5 -0.5,-2.2 -0.5,-2.3 z"
   id="path90"
   inkscape:connector-curvature="0"
   style="fill:#ffffff" />
							<path
   class="st8"
   d="m 589.5,526 h -4.3 l -0.4,45 4.9,-0.2 -0.1,-16.3 c 1.1,0.8 2.6,1.2 4.6,1.2 2,-0.1 3.6,-1.5 4.6,-4.5 0.8,-2.4 1.2,-5.2 1.1,-8.3 -0.3,-5.8 -1.2,-9.9 -3.1,-12.4 -1.2,-1.7 -2.6,-2.5 -4,-2.5 -1.8,0.1 -2.9,0.9 -3.5,2.7 0.2,0.2 0.2,-1.4 0.2,-4.7 z m 1.4,8.3 0.9,-0.3 c 2.5,0.1 3.8,3.2 4.1,9.3 -0.4,4.9 -1.5,7.3 -3.4,7.3 -0.6,-0.1 -1.2,-0.3 -1.9,-0.8 l -0.8,-0.8 c -0.4,-1.5 -0.7,-3.7 -0.7,-6.9 0.1,-2.3 0.1,-4.2 0.4,-5.4 0.3,-1.2 0.7,-2 1.4,-2.4 z"
   id="path92"
   inkscape:connector-curvature="0"
   style="fill:#ffffff" />
							<path
   class="st8"
   d="m 616.8,540.7 c -0.1,-4.3 -0.4,-7.2 -1,-9 -1,-3.1 -2.9,-4.6 -5.9,-4.6 -4.3,-0.1 -6.6,4.2 -6.9,12.9 -0.5,11.1 1.5,16.5 6.1,16.4 2.6,-0.1 4.5,-1.6 5.9,-4.6 1.2,-2.8 1.8,-6.5 1.8,-11.1 z m -7,-7.6 c 2,-0.2 3.2,2.2 3.5,7.1 0.2,6.7 -1,10.1 -3.6,10.4 -1.3,0.2 -2.3,-1.4 -2.7,-4.8 -0.2,-2.2 -0.3,-4.1 -0.2,-5.7 0.1,-1.5 0.4,-3 1,-4.4 0.5,-1.6 1.3,-2.5 2,-2.6 z"
   id="path94"
   inkscape:connector-curvature="0"
   style="fill:#ffffff" />
							<polyline
   class="st8"
   points="687,533 681.9,549.2 679.3,531.3 674.6,531 679.1,559.1 671.5,573 677.8,575.9 692.7,533.3          687,533        "
   id="polyline96"
   style="fill:#ffffff" />
							<polyline
   class="st8"
   points="664.5,422.8 664,448.1 668.7,448.2 668.2,422.9 664.5,422.8        "
   id="polyline98"
   style="fill:#ffffff" />
							<polyline
   class="st8"
   points="542.3,449.4 537.2,434.8 533.5,449.4 529.1,449.4 524,423.2 527.7,423.2 531.3,439.4          534.3,423.2 537.9,423.2 543.1,439.4 546,421.6 550.4,421.6 546.7,449.4 542.3,449.4        "
   id="polyline100"
   style="fill:#ffffff" />
						</g>
					</g>
				</g>
				<g
   id="g116">
					<polygon
   class="st8"
   points="242.8,610.4 275,610.4 286.2,573.9 306.1,573.9 311.2,557.4 291.3,557.4 296.4,540.9 318.7,540.9 324.1,523.5 269.6,523.5 "
   id="polygon108"
   style="fill:#ffffff" />
					<polygon
   class="st8"
   points="337.2,610.4 364,523.5 331.9,523.5 305.1,610.4 "
   id="polygon110"
   style="fill:#ffffff" />
					<polygon
   class="st8"
   points="389.2,570.9 393.8,610.4 421.9,610.4 448.7,523.5 421.8,523.5 409.8,562.6 403.8,523.5 376.9,523.5 350.1,610.4 377,610.4 "
   id="polygon112"
   style="fill:#ffffff" />
					<path
   class="st8"
   d="m 470.8,523.5 -43.2,87 h 33.2 l 6.7,-15.6 H 479 l -3.1,15.6 h 32.9 l 8.4,-87 z m 12.2,55.9 h -11.1 c 3.2,-7.7 9,-19.9 17.4,-36.5 -2.8,14.5 -4.9,26.6 -6.3,36.5 z"
   id="path114"
   inkscape:connector-curvature="0"
   style="fill:#ffffff" />
				</g>
				<path
   class="st8"
   d="m 561.3,565.4 9.8,-1.5 c 0.9,-3.1 1.9,-6.2 2.8,-9.2 l -9.8,1.5 10.1,-32.7 H 542 l -11.6,37.8 -6.6,1 -2.8,9.2 6.6,-1 -12.3,39.9 H 567 l 5.4,-17.4 h -19.6 z"
   id="path118"
   inkscape:connector-curvature="0"
   style="fill:#ffffff" />
			</g>
			<path
   class="st8"
   d="m 322.4,332.1 c -0.9,-2.6 -1.9,-5.1 -3,-7.6 -2.7,-6.1 -6,-11.9 -9.7,-17.2 -10.2,-14.7 -25.2,-25 -41.3,-31.2 -17.1,-6.5 -33.4,-7.3 -51.5,-6 -24.3,1.8 -47.4,10.4 -67.3,25.4 -13.3,10 -24,23.5 -32.7,38.2 -9.8,16.6 -18.2,37.2 -24.1,62.6 40.6,-0.1 74.3,-0.2 85.4,-0.2 1.9,-5 4,-9.6 6.2,-13.8 5.4,-10 11.8,-18 19.5,-22.9 11.2,-7 30.7,-8.5 37,6.3 7.9,18.4 -8.1,36.8 -33.1,48.7 -12.4,5.9 -26.3,12.9 -42,19.9 -3.1,1.4 -6.2,2.8 -9.1,4.3 -3,1.5 -5.8,3 -8.7,4.6 -1.4,0.8 -2.7,1.6 -4.1,2.3 -2.7,1.6 -5.3,3.2 -7.8,4.9 -1.3,0.8 -2.5,1.7 -3.8,2.5 -3.4,2.3 -6.6,4.8 -9.8,7.3 -3.1,2.5 -6.2,5.1 -9.1,7.7 -4.4,4 -8.5,8.1 -12.4,12.4 -31.4,34.5 -48.1,79.2 -60.9,130.1 h 189.4 l 27,-87.6 h -74.7 v 0 c 2.5,-1.3 5,-2.6 7.5,-3.9 5.9,-3.1 23.2,-12.1 26,-13.4 4.2,-1.9 8.4,-3.9 12.5,-5.8 27.2,-13.1 52.1,-28 71,-50.9 5,-6.1 9.7,-12.8 13.8,-20.1 0.4,-0.7 0.8,-1.5 1.2,-2.3 0.3,-0.6 0.7,-1.2 1,-1.8 7.6,-14.8 12.1,-30.7 13.3,-46.6 1.4,-15.6 -0.5,-31.3 -5.7,-45.9 z M 87.4,584 h 16.8 l -2.4,7.7 H 68.1 l 2,-6.5 c 13.7,-12.1 22,-19.6 24.7,-22.4 2.8,-2.9 4.4,-5.1 4.9,-6.7 0.4,-1.2 0.4,-2.2 0,-2.8 -0.4,-0.6 -1.2,-0.9 -2.3,-0.9 -1.2,0 -2.1,0.3 -2.9,1 -0.8,0.7 -1.5,2 -2.1,4 l -1.3,4.3 H 77.3 l 0.5,-1.7 c 0.8,-2.5 1.6,-4.5 2.4,-6 0.8,-1.5 2.1,-2.9 4,-4.3 1.8,-1.4 4,-2.5 6.4,-3.2 2.5,-0.7 5.2,-1.1 8.3,-1.1 6.1,0 10.4,1.1 12.8,3.4 2.4,2.2 3.1,5.1 2.1,8.5 -0.8,2.6 -2.5,5.3 -5.2,8.2 -2.6,2.9 -9.7,9.1 -21.2,18.5 z m 52.4,4.8 c -2,1.4 -4.2,2.3 -6.7,2.9 -2.4,0.6 -5,0.9 -7.8,0.9 -3.7,0 -6.6,-0.3 -8.9,-0.9 -2.2,-0.6 -3.9,-1.6 -4.9,-2.9 -1,-1.3 -1.6,-2.7 -1.8,-4.2 -0.2,-1.5 0.3,-3.8 1.2,-7 l 4.9,-15.8 c 1.3,-4.2 2.7,-7.3 4.3,-9.4 1.6,-2.1 4.1,-3.7 7.3,-5 3.3,-1.3 7,-1.9 11.1,-1.9 3.4,0 6.2,0.4 8.6,1.3 2.4,0.9 4,1.9 5,3.2 0.9,1.3 1.4,2.7 1.4,4.2 0,1.6 -0.6,4.1 -1.6,7.5 l -4.7,15.1 c -1.1,3.4 -2.1,5.9 -3.1,7.5 -0.8,1.6 -2.3,3.1 -4.3,4.5 z m 55.7,-35.2 c 7.8,-1.2 14.1,-3.6 19.1,-7.3 h 9 l -14,45.4 h -15.3 l 7.5,-24.4 c 1.1,-3.5 1.6,-5.6 1.6,-6.3 0,-0.7 -0.5,-1.2 -1.4,-1.6 -0.9,-0.4 -3.1,-0.5 -6.7,-0.5 h -1.5 z m -5.5,-4.8 c 2.4,2.2 3.1,5.1 2.1,8.5 -0.8,2.6 -2.5,5.3 -5.2,8.2 -2.7,2.9 -9.7,9.1 -21.2,18.5 h 16.8 l -2.4,7.7 h -33.7 l 2,-6.5 c 13.7,-12.1 22,-19.6 24.7,-22.4 2.8,-2.9 4.4,-5.1 4.9,-6.7 0.4,-1.2 0.4,-2.2 0,-2.8 -0.4,-0.6 -1.2,-0.9 -2.3,-0.9 -1.2,0 -2.1,0.3 -2.9,1 -0.8,0.7 -1.5,2 -2.1,4 l -1.3,4.3 h -13.7 l 0.5,-1.7 c 0.8,-2.5 1.6,-4.5 2.4,-6 0.8,-1.5 2.1,-2.9 4,-4.3 1.8,-1.4 4,-2.5 6.4,-3.2 2.5,-0.7 5.2,-1.1 8.3,-1.1 6,0.1 10.3,1.2 12.7,3.4 z"
   id="path122"
   inkscape:connector-curvature="0"
   style="fill:#ffffff" />
		</g>
	</g>
	<circle
   class="st18"
   cx="452.70001"
   cy="286.29999"
   r="21.5"
   id="circle128"
   style="fill:#010202" />
</g>
<g
   id="Warstwa_4"
   class="st0"
   style="display:none"
   transform="translate(0,-140)">
</g>
<g
   id="Warstwa_5"
   class="st0"
   style="display:none"
   transform="translate(0,-140)">
	<rect
   x="-580"
   y="-613"
   class="st21"
   width="2078"
   height="3095"
   id="rect132"
   style="display:inline;fill:#010202" />
</g>
</svg>