<svg xmlns="http://www.w3.org/2000/svg" viewBox="0 0 352.46 93.64"><defs><style>.cls-1{fill:#fff;}.cls-2{fill:#93c01f;}</style></defs><g id="Warstwa_2" data-name="Warstwa 2"><g id="Warstwa_24" data-name="Warstwa 24"><path class="cls-1" d="M36.25,92.88H12.52A12.51,12.51,0,0,1,.43,77.12l1.82-6.81A12.53,12.53,0,0,1,3.65,67l12.7-20.85a12.28,12.28,0,0,1-1.54-1.68,12.5,12.5,0,0,1-2.16-10.86l2-7.64a12.53,12.53,0,0,1,12.1-9.28h23a12.52,12.52,0,0,1,12.1,15.77l-1.71,6.37a12.37,12.37,0,0,1-1.41,3.28L46.12,63a12.28,12.28,0,0,1,2.11,2.15A12.53,12.53,0,0,1,50.39,76l-2,7.63A12.52,12.52,0,0,1,36.25,92.88Z"/><path class="cls-1" d="M64.31,92.88H41.21A12.51,12.51,0,0,1,29.12,77.12L42.81,26a12.53,12.53,0,0,1,12.1-9.28h23A12.52,12.52,0,0,1,90,32.49l-2.06,7.69A12.52,12.52,0,0,1,82,47.82a12.7,12.7,0,0,1-.29,5l-2.1,7.83a12.55,12.55,0,0,1-2.81,5.16A12.55,12.55,0,0,1,78.45,76l-2,7.63A12.5,12.5,0,0,1,64.31,92.88Z"/><path class="cls-1" d="M84.77,92.88H69.06A12.51,12.51,0,0,1,57,77.12L70.66,26a12.53,12.53,0,0,1,12.1-9.28H96.07a46.66,46.66,0,0,1,8.3.71,23.33,23.33,0,0,1,10,4.23,19.24,19.24,0,0,1,7.18,11.28,26.76,26.76,0,0,1-.68,12.93,29,29,0,0,1-4,9,21.76,21.76,0,0,1,.49,2.48,28.15,28.15,0,0,1-1,11.16A37.41,37.41,0,0,1,112,78.74a29.78,29.78,0,0,1-7.35,8.05A29.25,29.25,0,0,1,95,91.52,37.25,37.25,0,0,1,84.77,92.88Z"/><path class="cls-1" d="M137.14,92.88H125.46a12.44,12.44,0,0,1-4.41-.8,12.55,12.55,0,0,1-4.42.8h-11.3A12.51,12.51,0,0,1,93.24,77.12L106.93,26A12.53,12.53,0,0,1,119,16.72H133.1a40.15,40.15,0,0,1,12.55,1.76A20.13,20.13,0,0,1,158,29.28c2.13,4.73,2.32,10.19.57,16.71a45.52,45.52,0,0,1-2.78,7.74,27.46,27.46,0,0,1-5.56,7.85l-.82.76.27,17.83a12.51,12.51,0,0,1-12.52,12.71Z"/><path class="cls-1" d="M173.22,92.88H162.8a12.62,12.62,0,0,1-5.49-1.26,12.43,12.43,0,0,1-5.49,1.26H141.16a12.51,12.51,0,0,1-11.39-17.72L153.12,24a12.53,12.53,0,0,1,11.39-7.32h12.87a12.52,12.52,0,0,1,12.48,13.54L185.7,81.38A12.52,12.52,0,0,1,173.22,92.88Z"/><path class="cls-1" d="M201,92.88H178a12.52,12.52,0,0,1-12.1-15.76L179.6,26a12.53,12.53,0,0,1,12.1-9.28H203a12.52,12.52,0,0,1,12.1,15.77L207.45,61a12.54,12.54,0,0,1,7.73,15l-2.05,7.63A12.52,12.52,0,0,1,201,92.88Z"/><path class="cls-1" d="M217,92.88h-11.3a12.52,12.52,0,0,1-12.1-15.76L207.29,26a12.53,12.53,0,0,1,12.1-9.28h11.29a12.52,12.52,0,0,1,12.1,15.77L229.08,83.6A12.51,12.51,0,0,1,217,92.88Z"/><path class="cls-1" d="M236.88,93.64a26.55,26.55,0,0,1-14.14-3.57,20.13,20.13,0,0,1-9.17-13.56c-.8-4.16-.55-8.89.76-14.47a12.53,12.53,0,0,1,6.49-8.29,25.13,25.13,0,0,1-.18-15.06,29.56,29.56,0,0,1,11.29-16.86,30.34,30.34,0,0,1,4.4-2.64l.16-.28,7.37-12.68A12.53,12.53,0,0,1,254.69,0h10.48a12.52,12.52,0,0,1,9.33,20.87L269.94,26a19.15,19.15,0,0,1,1.71,3.9,25.2,25.2,0,0,1,1,9.41A43.83,43.83,0,0,1,271.62,46a12.51,12.51,0,0,1-6.41,8.19c.11.26.21.53.31.79,1.82,4.89,1.91,10.44.28,16.52A29.77,29.77,0,0,1,260,82.76a30.24,30.24,0,0,1-10,7.88A29.28,29.28,0,0,1,236.88,93.64Z"/><path class="cls-1" d="M292.43,92.88h-8A12.32,12.32,0,0,1,281,92.4a12.32,12.32,0,0,1-3.44.48h-7.13a12.72,12.72,0,0,1-3.54-.5,12.5,12.5,0,0,1-3.53.5H255.2a12.51,12.51,0,0,1-12-15.95l14.58-51.12a12.52,12.52,0,0,1,12-9.09h12.11a12.5,12.5,0,0,1,5.84,1.45,12.53,12.53,0,0,1,5.84-1.45h11.67a12.52,12.52,0,0,1,12.15,15.57L304.58,83.41A12.53,12.53,0,0,1,292.43,92.88Z"/><path class="cls-1" d="M316.71,92.88H305.86a12.52,12.52,0,0,1-12.1-15.76l5.09-19-1.52-28.24a12.53,12.53,0,0,1,12.51-13.2H320.5a12.36,12.36,0,0,1,4.61.88,12.56,12.56,0,0,1,4.61-.88h10.22a12.53,12.53,0,0,1,10.82,18.83L334,64.33,328.81,83.6A12.52,12.52,0,0,1,316.71,92.88Z"/><path d="M12.52,80.36l1.83-6.81L36.67,36.88H24.74l2.05-7.63h23l-1.71,6.37L25.49,72.73H38.3l-2,7.63Z"/><path d="M36.25,88.53H12.52A8.17,8.17,0,0,1,4.63,78.25l1.83-6.82a8.2,8.2,0,0,1,.91-2.13l15-24.61a8.17,8.17,0,0,1-5.5-9.92l2-7.64a8.16,8.16,0,0,1,7.89-6.05h23a8.16,8.16,0,0,1,7.89,10.28L56,37.73a8.12,8.12,0,0,1-.91,2.14L39.93,64.72a8.15,8.15,0,0,1,6.25,10.12l-2,7.64A8.17,8.17,0,0,1,36.25,88.53Z"/><path d="M41.21,80.36l13.7-51.11h23l-2.06,7.69H64.14l-3.4,12.69h8.9l-2.1,7.82h-8.9L54.55,72.73h11.8l-2,7.63Z"/><path d="M64.31,88.53H41.21a8.17,8.17,0,0,1-7.89-10.28L47,27.13a8.17,8.17,0,0,1,7.89-6.05h23a8.16,8.16,0,0,1,7.89,10.28l-2.07,7.7a8.17,8.17,0,0,1-7.27,6,8.18,8.18,0,0,1,1.1,6.65l-2.1,7.83a8.17,8.17,0,0,1-5.66,5.74,8.16,8.16,0,0,1,4.47,9.53l-2,7.64A8.17,8.17,0,0,1,64.31,88.53Z"/><path d="M69.06,80.36l13.7-51.11H96.07a33.93,33.93,0,0,1,6.08.5,10.89,10.89,0,0,1,4.69,1.93,6.7,6.7,0,0,1,2.49,4,15.11,15.11,0,0,1-.56,6.91,16.46,16.46,0,0,1-2.31,5.21A12.17,12.17,0,0,1,103,51.21a12.4,12.4,0,0,1-4.47,1.7A7.63,7.63,0,0,1,103,54.84a6.82,6.82,0,0,1,2,4.13,16.21,16.21,0,0,1-.64,6.25,24.92,24.92,0,0,1-2.87,6.84,17.49,17.49,0,0,1-4.26,4.71,16.84,16.84,0,0,1-5.56,2.71,24.88,24.88,0,0,1-6.83.88Zm13.41-7.89h2.4a7.76,7.76,0,0,0,5.65-1.89A12,12,0,0,0,93.43,65a13.9,13.9,0,0,0,.6-4.61,3.13,3.13,0,0,0-1.42-2.49,6.92,6.92,0,0,0-3.7-.79H86.58Zm6.1-22.78h2.21a9.06,9.06,0,0,0,4.13-.79,5.74,5.74,0,0,0,2.41-2.3,15.17,15.17,0,0,0,1.46-3.66A6.54,6.54,0,0,0,99,39.56a3.24,3.24,0,0,0-1.59-2.05A7,7,0,0,0,94,36.82H92Z"/><path d="M84.77,88.53H69.06a8.17,8.17,0,0,1-7.89-10.28l13.7-51.12a8.16,8.16,0,0,1,7.89-6.05H96.07a42.8,42.8,0,0,1,7.53.63,19.12,19.12,0,0,1,8.15,3.43,14.89,14.89,0,0,1,5.54,8.77,22.56,22.56,0,0,1-.63,10.83,24.62,24.62,0,0,1-3.51,7.77c-.36.52-.74,1-1.14,1.49a16.26,16.26,0,0,1,1,3.88,23.9,23.9,0,0,1-.84,9.45,33.37,33.37,0,0,1-3.85,9.09,25.5,25.5,0,0,1-6.28,6.88,24.87,24.87,0,0,1-8.21,4A32.93,32.93,0,0,1,84.77,88.53Z"/><path d="M105.33,80.36,119,29.25H133.1a28.21,28.21,0,0,1,8.66,1.13,7.56,7.56,0,0,1,4.81,4.07c.88,2,.85,4.73-.11,8.3a32.8,32.8,0,0,1-2,5.62,14.87,14.87,0,0,1-3,4.26,14.71,14.71,0,0,1-4.69,3l.38,24.74H125.46L126,57.45h-3.21l-6.14,22.91ZM124.51,51h3.15a8.18,8.18,0,0,0,4-.85,6.75,6.75,0,0,0,2.52-2.46,15.09,15.09,0,0,0,1.57-3.88,8.5,8.5,0,0,0,.17-5.11c-.47-1.22-1.78-1.83-3.92-1.83H128.3Z"/><path d="M137.14,88.53H125.46a8.13,8.13,0,0,1-4.41-1.3,8.15,8.15,0,0,1-4.42,1.3h-11.3a8.17,8.17,0,0,1-7.89-10.28l13.7-51.12A8.17,8.17,0,0,1,119,21.08H133.1a35.72,35.72,0,0,1,11.19,1.54A15.6,15.6,0,0,1,154,31.08c1.7,3.77,1.81,8.28.34,13.78a41.43,41.43,0,0,1-2.52,7,22.94,22.94,0,0,1-4.67,6.6A21.37,21.37,0,0,1,145,60.3l.3,19.94a8.16,8.16,0,0,1-8.16,8.29Z"/><path d="M141.16,80.36l23.35-51.11h12.87l-4.16,51.11H162.8L164,69.57h-7.51l-4.66,10.79ZM159.3,62.82h5.43l2.63-19.94Z"/><path d="M173.22,88.53H162.8a8.16,8.16,0,0,1-5.49-2.12,8.15,8.15,0,0,1-5.49,2.12H141.16A8.17,8.17,0,0,1,133.73,77l23.35-51.12a8.16,8.16,0,0,1,7.43-4.77h12.87a8.16,8.16,0,0,1,8.14,8.83L181.36,81A8.18,8.18,0,0,1,173.22,88.53Z"/><path d="M178,80.36l13.7-51.11H203L191.34,72.73h11.74L201,80.36Z"/><path d="M201,88.53H178a8.17,8.17,0,0,1-7.89-10.28l13.7-51.12a8.17,8.17,0,0,1,7.89-6.05H203a8.16,8.16,0,0,1,7.89,10.28L202,64.56h1.09A8.16,8.16,0,0,1,211,74.84l-2.05,7.64A8.16,8.16,0,0,1,201,88.53Z"/><path d="M205.69,80.36l13.7-51.11h11.29L217,80.36Z"/><path d="M217,88.53h-11.3a8.17,8.17,0,0,1-7.89-10.28l13.7-51.12a8.17,8.17,0,0,1,7.89-6.05h11.29a8.16,8.16,0,0,1,7.89,10.28L224.88,82.48A8.17,8.17,0,0,1,217,88.53Z"/><path d="M236.88,81.12a14.4,14.4,0,0,1-7.56-1.7,7.57,7.57,0,0,1-3.45-5.27,22.87,22.87,0,0,1,.65-9.25l10-1.45a23.93,23.93,0,0,0-.82,5.3,4.47,4.47,0,0,0,.74,2.9,2.61,2.61,0,0,0,2.13.89,3,3,0,0,0,2.62-1.2,7.88,7.88,0,0,0,1.22-2.53,8.12,8.12,0,0,0-.09-5.33,16,16,0,0,0-2.93-4.38l-3.38-3.85a17,17,0,0,1-3.4-5.59,12.8,12.8,0,0,1,.09-7.73A17.27,17.27,0,0,1,239.25,32a19,19,0,0,1,11.4-3.44,11.37,11.37,0,0,1,6.22,1.39,6.62,6.62,0,0,1,2.81,3.63,12.38,12.38,0,0,1,.5,4.73,30.07,30.07,0,0,1-.74,4.77l-10,1.19c.37-1.51.62-2.82.78-3.94a4.59,4.59,0,0,0-.23-2.59,1.9,1.9,0,0,0-1.9-.91,3.33,3.33,0,0,0-2.66,1.32A7.29,7.29,0,0,0,244,40.79a6.63,6.63,0,0,0,.11,4.64,18.33,18.33,0,0,0,2.56,3.76l3.23,3.72a19.66,19.66,0,0,1,3.93,6.44c.89,2.4.86,5.36-.08,8.9a17.26,17.26,0,0,1-3.4,6.53,17.69,17.69,0,0,1-5.88,4.64A16.9,16.9,0,0,1,236.88,81.12Zm10.44-55.91,7.37-12.69h10.48L253.82,25.21Z"/><path d="M236.88,89.29A22.29,22.29,0,0,1,225,86.36a15.59,15.59,0,0,1-7.18-10.68A30.39,30.39,0,0,1,218.57,63a8.16,8.16,0,0,1,6.78-6.21l1.59-.23A25,25,0,0,1,225,52.48a20.66,20.66,0,0,1-.14-12.66,25.27,25.27,0,0,1,9.63-14.45,25.63,25.63,0,0,1,5.13-2.88,9.18,9.18,0,0,1,.64-1.39l7.38-12.68a8.15,8.15,0,0,1,7.06-4.06h10.48A8.16,8.16,0,0,1,271.25,18l-6.89,7.7a14.46,14.46,0,0,1,3.12,5.48,20.91,20.91,0,0,1,.85,7.78,38.66,38.66,0,0,1-.95,6,8.18,8.18,0,0,1-7,6.21l-1.51.18a28.15,28.15,0,0,1,2.54,5.13c1.49,4,1.54,8.68.15,13.87a25.22,25.22,0,0,1-5,9.62,26,26,0,0,1-8.56,6.76A25.05,25.05,0,0,1,236.88,89.29Z"/><path d="M255.2,80.36l14.58-51.11h12.11L279.55,59l14-29.72h11.67L292.43,80.36h-8l8.16-34-15,34h-7.13l2.87-34.27-9.94,34.27Z"/><path d="M292.43,88.53h-8a8.19,8.19,0,0,1-3.44-.76,8.19,8.19,0,0,1-3.44.76h-7.13a8.09,8.09,0,0,1-3.54-.81,8.13,8.13,0,0,1-3.53.81H255.2a8.18,8.18,0,0,1-7.86-10.41L261.92,27a8.17,8.17,0,0,1,7.86-5.93h12.11a8.19,8.19,0,0,1,5.84,2.45,8.17,8.17,0,0,1,5.84-2.45h11.67a8.16,8.16,0,0,1,7.92,10.15L300.35,82.35A8.16,8.16,0,0,1,292.43,88.53Z"/><path d="M305.86,80.36l5.6-20.89-1.62-30.22H320.5L321,45.4l8.69-16.15h10.22L322.31,59.47l-5.6,20.89Z"/><path d="M316.71,88.53H305.86A8.17,8.17,0,0,1,298,78.25l5.26-19.64-1.55-28.93a8.17,8.17,0,0,1,8.16-8.6H320.5a8.11,8.11,0,0,1,4.61,1.42,8.16,8.16,0,0,1,4.61-1.42h10.22A8.16,8.16,0,0,1,347,33.36L329.92,62.64,324.6,82.48A8.16,8.16,0,0,1,316.71,88.53Z"/><path class="cls-2" d="M12.52,80.36l1.83-6.81L36.67,36.88H24.74l2.05-7.63h23l-1.71,6.37L25.49,72.73H38.3l-2,7.63Z"/><path class="cls-2" d="M41.21,80.36l13.7-51.11h23l-2.06,7.69H64.14l-3.4,12.69h8.9l-2.1,7.82h-8.9L54.55,72.73h11.8l-2,7.63Z"/><path class="cls-2" d="M69.06,80.36l13.7-51.11H96.07a33.93,33.93,0,0,1,6.08.5,10.89,10.89,0,0,1,4.69,1.93,6.7,6.7,0,0,1,2.49,4,15.11,15.11,0,0,1-.56,6.91,16.46,16.46,0,0,1-2.31,5.21A12.17,12.17,0,0,1,103,51.21a12.4,12.4,0,0,1-4.47,1.7A7.63,7.63,0,0,1,103,54.84a6.82,6.82,0,0,1,2,4.13,16.21,16.21,0,0,1-.64,6.25,24.92,24.92,0,0,1-2.87,6.84,17.49,17.49,0,0,1-4.26,4.71,16.84,16.84,0,0,1-5.56,2.71,24.88,24.88,0,0,1-6.83.88Zm13.41-7.89h2.4a7.76,7.76,0,0,0,5.65-1.89A12,12,0,0,0,93.43,65a13.9,13.9,0,0,0,.6-4.61,3.13,3.13,0,0,0-1.42-2.49,6.92,6.92,0,0,0-3.7-.79H86.58Zm6.1-22.78h2.21a9.06,9.06,0,0,0,4.13-.79,5.74,5.74,0,0,0,2.41-2.3,15.17,15.17,0,0,0,1.46-3.66A6.54,6.54,0,0,0,99,39.56a3.24,3.24,0,0,0-1.59-2.05A7,7,0,0,0,94,36.82H92Z"/><path class="cls-2" d="M105.33,80.36,119,29.25H133.1a28.21,28.21,0,0,1,8.66,1.13,7.56,7.56,0,0,1,4.81,4.07c.88,2,.85,4.73-.11,8.3a32.8,32.8,0,0,1-2,5.62,14.87,14.87,0,0,1-3,4.26,14.71,14.71,0,0,1-4.69,3l.38,24.74H125.46L126,57.45h-3.21l-6.14,22.91ZM124.51,51h3.15a8.18,8.18,0,0,0,4-.85,6.75,6.75,0,0,0,2.52-2.46,15.09,15.09,0,0,0,1.57-3.88,8.5,8.5,0,0,0,.17-5.11c-.47-1.22-1.78-1.83-3.92-1.83H128.3Z"/><path class="cls-2" d="M141.16,80.36l23.35-51.11h12.87l-4.16,51.11H162.8L164,69.57h-7.51l-4.66,10.79ZM159.3,62.82h5.43l2.63-19.94Z"/><path class="cls-2" d="M178,80.36l13.7-51.11H203L191.34,72.73h11.74L201,80.36Z"/><path class="cls-2" d="M205.69,80.36l13.7-51.11h11.29L217,80.36Z"/><path class="cls-2" d="M236.88,81.12a14.4,14.4,0,0,1-7.56-1.7,7.57,7.57,0,0,1-3.45-5.27,22.87,22.87,0,0,1,.65-9.25l10-1.45a23.93,23.93,0,0,0-.82,5.3,4.47,4.47,0,0,0,.74,2.9,2.61,2.61,0,0,0,2.13.89,3,3,0,0,0,2.62-1.2,7.88,7.88,0,0,0,1.22-2.53,8.12,8.12,0,0,0-.09-5.33,16,16,0,0,0-2.93-4.38l-3.38-3.85a17,17,0,0,1-3.4-5.59,12.8,12.8,0,0,1,.09-7.73A17.27,17.27,0,0,1,239.25,32a19,19,0,0,1,11.4-3.44,11.37,11.37,0,0,1,6.22,1.39,6.62,6.62,0,0,1,2.81,3.63,12.38,12.38,0,0,1,.5,4.73,30.07,30.07,0,0,1-.74,4.77l-10,1.19c.37-1.51.62-2.82.78-3.94a4.59,4.59,0,0,0-.23-2.59,1.9,1.9,0,0,0-1.9-.91,3.33,3.33,0,0,0-2.66,1.32A7.29,7.29,0,0,0,244,40.79a6.63,6.63,0,0,0,.11,4.64,18.33,18.33,0,0,0,2.56,3.76l3.23,3.72a19.66,19.66,0,0,1,3.93,6.44c.89,2.4.86,5.36-.08,8.9a17.26,17.26,0,0,1-3.4,6.53,17.69,17.69,0,0,1-5.88,4.64A16.9,16.9,0,0,1,236.88,81.12Zm10.44-55.91,7.37-12.69h10.48L253.82,25.21Z"/><path class="cls-2" d="M255.2,80.36l14.58-51.11h12.11L279.55,59l14-29.72h11.67L292.43,80.36h-8l8.16-34-15,34h-7.13l2.87-34.27-9.94,34.27Z"/><path class="cls-2" d="M305.86,80.36l5.6-20.89-1.62-30.22H320.5L321,45.4l8.69-16.15h10.22L322.31,59.47l-5.6,20.89Z"/></g></g></svg>