<svg xmlns="http://www.w3.org/2000/svg" viewBox="0 0 108.36 121.28"><defs><style>.cls-1{fill:#fff;fill-rule:evenodd;}</style></defs><g id="Warstwa_2" data-name="Warstwa 2"><g id="Warstwa_22" data-name="Warstwa 22"><g id="_-" data-name="-"><g id="_--2" data-name="-"><path id="path2101-9-5" class="cls-1" d="M25.89,12.54A25.89,25.89,0,0,1,51.77,38.06h0V64.31H25.59a25.89,25.89,0,0,1,.3-51.77Zm-.06,10.52a15.37,15.37,0,0,0-.17,30.73H40.81V38.21h0a15.17,15.17,0,0,0-15-15.15Z"/><path id="path2103-0-0" class="cls-1" d="M25.89,120.71A25.9,25.9,0,0,0,51.77,95.18h0V68.93H25.59a25.89,25.89,0,0,0,.3,51.77Zm-.06-10.52a15.38,15.38,0,0,1-.17-30.74H40.81V95h0a15.18,15.18,0,0,1-15,15.16Z"/><path id="path2105-0-3" class="cls-1" d="M56.43,0C61.59-.11,66.7,2,67.34,11.58V33.46h16.1C94.59,33.25,98,22,97.48,13h10.84c.53,14.5-4.22,21.56-10.55,25.48,6.33,3.93,11.08,11,10.55,25.49H97.48C98,54,96.24,46.4,83.81,43.51l-16.47.1V54.06c-4.5.45-5.91.56-10.91,5.53V0Z"/><path id="path2107-7-3" class="cls-1" d="M67.5,67.45V57.57a10.61,10.61,0,0,0-10.59,9.88l0,.73v9.89a10.61,10.61,0,0,0,10.59-9.89Z"/><path id="path2109-8-3" class="cls-1" d="M97.38,69.27H108V90.4a10.62,10.62,0,0,1-10.6,9.89V90.4Z"/><path id="path2111-7-4" class="cls-1" d="M57,81.73a13,13,0,0,0,10.64-5.34l0,35A10.62,10.62,0,0,1,57,121.28V111.4Z"/></g></g></g></g></svg>