<?xml version="1.0" encoding="UTF-8"?><svg id="Warstwa_2" xmlns="http://www.w3.org/2000/svg" viewBox="0 0 108.36 121.28"><defs><style>.cls-1{fill:#fff;fill-rule:evenodd;}</style></defs><g id="Warstwa_42"><g id="Warstwa_32"><g id="Warstwa_22"><g id="_-"><g id="_--2"><path id="path2101-9-5" class="cls-1" d="M25.89,12.54c14.17,0,25.69,11.39,25.88,25.52h0v26.25H25.59c-14.16-.16-25.59-11.69-25.59-25.89S11.59,12.54,25.89,12.54Zm-.06,10.52c-8.27,0-14.98,6.88-14.98,15.37s6.61,15.27,14.81,15.37h0s.17,0,.17,0h14.98v-15.58h0c-.11-8.39-6.78-15.15-14.98-15.15h0Z"/><path id="path2103-0-0" class="cls-1" d="M25.89,120.71c14.17,0,25.69-11.39,25.88-25.52h0v-26.25H25.59c-14.16,.16-25.59,11.69-25.59,25.89s11.59,25.89,25.89,25.89h0Zm-.06-10.52c-8.27,0-14.98-6.88-14.98-15.37s6.61-15.27,14.81-15.37h0s.17,0,.17,0h14.98v15.58h0c-.11,8.39-6.78,15.15-14.98,15.15h0Z"/><path id="path2105-0-3" class="cls-1" d="M56.43,0c5.15-.12,10.27,2.03,10.91,11.58v21.88h16.1c11.15-.22,14.51-11.5,14.04-20.47h10.84c.53,14.51-4.22,21.56-10.55,25.49,6.33,3.93,11.08,10.98,10.55,25.49h-10.84c.53-9.94-1.24-17.57-13.66-20.46l-16.47,.09v10.46c-4.5,.45-5.92,.56-10.91,5.53V0h0Z"/><path id="path2107-7-3" class="cls-1" d="M67.5,67.45v-9.89c-5.62,0-10.22,4.36-10.59,9.89l-.03,.73v9.89c5.62,0,10.22-4.36,10.59-9.89l.03-.73Z"/><path id="path2109-8-3" class="cls-1" d="M97.38,69.27h10.64l-.02,21.13c-.38,5.52-4.97,9.89-10.59,9.89v-9.89l-.03-21.13Z"/><path id="path2111-7-4" class="cls-1" d="M57,81.73c5.04-.11,8.8-2.56,10.64-5.34l-.02,35c-.38,5.52-4.97,9.89-10.59,9.89v-9.89l-.03-29.67Z"/></g></g></g></g></g></svg>