<?xml version="1.0" encoding="UTF-8" standalone="no"?>
<!-- Generator: Adobe Illustrator 24.3.0, SVG Export Plug-In . SVG Version: 6.00 Build 0)  -->

<svg
   version="1.1"
   x="0px"
   y="0px"
   viewBox="0 0 352.47101 93.800003"
   xml:space="preserve"
   id="svg2686"
   sodipodi:docname="collected-text.svg"
   width="352.47101"
   height="93.800003"
   inkscape:version="1.2.1 (9c6d41e410, 2022-07-14)"
   xmlns:inkscape="http://www.inkscape.org/namespaces/inkscape"
   xmlns:sodipodi="http://sodipodi.sourceforge.net/DTD/sodipodi-0.dtd"
   xmlns="http://www.w3.org/2000/svg"
   xmlns:svg="http://www.w3.org/2000/svg"><defs
   id="defs2690" /><sodipodi:namedview
   id="namedview2688"
   pagecolor="#ffffff"
   bordercolor="#000000"
   borderopacity="0.25"
   inkscape:showpageshadow="2"
   inkscape:pageopacity="0.0"
   inkscape:pagecheckerboard="0"
   inkscape:deskcolor="#d1d1d1"
   showgrid="false"
   inkscape:zoom="0.70104167"
   inkscape:cx="960.71322"
   inkscape:cy="541.3373"
   inkscape:window-width="2560"
   inkscape:window-height="1351"
   inkscape:window-x="1911"
   inkscape:window-y="-9"
   inkscape:window-maximized="1"
   inkscape:current-layer="svg2686" />
<style
   type="text/css"
   id="style2">
	.st0{fill:#171E36;}
	.st1{opacity:0.2;}
	.st2{opacity:0.5;fill:url(#SVGID_1_);}
	.st3{opacity:0.5;fill:url(#SVGID_2_);}
	.st4{fill:#E11617;}
	.st5{opacity:0.1;clip-path:url(#SVGID_4_);}
	.st6{clip-path:url(#SVGID_4_);}
	.st7{opacity:0.5;fill:url(#SVGID_5_);}
	.st8{opacity:0.5;fill:url(#SVGID_6_);}
	
		.st9{fill:none;stroke:#222D51;stroke-width:7;stroke-linecap:round;stroke-linejoin:round;stroke-miterlimit:10;stroke-dasharray:12,12,12,12,12,12;}
	.st10{fill:#8CDC00;}
	.st11{fill:#E11E14;}
	.st12{fill:none;stroke:#000000;stroke-width:9.9429;stroke-linecap:round;stroke-linejoin:round;stroke-miterlimit:10;}
	.st13{font-family:'Oswald-Bold';}
	.st14{font-size:37.2859px;}
	.st15{fill:#FFFFFF;}
	.st16{opacity:0.5;fill:#222D50;}
	.st17{fill:none;stroke:#000000;stroke-width:10.9221;stroke-linecap:round;stroke-linejoin:round;stroke-miterlimit:10;}
	.st18{font-size:39.3197px;}
	.st19{font-size:40.7067px;}
	.st20{fill:#020300;}
	.st21{fill:#E3007D;}
	.st22{fill:#EB7004;}
	.st23{fill:#E10614;}
	.st24{fill:#F8B200;}
	.st25{fill:#FFEC00;}
	.st26{fill:#92BF20;}
	.st27{fill:#14A438;}
	.st28{fill:#DE1E14;}
	.st29{fill:#009CE1;}
	.st30{fill:#009791;}
	.st31{fill:#FFFFFF;stroke:#FFFFFF;stroke-width:43.3256;stroke-linecap:square;stroke-linejoin:round;stroke-miterlimit:10;}
	.st32{font-size:144.4185px;}
	.st33{stroke:#000000;stroke-width:22.8663;stroke-linejoin:round;stroke-miterlimit:10;}
	.st34{fill:#FFFFFF;stroke:#FFFFFF;stroke-width:11.659;stroke-linecap:square;stroke-linejoin:round;stroke-miterlimit:10;}
	.st35{font-size:40.2342px;}
	.st36{stroke:#000000;stroke-width:6.1533;stroke-linejoin:round;stroke-miterlimit:10;}
	.st37{font-size:17.5916px;}
	.st38{font-size:23.0197px;}
	.st39{font-size:23.554px;}
	.st40{fill-rule:evenodd;clip-rule:evenodd;fill:#FFFFFF;}
	.st41{font-size:60px;}
	.st42{fill:#222D50;}
</style>




<g
   id="Warstwa_29">
</g>
<g
   id="Warstwa_30">
</g>

<g
   id="Warstwa_20">
</g>



<g
   id="Warstwa_6">
</g>
<g
   id="Warstwa_21">
</g>
<g
   id="Warstwa_8">
</g>
<g
   id="Warstwa_15">
</g>
<g
   id="Warstwa_16">
</g>





<g
   id="Linie">
</g>
<g
   id="Warstwa_23">
</g>
<g
   id="Warstwa_11">
</g>
<g
   id="Warstwa_12">
</g>


<g
   id="Warstwa_25">
</g>
<g
   id="Warstwa_24"
   transform="translate(-303.77894,-256.3)">
	<g
   id="g2097">
		<g
   id="g2011">
			<path
   class="st15"
   d="m 340,349.3 h -23.7 c -3.9,0 -7.6,-1.8 -9.9,-4.9 -2.4,-3.1 -3.2,-7.1 -2.2,-10.9 l 1.8,-6.8 c 0.3,-1.2 0.8,-2.3 1.4,-3.3 l 12.7,-20.9 c -0.6,-0.5 -1.1,-1.1 -1.5,-1.7 -2.4,-3.1 -3.2,-7.1 -2.2,-10.9 l 2,-7.6 c 1.5,-5.5 6.4,-9.3 12.1,-9.3 h 23 c 3.9,0 7.6,1.8 9.9,4.9 2.4,3.1 3.2,7.1 2.2,10.9 l -1.7,6.4 c -0.3,1.2 -0.8,2.3 -1.4,3.3 l -12.7,20.8 c 0.8,0.6 1.5,1.3 2.1,2.2 2.4,3.1 3.2,7.1 2.2,10.9 l -2,7.6 c -1.5,5.5 -6.4,9.3 -12.1,9.3 z"
   id="path1991" />
			<path
   class="st15"
   d="M 368.1,349.3 H 345 c -3.9,0 -7.6,-1.8 -9.9,-4.9 -2.3,-3.1 -3.2,-7.1 -2.2,-10.9 l 13.7,-51.1 c 1.5,-5.5 6.4,-9.3 12.1,-9.3 h 23 c 3.9,0 7.6,1.8 9.9,4.9 2.4,3.1 3.2,7.1 2.2,10.9 l -2.1,7.7 c -0.9,3.3 -3.1,6 -5.9,7.6 0.2,1.7 0.2,3.4 -0.3,5.1 l -2.1,7.8 c -0.5,2 -1.5,3.7 -2.8,5.2 1.9,3 2.6,6.6 1.6,10.1 l -2,7.6 c -1.5,5.5 -6.5,9.3 -12.1,9.3 z"
   id="path1993" />
			<path
   class="st15"
   d="m 388.5,349.3 h -15.7 c -3.9,0 -7.6,-1.8 -9.9,-4.9 -2.3,-3.1 -3.2,-7.1 -2.2,-10.9 l 13.7,-51.1 c 1.5,-5.5 6.4,-9.3 12.1,-9.3 h 13.3 c 2.9,0 5.7,0.2 8.3,0.7 3.8,0.7 7.2,2.1 10,4.2 3.6,2.7 6.1,6.6 7.2,11.3 0.9,3.8 0.6,8 -0.7,12.9 -0.9,3.4 -2.3,6.4 -4,9 0.2,0.8 0.4,1.6 0.5,2.5 0.5,3.4 0.1,7.1 -0.9,11.2 -1,3.9 -2.5,7.3 -4.4,10.3 -2,3.2 -4.5,5.9 -7.4,8.1 -2.9,2.1 -6.1,3.7 -9.6,4.7 -3.2,0.9 -6.6,1.3 -10.3,1.3 z"
   id="path1995" />
			<path
   class="st15"
   d="m 440.9,349.3 h -11.7 c -1.5,0 -3,-0.3 -4.4,-0.8 -1.4,0.5 -2.9,0.8 -4.4,0.8 h -11.3 c -3.9,0 -7.6,-1.8 -9.9,-4.9 -2.4,-3.1 -3.2,-7.1 -2.2,-10.9 l 13.7,-51.1 c 1.5,-5.5 6.4,-9.3 12.1,-9.3 h 14.1 c 4.8,0 8.9,0.6 12.5,1.8 5.6,1.8 10,5.7 12.3,10.8 2.1,4.7 2.3,10.2 0.6,16.7 -0.8,2.8 -1.7,5.4 -2.8,7.7 -1.4,3 -3.3,5.6 -5.6,7.8 -0.3,0.3 -0.5,0.5 -0.8,0.8 l 0.3,17.8 c 0.1,3.4 -1.2,6.6 -3.6,9 -2.3,2.5 -5.5,3.8 -8.9,3.8 z"
   id="path1997" />
			<path
   class="st15"
   d="m 477,349.3 h -10.4 c -1.9,0 -3.8,-0.4 -5.5,-1.3 -1.7,0.8 -3.5,1.3 -5.5,1.3 h -10.7 c -4.3,0 -8.2,-2.2 -10.5,-5.8 -2.3,-3.6 -2.6,-8.1 -0.9,-12 l 23.4,-51.1 c 2,-4.5 6.5,-7.3 11.4,-7.3 h 12.9 c 3.5,0 6.8,1.5 9.2,4 2.4,2.6 3.6,6 3.3,9.5 l -4.2,51.1 c -0.6,6.6 -6,11.6 -12.5,11.6 z"
   id="path1999" />
			<path
   class="st15"
   d="m 504.8,349.3 h -23 c -3.9,0 -7.6,-1.8 -9.9,-4.9 -2.3,-3.1 -3.2,-7.1 -2.2,-10.9 l 13.7,-51.1 c 1.5,-5.5 6.4,-9.3 12.1,-9.3 h 11.3 c 3.9,0 7.6,1.8 9.9,4.9 2.3,3.1 3.2,7.1 2.2,10.9 l -7.6,28.5 c 2.2,0.8 4.1,2.2 5.6,4.1 2.4,3.1 3.2,7.1 2.2,10.9 l -2,7.6 c -1.7,5.5 -6.6,9.3 -12.3,9.3 z"
   id="path2001" />
			<path
   class="st15"
   d="m 520.8,349.3 h -11.3 c -3.9,0 -7.6,-1.8 -9.9,-4.9 -2.3,-3.1 -3.2,-7.1 -2.2,-10.9 l 13.7,-51.1 c 1.5,-5.5 6.4,-9.3 12.1,-9.3 h 11.3 c 3.9,0 7.6,1.8 9.9,4.9 2.3,3.1 3.2,7.1 2.2,10.9 L 532.9,340 c -1.5,5.5 -6.5,9.3 -12.1,9.3 z"
   id="path2003" />
			<path
   class="st15"
   d="m 540.6,350.1 c -5.5,0 -10.3,-1.2 -14.1,-3.6 -4.8,-3 -8.1,-7.8 -9.2,-13.6 -0.8,-4.2 -0.6,-8.9 0.8,-14.5 0.9,-3.6 3.3,-6.6 6.5,-8.3 -1.6,-4.5 -1.7,-9.6 -0.2,-15.1 1.9,-7.2 5.7,-12.8 11.3,-16.9 1.4,-1 2.9,-1.9 4.4,-2.6 0.1,-0.1 0.1,-0.2 0.2,-0.3 l 7.4,-12.7 c 2.2,-3.9 6.4,-6.2 10.8,-6.2 H 569 c 4.9,0 9.4,2.9 11.4,7.4 2,4.5 1.2,9.8 -2.1,13.5 l -4.6,5.1 c 0.7,1.2 1.3,2.5 1.7,3.9 0.9,3 1.3,6.2 1,9.4 -0.2,2.3 -0.5,4.6 -1,6.7 -0.9,3.6 -3.2,6.6 -6.4,8.2 0.1,0.3 0.2,0.5 0.3,0.8 1.8,4.9 1.9,10.4 0.3,16.5 -1.1,4.1 -3.1,7.9 -5.8,11.3 -2.8,3.3 -6.1,6 -10,7.9 -4.1,2.1 -8.5,3.1 -13.2,3.1 z"
   id="path2005" />
			<path
   class="st15"
   d="m 596.2,349.3 h -8 c -1.2,0 -2.3,-0.2 -3.4,-0.5 -1.1,0.3 -2.3,0.5 -3.4,0.5 h -7.1 c -1.2,0 -2.4,-0.2 -3.5,-0.5 -1.1,0.3 -2.3,0.5 -3.5,0.5 H 559 c -3.9,0 -7.6,-1.8 -10,-5 -2.4,-3.1 -3.1,-7.2 -2,-11 l 14.6,-51.1 c 1.5,-5.4 6.4,-9.1 12,-9.1 h 12.1 c 2.1,0 4.1,0.5 5.8,1.4 1.8,-0.9 3.8,-1.4 5.8,-1.4 H 609 c 3.9,0 7.5,1.8 9.9,4.8 2.4,3 3.2,7 2.3,10.7 l -12.8,51.1 c -1.5,5.7 -6.5,9.6 -12.2,9.6 z"
   id="path2007" />
			<path
   class="st15"
   d="m 620.5,349.3 h -10.9 c -3.9,0 -7.6,-1.8 -9.9,-4.9 -2.4,-3.1 -3.2,-7.1 -2.2,-10.9 l 5.1,-19 -1.5,-28.2 c -0.2,-3.4 1.1,-6.8 3.4,-9.3 2.4,-2.5 5.7,-3.9 9.1,-3.9 h 10.7 c 1.6,0 3.2,0.3 4.6,0.9 1.4,-0.6 3,-0.9 4.6,-0.9 h 10.2 c 4.5,0 8.6,2.4 10.9,6.3 2.2,3.9 2.2,8.7 0,12.5 l -16.8,28.8 -5.2,19.3 c -1.5,5.5 -6.4,9.3 -12.1,9.3 z"
   id="path2009" />
		</g>
		<g
   id="g2073">
			<g
   id="g2017">
				<path
   d="m 316.3,336.8 1.8,-6.8 22.3,-36.7 h -11.9 l 2,-7.6 h 23 l -1.7,6.4 -22.6,37.1 H 342 l -2,7.6 z"
   id="path2013" />
				<path
   d="m 340,345 h -23.7 c -2.5,0 -4.9,-1.2 -6.5,-3.2 -1.5,-2 -2.1,-4.6 -1.4,-7.1 l 1.8,-6.8 c 0.2,-0.8 0.5,-1.5 0.9,-2.1 l 15,-24.6 c -1.6,-0.5 -3,-1.5 -4.1,-2.8 -1.5,-2 -2.1,-4.6 -1.4,-7.1 l 2,-7.6 c 1,-3.6 4.2,-6.1 7.9,-6.1 h 23 c 2.5,0 4.9,1.2 6.5,3.2 1.5,2 2.1,4.6 1.4,7.1 l -1.7,6.4 c -0.2,0.8 -0.5,1.5 -0.9,2.1 l -15.2,24.9 c 1.9,0.4 3.6,1.5 4.8,3 1.5,2 2.1,4.6 1.4,7.1 l -2,7.6 c -0.8,3.5 -4.1,6 -7.8,6 z"
   id="path2015" />
			</g>
			<g
   id="g2023">
				<path
   d="m 345,336.8 13.7,-51.1 h 23 l -2.1,7.7 h -11.7 l -3.4,12.7 h 8.9 l -2.1,7.8 h -8.9 l -4.1,15.3 h 11.8 l -2,7.6 z"
   id="path2019" />
				<path
   d="M 368.1,345 H 345 c -2.5,0 -4.9,-1.2 -6.5,-3.2 -1.5,-2 -2.1,-4.6 -1.4,-7.1 l 13.7,-51.1 c 1,-3.6 4.2,-6.1 7.9,-6.1 h 23 c 2.5,0 4.9,1.2 6.5,3.2 1.5,2 2.1,4.6 1.4,7.1 l -2.1,7.7 c -0.9,3.4 -3.8,5.8 -7.3,6 1.3,1.9 1.7,4.4 1.1,6.7 l -2.1,7.8 c -0.8,2.8 -2.9,5 -5.7,5.7 1.2,0.5 2.2,1.4 3.1,2.4 1.5,2 2.1,4.6 1.4,7.1 l -2,7.6 c -1,3.7 -4.2,6.2 -7.9,6.2 z"
   id="path2021" />
			</g>
			<g
   id="g2029">
				<path
   d="m 372.8,336.8 13.7,-51.1 h 13.3 c 2.2,0 4.2,0.2 6.1,0.5 1.9,0.3 3.4,1 4.7,1.9 1.3,0.9 2.1,2.3 2.5,4 0.4,1.7 0.2,4 -0.6,6.9 -0.6,2.1 -1.3,3.8 -2.3,5.2 -1,1.4 -2.2,2.5 -3.5,3.4 -1.3,0.8 -2.8,1.4 -4.5,1.7 1.9,0.3 3.4,0.9 4.5,1.9 1.1,1 1.7,2.4 2,4.1 0.2,1.7 0,3.8 -0.6,6.2 -0.7,2.7 -1.7,4.9 -2.9,6.8 -1.2,1.9 -2.6,3.5 -4.3,4.7 -1.6,1.2 -3.5,2.1 -5.6,2.7 -2.1,0.6 -4.3,0.9 -6.8,0.9 h -15.7 z m 13.4,-7.9 h 2.4 c 2.5,0 4.4,-0.6 5.7,-1.9 1.3,-1.3 2.3,-3.1 2.9,-5.6 0.5,-1.9 0.7,-3.5 0.6,-4.6 -0.1,-1.1 -0.6,-2 -1.4,-2.5 -0.8,-0.5 -2.1,-0.8 -3.7,-0.8 h -2.3 z m 6.1,-22.8 h 2.2 c 1.7,0 3.1,-0.3 4.1,-0.8 1,-0.5 1.8,-1.3 2.4,-2.3 0.6,-1 1.1,-2.2 1.5,-3.7 0.4,-1.3 0.4,-2.5 0.2,-3.4 -0.2,-0.9 -0.8,-1.6 -1.6,-2.1 -0.8,-0.5 -2,-0.7 -3.4,-0.7 h -2 z"
   id="path2025" />
				<path
   d="m 388.5,345 h -15.7 c -2.5,0 -4.9,-1.2 -6.5,-3.2 -1.5,-2 -2.1,-4.6 -1.4,-7.1 l 13.7,-51.1 c 1,-3.6 4.2,-6.1 7.9,-6.1 h 13.3 c 2.7,0 5.2,0.2 7.5,0.6 3.1,0.6 5.9,1.7 8.1,3.4 2.8,2.1 4.7,5.1 5.5,8.8 0.7,3.1 0.5,6.6 -0.6,10.8 -0.8,3 -2,5.6 -3.5,7.8 -0.4,0.5 -0.7,1 -1.1,1.5 0.5,1.2 0.8,2.5 1,3.9 0.4,2.8 0.1,5.9 -0.8,9.5 -0.9,3.4 -2.2,6.5 -3.9,9.1 -1.7,2.8 -3.8,5.1 -6.3,6.9 -2.4,1.8 -5.2,3.2 -8.2,4 -2.7,0.8 -5.7,1.2 -9,1.2 z m 6.9,-47.1 z"
   id="path2027" />
			</g>
			<g
   id="g2035">
				<path
   d="m 409.1,336.8 13.7,-51.1 h 14.1 c 3.4,0 6.3,0.4 8.7,1.1 2.3,0.8 3.9,2.1 4.8,4.1 0.9,2 0.8,4.7 -0.1,8.3 -0.6,2.1 -1.2,4 -2,5.6 -0.8,1.6 -1.8,3.1 -3,4.3 -1.2,1.2 -2.8,2.2 -4.7,3 l 0.4,24.7 h -11.7 l 0.5,-22.9 h -3.2 l -6.1,22.9 z m 19.2,-29.4 h 3.2 c 1.6,0 2.9,-0.3 4,-0.9 1,-0.6 1.9,-1.4 2.5,-2.5 0.6,-1.1 1.2,-2.4 1.6,-3.9 0.6,-2.2 0.6,-3.9 0.2,-5.1 -0.5,-1.2 -1.8,-1.8 -3.9,-1.8 h -3.7 z"
   id="path2031" />
				<path
   d="m 440.9,345 h -11.7 c -1.6,0 -3.1,-0.5 -4.4,-1.3 -1.3,0.8 -2.8,1.3 -4.4,1.3 h -11.3 c -2.5,0 -4.9,-1.2 -6.5,-3.2 -1.5,-2 -2.1,-4.6 -1.4,-7.1 l 13.7,-51.1 c 1,-3.6 4.2,-6.1 7.9,-6.1 h 14.1 c 4.4,0 8,0.5 11.2,1.5 4.5,1.5 7.9,4.4 9.7,8.5 1.7,3.8 1.8,8.3 0.3,13.8 -0.7,2.6 -1.5,4.9 -2.5,7 -1.2,2.5 -2.8,4.7 -4.7,6.6 -0.7,0.7 -1.4,1.3 -2.2,1.8 l 0.3,19.9 c 0,2.2 -0.8,4.3 -2.3,5.9 -1.5,1.6 -3.6,2.5 -5.8,2.5 z"
   id="path2033" />
			</g>
			<g
   id="g2041">
				<path
   d="m 444.9,336.8 23.4,-51.1 h 12.9 l -4.2,51.1 h -10.4 l 1.2,-10.8 h -7.5 l -4.7,10.8 z m 18.2,-17.5 h 5.4 l 2.6,-19.9 z"
   id="path2037" />
				<path
   d="m 477,345 h -10.4 c -2,0 -4,-0.8 -5.5,-2.1 -1.5,1.3 -3.4,2.1 -5.5,2.1 h -10.7 c -2.8,0 -5.4,-1.4 -6.9,-3.8 -1.5,-2.3 -1.7,-5.3 -0.6,-7.8 l 23.4,-51.1 c 1.3,-2.9 4.2,-4.8 7.4,-4.8 h 12.9 c 2.3,0 4.5,1 6,2.6 1.5,1.7 2.3,3.9 2.1,6.2 l -4.2,51.1 c -0.2,4.3 -3.8,7.6 -8,7.6 z"
   id="path2039" />
			</g>
			<g
   id="g2047">
				<path
   d="m 481.8,336.8 13.7,-51.1 h 11.3 l -11.7,43.5 h 11.7 l -2,7.6 z"
   id="path2043" />
				<path
   d="m 504.8,345 h -23 c -2.5,0 -4.9,-1.2 -6.5,-3.2 -1.5,-2 -2.1,-4.6 -1.4,-7.1 l 13.7,-51.1 c 1,-3.6 4.2,-6.1 7.9,-6.1 h 11.3 c 2.5,0 4.9,1.2 6.5,3.2 1.5,2 2.1,4.6 1.4,7.1 l -8.9,33.2 h 1.1 c 2.5,0 4.9,1.2 6.5,3.2 1.5,2 2.1,4.6 1.4,7.1 l -2,7.6 c -1.1,3.6 -4.3,6.1 -8,6.1 z"
   id="path2045" />
			</g>
			<g
   id="g2053">
				<path
   d="m 509.5,336.8 13.7,-51.1 h 11.3 l -13.7,51.1 z"
   id="path2049" />
				<path
   d="m 520.8,345 h -11.3 c -2.5,0 -4.9,-1.2 -6.5,-3.2 -1.5,-2 -2.1,-4.6 -1.4,-7.1 l 13.7,-51.1 c 1,-3.6 4.2,-6.1 7.9,-6.1 h 11.3 c 2.5,0 4.9,1.2 6.5,3.2 1.5,2 2.1,4.6 1.4,7.1 l -13.7,51.1 c -1,3.6 -4.2,6.1 -7.9,6.1 z"
   id="path2051" />
			</g>
			<g
   id="g2059">
				<path
   d="m 540.6,337.6 c -3.2,0 -5.7,-0.6 -7.6,-1.7 -1.8,-1.1 -3,-2.9 -3.4,-5.3 -0.5,-2.4 -0.2,-5.5 0.6,-9.2 l 10,-1.5 c -0.5,2.2 -0.8,4 -0.8,5.3 0,1.3 0.2,2.3 0.7,2.9 0.5,0.6 1.2,0.9 2.1,0.9 1.2,0 2.1,-0.4 2.6,-1.2 0.6,-0.8 1,-1.6 1.2,-2.5 0.6,-2.1 0.5,-3.9 -0.1,-5.3 -0.6,-1.5 -1.6,-2.9 -2.9,-4.4 l -3.4,-3.8 c -1.5,-1.6 -2.6,-3.5 -3.4,-5.6 -0.8,-2.1 -0.7,-4.7 0.1,-7.7 1.2,-4.3 3.3,-7.6 6.5,-9.9 3.2,-2.3 7,-3.4 11.4,-3.4 2.7,0 4.8,0.5 6.2,1.4 1.4,0.9 2.4,2.1 2.8,3.6 0.5,1.5 0.6,3.1 0.5,4.7 -0.1,1.7 -0.4,3.3 -0.7,4.8 l -10,1.2 c 0.4,-1.5 0.6,-2.8 0.8,-3.9 0.1,-1.1 0.1,-2 -0.2,-2.6 -0.3,-0.6 -0.9,-0.9 -1.9,-0.9 -1.1,0 -1.9,0.4 -2.7,1.3 -0.7,0.9 -1.2,1.8 -1.4,2.6 -0.5,1.9 -0.5,3.4 0.1,4.6 0.6,1.2 1.4,2.5 2.6,3.8 l 3.2,3.7 c 1.7,1.9 3,4 3.9,6.4 0.9,2.4 0.9,5.4 -0.1,8.9 -0.6,2.4 -1.8,4.6 -3.4,6.5 -1.6,2 -3.6,3.5 -5.9,4.6 -2.1,1.1 -4.6,1.7 -7.4,1.7 z m 10.5,-55.9 7.4,-12.7 H 569 l -11.4,12.7 z"
   id="path2055" />
				<path
   d="m 540.6,345.7 c -4.7,0 -8.7,-1 -11.8,-2.9 -3.8,-2.3 -6.3,-6 -7.2,-10.7 -0.7,-3.5 -0.4,-7.7 0.7,-12.7 0.8,-3.3 3.5,-5.7 6.8,-6.2 l 1.6,-0.2 c -0.8,-1.3 -1.4,-2.7 -1.9,-4.1 -1.4,-3.7 -1.4,-7.9 -0.1,-12.7 1.7,-6.2 4.9,-11 9.6,-14.5 1.6,-1.2 3.3,-2.1 5.1,-2.9 0.2,-0.5 0.4,-0.9 0.6,-1.4 l 7.4,-12.7 c 1.5,-2.5 4.2,-4.1 7.1,-4.1 H 569 c 3.2,0 6.1,1.9 7.5,4.8 1.3,2.9 0.8,6.4 -1.4,8.8 l -6.9,7.7 c 1.4,1.6 2.5,3.4 3.1,5.5 0.8,2.5 1,5.1 0.8,7.8 -0.2,2.1 -0.5,4.1 -0.9,6 -0.8,3.3 -3.6,5.8 -7,6.2 l -1.5,0.2 c 1,1.6 1.9,3.3 2.5,5.1 1.5,4 1.5,8.7 0.2,13.9 -0.9,3.5 -2.6,6.8 -5,9.6 -2.4,2.8 -5.2,5.1 -8.6,6.8 -3.4,1.9 -7.2,2.7 -11.2,2.7 z"
   id="path2057" />
			</g>
			<g
   id="g2065">
				<path
   d="m 559,336.8 14.6,-51.1 h 12.1 l -2.3,29.7 14,-29.7 H 609 l -12.8,51.1 h -8 l 8.2,-34 -15,34 h -7.1 l 2.9,-34.3 -9.9,34.3 z"
   id="path2061" />
				<path
   d="m 596.2,345 h -8 c -1.2,0 -2.4,-0.3 -3.4,-0.8 -1.1,0.5 -2.2,0.8 -3.4,0.8 h -7.1 c -1.2,0 -2.4,-0.3 -3.5,-0.8 -1.1,0.5 -2.3,0.8 -3.5,0.8 H 559 c -2.6,0 -5,-1.2 -6.5,-3.2 -1.5,-2 -2,-4.7 -1.3,-7.2 l 14.6,-51.1 c 1,-3.5 4.2,-5.9 7.9,-5.9 h 12.1 c 2.2,0 4.3,0.9 5.8,2.5 1.5,-1.5 3.6,-2.5 5.8,-2.5 H 609 c 2.5,0 4.9,1.2 6.4,3.1 1.5,2 2.1,4.6 1.5,7 l -12.8,51.1 c -0.9,3.6 -4.2,6.2 -7.9,6.2 z"
   id="path2063" />
			</g>
			<g
   id="g2071">
				<path
   d="m 609.6,336.8 5.6,-20.9 -1.6,-30.2 h 10.7 l 0.5,16.2 8.7,-16.2 h 10.2 l -17.6,30.2 -5.6,20.9 z"
   id="path2067" />
				<path
   d="m 620.5,345 h -10.9 c -2.5,0 -4.9,-1.2 -6.5,-3.2 -1.5,-2 -2.1,-4.6 -1.4,-7.1 l 5.3,-19.6 -1.5,-28.9 c -0.1,-2.2 0.7,-4.4 2.2,-6.1 1.5,-1.6 3.7,-2.5 5.9,-2.5 h 10.7 c 1.7,0 3.3,0.5 4.6,1.4 1.3,-0.9 2.9,-1.4 4.6,-1.4 h 10.2 c 2.9,0 5.6,1.6 7.1,4.1 1.5,2.5 1.4,5.7 0,8.2 l -17.1,29.3 -5.3,19.8 c -1,3.5 -4.2,6 -7.9,6 z"
   id="path2069" />
			</g>
		</g>
		<g
   id="g2095">
			<path
   class="st10"
   d="m 316.3,336.8 1.8,-6.8 22.3,-36.7 h -11.9 l 2,-7.6 h 23 l -1.7,6.4 -22.6,37.1 H 342 l -2,7.6 z"
   id="path2075" />
			<path
   class="st10"
   d="m 345,336.8 13.7,-51.1 h 23 l -2.1,7.7 h -11.7 l -3.4,12.7 h 8.9 l -2.1,7.8 h -8.9 l -4.1,15.3 h 11.8 l -2,7.6 z"
   id="path2077" />
			<path
   class="st10"
   d="m 372.8,336.8 13.7,-51.1 h 13.3 c 2.2,0 4.2,0.2 6.1,0.5 1.9,0.3 3.4,1 4.7,1.9 1.3,0.9 2.1,2.3 2.5,4 0.4,1.7 0.2,4 -0.6,6.9 -0.6,2.1 -1.3,3.8 -2.3,5.2 -1,1.4 -2.2,2.5 -3.5,3.4 -1.3,0.8 -2.8,1.4 -4.5,1.7 1.9,0.3 3.4,0.9 4.5,1.9 1.1,1 1.7,2.4 2,4.1 0.2,1.7 0,3.8 -0.6,6.2 -0.7,2.7 -1.7,4.9 -2.9,6.8 -1.2,1.9 -2.6,3.5 -4.3,4.7 -1.6,1.2 -3.5,2.1 -5.6,2.7 -2.1,0.6 -4.3,0.9 -6.8,0.9 h -15.7 z m 13.4,-7.9 h 2.4 c 2.5,0 4.4,-0.6 5.7,-1.9 1.3,-1.3 2.3,-3.1 2.9,-5.6 0.5,-1.9 0.7,-3.5 0.6,-4.6 -0.1,-1.1 -0.6,-2 -1.4,-2.5 -0.8,-0.5 -2.1,-0.8 -3.7,-0.8 h -2.3 z m 6.1,-22.8 h 2.2 c 1.7,0 3.1,-0.3 4.1,-0.8 1,-0.5 1.8,-1.3 2.4,-2.3 0.6,-1 1.1,-2.2 1.5,-3.7 0.4,-1.3 0.4,-2.5 0.2,-3.4 -0.2,-0.9 -0.8,-1.6 -1.6,-2.1 -0.8,-0.5 -2,-0.7 -3.4,-0.7 h -2 z"
   id="path2079" />
			<path
   class="st10"
   d="m 409.1,336.8 13.7,-51.1 h 14.1 c 3.4,0 6.3,0.4 8.7,1.1 2.3,0.8 3.9,2.1 4.8,4.1 0.9,2 0.8,4.7 -0.1,8.3 -0.6,2.1 -1.2,4 -2,5.6 -0.8,1.6 -1.8,3.1 -3,4.3 -1.2,1.2 -2.8,2.2 -4.7,3 l 0.4,24.7 h -11.7 l 0.5,-22.9 h -3.2 l -6.1,22.9 z m 19.2,-29.4 h 3.2 c 1.6,0 2.9,-0.3 4,-0.9 1,-0.6 1.9,-1.4 2.5,-2.5 0.6,-1.1 1.2,-2.4 1.6,-3.9 0.6,-2.2 0.6,-3.9 0.2,-5.1 -0.5,-1.2 -1.8,-1.8 -3.9,-1.8 h -3.7 z"
   id="path2081" />
			<path
   class="st10"
   d="m 444.9,336.8 23.4,-51.1 h 12.9 l -4.2,51.1 h -10.4 l 1.2,-10.8 h -7.5 l -4.7,10.8 z m 18.2,-17.5 h 5.4 l 2.6,-19.9 z"
   id="path2083" />
			<path
   class="st10"
   d="m 481.8,336.8 13.7,-51.1 h 11.3 l -11.7,43.5 h 11.7 l -2,7.6 z"
   id="path2085" />
			<path
   class="st10"
   d="m 509.5,336.8 13.7,-51.1 h 11.3 l -13.7,51.1 z"
   id="path2087" />
			<path
   class="st10"
   d="m 540.6,337.6 c -3.2,0 -5.7,-0.6 -7.6,-1.7 -1.8,-1.1 -3,-2.9 -3.4,-5.3 -0.5,-2.4 -0.2,-5.5 0.6,-9.2 l 10,-1.5 c -0.5,2.2 -0.8,4 -0.8,5.3 0,1.3 0.2,2.3 0.7,2.9 0.5,0.6 1.2,0.9 2.1,0.9 1.2,0 2.1,-0.4 2.6,-1.2 0.6,-0.8 1,-1.6 1.2,-2.5 0.6,-2.1 0.5,-3.9 -0.1,-5.3 -0.6,-1.5 -1.6,-2.9 -2.9,-4.4 l -3.4,-3.8 c -1.5,-1.6 -2.6,-3.5 -3.4,-5.6 -0.8,-2.1 -0.7,-4.7 0.1,-7.7 1.2,-4.3 3.3,-7.6 6.5,-9.9 3.2,-2.3 7,-3.4 11.4,-3.4 2.7,0 4.8,0.5 6.2,1.4 1.4,0.9 2.4,2.1 2.8,3.6 0.5,1.5 0.6,3.1 0.5,4.7 -0.1,1.7 -0.4,3.3 -0.7,4.8 l -10,1.2 c 0.4,-1.5 0.6,-2.8 0.8,-3.9 0.1,-1.1 0.1,-2 -0.2,-2.6 -0.3,-0.6 -0.9,-0.9 -1.9,-0.9 -1.1,0 -1.9,0.4 -2.7,1.3 -0.7,0.9 -1.2,1.8 -1.4,2.6 -0.5,1.9 -0.5,3.4 0.1,4.6 0.6,1.2 1.4,2.5 2.6,3.8 l 3.2,3.7 c 1.7,1.9 3,4 3.9,6.4 0.9,2.4 0.9,5.4 -0.1,8.9 -0.6,2.4 -1.8,4.6 -3.4,6.5 -1.6,2 -3.6,3.5 -5.9,4.6 -2.1,1.1 -4.6,1.7 -7.4,1.7 z m 10.5,-55.9 7.4,-12.7 H 569 l -11.4,12.7 z"
   id="path2089" />
			<path
   class="st10"
   d="m 559,336.8 14.6,-51.1 h 12.1 l -2.3,29.7 14,-29.7 H 609 l -12.8,51.1 h -8 l 8.2,-34 -15,34 h -7.1 l 2.9,-34.3 -9.9,34.3 z"
   id="path2091" />
			<path
   class="st10"
   d="m 609.6,336.8 5.6,-20.9 -1.6,-30.2 h 10.7 l 0.5,16.2 8.7,-16.2 h 10.2 l -17.6,30.2 -5.6,20.9 z"
   id="path2093" />
		</g>
	</g>
</g>
<g
   id="Warstwa_13">
</g>





<g
   id="Warstwa_33">
</g>
<g
   id="Warstwa_34">
</g>
</svg>
