<?xml version="1.0" encoding="UTF-8"?><svg id="Warstwa_2" xmlns="http://www.w3.org/2000/svg" viewBox="0 0 352.46 93.64"><defs><style>.cls-1{fill:#fff;}.cls-2{fill:#ddec00;}.cls-3{fill:#ecc204;}.cls-4{fill:#ecd804;}.cls-5{fill:#ec9c04;}.cls-6{fill:#e24513;}.cls-7{fill:#e20613;}.cls-8{fill:#ecff04;}.cls-9{fill:#ec7004;}.cls-10{fill:#e50059;}.cls-11{fill:#e5007e;}</style></defs><g id="Warstwa_42"><g id="Warstwa_32"><g id="Warstwa_24"><g><g><path class="cls-1" d="M36.25,92.88H12.52c-3.89,0-7.56-1.81-9.93-4.9-2.37-3.09-3.17-7.1-2.16-10.86l1.83-6.82c.31-1.15,.78-2.25,1.4-3.27l12.7-20.86c-.56-.51-1.08-1.06-1.54-1.67-2.37-3.09-3.17-7.1-2.16-10.86l2.05-7.64c1.47-5.47,6.43-9.28,12.1-9.28h23.03c3.89,0,7.56,1.81,9.93,4.9,2.37,3.09,3.17,7.1,2.16,10.86l-1.71,6.37c-.31,1.15-.78,2.26-1.4,3.28l-12.69,20.81c.78,.62,1.49,1.35,2.11,2.16,2.37,3.09,3.17,7.1,2.16,10.86l-2.05,7.64c-1.47,5.47-6.43,9.28-12.1,9.28Z"/><path class="cls-1" d="M64.31,92.88h-23.1c-3.89,0-7.56-1.81-9.93-4.9-2.37-3.09-3.17-7.1-2.16-10.86l13.7-51.12c1.47-5.47,6.43-9.28,12.1-9.28h22.97c3.89,0,7.56,1.81,9.93,4.9,2.37,3.09,3.17,7.1,2.16,10.86l-2.06,7.7c-.89,3.31-3.05,6.01-5.88,7.63,.24,1.67,.15,3.39-.3,5.06l-2.1,7.82c-.53,1.97-1.51,3.72-2.81,5.16,1.95,2.97,2.55,6.65,1.62,10.11l-2.05,7.64c-1.47,5.47-6.43,9.28-12.1,9.28Z"/><path class="cls-1" d="M84.77,92.88h-15.71c-3.89,0-7.56-1.81-9.93-4.9s-3.17-7.1-2.16-10.86l13.7-51.12c1.47-5.47,6.43-9.28,12.1-9.28h13.32c2.92,0,5.71,.24,8.3,.7,3.81,.69,7.17,2.11,9.99,4.24,3.64,2.73,6.12,6.64,7.18,11.28,.86,3.81,.64,8.03-.68,12.92-.9,3.38-2.25,6.39-4.01,8.95,.21,.81,.37,1.63,.48,2.48,.46,3.41,.15,7.06-.95,11.16-1.03,3.85-2.51,7.32-4.38,10.29-2.02,3.21-4.5,5.91-7.35,8.05-2.85,2.14-6.1,3.73-9.63,4.73-3.17,.9-6.62,1.36-10.25,1.36Z"/><path class="cls-1" d="M137.14,92.88h-11.67c-1.52,0-3.02-.28-4.42-.8-1.38,.52-2.87,.8-4.42,.8h-11.3c-3.89,0-7.56-1.81-9.93-4.9s-3.17-7.1-2.16-10.86l13.7-51.12c1.47-5.47,6.43-9.28,12.1-9.28h14.07c4.83,0,8.93,.57,12.54,1.76,5.62,1.83,10,5.67,12.33,10.8,2.14,4.73,2.33,10.19,.58,16.71-.76,2.82-1.69,5.43-2.79,7.73-1.41,2.97-3.28,5.62-5.56,7.85-.27,.26-.54,.51-.82,.76l.27,17.83c.05,3.35-1.25,6.59-3.6,8.98-2.35,2.39-5.57,3.74-8.92,3.74Z"/><path class="cls-1" d="M173.22,92.88h-10.41c-1.92,0-3.8-.44-5.49-1.27-1.68,.82-3.55,1.27-5.49,1.27h-10.67c-4.26,0-8.23-2.17-10.53-5.75s-2.63-8.1-.85-11.97l23.35-51.12c2.04-4.46,6.49-7.32,11.39-7.32h12.87c3.5,0,6.84,1.46,9.21,4.03,2.37,2.57,3.56,6.02,3.27,9.5l-4.17,51.12c-.53,6.5-5.96,11.5-12.48,11.5Z"/><path class="cls-1" d="M201.03,92.88h-23.03c-3.89,0-7.56-1.81-9.93-4.9s-3.17-7.1-2.16-10.86l13.7-51.12c1.47-5.47,6.43-9.28,12.1-9.28h11.3c3.89,0,7.56,1.81,9.93,4.9s3.17,7.1,2.16,10.86l-7.64,28.5c2.18,.81,4.11,2.22,5.56,4.11,2.37,3.09,3.17,7.1,2.16,10.86l-2.05,7.64c-1.47,5.47-6.43,9.28-12.1,9.28Z"/><path class="cls-1" d="M216.99,92.88h-11.3c-3.89,0-7.56-1.81-9.93-4.9s-3.17-7.1-2.16-10.86l13.7-51.12c1.47-5.47,6.43-9.28,12.1-9.28h11.3c3.89,0,7.56,1.81,9.93,4.9,2.37,3.09,3.17,7.1,2.16,10.86l-13.7,51.12c-1.47,5.47-6.43,9.28-12.1,9.28Z"/><path class="cls-1" d="M236.88,93.64c-5.54,0-10.3-1.2-14.13-3.57-4.8-2.96-8.06-7.78-9.17-13.57-.8-4.15-.56-8.89,.75-14.47,.86-3.65,3.27-6.64,6.49-8.29-1.59-4.49-1.65-9.56-.18-15.06,1.92-7.17,5.72-12.84,11.29-16.86,1.4-1.01,2.87-1.89,4.4-2.64,.05-.09,.1-.19,.16-.28l7.37-12.68c2.24-3.86,6.37-6.23,10.83-6.23h10.48c4.94,0,9.42,2.9,11.43,7.41,2.02,4.51,1.19,9.78-2.1,13.46l-4.56,5.09c.71,1.22,1.28,2.52,1.7,3.9,.93,3.02,1.27,6.18,1.02,9.41-.18,2.32-.53,4.57-1.05,6.71-.86,3.6-3.25,6.55-6.41,8.19,.11,.26,.21,.53,.31,.79,1.82,4.89,1.91,10.44,.28,16.52-1.11,4.13-3.07,7.92-5.84,11.27-2.75,3.32-6.11,5.97-9.99,7.89-4.03,1.99-8.44,3-13.1,3Z"/><path class="cls-1" d="M292.43,92.88h-8.01c-1.18,0-2.33-.17-3.44-.48-1.1,.31-2.26,.48-3.44,.48h-7.13c-1.21,0-2.4-.17-3.53-.51-1.13,.33-2.32,.51-3.54,.51h-8.14c-3.93,0-7.63-1.84-10-4.98-2.37-3.14-3.12-7.2-2.05-10.98l14.58-51.12c1.53-5.38,6.45-9.09,12.04-9.09h12.12c2.06,0,4.06,.51,5.84,1.44,1.77-.93,3.76-1.44,5.84-1.44h11.67c3.86,0,7.5,1.78,9.87,4.82,2.37,3.04,3.21,7.01,2.27,10.75l-12.81,51.12c-1.4,5.57-6.4,9.48-12.15,9.48Z"/><path class="cls-1" d="M316.71,92.88h-10.85c-3.89,0-7.56-1.81-9.93-4.9s-3.17-7.1-2.16-10.86l5.08-18.97-1.51-28.24c-.18-3.43,1.05-6.79,3.42-9.28,2.36-2.49,5.65-3.91,9.09-3.91h10.66c1.63,0,3.18,.31,4.61,.88,1.44-.57,3-.88,4.6-.88h10.22c4.48,0,8.62,2.4,10.86,6.29,2.23,3.89,2.22,8.67-.04,12.55l-16.78,28.78-5.16,19.27c-1.47,5.47-6.43,9.28-12.1,9.28Z"/></g><g><g><path d="M12.52,80.36l1.83-6.82,22.32-36.66h-11.93l2.05-7.64h23.03l-1.71,6.37-22.63,37.11h12.81l-2.05,7.64H12.52Z"/><path d="M36.25,88.53H12.52c-2.54,0-4.93-1.18-6.48-3.19s-2.07-4.63-1.41-7.09l1.83-6.82c.2-.75,.51-1.47,.91-2.13l14.98-24.61c-1.61-.49-3.04-1.47-4.09-2.84-1.55-2.01-2.07-4.63-1.41-7.09l2.05-7.64c.96-3.57,4.19-6.05,7.89-6.05h23.03c2.54,0,4.93,1.18,6.48,3.19,1.55,2.01,2.07,4.63,1.41,7.09l-1.71,6.37c-.2,.75-.51,1.47-.92,2.14l-15.16,24.85c1.91,.39,3.64,1.46,4.85,3.03,1.55,2.01,2.07,4.63,1.41,7.09l-2.05,7.64c-.96,3.57-4.19,6.05-7.89,6.05Z"/></g><g><path d="M41.21,80.36l13.7-51.12h22.97l-2.06,7.7h-11.67l-3.4,12.69h8.9l-2.1,7.82h-8.9l-4.09,15.27h11.8l-2.05,7.64h-23.1Z"/><path d="M64.31,88.53h-23.1c-2.54,0-4.93-1.18-6.48-3.19-1.55-2.01-2.07-4.63-1.41-7.09l13.7-51.12c.96-3.57,4.19-6.05,7.89-6.05h22.97c2.54,0,4.93,1.18,6.48,3.19,1.55,2.01,2.07,4.63,1.41,7.09l-2.06,7.7c-.9,3.37-3.84,5.77-7.28,6.03,1.3,1.95,1.71,4.37,1.1,6.66l-2.1,7.82c-.76,2.83-2.94,4.97-5.66,5.74,1.19,.55,2.24,1.38,3.06,2.44,1.55,2.01,2.07,4.63,1.41,7.09l-2.05,7.64c-.96,3.57-4.19,6.05-7.89,6.05Z"/></g><g><path d="M69.06,80.36l13.7-51.12h13.32c2.19,0,4.22,.17,6.08,.5,1.87,.34,3.43,.98,4.69,1.93,1.26,.95,2.09,2.29,2.48,4.04,.39,1.75,.21,4.05-.56,6.91-.55,2.06-1.32,3.8-2.31,5.21-.99,1.41-2.15,2.54-3.49,3.38-1.34,.84-2.83,1.41-4.46,1.7,1.91,.25,3.4,.89,4.47,1.92,1.07,1.03,1.72,2.41,1.95,4.13,.23,1.73,.02,3.81-.63,6.25-.71,2.65-1.67,4.93-2.88,6.85-1.21,1.91-2.63,3.48-4.26,4.7s-3.48,2.13-5.55,2.71c-2.07,.59-4.35,.88-6.83,.88h-15.71Zm13.41-7.89h2.4c2.48,0,4.37-.63,5.65-1.89,1.29-1.26,2.25-3.11,2.91-5.55,.52-1.93,.72-3.47,.6-4.61-.12-1.14-.59-1.97-1.42-2.49-.83-.53-2.06-.79-3.7-.79h-2.34l-4.11,15.34Zm6.1-22.78h2.21c1.72,0,3.1-.26,4.12-.79,1.02-.53,1.83-1.29,2.42-2.3,.59-1.01,1.07-2.23,1.45-3.66,.36-1.35,.42-2.47,.18-3.38-.24-.9-.77-1.59-1.6-2.05-.82-.46-1.95-.69-3.38-.69h-1.96l-3.45,12.87Z"/><path d="M84.77,88.53h-15.71c-2.54,0-4.93-1.18-6.48-3.19-1.55-2.01-2.07-4.63-1.41-7.09l13.7-51.12c.96-3.57,4.19-6.05,7.89-6.05h13.32c2.66,0,5.19,.21,7.53,.63,3.13,.57,5.87,1.72,8.15,3.43,2.8,2.11,4.72,5.14,5.54,8.76,.7,3.1,.49,6.64-.63,10.83-.79,2.97-1.98,5.59-3.51,7.78-.36,.52-.74,1.01-1.14,1.49,.48,1.21,.82,2.51,1.01,3.88,.38,2.83,.11,5.92-.84,9.45-.92,3.43-2.22,6.49-3.86,9.09-1.74,2.75-3.85,5.07-6.27,6.89-2.43,1.81-5.19,3.17-8.22,4.03-2.78,.79-5.83,1.19-9.06,1.19Z"/></g><g><path d="M105.33,80.36l13.7-51.12h14.07c3.45,0,6.34,.38,8.66,1.14,2.32,.76,3.92,2.11,4.81,4.07,.88,1.96,.85,4.72-.11,8.3-.56,2.1-1.23,3.97-2.01,5.62-.78,1.64-1.78,3.06-3,4.26-1.23,1.2-2.79,2.2-4.69,3l.38,24.74h-11.67l.52-22.91h-3.22l-6.14,22.91h-11.3Zm19.18-29.41h3.16c1.6,0,2.92-.28,3.95-.85,1.03-.57,1.88-1.39,2.52-2.46,.64-1.07,1.17-2.37,1.58-3.88,.59-2.19,.64-3.89,.17-5.11-.47-1.22-1.78-1.83-3.93-1.83h-3.66l-3.79,14.14Z"/><path d="M137.14,88.53h-11.67c-1.58,0-3.11-.46-4.42-1.3-1.29,.83-2.81,1.3-4.42,1.3h-11.3c-2.54,0-4.93-1.18-6.48-3.19-1.55-2.01-2.07-4.63-1.41-7.09l13.7-51.12c.96-3.57,4.19-6.05,7.89-6.05h14.07c4.36,0,8.02,.5,11.19,1.54,4.51,1.47,7.87,4.4,9.71,8.46,1.7,3.77,1.82,8.28,.34,13.78-.69,2.57-1.54,4.93-2.52,7-1.19,2.51-2.76,4.73-4.67,6.6-.67,.65-1.39,1.26-2.16,1.83l.3,19.94c.03,2.19-.81,4.3-2.35,5.85s-3.63,2.44-5.82,2.44Z"/></g><g><path d="M141.16,80.36l23.35-51.12h12.87l-4.17,51.12h-10.41l1.19-10.79h-7.51l-4.66,10.79h-10.67Zm18.14-17.54h5.43l2.63-19.94-8.06,19.94Z"/><path d="M173.22,88.53h-10.41c-2.04,0-3.99-.76-5.49-2.12-1.47,1.34-3.42,2.12-5.49,2.12h-10.67c-2.78,0-5.37-1.41-6.87-3.75-1.5-2.34-1.71-5.28-.56-7.81l23.35-51.12c1.33-2.91,4.23-4.77,7.43-4.77h12.87c2.28,0,4.46,.95,6,2.63,1.55,1.68,2.32,3.93,2.13,6.2l-4.17,51.12c-.35,4.24-3.89,7.5-8.14,7.5Z"/></g><g><path d="M178,80.36l13.7-51.12h11.3l-11.65,43.48h11.74l-2.05,7.64h-23.03Z"/><path d="M201.03,88.53h-23.03c-2.54,0-4.93-1.18-6.48-3.19-1.55-2.01-2.07-4.63-1.41-7.09l13.7-51.12c.96-3.57,4.19-6.05,7.89-6.05h11.3c2.54,0,4.93,1.18,6.48,3.19,1.55,2.01,2.07,4.63,1.41,7.09l-8.9,33.2h1.09c2.54,0,4.93,1.18,6.48,3.19,1.55,2.01,2.07,4.63,1.41,7.09l-2.05,7.64c-.96,3.57-4.19,6.05-7.89,6.05Z"/></g><g><path d="M205.69,80.36l13.7-51.12h11.3l-13.7,51.12h-11.3Z"/><path d="M216.99,88.53h-11.3c-2.54,0-4.93-1.18-6.48-3.19-1.55-2.01-2.07-4.63-1.41-7.09l13.7-51.12c.96-3.57,4.19-6.05,7.89-6.05h11.3c2.54,0,4.93,1.18,6.48,3.19,1.55,2.01,2.07,4.63,1.41,7.09l-13.7,51.12c-.96,3.57-4.19,6.05-7.89,6.05Z"/></g><g><path d="M236.88,81.12c-3.2,0-5.72-.57-7.56-1.7-1.84-1.14-2.99-2.89-3.45-5.27-.46-2.38-.24-5.46,.65-9.25l10.04-1.45c-.54,2.19-.82,3.96-.82,5.3,0,1.35,.24,2.31,.74,2.9,.49,.59,1.2,.88,2.13,.88,1.18,0,2.05-.4,2.62-1.2,.57-.8,.98-1.64,1.21-2.52,.56-2.1,.53-3.88-.09-5.33-.62-1.45-1.6-2.91-2.93-4.39l-3.39-3.85c-1.5-1.64-2.63-3.5-3.4-5.59-.77-2.08-.74-4.66,.08-7.73,1.16-4.33,3.33-7.65,6.51-9.94,3.18-2.29,6.98-3.44,11.4-3.44,2.73,0,4.81,.46,6.22,1.39,1.41,.93,2.35,2.14,2.81,3.63,.46,1.49,.63,3.07,.5,4.73-.13,1.66-.38,3.25-.74,4.76l-10.04,1.2c.36-1.51,.62-2.83,.77-3.94,.15-1.11,.08-1.98-.22-2.59-.3-.61-.93-.92-1.9-.92-1.05,0-1.94,.44-2.66,1.33-.72,.88-1.2,1.77-1.44,2.65-.51,1.89-.47,3.44,.11,4.64,.58,1.2,1.44,2.45,2.56,3.76l3.23,3.72c1.72,1.89,3.03,4.04,3.92,6.44,.89,2.4,.87,5.36-.08,8.9-.64,2.4-1.77,4.58-3.39,6.53-1.62,1.96-3.58,3.5-5.88,4.64-2.3,1.14-4.82,1.7-7.56,1.7Zm10.44-55.91l7.37-12.68h10.48l-11.35,12.68h-6.5Z"/><path d="M236.88,89.29c-4.72,0-8.71-.98-11.85-2.92-3.81-2.35-6.29-6.04-7.18-10.68-.68-3.54-.45-7.68,.72-12.65,.77-3.27,3.46-5.74,6.78-6.22l1.58-.23c-.77-1.3-1.42-2.67-1.95-4.1-1.36-3.69-1.41-7.95-.14-12.67,1.66-6.18,4.89-11.04,9.63-14.45,1.61-1.16,3.32-2.12,5.14-2.88,.17-.48,.38-.94,.64-1.39l7.37-12.68c1.46-2.51,4.15-4.06,7.06-4.06h10.48c3.22,0,6.14,1.89,7.46,4.83,1.31,2.94,.78,6.38-1.37,8.78l-6.89,7.7c1.43,1.58,2.49,3.43,3.13,5.48,.77,2.49,1.05,5.1,.84,7.78-.16,2.09-.48,4.11-.94,6.04-.8,3.32-3.58,5.8-6.97,6.21l-1.51,.18c1.01,1.61,1.86,3.33,2.54,5.14,1.49,4.02,1.55,8.68,.16,13.87-.94,3.53-2.62,6.76-4.99,9.62-2.36,2.84-5.23,5.12-8.56,6.76-3.43,1.69-7.19,2.55-11.17,2.55Z"/></g><g><path d="M255.2,80.36l14.58-51.12h12.12l-2.35,29.72,14.02-29.72h11.67l-12.81,51.12h-8.01l8.17-34.01-15.05,34.01h-7.13l2.87-34.27-9.94,34.27h-8.14Z"/><path d="M292.43,88.53h-8.01c-1.2,0-2.38-.27-3.44-.76-1.06,.49-2.23,.76-3.44,.76h-7.13c-1.24,0-2.44-.28-3.53-.8-1.08,.52-2.28,.8-3.53,.8h-8.14c-2.56,0-4.98-1.2-6.52-3.25-1.54-2.04-2.04-4.7-1.33-7.16l14.58-51.12c1-3.51,4.21-5.93,7.85-5.93h12.12c2.2,0,4.3,.89,5.84,2.46,1.51-1.54,3.6-2.46,5.84-2.46h11.67c2.52,0,4.89,1.16,6.44,3.14,1.55,1.98,2.09,4.57,1.48,7.01l-12.81,51.12c-.91,3.63-4.18,6.18-7.92,6.18Z"/></g><g><path d="M305.86,80.36l5.6-20.89-1.62-30.23h10.66l.53,16.15,8.68-16.15h10.22l-17.63,30.23-5.6,20.89h-10.85Z"/><path d="M316.71,88.53h-10.85c-2.54,0-4.93-1.18-6.48-3.19-1.55-2.01-2.07-4.63-1.41-7.09l5.26-19.64-1.55-28.93c-.12-2.24,.69-4.43,2.23-6.06,1.54-1.63,3.69-2.55,5.93-2.55h10.66c1.71,0,3.29,.52,4.61,1.42,1.33-.91,2.93-1.42,4.61-1.42h10.22c2.92,0,5.62,1.56,7.08,4.1,1.46,2.54,1.45,5.66-.03,8.18l-17.08,29.28-5.31,19.83c-.96,3.57-4.19,6.05-7.89,6.05Z"/></g></g><path class="cls-11" d="M12.52,80.36l1.83-6.82,22.32-36.66h-11.93l2.05-7.64h23.03l-1.71,6.37-22.63,37.11h12.81l-2.05,7.64H12.52Z"/><path class="cls-10" d="M41.21,80.36l13.7-51.12h22.97l-2.06,7.7h-11.67l-3.4,12.69h8.9l-2.1,7.82h-8.9l-4.09,15.27h11.8l-2.05,7.64h-23.1Z"/><path class="cls-7" d="M69.06,80.36l13.7-51.12h13.32c2.19,0,4.22,.17,6.08,.5,1.87,.34,3.43,.98,4.69,1.93,1.26,.95,2.09,2.29,2.48,4.04,.39,1.75,.21,4.05-.56,6.91-.55,2.06-1.32,3.8-2.31,5.21-.99,1.41-2.15,2.54-3.49,3.38-1.34,.84-2.83,1.41-4.46,1.7,1.91,.25,3.4,.89,4.47,1.92,1.07,1.03,1.72,2.41,1.95,4.13,.23,1.73,.02,3.81-.63,6.25-.71,2.65-1.67,4.93-2.88,6.85-1.21,1.91-2.63,3.48-4.26,4.7s-3.48,2.13-5.55,2.71c-2.07,.59-4.35,.88-6.83,.88h-15.71Zm13.41-7.89h2.4c2.48,0,4.37-.63,5.65-1.89,1.29-1.26,2.25-3.11,2.91-5.55,.52-1.93,.72-3.47,.6-4.61-.12-1.14-.59-1.97-1.42-2.49-.83-.53-2.06-.79-3.7-.79h-2.34l-4.11,15.34Zm6.1-22.78h2.21c1.72,0,3.1-.26,4.12-.79,1.02-.53,1.83-1.29,2.42-2.3,.59-1.01,1.07-2.23,1.45-3.66,.36-1.35,.42-2.47,.18-3.38-.24-.9-.77-1.59-1.6-2.05-.82-.46-1.95-.69-3.38-.69h-1.96l-3.45,12.87Z"/><path class="cls-6" d="M105.33,80.36l13.7-51.12h14.07c3.45,0,6.34,.38,8.66,1.14,2.32,.76,3.92,2.11,4.81,4.07,.88,1.96,.85,4.72-.11,8.3-.56,2.1-1.23,3.97-2.01,5.62-.78,1.64-1.78,3.06-3,4.26-1.23,1.2-2.79,2.2-4.69,3l.38,24.74h-11.67l.52-22.91h-3.22l-6.14,22.91h-11.3Zm19.18-29.41h3.16c1.6,0,2.92-.28,3.95-.85,1.03-.57,1.88-1.39,2.52-2.46,.64-1.07,1.17-2.37,1.58-3.88,.59-2.19,.64-3.89,.17-5.11-.47-1.22-1.78-1.83-3.93-1.83h-3.66l-3.79,14.14Z"/><path class="cls-9" d="M141.16,80.36l23.35-51.12h12.87l-4.17,51.12h-10.41l1.19-10.79h-7.51l-4.66,10.79h-10.67Zm18.14-17.54h5.43l2.63-19.94-8.06,19.94Z"/><path class="cls-5" d="M178,80.36l13.7-51.12h11.3l-11.65,43.48h11.74l-2.05,7.64h-23.03Z"/><path class="cls-3" d="M205.69,80.36l13.7-51.12h11.3l-13.7,51.12h-11.3Z"/><path class="cls-4" d="M236.88,81.12c-3.2,0-5.72-.57-7.56-1.7-1.84-1.14-2.99-2.89-3.45-5.27-.46-2.38-.24-5.46,.65-9.25l10.04-1.45c-.54,2.19-.82,3.96-.82,5.3,0,1.35,.24,2.31,.74,2.9,.49,.59,1.2,.88,2.13,.88,1.18,0,2.05-.4,2.62-1.2,.57-.8,.98-1.64,1.21-2.52,.56-2.1,.53-3.88-.09-5.33-.62-1.45-1.6-2.91-2.93-4.39l-3.39-3.85c-1.5-1.64-2.63-3.5-3.4-5.59-.77-2.08-.74-4.66,.08-7.73,1.16-4.33,3.33-7.65,6.51-9.94,3.18-2.29,6.98-3.44,11.4-3.44,2.73,0,4.81,.46,6.22,1.39,1.41,.93,2.35,2.14,2.81,3.63,.46,1.49,.63,3.07,.5,4.73-.13,1.66-.38,3.25-.74,4.76l-10.04,1.2c.36-1.51,.62-2.83,.77-3.94,.15-1.11,.08-1.98-.22-2.59-.3-.61-.93-.92-1.9-.92-1.05,0-1.94,.44-2.66,1.33-.72,.88-1.2,1.77-1.44,2.65-.51,1.89-.47,3.44,.11,4.64,.58,1.2,1.44,2.45,2.56,3.76l3.23,3.72c1.72,1.89,3.03,4.04,3.92,6.44,.89,2.4,.87,5.36-.08,8.9-.64,2.4-1.77,4.58-3.39,6.53-1.62,1.96-3.58,3.5-5.88,4.64-2.3,1.14-4.82,1.7-7.56,1.7Zm10.44-55.91l7.37-12.68h10.48l-11.35,12.68h-6.5Z"/><path class="cls-8" d="M255.2,80.36l14.58-51.12h12.12l-2.35,29.72,14.02-29.72h11.67l-12.81,51.12h-8.01l8.17-34.01-15.05,34.01h-7.13l2.87-34.27-9.94,34.27h-8.14Z"/><path class="cls-2" d="M305.86,80.36l5.6-20.89-1.62-30.23h10.66l.53,16.15,8.68-16.15h10.22l-17.63,30.23-5.6,20.89h-10.85Z"/></g></g></g></g></svg>