<?xml version="1.0" encoding="UTF-8" standalone="no"?>
<svg
   viewBox="0 0 347.56 58"
   version="1.1"
   id="svg104"
   sodipodi:docname="eskarbonka.svg"
   inkscape:version="1.2.1 (9c6d41e410, 2022-07-14)"
   xmlns:inkscape="http://www.inkscape.org/namespaces/inkscape"
   xmlns:sodipodi="http://sodipodi.sourceforge.net/DTD/sodipodi-0.dtd"
   xmlns="http://www.w3.org/2000/svg"
   xmlns:svg="http://www.w3.org/2000/svg">
  <sodipodi:namedview
     id="namedview106"
     pagecolor="#ffffff"
     bordercolor="#000000"
     borderopacity="0.25"
     inkscape:showpageshadow="2"
     inkscape:pageopacity="0.0"
     inkscape:pagecheckerboard="0"
     inkscape:deskcolor="#d1d1d1"
     showgrid="false"
     inkscape:zoom="3.8727127"
     inkscape:cx="173.90911"
     inkscape:cy="29.049405"
     inkscape:window-width="2560"
     inkscape:window-height="1351"
     inkscape:window-x="1911"
     inkscape:window-y="-9"
     inkscape:window-maximized="1"
     inkscape:current-layer="svg104" />
  <defs
     id="defs4">
    <style
       id="style2">.cls-1,.cls-16,.cls-17{font-size:33.59px;fill:#8cdc00;font-family:Oswald-Bold, Oswald;font-weight:700;}.cls-1{stroke:#fff;stroke-linecap:square;stroke-width:20px;}.cls-1,.cls-16{stroke-linejoin:round;}.cls-2{letter-spacing:0.02em;}.cls-3{letter-spacing:-0.01em;}.cls-4{letter-spacing:0.01em;}.cls-5{letter-spacing:-0.04em;}.cls-6{letter-spacing:0em;}.cls-7{letter-spacing:0em;}.cls-8{letter-spacing:0.03em;}.cls-9{letter-spacing:0em;}.cls-10{letter-spacing:-0.01em;}.cls-11{letter-spacing:0em;}.cls-12{letter-spacing:-0.01em;}.cls-13{letter-spacing:-0.01em;}.cls-14{letter-spacing:0.01em;}.cls-15{letter-spacing:0em;}.cls-16{stroke:#000;stroke-width:10px;}</style>
  </defs>
  <g
     id="Warstwa_2"
     data-name="Warstwa 2">
    <g
       id="Warstwa_10"
       data-name="Warstwa 10">
      <g
         aria-label="KWOTA ZeSKARBONKI :"
         transform="matrix(0.97, 0, -0.26, 0.97, 15.08, 39.02)"
         id="text36"
         class="cls-1"
         style="font-weight:700;font-size:33.59px;font-family:Oswald-Bold, Oswald;fill:#8cdc00;stroke:#ffffff;stroke-width:20px;stroke-linecap:square;stroke-linejoin:round">
        <path
           d="m 2.0154,0 v -27.2079 h 6.01261 v 11.11829 L 12.59625,-27.2079 H 18.4745 L 13.436,-14.91396 18.70963,0 H 12.59625 L 8.66622,-12.02522 8.02801,-10.95034 V 0 Z"
           style="letter-spacing:0.02em"
           id="path418" />
        <path
           d="m 23.85875,0 -3.29182,-27.2079 h 5.10568 l 1.61232,15.85448 2.04899,-15.82089 h 3.99721 l 2.14976,15.72012 1.64591,-15.75371 h 5.0385 L 38.90707,0 H 33.66703 L 31.34932,-16.42551 29.16597,0 Z"
           style="letter-spacing:-0.01em"
           id="path420" />
        <path
           d="m 52.62828,0.40308 q -3.05669,0 -4.83696,-1.07488 -1.78027,-1.07488 -2.55284,-3.09028 -0.77257,-2.0154 -0.77257,-4.80337 v -10.11059 q 0,-2.82156 0.77257,-4.80337 0.77257,-1.98181 2.55284,-3.0231 1.78027,-1.07488 4.83696,-1.07488 3.09028,0 4.87055,1.07488 1.81386,1.04129 2.58643,3.0231 0.77257,1.98181 0.77257,4.80337 v 10.11059 q 0,2.78797 -0.77257,4.80337 -0.77257,2.0154 -2.58643,3.09028 -1.78027,1.07488 -4.87055,1.07488 z m 0,-4.26593 q 0.94052,0 1.37719,-0.47026 0.43667,-0.47026 0.57103,-1.20924 0.13436,-0.73898 0.13436,-1.51155 V -20.154 q 0,-0.80616 -0.13436,-1.51155 -0.13436,-0.73898 -0.57103,-1.20924 -0.43667,-0.47026 -1.37719,-0.47026 -0.87334,0 -1.31001,0.47026 -0.43667,0.47026 -0.57103,1.20924 -0.13436,0.70539 -0.13436,1.51155 v 13.1001 q 0,0.77257 0.10077,1.51155 0.13436,0.73898 0.53744,1.20924 0.43667,0.47026 1.37719,0.47026 z"
           style="letter-spacing:0.01em"
           id="path422" />
        <path
           d="m 67.21747,0 v -22.74043 h -4.09798 v -4.46747 h 14.20857 v 4.46747 H 73.26367 V 0 Z"
           style="letter-spacing:-0.04em"
           id="path424" />
        <path
           d="m 77.235389,0 5.13927,-27.2079 h 6.85236 L 94.299109,0 h -5.54235 l -0.90693,-5.74389 h -3.99721 L 82.912099,0 Z m 7.15467,-9.33802 h 2.88874 l -1.44437,-10.61444 z"
           id="path426" />
        <path
           d="m 104.61128,0 v -3.62772 l 6.65082,-19.51579 h -6.34851 v -4.06439 h 12.26035 v 3.39259 l -6.75159,19.75092 h 6.81877 V 0 Z"
           id="path428" />
        <path
           d="m 134.8416,0.3359 q -2.11617,0 -3.62772,-0.73898 -1.51155,-0.77257 -2.31771,-2.21694 -0.80616,-1.47796 -0.80616,-3.52695 v -7.12108 q 0,-2.08258 0.80616,-3.52695 0.80616,-1.44437 2.31771,-2.18335 1.54514,-0.77257 3.62772,-0.77257 2.14976,0 3.56054,0.73898 1.44437,0.73898 2.14976,2.18335 0.73898,1.44437 0.73898,3.56054 v 3.89644 H 133.498 v 3.72849 q 0,0.73898 0.16795,1.20924 0.16795,0.47026 0.47026,0.6718 0.30231,0.20154 0.70539,0.20154 0.40308,0 0.70539,-0.16795 0.3359,-0.20154 0.50385,-0.60462 0.20154,-0.40308 0.20154,-1.10847 v -2.04899 h 5.0385 v 1.88104 q 0,2.95592 -1.71309,4.46747 -1.71309,1.47796 -4.73619,1.47796 z m -1.3436,-12.26035 h 2.75438 v -1.94822 q 0,-0.77257 -0.20154,-1.20924 -0.16795,-0.43667 -0.50385,-0.60462 -0.30231,-0.16795 -0.73898,-0.16795 -0.40308,0 -0.70539,0.20154 -0.26872,0.20154 -0.43667,0.70539 -0.16795,0.47026 -0.16795,1.37719 z"
           style="letter-spacing:0em"
           id="path430" />
        <path
           d="m 151.71725,0.40308 q -2.55284,0 -4.26593,-0.90693 -1.71309,-0.90693 -2.58643,-2.78797 -0.87334,-1.91463 -0.97411,-4.93773 l 5.13927,-0.77257 q 0.0336,1.74668 0.30231,2.82156 0.30231,1.07488 0.80616,1.54514 0.53744,0.47026 1.27642,0.47026 0.94052,0 1.20924,-0.63821 0.30231,-0.63821 0.30231,-1.3436 0,-1.6795 -0.80616,-2.82156 -0.80616,-1.17565 -2.18335,-2.3513 l -2.3513,-2.04899 q -1.54514,-1.31001 -2.62002,-2.95592 -1.04129,-1.6795 -1.04129,-4.13157 0,-3.45977 2.04899,-5.27363 2.04899,-1.84745 5.57594,-1.84745 2.18335,0 3.49336,0.73898 1.3436,0.73898 2.0154,1.94822 0.70539,1.17565 0.94052,2.51925 0.26872,1.31001 0.30231,2.51925 l -5.17286,0.63821 q -0.0336,-1.20924 -0.16795,-2.08258 -0.10077,-0.90693 -0.47026,-1.37719 -0.36949,-0.50385 -1.14206,-0.50385 -0.83975,0 -1.24283,0.70539 -0.36949,0.70539 -0.36949,1.41078 0,1.51155 0.70539,2.48566 0.73898,0.94052 1.91463,1.98181 l 2.25053,1.98181 q 1.78027,1.51155 2.98951,3.42618 1.24283,1.91463 1.24283,4.73619 0,1.91463 -0.87334,3.49336 -0.87334,1.54514 -2.48566,2.45207 -1.57873,0.90693 -3.76208,0.90693 z"
           style="letter-spacing:0em"
           id="path432" />
        <path
           d="m 161.72541,0 v -27.2079 h 6.01261 v 11.11829 l 4.56824,-11.11829 h 5.87825 l -5.0385,12.29394 L 178.41964,0 h -6.11338 l -3.93003,-12.02522 -0.63821,1.07488 V 0 Z"
           style="letter-spacing:0.03em"
           id="path434" />
        <path
           d="m 180.40539,0 5.13927,-27.2079 h 6.85236 L 197.46911,0 h -5.54235 l -0.90693,-5.74389 h -3.99721 L 186.0821,0 Z m 7.15467,-9.33802 h 2.88874 l -1.44437,-10.61444 z"
           style="letter-spacing:0em"
           id="path436" />
        <path
           d="m 200.2854,0 v -27.2079 h 7.49057 q 2.75438,0 4.76978,0.60462 2.0154,0.60462 3.12387,2.18335 1.14206,1.54514 1.14206,4.40029 0,1.6795 -0.26872,2.98951 -0.26872,1.31001 -1.0077,2.28412 -0.70539,0.94052 -2.04899,1.57873 L 217.21476,0 h -6.21415 l -2.98951,-12.19317 h -1.71309 V 0 Z m 6.01261,-15.65294 h 1.6795 q 1.27642,0 1.98181,-0.43667 0.70539,-0.47026 0.97411,-1.31001 0.30231,-0.87334 0.30231,-2.08258 0,-1.74668 -0.63821,-2.72079 -0.63821,-0.97411 -2.3513,-0.97411 h -1.94822 z"
           style="letter-spacing:-0.01em"
           id="path438" />
        <path
           d="m 220.2354,0 v -27.2079 h 7.08749 q 1.74668,0 3.29182,0.26872 1.57873,0.26872 2.78797,1.04129 1.20924,0.73898 1.88104,2.14976 0.70539,1.37719 0.70539,3.66131 0,1.64591 -0.50385,2.78797 -0.47026,1.10847 -1.37719,1.78027 -0.87334,0.6718 -2.11617,0.90693 1.57873,0.20154 2.65361,1.04129 1.07488,0.80616 1.61232,2.18335 0.57103,1.37719 0.57103,3.32541 0,2.11617 -0.57103,3.66131 -0.53744,1.51155 -1.57873,2.48566 -1.04129,0.97411 -2.58643,1.44437 Q 230.58112,0 228.59931,0 Z m 6.01261,-4.19875 h 1.27642 q 1.98181,0 2.72079,-1.0077 0.77257,-1.0077 0.77257,-2.95592 0,-1.54514 -0.3359,-2.45207 -0.3359,-0.90693 -1.10847,-1.31001 -0.77257,-0.43667 -2.08258,-0.43667 h -1.24283 z m 0,-12.12599 h 1.17565 q 1.37719,0 2.08258,-0.40308 0.70539,-0.43667 0.94052,-1.24283 0.26872,-0.80616 0.26872,-1.94822 0,-1.07488 -0.40308,-1.78027 -0.36949,-0.73898 -1.14206,-1.10847 -0.73898,-0.36949 -1.88104,-0.36949 h -1.04129 z"
           style="letter-spacing:0em"
           id="path440" />
        <path
           d="m 247.80828,0.40308 q -3.05669,0 -4.83696,-1.07488 -1.78027,-1.07488 -2.55284,-3.09028 -0.77257,-2.0154 -0.77257,-4.80337 v -10.11059 q 0,-2.82156 0.77257,-4.80337 0.77257,-1.98181 2.55284,-3.0231 1.78027,-1.07488 4.83696,-1.07488 3.09028,0 4.87055,1.07488 1.81386,1.04129 2.58643,3.0231 0.77257,1.98181 0.77257,4.80337 v 10.11059 q 0,2.78797 -0.77257,4.80337 -0.77257,2.0154 -2.58643,3.09028 -1.78027,1.07488 -4.87055,1.07488 z m 0,-4.26593 q 0.94052,0 1.37719,-0.47026 0.43667,-0.47026 0.57103,-1.20924 0.13436,-0.73898 0.13436,-1.51155 V -20.154 q 0,-0.80616 -0.13436,-1.51155 -0.13436,-0.73898 -0.57103,-1.20924 -0.43667,-0.47026 -1.37719,-0.47026 -0.87334,0 -1.31001,0.47026 -0.43667,0.47026 -0.57103,1.20924 -0.13436,0.70539 -0.13436,1.51155 v 13.1001 q 0,0.77257 0.10077,1.51155 0.13436,0.73898 0.53744,1.20924 0.43667,0.47026 1.37719,0.47026 z"
           style="letter-spacing:-0.01em"
           id="path442" />
        <path
           d="m 259.34539,0 v -27.2079 h 4.23234 l 5.57594,13.1001 v -13.1001 h 4.97132 V 0 h -4.06439 l -5.57594,-14.1078 V 0 Z"
           style="letter-spacing:-0.01em"
           id="path444" />
        <path
           d="m 277.69539,0 v -27.2079 h 6.01261 v 11.11829 l 4.56824,-11.11829 h 5.87825 l -5.0385,12.29394 L 294.38962,0 h -6.11338 l -3.93003,-12.02522 -0.63821,1.07488 V 0 Z"
           style="letter-spacing:0.01em"
           id="path446" />
        <path
           d="m 297.029,0 v -27.2079 h 6.01261 V 0 Z"
           style="letter-spacing:0em"
           id="path448" />
        <path
           d="m 315.94021,-13.83908 v -5.10568 h 5.10568 v 5.10568 z m 0,11.95804 v -5.10568 h 5.10568 v 5.10568 z"
           style="letter-spacing:0em"
           id="path450" />
      </g>
      <g
         aria-label="KWOTA ZeSKARBONKI :"
         transform="matrix(0.97, 0, -0.26, 0.97, 15.08, 39.02)"
         id="text68"
         class="cls-16"
         style="font-weight:700;font-size:33.59px;font-family:Oswald-Bold, Oswald;fill:#8cdc00;stroke:#000000;stroke-width:10px;stroke-linejoin:round">
        <path
           d="m 2.0154,0 v -27.2079 h 6.01261 v 11.11829 L 12.59625,-27.2079 H 18.4745 L 13.436,-14.91396 18.70963,0 H 12.59625 L 8.66622,-12.02522 8.02801,-10.95034 V 0 Z"
           style="letter-spacing:0.02em"
           id="path453" />
        <path
           d="m 23.85875,0 -3.29182,-27.2079 h 5.10568 l 1.61232,15.85448 2.04899,-15.82089 h 3.99721 l 2.14976,15.72012 1.64591,-15.75371 h 5.0385 L 38.90707,0 H 33.66703 L 31.34932,-16.42551 29.16597,0 Z"
           style="letter-spacing:-0.01em"
           id="path455" />
        <path
           d="m 52.62828,0.40308 q -3.05669,0 -4.83696,-1.07488 -1.78027,-1.07488 -2.55284,-3.09028 -0.77257,-2.0154 -0.77257,-4.80337 v -10.11059 q 0,-2.82156 0.77257,-4.80337 0.77257,-1.98181 2.55284,-3.0231 1.78027,-1.07488 4.83696,-1.07488 3.09028,0 4.87055,1.07488 1.81386,1.04129 2.58643,3.0231 0.77257,1.98181 0.77257,4.80337 v 10.11059 q 0,2.78797 -0.77257,4.80337 -0.77257,2.0154 -2.58643,3.09028 -1.78027,1.07488 -4.87055,1.07488 z m 0,-4.26593 q 0.94052,0 1.37719,-0.47026 0.43667,-0.47026 0.57103,-1.20924 0.13436,-0.73898 0.13436,-1.51155 V -20.154 q 0,-0.80616 -0.13436,-1.51155 -0.13436,-0.73898 -0.57103,-1.20924 -0.43667,-0.47026 -1.37719,-0.47026 -0.87334,0 -1.31001,0.47026 -0.43667,0.47026 -0.57103,1.20924 -0.13436,0.70539 -0.13436,1.51155 v 13.1001 q 0,0.77257 0.10077,1.51155 0.13436,0.73898 0.53744,1.20924 0.43667,0.47026 1.37719,0.47026 z"
           style="letter-spacing:0.01em"
           id="path457" />
        <path
           d="m 67.21747,0 v -22.74043 h -4.09798 v -4.46747 h 14.20857 v 4.46747 H 73.26367 V 0 Z"
           style="letter-spacing:-0.04em"
           id="path459" />
        <path
           d="m 77.235389,0 5.13927,-27.2079 h 6.85236 L 94.299109,0 h -5.54235 l -0.90693,-5.74389 h -3.99721 L 82.912099,0 Z m 7.15467,-9.33802 h 2.88874 l -1.44437,-10.61444 z"
           id="path461" />
        <path
           d="m 104.61128,0 v -3.62772 l 6.65082,-19.51579 h -6.34851 v -4.06439 h 12.26035 v 3.39259 l -6.75159,19.75092 h 6.81877 V 0 Z"
           id="path463" />
        <path
           d="m 134.8416,0.3359 q -2.11617,0 -3.62772,-0.73898 -1.51155,-0.77257 -2.31771,-2.21694 -0.80616,-1.47796 -0.80616,-3.52695 v -7.12108 q 0,-2.08258 0.80616,-3.52695 0.80616,-1.44437 2.31771,-2.18335 1.54514,-0.77257 3.62772,-0.77257 2.14976,0 3.56054,0.73898 1.44437,0.73898 2.14976,2.18335 0.73898,1.44437 0.73898,3.56054 v 3.89644 H 133.498 v 3.72849 q 0,0.73898 0.16795,1.20924 0.16795,0.47026 0.47026,0.6718 0.30231,0.20154 0.70539,0.20154 0.40308,0 0.70539,-0.16795 0.3359,-0.20154 0.50385,-0.60462 0.20154,-0.40308 0.20154,-1.10847 v -2.04899 h 5.0385 v 1.88104 q 0,2.95592 -1.71309,4.46747 -1.71309,1.47796 -4.73619,1.47796 z m -1.3436,-12.26035 h 2.75438 v -1.94822 q 0,-0.77257 -0.20154,-1.20924 -0.16795,-0.43667 -0.50385,-0.60462 -0.30231,-0.16795 -0.73898,-0.16795 -0.40308,0 -0.70539,0.20154 -0.26872,0.20154 -0.43667,0.70539 -0.16795,0.47026 -0.16795,1.37719 z"
           style="letter-spacing:0em"
           id="path465" />
        <path
           d="m 151.71725,0.40308 q -2.55284,0 -4.26593,-0.90693 -1.71309,-0.90693 -2.58643,-2.78797 -0.87334,-1.91463 -0.97411,-4.93773 l 5.13927,-0.77257 q 0.0336,1.74668 0.30231,2.82156 0.30231,1.07488 0.80616,1.54514 0.53744,0.47026 1.27642,0.47026 0.94052,0 1.20924,-0.63821 0.30231,-0.63821 0.30231,-1.3436 0,-1.6795 -0.80616,-2.82156 -0.80616,-1.17565 -2.18335,-2.3513 l -2.3513,-2.04899 q -1.54514,-1.31001 -2.62002,-2.95592 -1.04129,-1.6795 -1.04129,-4.13157 0,-3.45977 2.04899,-5.27363 2.04899,-1.84745 5.57594,-1.84745 2.18335,0 3.49336,0.73898 1.3436,0.73898 2.0154,1.94822 0.70539,1.17565 0.94052,2.51925 0.26872,1.31001 0.30231,2.51925 l -5.17286,0.63821 q -0.0336,-1.20924 -0.16795,-2.08258 -0.10077,-0.90693 -0.47026,-1.37719 -0.36949,-0.50385 -1.14206,-0.50385 -0.83975,0 -1.24283,0.70539 -0.36949,0.70539 -0.36949,1.41078 0,1.51155 0.70539,2.48566 0.73898,0.94052 1.91463,1.98181 l 2.25053,1.98181 q 1.78027,1.51155 2.98951,3.42618 1.24283,1.91463 1.24283,4.73619 0,1.91463 -0.87334,3.49336 -0.87334,1.54514 -2.48566,2.45207 -1.57873,0.90693 -3.76208,0.90693 z"
           style="letter-spacing:0em"
           id="path467" />
        <path
           d="m 161.72541,0 v -27.2079 h 6.01261 v 11.11829 l 4.56824,-11.11829 h 5.87825 l -5.0385,12.29394 L 178.41964,0 h -6.11338 l -3.93003,-12.02522 -0.63821,1.07488 V 0 Z"
           style="letter-spacing:0.03em"
           id="path469" />
        <path
           d="m 180.40539,0 5.13927,-27.2079 h 6.85236 L 197.46911,0 h -5.54235 l -0.90693,-5.74389 h -3.99721 L 186.0821,0 Z m 7.15467,-9.33802 h 2.88874 l -1.44437,-10.61444 z"
           style="letter-spacing:0em"
           id="path471" />
        <path
           d="m 200.2854,0 v -27.2079 h 7.49057 q 2.75438,0 4.76978,0.60462 2.0154,0.60462 3.12387,2.18335 1.14206,1.54514 1.14206,4.40029 0,1.6795 -0.26872,2.98951 -0.26872,1.31001 -1.0077,2.28412 -0.70539,0.94052 -2.04899,1.57873 L 217.21476,0 h -6.21415 l -2.98951,-12.19317 h -1.71309 V 0 Z m 6.01261,-15.65294 h 1.6795 q 1.27642,0 1.98181,-0.43667 0.70539,-0.47026 0.97411,-1.31001 0.30231,-0.87334 0.30231,-2.08258 0,-1.74668 -0.63821,-2.72079 -0.63821,-0.97411 -2.3513,-0.97411 h -1.94822 z"
           style="letter-spacing:-0.01em"
           id="path473" />
        <path
           d="m 220.2354,0 v -27.2079 h 7.08749 q 1.74668,0 3.29182,0.26872 1.57873,0.26872 2.78797,1.04129 1.20924,0.73898 1.88104,2.14976 0.70539,1.37719 0.70539,3.66131 0,1.64591 -0.50385,2.78797 -0.47026,1.10847 -1.37719,1.78027 -0.87334,0.6718 -2.11617,0.90693 1.57873,0.20154 2.65361,1.04129 1.07488,0.80616 1.61232,2.18335 0.57103,1.37719 0.57103,3.32541 0,2.11617 -0.57103,3.66131 -0.53744,1.51155 -1.57873,2.48566 -1.04129,0.97411 -2.58643,1.44437 Q 230.58112,0 228.59931,0 Z m 6.01261,-4.19875 h 1.27642 q 1.98181,0 2.72079,-1.0077 0.77257,-1.0077 0.77257,-2.95592 0,-1.54514 -0.3359,-2.45207 -0.3359,-0.90693 -1.10847,-1.31001 -0.77257,-0.43667 -2.08258,-0.43667 h -1.24283 z m 0,-12.12599 h 1.17565 q 1.37719,0 2.08258,-0.40308 0.70539,-0.43667 0.94052,-1.24283 0.26872,-0.80616 0.26872,-1.94822 0,-1.07488 -0.40308,-1.78027 -0.36949,-0.73898 -1.14206,-1.10847 -0.73898,-0.36949 -1.88104,-0.36949 h -1.04129 z"
           style="letter-spacing:0em"
           id="path475" />
        <path
           d="m 247.80828,0.40308 q -3.05669,0 -4.83696,-1.07488 -1.78027,-1.07488 -2.55284,-3.09028 -0.77257,-2.0154 -0.77257,-4.80337 v -10.11059 q 0,-2.82156 0.77257,-4.80337 0.77257,-1.98181 2.55284,-3.0231 1.78027,-1.07488 4.83696,-1.07488 3.09028,0 4.87055,1.07488 1.81386,1.04129 2.58643,3.0231 0.77257,1.98181 0.77257,4.80337 v 10.11059 q 0,2.78797 -0.77257,4.80337 -0.77257,2.0154 -2.58643,3.09028 -1.78027,1.07488 -4.87055,1.07488 z m 0,-4.26593 q 0.94052,0 1.37719,-0.47026 0.43667,-0.47026 0.57103,-1.20924 0.13436,-0.73898 0.13436,-1.51155 V -20.154 q 0,-0.80616 -0.13436,-1.51155 -0.13436,-0.73898 -0.57103,-1.20924 -0.43667,-0.47026 -1.37719,-0.47026 -0.87334,0 -1.31001,0.47026 -0.43667,0.47026 -0.57103,1.20924 -0.13436,0.70539 -0.13436,1.51155 v 13.1001 q 0,0.77257 0.10077,1.51155 0.13436,0.73898 0.53744,1.20924 0.43667,0.47026 1.37719,0.47026 z"
           style="letter-spacing:-0.01em"
           id="path477" />
        <path
           d="m 259.34539,0 v -27.2079 h 4.23234 l 5.57594,13.1001 v -13.1001 h 4.97132 V 0 h -4.06439 l -5.57594,-14.1078 V 0 Z"
           style="letter-spacing:-0.01em"
           id="path479" />
        <path
           d="m 277.69539,0 v -27.2079 h 6.01261 v 11.11829 l 4.56824,-11.11829 h 5.87825 l -5.0385,12.29394 L 294.38962,0 h -6.11338 l -3.93003,-12.02522 -0.63821,1.07488 V 0 Z"
           style="letter-spacing:0.01em"
           id="path481" />
        <path
           d="m 297.029,0 v -27.2079 h 6.01261 V 0 Z"
           style="letter-spacing:0em"
           id="path483" />
        <path
           d="m 315.94021,-13.83908 v -5.10568 h 5.10568 v 5.10568 z m 0,11.95804 v -5.10568 h 5.10568 v 5.10568 z"
           style="letter-spacing:0em"
           id="path485" />
      </g>
      <g
         aria-label="KWOTA ZeSKARBONKI :"
         transform="matrix(0.97, 0, -0.26, 0.97, 15.08, 39.02)"
         id="text100"
         class="cls-17"
         style="font-weight:700;font-size:33.59px;font-family:Oswald-Bold, Oswald;fill:#8cdc00">
        <path
           d="m 2.0154,0 v -27.2079 h 6.01261 v 11.11829 L 12.59625,-27.2079 H 18.4745 L 13.436,-14.91396 18.70963,0 H 12.59625 L 8.66622,-12.02522 8.02801,-10.95034 V 0 Z"
           style="letter-spacing:0.02em"
           id="path488" />
        <path
           d="m 23.85875,0 -3.29182,-27.2079 h 5.10568 l 1.61232,15.85448 2.04899,-15.82089 h 3.99721 l 2.14976,15.72012 1.64591,-15.75371 h 5.0385 L 38.90707,0 H 33.66703 L 31.34932,-16.42551 29.16597,0 Z"
           style="letter-spacing:-0.01em"
           id="path490" />
        <path
           d="m 52.62828,0.40308 q -3.05669,0 -4.83696,-1.07488 -1.78027,-1.07488 -2.55284,-3.09028 -0.77257,-2.0154 -0.77257,-4.80337 v -10.11059 q 0,-2.82156 0.77257,-4.80337 0.77257,-1.98181 2.55284,-3.0231 1.78027,-1.07488 4.83696,-1.07488 3.09028,0 4.87055,1.07488 1.81386,1.04129 2.58643,3.0231 0.77257,1.98181 0.77257,4.80337 v 10.11059 q 0,2.78797 -0.77257,4.80337 -0.77257,2.0154 -2.58643,3.09028 -1.78027,1.07488 -4.87055,1.07488 z m 0,-4.26593 q 0.94052,0 1.37719,-0.47026 0.43667,-0.47026 0.57103,-1.20924 0.13436,-0.73898 0.13436,-1.51155 V -20.154 q 0,-0.80616 -0.13436,-1.51155 -0.13436,-0.73898 -0.57103,-1.20924 -0.43667,-0.47026 -1.37719,-0.47026 -0.87334,0 -1.31001,0.47026 -0.43667,0.47026 -0.57103,1.20924 -0.13436,0.70539 -0.13436,1.51155 v 13.1001 q 0,0.77257 0.10077,1.51155 0.13436,0.73898 0.53744,1.20924 0.43667,0.47026 1.37719,0.47026 z"
           style="letter-spacing:0.01em"
           id="path492" />
        <path
           d="m 67.21747,0 v -22.74043 h -4.09798 v -4.46747 h 14.20857 v 4.46747 H 73.26367 V 0 Z"
           style="letter-spacing:-0.04em"
           id="path494" />
        <path
           d="m 77.235389,0 5.13927,-27.2079 h 6.85236 L 94.299109,0 h -5.54235 l -0.90693,-5.74389 h -3.99721 L 82.912099,0 Z m 7.15467,-9.33802 h 2.88874 l -1.44437,-10.61444 z"
           id="path496" />
        <path
           d="m 104.61128,0 v -3.62772 l 6.65082,-19.51579 h -6.34851 v -4.06439 h 12.26035 v 3.39259 l -6.75159,19.75092 h 6.81877 V 0 Z"
           id="path498" />
        <path
           d="m 134.8416,0.3359 q -2.11617,0 -3.62772,-0.73898 -1.51155,-0.77257 -2.31771,-2.21694 -0.80616,-1.47796 -0.80616,-3.52695 v -7.12108 q 0,-2.08258 0.80616,-3.52695 0.80616,-1.44437 2.31771,-2.18335 1.54514,-0.77257 3.62772,-0.77257 2.14976,0 3.56054,0.73898 1.44437,0.73898 2.14976,2.18335 0.73898,1.44437 0.73898,3.56054 v 3.89644 H 133.498 v 3.72849 q 0,0.73898 0.16795,1.20924 0.16795,0.47026 0.47026,0.6718 0.30231,0.20154 0.70539,0.20154 0.40308,0 0.70539,-0.16795 0.3359,-0.20154 0.50385,-0.60462 0.20154,-0.40308 0.20154,-1.10847 v -2.04899 h 5.0385 v 1.88104 q 0,2.95592 -1.71309,4.46747 -1.71309,1.47796 -4.73619,1.47796 z m -1.3436,-12.26035 h 2.75438 v -1.94822 q 0,-0.77257 -0.20154,-1.20924 -0.16795,-0.43667 -0.50385,-0.60462 -0.30231,-0.16795 -0.73898,-0.16795 -0.40308,0 -0.70539,0.20154 -0.26872,0.20154 -0.43667,0.70539 -0.16795,0.47026 -0.16795,1.37719 z"
           style="letter-spacing:0em"
           id="path500" />
        <path
           d="m 151.71725,0.40308 q -2.55284,0 -4.26593,-0.90693 -1.71309,-0.90693 -2.58643,-2.78797 -0.87334,-1.91463 -0.97411,-4.93773 l 5.13927,-0.77257 q 0.0336,1.74668 0.30231,2.82156 0.30231,1.07488 0.80616,1.54514 0.53744,0.47026 1.27642,0.47026 0.94052,0 1.20924,-0.63821 0.30231,-0.63821 0.30231,-1.3436 0,-1.6795 -0.80616,-2.82156 -0.80616,-1.17565 -2.18335,-2.3513 l -2.3513,-2.04899 q -1.54514,-1.31001 -2.62002,-2.95592 -1.04129,-1.6795 -1.04129,-4.13157 0,-3.45977 2.04899,-5.27363 2.04899,-1.84745 5.57594,-1.84745 2.18335,0 3.49336,0.73898 1.3436,0.73898 2.0154,1.94822 0.70539,1.17565 0.94052,2.51925 0.26872,1.31001 0.30231,2.51925 l -5.17286,0.63821 q -0.0336,-1.20924 -0.16795,-2.08258 -0.10077,-0.90693 -0.47026,-1.37719 -0.36949,-0.50385 -1.14206,-0.50385 -0.83975,0 -1.24283,0.70539 -0.36949,0.70539 -0.36949,1.41078 0,1.51155 0.70539,2.48566 0.73898,0.94052 1.91463,1.98181 l 2.25053,1.98181 q 1.78027,1.51155 2.98951,3.42618 1.24283,1.91463 1.24283,4.73619 0,1.91463 -0.87334,3.49336 -0.87334,1.54514 -2.48566,2.45207 -1.57873,0.90693 -3.76208,0.90693 z"
           style="letter-spacing:0em"
           id="path502" />
        <path
           d="m 161.72541,0 v -27.2079 h 6.01261 v 11.11829 l 4.56824,-11.11829 h 5.87825 l -5.0385,12.29394 L 178.41964,0 h -6.11338 l -3.93003,-12.02522 -0.63821,1.07488 V 0 Z"
           style="letter-spacing:0.03em"
           id="path504" />
        <path
           d="m 180.40539,0 5.13927,-27.2079 h 6.85236 L 197.46911,0 h -5.54235 l -0.90693,-5.74389 h -3.99721 L 186.0821,0 Z m 7.15467,-9.33802 h 2.88874 l -1.44437,-10.61444 z"
           style="letter-spacing:0em"
           id="path506" />
        <path
           d="m 200.2854,0 v -27.2079 h 7.49057 q 2.75438,0 4.76978,0.60462 2.0154,0.60462 3.12387,2.18335 1.14206,1.54514 1.14206,4.40029 0,1.6795 -0.26872,2.98951 -0.26872,1.31001 -1.0077,2.28412 -0.70539,0.94052 -2.04899,1.57873 L 217.21476,0 h -6.21415 l -2.98951,-12.19317 h -1.71309 V 0 Z m 6.01261,-15.65294 h 1.6795 q 1.27642,0 1.98181,-0.43667 0.70539,-0.47026 0.97411,-1.31001 0.30231,-0.87334 0.30231,-2.08258 0,-1.74668 -0.63821,-2.72079 -0.63821,-0.97411 -2.3513,-0.97411 h -1.94822 z"
           style="letter-spacing:-0.01em"
           id="path508" />
        <path
           d="m 220.2354,0 v -27.2079 h 7.08749 q 1.74668,0 3.29182,0.26872 1.57873,0.26872 2.78797,1.04129 1.20924,0.73898 1.88104,2.14976 0.70539,1.37719 0.70539,3.66131 0,1.64591 -0.50385,2.78797 -0.47026,1.10847 -1.37719,1.78027 -0.87334,0.6718 -2.11617,0.90693 1.57873,0.20154 2.65361,1.04129 1.07488,0.80616 1.61232,2.18335 0.57103,1.37719 0.57103,3.32541 0,2.11617 -0.57103,3.66131 -0.53744,1.51155 -1.57873,2.48566 -1.04129,0.97411 -2.58643,1.44437 Q 230.58112,0 228.59931,0 Z m 6.01261,-4.19875 h 1.27642 q 1.98181,0 2.72079,-1.0077 0.77257,-1.0077 0.77257,-2.95592 0,-1.54514 -0.3359,-2.45207 -0.3359,-0.90693 -1.10847,-1.31001 -0.77257,-0.43667 -2.08258,-0.43667 h -1.24283 z m 0,-12.12599 h 1.17565 q 1.37719,0 2.08258,-0.40308 0.70539,-0.43667 0.94052,-1.24283 0.26872,-0.80616 0.26872,-1.94822 0,-1.07488 -0.40308,-1.78027 -0.36949,-0.73898 -1.14206,-1.10847 -0.73898,-0.36949 -1.88104,-0.36949 h -1.04129 z"
           style="letter-spacing:0em"
           id="path510" />
        <path
           d="m 247.80828,0.40308 q -3.05669,0 -4.83696,-1.07488 -1.78027,-1.07488 -2.55284,-3.09028 -0.77257,-2.0154 -0.77257,-4.80337 v -10.11059 q 0,-2.82156 0.77257,-4.80337 0.77257,-1.98181 2.55284,-3.0231 1.78027,-1.07488 4.83696,-1.07488 3.09028,0 4.87055,1.07488 1.81386,1.04129 2.58643,3.0231 0.77257,1.98181 0.77257,4.80337 v 10.11059 q 0,2.78797 -0.77257,4.80337 -0.77257,2.0154 -2.58643,3.09028 -1.78027,1.07488 -4.87055,1.07488 z m 0,-4.26593 q 0.94052,0 1.37719,-0.47026 0.43667,-0.47026 0.57103,-1.20924 0.13436,-0.73898 0.13436,-1.51155 V -20.154 q 0,-0.80616 -0.13436,-1.51155 -0.13436,-0.73898 -0.57103,-1.20924 -0.43667,-0.47026 -1.37719,-0.47026 -0.87334,0 -1.31001,0.47026 -0.43667,0.47026 -0.57103,1.20924 -0.13436,0.70539 -0.13436,1.51155 v 13.1001 q 0,0.77257 0.10077,1.51155 0.13436,0.73898 0.53744,1.20924 0.43667,0.47026 1.37719,0.47026 z"
           style="letter-spacing:-0.01em"
           id="path512" />
        <path
           d="m 259.34539,0 v -27.2079 h 4.23234 l 5.57594,13.1001 v -13.1001 h 4.97132 V 0 h -4.06439 l -5.57594,-14.1078 V 0 Z"
           style="letter-spacing:-0.01em"
           id="path514" />
        <path
           d="m 277.69539,0 v -27.2079 h 6.01261 v 11.11829 l 4.56824,-11.11829 h 5.87825 l -5.0385,12.29394 L 294.38962,0 h -6.11338 l -3.93003,-12.02522 -0.63821,1.07488 V 0 Z"
           style="letter-spacing:0.01em"
           id="path516" />
        <path
           d="m 297.029,0 v -27.2079 h 6.01261 V 0 Z"
           style="letter-spacing:0em"
           id="path518" />
        <path
           d="m 315.94021,-13.83908 v -5.10568 h 5.10568 v 5.10568 z m 0,11.95804 v -5.10568 h 5.10568 v 5.10568 z"
           style="letter-spacing:0em"
           id="path520" />
      </g>
    </g>
  </g>
</svg>
