<svg xmlns="http://www.w3.org/2000/svg" viewBox="0 0 347.56 58"><defs><style>.cls-1,.cls-16,.cls-17{font-size:33.59px;fill:#8cdc00;font-family:Oswald-Bold, Oswald;font-weight:700;}.cls-1{stroke:#fff;stroke-linecap:square;stroke-width:20px;}.cls-1,.cls-16{stroke-linejoin:round;}.cls-2{letter-spacing:0.02em;}.cls-3{letter-spacing:-0.01em;}.cls-4{letter-spacing:0.01em;}.cls-5{letter-spacing:-0.04em;}.cls-6{letter-spacing:0em;}.cls-7{letter-spacing:0em;}.cls-8{letter-spacing:0.03em;}.cls-9{letter-spacing:0em;}.cls-10{letter-spacing:-0.01em;}.cls-11{letter-spacing:0em;}.cls-12{letter-spacing:-0.01em;}.cls-13{letter-spacing:-0.01em;}.cls-14{letter-spacing:0.01em;}.cls-15{letter-spacing:0em;}.cls-16{stroke:#000;stroke-width:10px;}</style></defs><g id="Warstwa_2" data-name="Warstwa 2"><g id="Warstwa_10" data-name="Warstwa 10"><text class="cls-1" transform="matrix(0.97, 0, -0.26, 0.97, 15.08, 39.02)"><tspan class="cls-2">K</tspan><tspan class="cls-3" x="19.66" y="0">W</tspan><tspan class="cls-4" x="42.82" y="0">O</tspan><tspan class="cls-5" x="62.75" y="0">T</tspan><tspan x="76.53" y="0">A Z </tspan><tspan class="cls-6" x="126.78" y="0">e</tspan><tspan class="cls-7" x="142.48" y="0">S</tspan><tspan class="cls-8" x="159.71" y="0">K</tspan><tspan class="cls-9" x="179.7" y="0">A</tspan><tspan class="cls-10" x="198.27" y="0">R</tspan><tspan class="cls-11" x="218.22" y="0">B</tspan><tspan class="cls-12" x="238" y="0">O</tspan><tspan class="cls-13" x="257.33" y="0">N</tspan><tspan class="cls-14" x="275.68" y="0">K</tspan><tspan class="cls-15" x="294.98" y="0">I :</tspan></text><text class="cls-16" transform="matrix(0.97, 0, -0.26, 0.97, 15.08, 39.02)"><tspan class="cls-2">K</tspan><tspan class="cls-3" x="19.66" y="0">W</tspan><tspan class="cls-4" x="42.82" y="0">O</tspan><tspan class="cls-5" x="62.75" y="0">T</tspan><tspan x="76.53" y="0">A Z </tspan><tspan class="cls-6" x="126.78" y="0">e</tspan><tspan class="cls-7" x="142.48" y="0">S</tspan><tspan class="cls-8" x="159.71" y="0">K</tspan><tspan class="cls-9" x="179.7" y="0">A</tspan><tspan class="cls-10" x="198.27" y="0">R</tspan><tspan class="cls-11" x="218.22" y="0">B</tspan><tspan class="cls-12" x="238" y="0">O</tspan><tspan class="cls-13" x="257.33" y="0">N</tspan><tspan class="cls-14" x="275.68" y="0">K</tspan><tspan class="cls-15" x="294.98" y="0">I :</tspan></text><text class="cls-17" transform="matrix(0.97, 0, -0.26, 0.97, 15.08, 39.02)"><tspan class="cls-2">K</tspan><tspan class="cls-3" x="19.66" y="0">W</tspan><tspan class="cls-4" x="42.82" y="0">O</tspan><tspan class="cls-5" x="62.75" y="0">T</tspan><tspan x="76.53" y="0">A Z </tspan><tspan class="cls-6" x="126.78" y="0">e</tspan><tspan class="cls-7" x="142.48" y="0">S</tspan><tspan class="cls-8" x="159.71" y="0">K</tspan><tspan class="cls-9" x="179.7" y="0">A</tspan><tspan class="cls-10" x="198.27" y="0">R</tspan><tspan class="cls-11" x="218.22" y="0">B</tspan><tspan class="cls-12" x="238" y="0">O</tspan><tspan class="cls-13" x="257.33" y="0">N</tspan><tspan class="cls-14" x="275.68" y="0">K</tspan><tspan class="cls-15" x="294.98" y="0">I :</tspan></text></g></g></svg>