<?xml version="1.0" encoding="UTF-8"?><svg id="Warstwa_2" xmlns="http://www.w3.org/2000/svg" viewBox="0 0 626.06 139.4"><defs><style>.cls-1{fill:#fff;}</style></defs><g id="Warstwa_23"><g><path d="M621.45,7.13c-3.41-3.8-8.28-5.97-13.39-5.97h-23.25c-4.46,0-8.65,1.65-11.87,4.47-3.23-2.83-7.41-4.47-11.86-4.47h-15.89c-3.77,0-7.39,1.18-10.4,3.31-3.01-2.13-6.63-3.31-10.4-3.31h-15.89c-2.06,0-4.05,.35-5.92,1-1.88-.65-3.87-1-5.91-1h-14.15c-2.91,0-5.69,.7-8.16,1.95-2.45-1.25-5.22-1.95-8.16-1.95h-19.93c-4.7,0-9.06,1.83-12.32,4.89-5.21-3.45-12.45-6.04-22.52-6.04-12.05,0-22.52,3.59-31.12,10.68-.1,.08-.19,.17-.29,.25-6.38-6.49-15.8-9.78-28.11-9.78h-23.97c-4.99,0-9.6,2.06-12.9,5.46-5.91-3.63-13.49-5.46-22.68-5.46h-23.97c-4.98,0-9.58,2.05-12.89,5.44-3.38-3.46-8.01-5.44-12.86-5.44h-23.25c-4.46,0-8.65,1.65-11.87,4.47-3.23-2.83-7.41-4.47-11.86-4.47h-15.89c-3.77,0-7.39,1.18-10.4,3.31-3.01-2.13-6.63-3.31-10.4-3.31h-15.89c-4.47,0-8.63,1.66-11.83,4.45-5.09-3.24-12.07-5.6-21.68-5.6-12.21,0-22.66,3.68-31.07,10.95-4.53,3.91-8.29,8.7-11.27,14.3h-28.6c-8.15,0-15.28,5.47-17.39,13.34L.61,115.59c-1.45,5.41-.3,11.18,3.11,15.62,3.41,4.44,8.68,7.04,14.28,7.04H51c3.93,0,7.61-1.28,10.62-3.48,4.95,2.73,11.48,4.64,20.11,4.64s16.09-1.77,22.82-5.28c3.19,2.64,7.23,4.12,11.46,4.12h15.89c3.74,0,7.26-1.15,10.18-3.16,2.91,2,6.42,3.16,10.18,3.16h16.32c1.29,0,2.56-.14,3.79-.4,1.22,.26,2.48,.4,3.76,.4h14.59c4.75,0,9.2-1.87,12.49-5.04,3.34,3.22,7.82,5.04,12.49,5.04h16.03c1.66,0,3.26-.23,4.79-.65,1.54,.43,3.15,.65,4.79,.65h15.89c3.11,0,6.07-.8,8.66-2.22,2.57,1.42,5.53,2.22,8.67,2.22h16.17c1.73,0,3.42-.27,5.04-.74,1.64,.49,3.37,.74,5.12,.74h24.98c11.7,0,21.79-3.16,30.02-9.38,5.15,5.43,13.74,10.53,27.87,10.53,8.73,0,16.63-1.9,23.59-5.63,3.25,2.86,7.46,4.48,11.87,4.48h14.3c3.61,0,7.03-1.08,9.89-2.96,2.84,1.87,6.24,2.96,9.89,2.96h16.32c2.06,0,4.05-.35,5.92-1,1.88,.65,3.87,1,5.91,1h15.89c3.74,0,7.26-1.15,10.18-3.16,2.91,2,6.42,3.16,10.18,3.16h16.32c1.29,0,2.56-.14,3.79-.4,1.22,.26,2.48,.4,3.76,.4h14.59c4.75,0,9.2-1.87,12.49-5.04,3.34,3.22,7.82,5.04,12.49,5.04h16.03c9.19,0,16.91-6.93,17.9-16.07l10.91-101.09c.55-5.08-1.09-10.16-4.5-13.96Z"/><g><path class="cls-1" d="M42.04,75.7h16.61l-2.95,11h-16.61l-6.04,22.55h20.9l-2.95,11H18L38.63,43.25h33l-2.95,11h-20.9l-5.75,21.45Z"/><path class="cls-1" d="M79.38,43.42c2.19-8.18,5.83-14.46,10.9-18.85,5.07-4.38,11.51-6.57,19.31-6.57s13.06,2.19,15.79,6.57c2.73,4.38,2.99,10.66,.8,18.85l-.85,3.18h-15.02l1.12-4.19c.98-3.66,.97-6.23-.03-7.73-1-1.49-2.75-2.24-5.25-2.24s-4.65,.75-6.45,2.24c-1.8,1.49-3.18,4.07-4.16,7.73-.93,3.47-.98,6.52-.15,9.17,.83,2.65,2.09,5.15,3.77,7.51,1.68,2.36,3.52,4.72,5.54,7.08,2.01,2.36,3.8,4.94,5.37,7.73,1.56,2.79,2.64,5.97,3.22,9.53,.58,3.56,.23,7.75-1.06,12.56-2.19,8.18-5.88,14.47-11.04,18.85-5.17,4.38-11.65,6.57-19.45,6.57s-13.11-2.19-15.93-6.57c-2.82-4.38-3.14-10.66-.94-18.85l1.66-6.21h15.02l-1.93,7.22c-.98,3.66-.92,6.21,.19,7.65,1.1,1.44,2.91,2.17,5.41,2.17s4.69-.72,6.57-2.17c1.88-1.44,3.31-3.99,4.29-7.65,.93-3.47,.98-6.52,.15-9.17-.83-2.65-2.09-5.15-3.76-7.51-1.68-2.36-3.53-4.72-5.54-7.08-2.02-2.36-3.8-4.93-5.37-7.73-1.56-2.79-2.64-5.97-3.22-9.53-.59-3.56-.23-7.75,1.06-12.56Z"/><path class="cls-1" d="M147.6,79.96l-7.39,9.24-8.32,31.05h-15.89l27.09-101.09h15.89l-11.8,44.05,32.6-44.05h15.89l-34.17,45.06,7.08,56.03h-16.32l-4.66-40.29Z"/><path class="cls-1" d="M231.73,120.25h-16.03l2.17-18.34h-19.5l-7.66,18.34h-14.59L219.39,19.15h23.25l-10.91,101.09Zm-27.66-32.06h15.31l6.04-51.12-21.35,51.12Z"/><path class="cls-1" d="M274.52,120.25c-.01-.67-.04-1.3-.07-1.88-.04-.58-.01-1.3,.08-2.17s.29-1.97,.6-3.32c.31-1.35,.74-3.03,1.28-5.05l4.26-15.89c1.26-4.72,1.33-8.04,.21-9.96-1.12-1.92-3.51-2.89-7.17-2.89h-5.49l-11.03,41.16h-15.89l27.09-101.09h23.97c8.28,0,13.76,1.93,16.43,5.78,2.67,3.85,2.97,9.68,.88,17.47l-2.13,7.94c-2.79,10.4-8.08,17.23-15.89,20.51,3.6,1.64,5.66,4.31,6.16,8.02,.5,3.71,.04,8.21-1.38,13.5l-4.18,15.6c-.67,2.5-1.16,4.69-1.47,6.57-.31,1.88-.34,3.78-.08,5.7h-16.17Zm5.89-86.65l-8.32,31.05h6.21c2.98,0,5.52-.77,7.62-2.31,2.1-1.54,3.69-4.33,4.77-8.38l2.67-9.96c.98-3.66,1.04-6.31,.18-7.94-.86-1.64-2.69-2.46-5.48-2.46h-7.65Z"/><path class="cls-1" d="M351.92,19.15c8.28,0,13.76,1.93,16.43,5.78,2.67,3.85,2.97,9.68,.88,17.47l-.97,3.61c-1.39,5.2-3.36,9.48-5.9,12.85-2.54,3.37-5.81,5.87-9.81,7.51,3.89,1.64,6.23,4.31,7.02,8.02,.79,3.71,.46,8.26-.99,13.65l-2.21,8.23c-2.09,7.8-5.7,13.74-10.84,17.84-5.14,4.09-11.71,6.14-19.7,6.14h-24.98l27.09-101.09h23.97Zm-22.98,55.6l-8.32,31.05h9.1c2.69,0,4.93-.72,6.72-2.17,1.78-1.44,3.18-4.04,4.18-7.8l2.36-8.81c1.26-4.72,1.33-7.94,.21-9.68-1.12-1.73-3.52-2.6-7.17-2.6h-7.08Zm11.03-41.16l-7.16,26.72h6.21c2.98,0,5.52-.77,7.62-2.31,2.1-1.54,3.69-4.33,4.77-8.38l1.51-5.63c.98-3.66,1.04-6.31,.18-7.94-.86-1.64-2.69-2.46-5.48-2.46h-7.65Z"/><path class="cls-1" d="M380.51,43.42c2.19-8.18,5.95-14.46,11.26-18.85,5.31-4.38,11.87-6.57,19.67-6.57s13.18,2.19,16.15,6.57c2.96,4.38,3.35,10.66,1.16,18.85l-14.09,52.57c-2.19,8.18-5.95,14.47-11.26,18.85-5.31,4.38-11.87,6.57-19.67,6.57s-13.18-2.19-16.15-6.57c-2.97-4.38-3.35-10.66-1.16-18.85l14.09-52.57Zm1.53,53.58c-.98,3.66-.93,6.23,.17,7.73,1.09,1.49,2.89,2.24,5.39,2.24s4.7-.75,6.59-2.24c1.89-1.49,3.33-4.07,4.31-7.73l14.63-54.59c.98-3.66,.92-6.23-.17-7.73-1.09-1.49-2.89-2.24-5.39-2.24s-4.7,.75-6.59,2.24c-1.89,1.49-3.33,4.07-4.31,7.73l-14.63,54.59Z"/><path class="cls-1" d="M453.11,47.03l-19.62,73.22h-14.3l27.09-101.09h19.93l.11,60.51,16.21-60.51h14.15l-27.09,101.09h-16.32l-.17-73.22Z"/><path class="cls-1" d="M513.02,79.96l-7.39,9.24-8.32,31.05h-15.89l27.09-101.09h15.89l-11.8,44.05,32.6-44.05h15.89l-34.17,45.06,7.08,56.03h-16.32l-4.66-40.29Z"/><path class="cls-1" d="M597.14,120.25h-16.03l2.17-18.34h-19.5l-7.66,18.34h-14.59l43.26-101.09h23.25l-10.91,101.09Zm-27.66-32.06h15.31l6.04-51.12-21.35,51.12Z"/></g></g></g></svg>