<svg xmlns="http://www.w3.org/2000/svg" viewBox="0 0 230.23 150.22"><defs><style>.cls-1{fill:#020300;}.cls-2{fill:#fff;}.cls-3{fill:#e11e14;}</style></defs><g id="Warstwa_2" data-name="Warstwa 2"><g id="Warstwa_23" data-name="Warstwa 23"><path class="cls-1" d="M230.22,93.06C230,85,227.3,77.56,223,73.3h0c-5.09-5.09-11.13-7.89-17.48-8.1a26.56,26.56,0,0,0-14.62,4,22.23,22.23,0,0,0-4.3,3.42,21.84,21.84,0,0,0-3.48-2.9l4.87-14c2.75-7.89,4.16-13.73,4.42-18.38a30.9,30.9,0,0,0-5.31-19.29c-3.8-5.59-9.48-9.75-17.35-12.72a60.73,60.73,0,0,0-21.48-3.52,72.73,72.73,0,0,0-26,4.55,56.17,56.17,0,0,0-12.38,6.51,9,9,0,0,0,.73-1.46,7.63,7.63,0,0,0-2.55-9.22C106.06.71,103.37,0,99.58,0a20,20,0,0,0-4.67.51,14.66,14.66,0,0,0-3.33,1.23C89.67.56,87.17,0,83.82,0a20,20,0,0,0-4.67.51,14.93,14.93,0,0,0-3.57,1.36A11.57,11.57,0,0,0,72.81.66,17.69,17.69,0,0,0,67.75,0a20.48,20.48,0,0,0-6.12.87,14.35,14.35,0,0,0-2.46,1C57.24.59,54.69,0,51.23,0a20,20,0,0,0-4.67.51,14.41,14.41,0,0,0-4.25,1.75,10.82,10.82,0,0,0-3.23,3,15.42,15.42,0,0,0-1.6,3.08l-3.23,8.1-4,9.87H42.43c-1.12.45-2.22.92-3.28,1.43-10.25,4.95-17.67,13.82-22,26.35l-2.36,6.77A19.29,19.29,0,0,0,14.94,74a19.28,19.28,0,0,0-8.3,10.16L4.45,90.38C.67,101.26-.62,108.94.27,115.29,1.19,121.83,4.85,131,17,137.37c6.88,3.61,15.85,5.36,27.44,5.36A78.1,78.1,0,0,0,69.63,139a51.85,51.85,0,0,0,13.78-7L77.64,149.7h93.27l2.29-7.06a64.08,64.08,0,0,0,11,6.5l2.39,1.08,2.41-1.07c3.09-1.36,19.2-9.16,32.61-28.59A45.9,45.9,0,0,0,230.22,93.06Z"/><path class="cls-2" d="M148.31,10.78a52.07,52.07,0,0,1,18.32,2.94c6.1,2.31,10.39,5.38,13.13,9.39a22,22,0,0,1,3.77,13.77c-.21,3.8-1.46,8.86-3.93,15.94L170.38,79.3c-2.41,6.89-4.7,11.94-7,15.44a38.74,38.74,0,0,1-10.92,10.55,47.14,47.14,0,0,1-14.92,6.59,66.59,66.59,0,0,1-16,1.87c-7.32,0-13.2-.67-18-2a26.32,26.32,0,0,1-11.3-6.27,48.79,48.79,0,0,1-8.56,14.28,39.55,39.55,0,0,1-17,10.82,69.34,69.34,0,0,1-22.28,3.27c-10.11,0-17.72-1.42-23.28-4.34-8.83-4.64-11.43-10.94-12.06-15.41-.69-4.88.47-11.27,3.77-20.73l2.19-6.27a10.27,10.27,0,0,1,9.7-6.9H37.44l1-2.73h-5.5a10.29,10.29,0,0,1-9.7-13.66L25.55,57C29.11,46.78,35,39.63,43,35.75c7-3.38,16.09-5,27.77-5,15.25,0,24.7,2.47,30.29,8a53,53,0,0,1,7-12.09c4.07-5,9.9-9,17.32-11.87a63.73,63.73,0,0,1,22.85-4m0-3.43a67.2,67.2,0,0,0-24.08,4.19c-8,3.06-14.29,7.4-18.75,12.91a50.43,50.43,0,0,0-5.64,8.88c-6.35-4.14-15.57-6-29-6-12.21,0-21.78,1.75-29.25,5.35C32.65,37,26.18,44.76,22.31,55.87L20,62.63a13.77,13.77,0,0,0,1.77,12.45,14.47,14.47,0,0,0,1.48,1.74,13.72,13.72,0,0,0-11.36,9.1L9.65,92.2c-3.48,10-4.69,16.88-3.92,22.33.74,5.26,3.74,12.65,13.85,18,6.07,3.19,14.2,4.74,24.88,4.74a72.79,72.79,0,0,0,23.39-3.46A43,43,0,0,0,86.28,122a47.76,47.76,0,0,0,7.32-11.12,32.29,32.29,0,0,0,9,4.11c5.07,1.47,11.26,2.18,18.91,2.18a69.81,69.81,0,0,0,16.78-2,50.44,50.44,0,0,0,16-7.06,42.29,42.29,0,0,0,11.87-11.5c2.48-3.74,4.9-9,7.4-16.21L182.83,54c2.58-7.39,3.89-12.76,4.12-16.88a25.46,25.46,0,0,0-4.36-15.88c-3.15-4.62-8-8.11-14.75-10.67a55.39,55.39,0,0,0-19.53-3.17Z"/><path class="cls-2" d="M79.6,77q5.46,1.52,7.18,5T84.05,98.16q-3.3,9.47-8,14.69a29.12,29.12,0,0,1-12.65,8,58.68,58.68,0,0,1-19,2.72q-12.48,0-18.5-3.16t-6.67-7.75q-.64-4.58,3.3-15.91l2.19-6.27H51.05l-4.49,12.89q-1.8,5.16-1.47,6.55c.22.93,1.26,1.4,3.12,1.4a5.93,5.93,0,0,0,4.65-1.77q1.59-1.77,4.18-9.22L59,94.79q1.59-4.56,1-6.67a4.07,4.07,0,0,0-3.07-2.77c-1.63-.44-5-.69-10.08-.76l4-11.52q9.36,0,11.76-.54a7.38,7.38,0,0,0,4-2.35,17.36,17.36,0,0,0,3-5.69l1.54-4.41q1.45-4.17.78-5.49c-.45-.88-1.48-1.33-3.09-1.33a5.94,5.94,0,0,0-4.22,1.4q-1.5,1.4-3.08,6l-2.28,6.52H32.89l2.36-6.77Q39.21,49,47.5,45t23.3-4q18.8,0,23.56,5.53T95.7,61.93q-2.33,6.66-5.76,9.63T79.6,77Z"/><path class="cls-2" d="M169.9,49.44l-9.23,26.48q-3.13,9-5.88,13.14a28.57,28.57,0,0,1-8.08,7.7A36.6,36.6,0,0,1,135,101.9a55.8,55.8,0,0,1-13.49,1.57,56.25,56.25,0,0,1-15.1-1.64q-5.67-1.64-8.16-5.12a13.86,13.86,0,0,1-2.72-7.33q-.21-3.85,2.71-12.24l9.65-27.7q3.81-10.94,8.21-16.37t13-8.73a53.3,53.3,0,0,1,19.18-3.29A41.75,41.75,0,0,1,163,23.33q6,2.28,8.27,5.57a11.67,11.67,0,0,1,2,7.4Q173,40.42,169.9,49.44Zm-24-6.67q2.2-6.32,1.94-7.91c-.17-1.07-1.25-1.6-3.24-1.6A5.74,5.74,0,0,0,140.19,35c-1,1.13-2.25,3.74-3.67,7.82L123,81.51c-1.61,4.61-2.29,7.38-2,8.33s1.36,1.42,3.31,1.42a5.64,5.64,0,0,0,4.42-1.66q1.49-1.66,3.52-7.5Z"/><path class="cls-2" d="M53.08,18.21l-1,2.56H38.43l.86-2.14q8.45-6,10.15-7.39a7.16,7.16,0,0,0,2-2.22c.16-.41.17-.71,0-.91a1.12,1.12,0,0,0-.93-.3,2,2,0,0,0-1.19.33,2.88,2.88,0,0,0-.87,1.33l-.57,1.42H42.38l.22-.55a10.31,10.31,0,0,1,1-2,5.63,5.63,0,0,1,1.63-1.43,8.72,8.72,0,0,1,2.62-1.06,14.48,14.48,0,0,1,3.38-.36c2.46,0,4.18.36,5.15,1.1a2.2,2.2,0,0,1,.77,2.8A7.61,7.61,0,0,1,55,12.13q-1.64,1.42-8.71,6.08Z"/><path class="cls-2" d="M73,10.86l-2,5a10.74,10.74,0,0,1-1.3,2.48,6.14,6.14,0,0,1-1.85,1.45,9.66,9.66,0,0,1-2.72,1,16,16,0,0,1-3.17.29,16.33,16.33,0,0,1-3.57-.31,3.72,3.72,0,0,1-2-1,2.39,2.39,0,0,1-.69-1.38,5.62,5.62,0,0,1,.56-2.31l2.08-5.23a9.53,9.53,0,0,1,1.83-3.09,7.08,7.08,0,0,1,3-1.64,15,15,0,0,1,4.5-.62,12.16,12.16,0,0,1,3.48.43,4.21,4.21,0,0,1,2,1,2,2,0,0,1,.52,1.39A8.38,8.38,0,0,1,73,10.86ZM67.34,9.6a3.61,3.61,0,0,0,.41-1.49q-.07-.3-.78-.3a1.52,1.52,0,0,0-1,.32,4.47,4.47,0,0,0-.81,1.47L62.2,16.91a3.43,3.43,0,0,0-.42,1.57c.07.18.33.27.79.27a1.48,1.48,0,0,0,1-.31A4.14,4.14,0,0,0,64.38,17Z"/><path class="cls-2" d="M85.67,18.21l-1,2.56H71l.86-2.14q8.45-6,10.15-7.39a7.16,7.16,0,0,0,2-2.22c.16-.41.17-.71,0-.91a1.12,1.12,0,0,0-.93-.3A2.06,2.06,0,0,0,82,8.14a2.88,2.88,0,0,0-.87,1.33l-.57,1.42H75l.22-.55a9.73,9.73,0,0,1,1-2,5.45,5.45,0,0,1,1.62-1.43,8.83,8.83,0,0,1,2.62-1.06,14.48,14.48,0,0,1,3.38-.36c2.46,0,4.18.36,5.15,1.1a2.2,2.2,0,0,1,.77,2.8,7.61,7.61,0,0,1-2.15,2.72Q86,13.56,78.88,18.21Z"/><path class="cls-2" d="M101.43,18.21l-1,2.56H86.78l.86-2.14q8.44-6,10.15-7.39a7.16,7.16,0,0,0,2-2.22c.16-.41.17-.71,0-.91a1.12,1.12,0,0,0-.93-.3,2,2,0,0,0-1.19.33,2.88,2.88,0,0,0-.87,1.33l-.57,1.42H90.73l.22-.55a10.31,10.31,0,0,1,1-2,5.63,5.63,0,0,1,1.63-1.43A8.72,8.72,0,0,1,96.2,5.87a14.48,14.48,0,0,1,3.38-.36c2.46,0,4.18.36,5.14,1.1a2.19,2.19,0,0,1,.78,2.8,7.61,7.61,0,0,1-2.15,2.72q-1.63,1.42-8.71,6.08Z"/><path class="cls-3" d="M219.14,77.19C210,68,200,70.13,193.82,73.94a15.62,15.62,0,0,0-7.17,9.61,15.7,15.7,0,0,0-7.18-9.61c-6.21-3.81-16.17-5.9-25.32,3.25-5.93,5.93-9.6,23.4,2,40.24,12.7,18.39,27.88,25.61,30.31,26.68l.17.08.16-.08c2.43-1.07,17.62-8.29,30.31-26.68C228.74,100.59,225.07,83.12,219.14,77.19Z"/><path class="cls-2" d="M208.44,84.2l-1-.09-.21,4.46-.86,0-.06,1.54.92.07L207,95.52c0,1.45.43,2.2,1.46,2.27.73,0,1.2-.41,1.39-1.29l.09-1.35L209,95c-.11.71-.33,1-.6,1a.41.41,0,0,1-.45-.4l0-.39.21-5,1.44.11.06-1.48-1.46-.19Z"/><path class="cls-2" d="M217.06,90.31a4,4,0,0,0-.17-.9,1.55,1.55,0,0,0-1.55-.82,1.53,1.53,0,0,0-1.56,1.18,3.87,3.87,0,0,0-.17,1.2l1-.06a2,2,0,0,1,0-.6c.09-.39.28-.56.54-.58.45,0,.64.66.62,2a3.08,3.08,0,0,0-1.42.39,2.89,2.89,0,0,0-1.45,2.7,2.82,2.82,0,0,0,.83,2.44,1.77,1.77,0,0,0,1.09.35,1.15,1.15,0,0,0,1.18-1l0,.94,1.28,0Zm-2.9,4.31a2,2,0,0,1,.35-1.18,1.64,1.64,0,0,1,1.35-.71s0,.64.11,1.93q.06,1.52-.78,1.59C214.49,96.29,214.14,95.75,214.16,94.62Z"/><path class="cls-2" d="M211.79,88.55l-1,0-.07,8.77H212c-.09-3.07-.09-5-.05-5.7a2,2,0,0,1,.52-1.31,1.51,1.51,0,0,1,.79-.41,5.32,5.32,0,0,0,.07-1.35,2.05,2.05,0,0,0-1.48,1.07A8.11,8.11,0,0,1,211.79,88.55Z"/><path class="cls-2" d="M202.35,92.22a8,8,0,0,0-.27-1.87c-.35-1.24-.88-1.86-1.68-1.86a2.13,2.13,0,0,0-1.9,1.39,4.85,4.85,0,0,0-.52,2.23,5.63,5.63,0,0,0,.41,2.53c.6,1.22,1.87,1.82,3.79,1.78a7.18,7.18,0,0,0-.08-1.48,2.56,2.56,0,0,1-1.37-.13c-.93-.34-1.38-1.2-1.34-2.55Zm-2.91-.73c-.09,0-.05-.32.11-1s.36-1,.66-1,.69.67.77,2C200.19,91.51,199.67,91.51,199.44,91.49Z"/><path class="cls-2" d="M205.83,89a2.08,2.08,0,0,0-1.1-.19c-.75,0-1.24.55-1.43,1.54a3.28,3.28,0,0,0,.49,2.29,4.75,4.75,0,0,1,.81,1.89,1.39,1.39,0,0,1-.85,1.46l-.9.15.06,1.5a3,3,0,0,0,2.51-1,2.47,2.47,0,0,0,.47-1.52,6.06,6.06,0,0,0-.86-2.79,2.18,2.18,0,0,1-.45-1.78c.13-.38.35-.54.65-.51a.77.77,0,0,1,.43.15Z"/><path class="cls-2" d="M210.16,100.94c-.33,0-.54.17-.69.56a2.86,2.86,0,0,0-.13.58l.09.62a.78.78,0,0,0,.81.64c.22,0,.41-.15.56-.49A1.7,1.7,0,0,0,211,102C211,101.33,210.67,100.94,210.16,100.94Z"/><path class="cls-2" d="M203,104.41a1.94,1.94,0,0,0-.86-.28,1.6,1.6,0,0,0-1.22.35,3.26,3.26,0,0,1-.34.36l0-1.37a4.06,4.06,0,0,0-1.18,0l-.08,8.36a5.49,5.49,0,0,0,1.33-.06c0-.13,0-1.87.06-5.23.09-.63.39-1,.88-1s.67.24.75.75c.07,3.62.11,5.47.13,5.51l1.59,0c-.07-3.54-.15-5.49-.24-5.88A3.24,3.24,0,0,0,203,104.41Z"/><path class="cls-2" d="M208.05,105.46a1.9,1.9,0,0,0-1.28-.6,1.71,1.71,0,0,0-1.24.5c-.73.6-1.07,1.69-1.05,3.25q0,3.06,1.86,3.93a4.19,4.19,0,0,0,1.41.3c.3,0,.63,0,1,0a11.69,11.69,0,0,0,0-1.37,2.83,2.83,0,0,1-1.41-.15,2,2,0,0,1-1.39-2.12,7.75,7.75,0,0,1,1.6-.11c1.05,0,1.59-.06,1.59-.08A5.11,5.11,0,0,0,208.05,105.46Zm-1.84.88a1.26,1.26,0,0,1,.35-.41c.75,0,1.17.73,1.28,2.21-1.31,0-2,.07-2,0A4.15,4.15,0,0,1,206.21,106.34Z"/><path class="cls-2" d="M211,105.21l-1.35.06.3,7.61c-.06,2.64-.94,4-2.63,4.05a7.48,7.48,0,0,0,.08,2,3.53,3.53,0,0,0,3.11-1.82,5.85,5.85,0,0,0,.92-3.26C211.44,113.69,211.31,110.82,211,105.21Z"/><path class="cls-2" d="M196.22,86.24c0,.62.18.94.56.94s.47-.15.58-.49a1.68,1.68,0,0,0,.11-.63c-.05-.47-.26-.7-.65-.7S196.27,85.63,196.22,86.24Zm.35.23s0,0,0,0a.15.15,0,0,0,0,.09A.18.18,0,0,1,196.57,86.47Z"/><path class="cls-2" d="M193.22,83.79l-1.11.07-.49,12.62,1.22-.06.08-4,1.25,3.9,1.58.05-2.19-4.59,2.26-3.52-1.27,0L193,90.44Z"/><path class="cls-2" d="M172.3,82.76H171l.19,13.59h1.28Z"/><path class="cls-2" d="M174.87,82.55h-1.28l-.22,13.93h1.08v-3l1,3,1.35-.07-1.93-4.91,2.36-3.64H176l-1.29,1.93Z"/><path class="cls-2" d="M178.09,89.77a.79.79,0,0,1,.62-.34c.34,0,.6.49.71,1.5a11,11,0,0,0-1.54,1.31,2.54,2.54,0,0,0-.46.6,2.91,2.91,0,0,0-.4,1.52,2.09,2.09,0,0,0,.51,1.5,1.22,1.22,0,0,0,.81.32,1.54,1.54,0,0,0,1.57-1.35l.34,1.27,1.12,0a49.72,49.72,0,0,0-.49-5.61,3.65,3.65,0,0,0-1.12-2.56,1.6,1.6,0,0,0-.92-.21c-.94,0-1.57.75-1.84,2.27l.88.2Zm1.14,4.82c-.31.33-.56.41-.82.24a.62.62,0,0,1-.32-.49,2,2,0,0,1,.34-1.2,2.83,2.83,0,0,1,1.07-1A4.75,4.75,0,0,1,179.23,94.59Z"/><path class="cls-2" d="M169.09,88.74a1.79,1.79,0,0,0-1.78-.47,2.12,2.12,0,0,0-1.4,1.74,7.39,7.39,0,0,0-.23,1.56c0,.17,0,.75.08,1.65A3.31,3.31,0,0,0,167.37,96a4.53,4.53,0,0,0,2.79.22l-.22-1.72a2.51,2.51,0,0,1-2,.06,1.76,1.76,0,0,1-.83-1.17l-.15-.88a29.22,29.22,0,0,0,3-.26C169.88,90.39,169.56,89.21,169.09,88.74Zm-.86,1.12a3.1,3.1,0,0,1,.37.9c.12.43.17.64.1.66a7.39,7.39,0,0,1-1.71.15,3.73,3.73,0,0,1,.06-1.61c.11-.34.28-.51.47-.53A.74.74,0,0,1,168.23,89.86Z"/><path class="cls-2" d="M175.45,100.32c-.32,0-.49.26-.53.86a.69.69,0,0,0,.23.53.63.63,0,0,0,.41.19c.39,0,.58-.28.56-.83S175.88,100.34,175.45,100.32Zm.07.58s0,.08,0,.13-.07,0-.07-.07h0a.08.08,0,0,1,.05-.09S175.52,100.87,175.52,100.9Z"/><path class="cls-2" d="M170.74,104.8h-.8l-.83,3.47-1-3.3-1.37.08,1.93,7.29h1.07l.64-4.28,1.72,4.28h1.29l1.07-7.71h-1.29l-.86,4.71Z"/><path class="cls-2" d="M183.6,99.61l-1,0,0,4.18-1.14,0v1.82h1.16c-.11,3.51-.17,5.4-.17,5.66,0,1.33.45,2,1.35,1.93.68,0,1.17-.5,1.48-1.42l.23-1.37h-1.07c-.13.6-.34.88-.6.9s-.3-.15-.39-.45l-.08-.45.13-4.8,1.45-.07-.08-1.56-1.25,0Z"/><path class="cls-2" d="M176.72,106.26l1,.13.15-.43a.88.88,0,0,1,.67-.48c.62-.06,1,.3,1.09,1,0,.15-.11.3-.38.5s-.67.45-.89.62A2.84,2.84,0,0,0,177,110a2.76,2.76,0,0,0,.45,1.89,1.8,1.8,0,0,0,1.07.34c.69,0,1.25-.53,1.69-1.69l.16,1.5,1.32,0a33.88,33.88,0,0,0-.77-5.83,2.48,2.48,0,0,0-2.42-1.74,1.6,1.6,0,0,0-1.52.94A2.25,2.25,0,0,0,176.72,106.26Zm2.16,2c.45-.36.71-.51.8-.49l.06,1.52a1.76,1.76,0,0,1-.88,1.44.45.45,0,0,1-.66-.13,1.39,1.39,0,0,1-.18-1.07A2.33,2.33,0,0,1,178.88,108.29Z"/><path class="cls-2" d="M176.2,104.73h-1.13l-.32,7.51,1.54.06Z"/><path class="cls-2" d="M191.42,89.9a9.13,9.13,0,0,0,.13-1.87,1.69,1.69,0,0,0-1.24.58,4.8,4.8,0,0,1-.47.63c0-.47,0-.84,0-1.1l-1-.08c-.1,5.16-.21,7.93-.3,8.31l1.33,0,0-5.4.35-.51A1.38,1.38,0,0,1,191.42,89.9Z"/><path class="cls-2" d="M187.26,89a1.44,1.44,0,0,0-1.24-.66,1.75,1.75,0,0,0-1,.62,5.15,5.15,0,0,0-1.15,3.24,5,5,0,0,0,.68,3.32,1.64,1.64,0,0,0,1.25.73c1.35,0,2.05-1.25,2.14-3.84A5.4,5.4,0,0,0,187.26,89Zm-1.11.73c.6,0,.9.84.88,2.57a4,4,0,0,1-.41,2,.85.85,0,0,1-.7.51c-.35,0-.63-.28-.82-.87a4,4,0,0,1-.24-1.61Q185,89.81,186.15,89.75Z"/><path class="cls-2" d="M187.69,104.18a1.9,1.9,0,0,0-1.41.72,4,4,0,0,0-.77,2.92c.1,2.38.92,3.73,2.44,4.05a3.72,3.72,0,0,0,2.25-.26l-.3-1.63c-1.29.44-2.19.26-2.68-.49a3,3,0,0,1-.36-1.52c2-.13,3.08-.19,3.19-.21C190.16,105.31,189.39,104.11,187.69,104.18Zm.34,1a.84.84,0,0,1,.31.12A2.63,2.63,0,0,1,189,107s-.32,0-1,.08-1.05.07-1.18.07,0-.09,0-.3a2.47,2.47,0,0,1,.11-.67c.17-.66.49-1,1-1Z"/><path class="cls-2" d="M192.79,104.65c-1.17.49-1.86,1.65-2,3.41-.22,2,.19,3.4,1.24,4.2a2.72,2.72,0,0,0,2.23.53s0-.53-.17-1.56c-1.37-.09-2-1-2-2.75a2.29,2.29,0,0,1,.78-1.77,2.12,2.12,0,0,1,1.59-.52,10,10,0,0,0,.06-1.78A2.85,2.85,0,0,0,192.79,104.65Z"/><path class="cls-2" d="M195.37,106a9.93,9.93,0,0,1,1.73,0c.05,0-.64,2.32-2.08,6.82.84.06,2,.11,3.5.11a9.75,9.75,0,0,0,.11-1.29c-.88,0-1.44,0-1.66,0,0,0,.26-1.2.88-3.58a35.28,35.28,0,0,0,.9-3.6h-3.43A11.24,11.24,0,0,0,195.37,106Z"/><path class="cls-2" d="M164.07,86.06a.37.37,0,0,0,.43-.15c.49-.64.34-1.09-.45-1.3a.56.56,0,0,0-.51.36C163.26,85.57,163.43,85.91,164.07,86.06Z"/><path class="cls-2" d="M164.8,89.21h-1.07l-.22,7.27H165Z"/><path class="cls-2" d="M166.09,99.48l-1.37.09.51,2.27h.86Z"/><path class="cls-2" d="M165.74,104.56a1.83,1.83,0,0,1,.69.2l.28-1.25a4.45,4.45,0,0,0-1.5-.13,1.84,1.84,0,0,0-1.85,1.5,3.57,3.57,0,0,0,.56,2.51,4.54,4.54,0,0,1,.8,2.34,1.62,1.62,0,0,1-1,1.43,3.07,3.07,0,0,1-1,.28l.15,1.55a3.7,3.7,0,0,0,1.61-.41,2.74,2.74,0,0,0,1.63-2.62,6.58,6.58,0,0,0-.82-2.68,3.2,3.2,0,0,1-.53-2A.89.89,0,0,1,165.74,104.56Z"/><path class="cls-2" d="M190.93,120.25a5.83,5.83,0,0,0-.41,2,7.11,7.11,0,0,0,.43,2.7,2,2,0,0,0,1.72,1.46c.75,0,1.28-.51,1.62-1.63a9.48,9.48,0,0,0,.31-3,4.84,4.84,0,0,0-.45-2,1.66,1.66,0,0,0-1.57-1C191.87,118.77,191.32,119.27,190.93,120.25Zm.73,2c.08-1.33.38-2,.9-2s.94.67.94,2c0,1.61-.32,2.4-1,2.38-.25,0-.47-.3-.64-.88A4.23,4.23,0,0,1,191.66,122.27Z"/><path class="cls-2" d="M188.23,119.27A1.68,1.68,0,0,0,187,120a2,2,0,0,0-.32.7c-.11-1-.53-1.43-1.31-1.39a1.49,1.49,0,0,0-1,.41,2,2,0,0,0-.32.38l0-.9-1.16,0-.32,7.72,1.33,0c0-2.72.09-4.29.15-4.72.09-.72.36-1.13.88-1.19s.75.19.81.75l-.19,5.2,1.42,0,0-4.89c.06-.62.29-1,.7-1s.63.26.63.8l0,5.06,1.61,0-.2-6.44A1.33,1.33,0,0,0,188.23,119.27Z"/><path class="cls-2" d="M196.63,121.69a2.11,2.11,0,0,1,.45-1.39,1.73,1.73,0,0,1,1.46-.67,15.16,15.16,0,0,0,.09-1.56c-2.13-.11-3.24,1.05-3.31,3.49a5.28,5.28,0,0,0,1,3.79,2.76,2.76,0,0,0,2.21,1s0-.67,0-2a2.09,2.09,0,0,1-1.39-.84A2.9,2.9,0,0,1,196.63,121.69Z"/><path class="cls-2" d="M181.33,113.33a4.25,4.25,0,0,0-.82,0,5.21,5.21,0,0,0,0,1.24,1.63,1.63,0,0,0,.52,1l1.13-.52a2.46,2.46,0,0,1-.66-1C181.37,113.54,181.33,113.35,181.33,113.33Z"/><path class="cls-2" d="M174.27,117.9H173l-.1,12.45,1.43,0,0-4.52a2,2,0,0,0,1.35.32c.6,0,1.05-.43,1.35-1.24a6.51,6.51,0,0,0,.32-2.29,6.2,6.2,0,0,0-.9-3.43,1.48,1.48,0,0,0-1.18-.69,1,1,0,0,0-1,.75Zm.43,2.29.28-.09c.73,0,1.12.88,1.2,2.57-.11,1.35-.43,2-1,2a1.33,1.33,0,0,1-.56-.22l-.24-.21a6.8,6.8,0,0,1-.19-1.91,10.29,10.29,0,0,1,.11-1.5A.84.84,0,0,1,174.7,120.19Z"/><path class="cls-2" d="M182.25,122a8.93,8.93,0,0,0-.28-2.49,1.67,1.67,0,0,0-1.72-1.28c-1.24,0-1.92,1.17-2,3.58-.15,3.06.45,4.56,1.78,4.54a1.92,1.92,0,0,0,1.71-1.29A7.52,7.52,0,0,0,182.25,122Zm-2-2.1c.58-.07.92.6,1,2,.06,1.84-.28,2.81-1.05,2.87-.39,0-.67-.38-.79-1.33a10.05,10.05,0,0,1-.07-1.59,4.11,4.11,0,0,1,.3-1.22C179.78,120.12,180,119.89,180.21,119.87Z"/><polyline class="cls-2" points="202.76 119.83 201.26 124.3 200.49 119.35 199.12 119.29 200.45 127.07 198.22 130.91 200.06 131.7 204.41 119.91 202.76 119.83"/><polyline class="cls-2" points="196.18 89.32 196.03 96.33 197.4 96.35 197.25 89.34 196.18 89.32"/><polyline class="cls-2" points="160.51 96.69 159.01 92.64 157.94 96.69 156.66 96.69 155.15 89.43 156.23 89.43 157.3 93.93 158.16 89.43 159.23 89.43 160.73 93.93 161.59 89 162.87 89 161.8 96.69 160.51 96.69"/><polygon class="cls-2" points="102.45 131.51 97.45 131.51 98.73 127.57 104.35 127.57 105.7 123.41 91.97 123.41 85.22 144.19 93.33 144.19 96.16 135.46 101.17 135.46 102.45 131.51"/><polygon class="cls-2" points="107.66 123.41 100.91 144.19 109.02 144.19 115.77 123.41 107.66 123.41"/><polygon class="cls-2" points="130.34 123.41 127.3 132.77 125.8 123.41 119.02 123.41 112.27 144.19 119.05 144.19 122.12 134.74 123.26 144.19 130.37 144.19 137.12 123.41 130.34 123.41"/><path class="cls-2" d="M142.67,123.41l-10.89,20.78h8.38l1.7-3.74h2.9l-.78,3.74h8.29l2.11-20.78Zm3.08,13.36H143q1.22-2.76,4.39-8.73Q146.27,133.25,145.75,136.77Z"/><path class="cls-2" d="M165.48,133.42l2.46-.35.72-2.21-2.47.36,2.54-7.81h-8.1l-2.94,9-1.65.24-.72,2.2,1.65-.23-3.1,9.54h13l1.35-4.16h-4.93Z"/></g></g></svg>