<svg xmlns="http://www.w3.org/2000/svg" viewBox="0 0 329.72 191.11"><defs><style>.cls-1{fill:#020300;}.cls-2{fill:#fff;}.cls-3{fill:#de1e14;}</style></defs><g id="Warstwa_2" data-name="Warstwa 2"><g id="Warstwa_28" data-name="Warstwa 28"><path class="cls-1" d="M328.39,164a6.26,6.26,0,0,0-5.28-2.38L318,162a6,6,0,0,0-1.79.37,6.37,6.37,0,0,0-2.21-.41h-8.94a6.63,6.63,0,0,0-2.13-.26l-5.08.27h-.12l-.48,0h-4.91a6.62,6.62,0,0,0-2.14-.26l-5.07.27a6.54,6.54,0,0,0-1.54.28,11.07,11.07,0,0,0-2.33-.44c-.58-.06-1.21-.09-1.89-.1a6.24,6.24,0,0,0-5.93-4.29H268a6.28,6.28,0,0,0-4.49,1.9l-2.57,2.64h-1a5.9,5.9,0,0,0-1.4.17,6,6,0,0,0-1.41-.17h-8a6,6,0,0,0-1.41.17,6,6,0,0,0-1.41-.17h-4.88a5.84,5.84,0,0,1-1.67,0h-5.13a4.53,4.53,0,0,0-.52,0,4.07,4.07,0,0,0-.5,0H222.19a6.18,6.18,0,0,0-1.73.25,11.45,11.45,0,0,0-2.38-.42c-.79-.06-1.69-.09-2.66-.09s-2.11,0-3,.12a12.32,12.32,0,0,0-3.17.7,11.52,11.52,0,0,0-3.17-.72c-.47,0-1-.07-1.51-.08a13.38,13.38,0,0,0,1.28-1.09,11.31,11.31,0,0,0,3-5.58l1-4.31a11.3,11.3,0,0,0,.22-1.16,10.59,10.59,0,0,0,.11-1.23,7.83,7.83,0,0,0,0-1,11.85,11.85,0,0,0,1.21-3.08l.77-3.18a11.59,11.59,0,0,0,.35-2.49,9.38,9.38,0,0,0-.31-2.81,2.31,2.31,0,0,1-.36-.74c-.14-.49-.3-1-.47-1.45A3.85,3.85,0,0,0,211,133a1.43,1.43,0,0,1-.14-.2c0-.06-.11-.11-.14-.17l0,0a1.45,1.45,0,0,0-.4-.45,4.09,4.09,0,0,1-.51-.51h0a9.74,9.74,0,0,0-2.11-1.51L203.89,126l0-.09.17-.07c2.73-1.21,17-8.11,28.83-25.28,12-17.4,7.81-35.3,1.2-41.92-4.52-4.52-9.9-7-15.54-7.19a23.5,23.5,0,0,0-13,3.6A19.55,19.55,0,0,0,201.9,58a20.34,20.34,0,0,0-3.68-2.9l-.33-.19,10.32-29.44A17.34,17.34,0,0,0,191.85,2.36H177.48a17.28,17.28,0,0,0-10.19,3.31c-5.91,4.29-13.79,7.21-23.43,8.69l-.7.13a9.81,9.81,0,0,0,.1-1.45,9.8,9.8,0,0,0,1.28-2.5,7.43,7.43,0,0,0-1.94-8.26C140.79.68,138.2,0,133.93,0h0a18.76,18.76,0,0,0-7,1.1c-.32.14-.63.28-.93.44A13.85,13.85,0,0,0,118.83,0a18.32,18.32,0,0,0-4.4.51,13.15,13.15,0,0,0-3.34,1.32A10.85,10.85,0,0,0,108.41.65,16.5,16.5,0,0,0,103.64,0a19.15,19.15,0,0,0-5.77.84,14.19,14.19,0,0,0-2.3,1C93.73.6,91.32,0,88,0h0a18.36,18.36,0,0,0-4.41.5,12.75,12.75,0,0,0-4,1.71,9.56,9.56,0,0,0-3,2.89,13.52,13.52,0,0,0-1.38,3l-2.53,7.25-1.64,4.7-.84,2.38-.86,2.47h9.27c-8.68,4.65-15,12.53-18.85,23.45l-2.2,6.29a17.4,17.4,0,0,0,.3,12.27A17.41,17.41,0,0,0,50,76.26l-2,5.83c-3.52,10-4.72,17.08-3.92,22.9s4.14,14.31,15.26,20.17c6.3,3.33,14.56,5,25.25,5h0a71.9,71.9,0,0,0,23.16-3.45,46.27,46.27,0,0,0,15.36-8.58l-3.49,10.74c-.59-.09-1.2-.16-1.85-.2-1.31-.09-2.79-.14-4.42-.14-1.87,0-3.55.06-5,.17a18.82,18.82,0,0,0-5,1,11.34,11.34,0,0,0-7,6.87h0l0,.06a14,14,0,0,0-.53,1.8l-.09.38-6.56,23.1-.89,0a6.55,6.55,0,0,0-1.48.26,12.23,12.23,0,0,0-2.46-.44c-.79-.06-1.69-.09-2.66-.09s-2.11,0-3,.12a12.4,12.4,0,0,0-3.18.7,11.54,11.54,0,0,0-3.16-.72c-.83-.07-1.75-.1-2.74-.1H68c-.57,0-1.12,0-1.64.06s-1,.05-1.49.09-1,.08-1.53.14a6.19,6.19,0,0,0-2,.54,6.32,6.32,0,0,0-2.63-.58H54.49a6.43,6.43,0,0,0-1.32.14,6.41,6.41,0,0,0-1.31-.14H36.13a6.1,6.1,0,0,0-1.71.25,11.57,11.57,0,0,0-2.38-.42c-.79-.06-1.69-.09-2.66-.09H27.7c-.56,0-1.11,0-1.63.06l-1.47.09c-.5,0-1,.08-1.55.14a5.69,5.69,0,0,0-1.09.22,12.89,12.89,0,0,0-2.27-.42c-.82-.07-1.75-.1-2.74-.1H15.29c-.57,0-1.13,0-1.65.06s-1,.05-1.48.09-1,.08-1.53.14a6.24,6.24,0,0,0-5.33,4.39l-5,16.43a6.25,6.25,0,0,0,6,8.07H310.71l.2.14a12,12,0,0,0,1.7.13,29,29,0,0,0,3.05-.14,12.61,12.61,0,0,0,3.72-.92,9.91,9.91,0,0,0,3.76-2.74,11.28,11.28,0,0,0,2.15-4l0-.06,4.14-13.53A6.23,6.23,0,0,0,328.39,164Z"/><path class="cls-2" d="M201.21,13.08a12.29,12.29,0,0,0-10-5.19H176.82a12.32,12.32,0,0,0-7.22,2.34C163,15,154.41,18.22,144,19.82a12.3,12.3,0,0,0-9.74,8.09L133.85,29c-5.76-3.2-13.9-4.68-25.26-4.68h0c-11.25,0-20.06,1.61-26.93,4.92C73.46,33.14,67.52,40.3,63.94,50.49l-2.2,6.29A12.29,12.29,0,0,0,63.31,68a11.82,11.82,0,0,0,2,2.24,12.32,12.32,0,0,0-11.21,8.22l-2,5.83c-3.24,9.22-4.37,15.55-3.68,20.53.66,4.8,3.38,11.53,12.6,16.4,5.57,2.93,13,4.36,22.89,4.36h0a67,67,0,0,0,21.53-3.18,39.45,39.45,0,0,0,16.94-10.8,45.85,45.85,0,0,0,7.58-12,13.07,13.07,0,0,0,.89,1.47,12.28,12.28,0,0,0,10,5.18h24.39A12.3,12.3,0,0,0,176.92,98l25.86-73.75A12.29,12.29,0,0,0,201.21,13.08Z"/><path class="cls-1" d="M198.61,14.92a9.1,9.1,0,0,0-7.43-3.84H176.82a9.12,9.12,0,0,0-5.35,1.74c-7,5.07-16.07,8.49-27,10.16a9.13,9.13,0,0,0-7.22,6l-1.75,5c-5.19-4.45-13.66-6.47-26.89-6.48h0C97.78,27.48,89.43,29,83,32.08c-7.36,3.55-12.76,10.1-16,19.47l-2.2,6.28A9.1,9.1,0,0,0,73.34,70H79l-1.2,3.43H65.75a9.08,9.08,0,0,0-8.59,6.09l-2,5.83c-3,8.71-4.14,14.58-3.53,19,.56,4,2.91,9.78,10.94,14,5.09,2.68,12.1,4,21.41,4h0a64,64,0,0,0,20.5-3,36.38,36.38,0,0,0,15.6-9.92c3.75-4.17,6.78-9.64,9.26-16.71,3.53-10.07,4.35-16.11,2.73-20.71l.15-.13c3.39-2.92,6-7.11,8-12.82a30.81,30.81,0,0,0,1.85-9.4c.24,0,.48,0,.73,0h4l-.59,1.68L132.35,90.9A9.1,9.1,0,0,0,140.94,103h24.38a9.11,9.11,0,0,0,8.59-6.09L199.77,23.2A9.09,9.09,0,0,0,198.61,14.92Z"/><path class="cls-2" d="M191.18,20.19,165.32,93.93H140.94l13.87-39.54q3-8.57,3.06-10.29c0-1.16-.64-2-2.06-2.62s-4.95-.89-10.58-.9h-2.42l3-8.59q18.69-2.86,31-11.8Z"/><path class="cls-2" d="M116.66,70c3.37.94,5.58,2.49,6.64,4.63s.2,7.16-2.57,15.06q-3.08,8.81-7.44,13.65a27.28,27.28,0,0,1-11.76,7.38,54.8,54.8,0,0,1-17.6,2.52q-11.58,0-17.16-2.95t-6.17-7.2Q60,98.83,63.71,88.31l2-5.83H90.13l-4.2,12q-1.68,4.78-1.38,6.08c.2.87,1.16,1.3,2.89,1.3a5.51,5.51,0,0,0,4.32-1.64q1.47-1.63,3.91-8.56l1.78-5.1c1-2.82,1.3-4.89.91-6.19a3.72,3.72,0,0,0-2.84-2.58,46.24,46.24,0,0,0-9.34-.71l3.75-10.7q8.68,0,10.92-.5a6.83,6.83,0,0,0,3.72-2.19,16,16,0,0,0,2.76-5.28l1.44-4.1q1.35-3.87.73-5.1c-.42-.82-1.37-1.23-2.86-1.23a5.49,5.49,0,0,0-3.92,1.3c-.93.86-1.89,2.71-2.88,5.53l-2.12,6.06H73.34l2.2-6.29Q79.26,44,87,40.28t21.63-3.7q17.44,0,21.85,5.16T131.63,56q-2.16,6.19-5.37,8.94A30.47,30.47,0,0,1,116.66,70Z"/><path class="cls-3" d="M229.88,62.74c-8.06-8.07-16.84-6.23-22.32-2.87a13.8,13.8,0,0,0-6.33,8.47,13.72,13.72,0,0,0-6.32-8.47c-5.48-3.36-14.25-5.2-22.32,2.87-5.23,5.22-8.46,20.62,1.78,35.47,11.19,16.21,24.58,22.57,26.72,23.52l.14.06.15-.06c2.14-1,15.53-7.31,26.72-23.52C238.34,83.36,235.11,68,229.88,62.74Z"/><path class="cls-2" d="M220.45,68.91l-.91-.07-.19,3.93-.75,0-.06,1.36.81,0-.19,4.75c0,1.28.38,1.94,1.29,2,.64,0,1.06-.36,1.23-1.13l.07-1.19-.83-.12c-.09.63-.28.93-.53.93A.35.35,0,0,1,220,79l0-.34.18-4.42,1.27.09.06-1.3-1.29-.17Z"/><path class="cls-2" d="M228.05,74.3a3.3,3.3,0,0,0-.16-.8,1.36,1.36,0,0,0-1.36-.71,1.34,1.34,0,0,0-1.38,1,3.53,3.53,0,0,0-.15,1.06l.93,0a1.62,1.62,0,0,1,0-.53c.07-.34.24-.49.47-.51.4,0,.57.58.55,1.75a2.77,2.77,0,0,0-1.25.34,2.58,2.58,0,0,0-1.29,2.38,2.55,2.55,0,0,0,.74,2.16,1.57,1.57,0,0,0,1,.3,1,1,0,0,0,1-.89l0,.83h1.14Zm-2.56,3.79a1.79,1.79,0,0,1,.31-1,1.46,1.46,0,0,1,1.19-.62s0,.57.09,1.7c0,.89-.19,1.36-.68,1.4S225.47,79.1,225.49,78.09Z"/><path class="cls-2" d="M223.4,72.75l-.93,0-.06,7.72h1.14c-.08-2.7-.08-4.38,0-5a1.79,1.79,0,0,1,.45-1.16,1.33,1.33,0,0,1,.7-.35,4.5,4.5,0,0,0,.06-1.19,1.8,1.8,0,0,0-1.3.94A6.25,6.25,0,0,1,223.4,72.75Z"/><path class="cls-2" d="M215.08,76a7.23,7.23,0,0,0-.24-1.65c-.31-1.09-.78-1.64-1.48-1.64a1.9,1.9,0,0,0-1.68,1.23,4.34,4.34,0,0,0-.45,2,4.9,4.9,0,0,0,.36,2.23c.53,1.08,1.64,1.61,3.34,1.57a6.38,6.38,0,0,0-.08-1.3,2.14,2.14,0,0,1-1.2-.12c-.82-.3-1.21-1.05-1.18-2.24Zm-2.57-.64c-.07,0,0-.29.1-.87s.32-.85.58-.87.61.58.68,1.74Z"/><path class="cls-2" d="M218.14,73.11a1.75,1.75,0,0,0-1-.17c-.66,0-1.1.49-1.27,1.36a2.91,2.91,0,0,0,.44,2,4.35,4.35,0,0,1,.72,1.66,1.25,1.25,0,0,1-.76,1.29l-.79.13,0,1.32a2.61,2.61,0,0,0,2.21-.89,2.14,2.14,0,0,0,.42-1.34,5.44,5.44,0,0,0-.76-2.46,1.92,1.92,0,0,1-.39-1.56c.11-.34.3-.48.56-.46a.72.72,0,0,1,.38.13Z"/><path class="cls-2" d="M222,83.67c-.28,0-.47.15-.6.49a2.36,2.36,0,0,0-.12.51l.08.55a.68.68,0,0,0,.72.56c.18,0,.35-.13.49-.43a1.51,1.51,0,0,0,.15-.72C222.66,84,222.41,83.67,222,83.67Z"/><path class="cls-2" d="M215.67,86.73a1.7,1.7,0,0,0-.76-.25,1.41,1.41,0,0,0-1.07.31,3,3,0,0,1-.31.32l0-1.21a3.15,3.15,0,0,0-1,0l-.07,7.37a4.27,4.27,0,0,0,1.17-.06c0-.11,0-1.64.06-4.61.07-.55.34-.83.77-.85s.59.21.66.66c.06,3.19.1,4.82.12,4.86l1.4,0c-.06-3.12-.14-4.84-.21-5.18A2.86,2.86,0,0,0,215.67,86.73Z"/><path class="cls-2" d="M220.11,87.66a1.6,1.6,0,0,0-1.13-.53,1.54,1.54,0,0,0-1.1.43,3.54,3.54,0,0,0-.93,2.87c0,1.8.57,2.95,1.65,3.46a3.49,3.49,0,0,0,1.24.27c.27,0,.55,0,.89,0a9.14,9.14,0,0,0,0-1.21,2.62,2.62,0,0,1-1.24-.13,1.74,1.74,0,0,1-1.23-1.88,7.19,7.19,0,0,1,1.41-.09c.93,0,1.4-.06,1.4-.08A4.48,4.48,0,0,0,220.11,87.66Zm-1.63.77a1.06,1.06,0,0,1,.31-.36c.66,0,1,.64,1.13,2-1.15,0-1.74,0-1.74,0A3.73,3.73,0,0,1,218.48,88.43Z"/><path class="cls-2" d="M222.72,87.43l-1.19,0,.26,6.71c-.06,2.33-.83,3.54-2.32,3.58a6.67,6.67,0,0,0,.07,1.75,3.12,3.12,0,0,0,2.74-1.6,5.13,5.13,0,0,0,.81-2.88C223.09,94.91,223,92.38,222.72,87.43Z"/><path class="cls-2" d="M209.68,70.71c0,.54.15.83.49.83s.42-.14.51-.44a1.41,1.41,0,0,0,.09-.55c0-.41-.22-.62-.56-.62S209.71,70.18,209.68,70.71Zm.3.2h0a.12.12,0,0,0,0,.08A.15.15,0,0,1,210,70.91Z"/><path class="cls-2" d="M207,68.55l-1,.06-.43,11.13,1.07-.06.08-3.49,1.09,3.44,1.4,0-1.93-4,2-3.1-1.11,0-1.42,1.93Z"/><path class="cls-2" d="M188.59,67.65h-1.13l.17,12h1.13Z"/><path class="cls-2" d="M190.86,67.46h-1.13l-.19,12.28h.94V77.11l.89,2.68,1.19-.05-1.7-4.33,2.08-3.21H191.8l-1.13,1.7Z"/><path class="cls-2" d="M193.69,73.82a.71.71,0,0,1,.55-.3c.3,0,.53.44.63,1.32A10.78,10.78,0,0,0,193.5,76a2.77,2.77,0,0,0-.75,1.87,1.84,1.84,0,0,0,.45,1.32,1,1,0,0,0,.72.28,1.35,1.35,0,0,0,1.38-1.19l.3,1.12,1,0a42.31,42.31,0,0,0-.43-5,3.18,3.18,0,0,0-1-2.25,1.38,1.38,0,0,0-.81-.19c-.84,0-1.39.66-1.63,2l.77.17Zm1,4.25c-.27.29-.5.36-.72.21a.53.53,0,0,1-.29-.43,1.74,1.74,0,0,1,.31-1.06,2.32,2.32,0,0,1,.94-.85A4.3,4.3,0,0,1,194.7,78.07Z"/><path class="cls-2" d="M185.76,72.92a1.57,1.57,0,0,0-1.57-.42A1.86,1.86,0,0,0,183,74a6.81,6.81,0,0,0-.21,1.38,14.29,14.29,0,0,0,.08,1.46,2.88,2.88,0,0,0,1.42,2.47,3.89,3.89,0,0,0,2.45.19L186.51,78a2.22,2.22,0,0,1-1.73,0,1.54,1.54,0,0,1-.74-1l-.13-.78a21.92,21.92,0,0,0,2.66-.23C186.46,74.37,186.17,73.33,185.76,72.92Zm-.76,1a2.72,2.72,0,0,1,.32.79c.11.38.15.57.1.59a6.92,6.92,0,0,1-1.51.13A3.36,3.36,0,0,1,184,74c.09-.3.25-.45.42-.47A.65.65,0,0,1,185,73.9Z"/><path class="cls-2" d="M191.37,83.12c-.28,0-.44.23-.47.76a.64.64,0,0,0,.56.64c.34,0,.51-.25.49-.74S191.75,83.14,191.37,83.12Zm0,.51s0,.08,0,.11,0,0,0,0h0s0-.06,0-.08S191.42,83.61,191.42,83.63Z"/><path class="cls-2" d="M187.21,87.07h-.7l-.74,3.06-.86-2.91-1.21.08,1.7,6.42h.94l.57-3.78,1.51,3.78h1.13l.95-6.8h-1.14l-.75,4.16Z"/><path class="cls-2" d="M198.55,82.5l-.91,0,0,3.68-1,0v1.6h1c-.09,3.1-.15,4.76-.15,5,0,1.17.4,1.74,1.19,1.7.61,0,1-.43,1.31-1.25l.2-1.21h-.94c-.12.53-.3.78-.53.8s-.26-.13-.34-.4l-.08-.4.12-4.23,1.28-.06-.07-1.37-1.1,0Z"/><path class="cls-2" d="M192.48,88.35l.87.12.13-.38a.77.77,0,0,1,.59-.42c.55,0,.87.27,1,.93,0,.13-.09.26-.33.43s-.59.4-.78.55a2.8,2.8,0,0,0-.76,3.71,1.61,1.61,0,0,0,1,.3c.6,0,1.1-.47,1.49-1.49l.13,1.32,1.17,0a31,31,0,0,0-.67-5.14,2.21,2.21,0,0,0-2.14-1.53,1.4,1.4,0,0,0-1.34.83A2,2,0,0,0,192.48,88.35Zm1.91,1.8c.4-.32.63-.45.7-.43l.06,1.34a1.54,1.54,0,0,1-.78,1.26.39.39,0,0,1-.58-.11,1.23,1.23,0,0,1-.15-.95A2,2,0,0,1,194.39,90.15Z"/><path class="cls-2" d="M192,87h-1l-.28,6.62,1.35.05Z"/><path class="cls-2" d="M205.45,73.94a10.87,10.87,0,0,0,.11-1.65,1.52,1.52,0,0,0-1.1.51,3.45,3.45,0,0,1-.41.55c0-.41,0-.74,0-1l-.83-.08c-.1,4.56-.19,7-.27,7.33h1.17l0-4.77.3-.45A1.25,1.25,0,0,1,205.45,73.94Z"/><path class="cls-2" d="M201.78,73.16a1.28,1.28,0,0,0-1.1-.58,1.53,1.53,0,0,0-.87.54,4.63,4.63,0,0,0-1,2.86,4.41,4.41,0,0,0,.61,2.93,1.43,1.43,0,0,0,1.1.64c1.19,0,1.81-1.1,1.88-3.38A4.8,4.8,0,0,0,201.78,73.16Zm-1,.65c.53,0,.79.73.77,2.26a3.51,3.51,0,0,1-.36,1.8.75.75,0,0,1-.62.45c-.3,0-.55-.25-.72-.77a3.61,3.61,0,0,1-.21-1.42C199.76,74.62,200.14,73.84,200.8,73.81Z"/><path class="cls-2" d="M202.16,86.52a1.73,1.73,0,0,0-1.25.64,3.51,3.51,0,0,0-.68,2.57c.1,2.1.81,3.29,2.15,3.58a3.32,3.32,0,0,0,2-.23l-.27-1.44c-1.13.38-1.92.23-2.36-.43a2.56,2.56,0,0,1-.32-1.34c1.78-.12,2.72-.17,2.82-.19C204.33,87.52,203.65,86.47,202.16,86.52Zm.3.91a.64.64,0,0,1,.27.11,2.28,2.28,0,0,1,.54,1.49s-.28,0-.85.08l-1,.06a.88.88,0,0,1,0-.27,1.86,1.86,0,0,1,.1-.58c.15-.59.43-.87.87-.87Z"/><path class="cls-2" d="M206.65,86.94a3.28,3.28,0,0,0-1.79,3c-.19,1.78.17,3,1.09,3.7a2.38,2.38,0,0,0,2,.48s0-.48-.15-1.38c-1.21-.08-1.8-.87-1.74-2.42a2,2,0,0,1,.68-1.57,1.87,1.87,0,0,1,1.4-.45,7.82,7.82,0,0,0,.06-1.57A2.56,2.56,0,0,0,206.65,86.94Z"/><path class="cls-2" d="M208.92,88.11a8.13,8.13,0,0,1,1.53,0s-.56,2-1.83,6c.74.06,1.76.09,3.08.09a6.83,6.83,0,0,0,.1-1.13c-.78,0-1.27,0-1.46,0,0,0,.23-1.06.77-3.15s.84-3.18.8-3.18h-3A10.56,10.56,0,0,0,208.92,88.11Z"/><path class="cls-2" d="M181.33,70.55a.33.33,0,0,0,.38-.13c.44-.56.31-1-.39-1.15a.52.52,0,0,0-.46.32C180.62,70.12,180.77,70.42,181.33,70.55Z"/><path class="cls-2" d="M182,73.33H181l-.19,6.41h1.33Z"/><path class="cls-2" d="M183.11,82.38l-1.21.08.46,2h.75Z"/><path class="cls-2" d="M182.81,86.86a1.79,1.79,0,0,1,.6.17l.25-1.09a3.68,3.68,0,0,0-1.32-.12,1.61,1.61,0,0,0-1.63,1.32,3.15,3.15,0,0,0,.49,2.22,4,4,0,0,1,.7,2.06,1.41,1.41,0,0,1-.89,1.26,2.71,2.71,0,0,1-.85.25l.14,1.36a3.21,3.21,0,0,0,1.41-.36,2.41,2.41,0,0,0,1.44-2.31,5.88,5.88,0,0,0-.72-2.36c-.41-.85-.59-1.43-.47-1.78A.78.78,0,0,1,182.81,86.86Z"/><path class="cls-2" d="M205,100.69a5.19,5.19,0,0,0-.36,1.72,6.35,6.35,0,0,0,.38,2.38,1.74,1.74,0,0,0,1.51,1.29c.66,0,1.13-.46,1.44-1.44a8.27,8.27,0,0,0,.26-2.6,4,4,0,0,0-.39-1.72,1.44,1.44,0,0,0-1.38-.93C205.84,99.39,205.35,99.82,205,100.69Zm.64,1.78c.08-1.17.34-1.78.8-1.78s.83.59.83,1.8q0,2.13-.87,2.1c-.23,0-.42-.27-.57-.78A3.88,3.88,0,0,1,205.65,102.47Z"/><path class="cls-2" d="M202.63,99.82a1.58,1.58,0,0,0-1.12.66,1.94,1.94,0,0,0-.28.63c-.09-.85-.47-1.27-1.15-1.23a1.33,1.33,0,0,0-.85.36,2.64,2.64,0,0,0-.29.34l0-.79-1,0-.28,6.8,1.17,0c0-2.4.08-3.78.13-4.16.08-.64.33-1,.78-1.06s.66.17.72.67l-.17,4.59,1.24,0,0-4.31c.06-.55.27-.84.63-.85s.55.22.55.7l0,4.46h1.42L204,101A1.19,1.19,0,0,0,202.63,99.82Z"/><path class="cls-2" d="M210,102a1.91,1.91,0,0,1,.39-1.23,1.53,1.53,0,0,1,1.29-.58,12.93,12.93,0,0,0,.08-1.38c-1.88-.1-2.86.92-2.91,3.08a4.66,4.66,0,0,0,.86,3.34,2.44,2.44,0,0,0,1.95.85s0-.59,0-1.74a1.82,1.82,0,0,1-1.23-.73A2.64,2.64,0,0,1,210,102Z"/><path class="cls-2" d="M196.55,94.59a3.3,3.3,0,0,0-.72,0,4.11,4.11,0,0,0,0,1.1,1.5,1.5,0,0,0,.45.85l1-.46a2.24,2.24,0,0,1-.58-.92A5,5,0,0,1,196.55,94.59Z"/><path class="cls-2" d="M190.33,98.62h-1.1l-.09,11,1.27,0,0-4a1.83,1.83,0,0,0,1.19.28c.52,0,.92-.38,1.19-1.09a5.83,5.83,0,0,0,.28-2,5.57,5.57,0,0,0-.79-3,1.28,1.28,0,0,0-1-.6.87.87,0,0,0-.89.66Zm.38,2,.24-.08c.65,0,1,.78,1.06,2.27-.09,1.19-.38,1.78-.87,1.78a1.21,1.21,0,0,1-.49-.2l-.21-.18a6.17,6.17,0,0,1-.17-1.69,9.62,9.62,0,0,1,.1-1.32A.74.74,0,0,1,190.71,100.64Z"/><path class="cls-2" d="M197.36,102.21a8,8,0,0,0-.25-2.2,1.47,1.47,0,0,0-1.51-1.13c-1.1,0-1.7,1-1.77,3.16-.14,2.7.39,4,1.56,4a1.71,1.71,0,0,0,1.51-1.13A6.62,6.62,0,0,0,197.36,102.21Zm-1.8-1.86c.51,0,.82.53.89,1.74.06,1.63-.25,2.48-.92,2.53-.34,0-.59-.34-.7-1.17a8.77,8.77,0,0,1-.06-1.4A3.64,3.64,0,0,1,195,101C195.19,100.58,195.37,100.37,195.56,100.35Z"/><polyline class="cls-2" points="215.44 100.32 214.12 104.26 213.44 99.9 212.23 99.84 213.4 106.7 211.44 110.08 213.06 110.78 216.9 100.39 215.44 100.32"/><polyline class="cls-2" points="209.64 73.43 209.51 79.61 210.72 79.63 210.59 73.45 209.64 73.43"/><polyline class="cls-2" points="178.2 79.93 176.88 76.36 175.93 79.93 174.8 79.93 173.47 73.52 174.42 73.52 175.37 77.49 176.12 73.52 177.06 73.52 178.39 77.49 179.14 73.14 180.28 73.14 179.33 79.93 178.2 79.93"/><polygon class="cls-2" points="139.26 119.19 134.81 119.19 135.95 115.68 140.95 115.68 142.15 111.98 129.94 111.98 123.93 130.47 131.14 130.47 133.67 122.71 138.12 122.71 139.26 119.19"/><polygon class="cls-2" points="143.9 111.98 137.89 130.47 145.11 130.47 151.12 111.98 143.9 111.98"/><polygon class="cls-2" points="164.09 111.98 161.38 120.31 160.04 111.98 154.01 111.98 148 130.47 154.03 130.47 156.76 122.07 157.78 130.47 164.11 130.47 170.12 111.98 164.09 111.98"/><path class="cls-2" d="M175.06,112l-9.69,18.49h7.45l1.52-3.32h2.58l-.69,3.32h7.37L185.48,112Zm2.73,11.89h-2.48c.72-1.64,2-4.22,3.91-7.77C178.58,119.19,178.11,121.78,177.79,123.87Z"/><path class="cls-2" d="M195.35,120.89l2.2-.31.64-2-2.2.32,2.26-7H191l-2.61,8-1.48.21-.64,2,1.48-.21L185,130.47h11.6l1.2-3.7h-4.39Z"/><path class="cls-2" d="M89.62,17.84l-.86,2.47H75.88l.72-2.07q7.74-5.77,9.3-7.15A6.35,6.35,0,0,0,87.72,9a.91.91,0,0,0,0-.88,1.06,1.06,0,0,0-.89-.29,1.77,1.77,0,0,0-1.1.32,2.63,2.63,0,0,0-.78,1.28l-.48,1.37H79.21l.18-.53a9.26,9.26,0,0,1,.87-1.92,4.87,4.87,0,0,1,1.48-1.38,7.65,7.65,0,0,1,2.43-1,13.4,13.4,0,0,1,3.18-.35c2.33,0,4,.35,4.92,1.07a2.2,2.2,0,0,1,.84,2.7A7,7,0,0,1,91.19,12a97.46,97.46,0,0,1-8,5.89Z"/><path class="cls-2" d="M108.19,10.73l-1.68,4.83A9.41,9.41,0,0,1,105.38,18a5.35,5.35,0,0,1-1.69,1.41,8.59,8.59,0,0,1-2.53.94,14.79,14.79,0,0,1-3,.28,15,15,0,0,1-3.39-.29,3.65,3.65,0,0,1-1.89-.94A2.43,2.43,0,0,1,92.19,18a5.22,5.22,0,0,1,.43-2.23l1.76-5.06a8.47,8.47,0,0,1,1.6-3,6.15,6.15,0,0,1,2.77-1.6,13.85,13.85,0,0,1,4.23-.6,11.44,11.44,0,0,1,3.31.42,4.15,4.15,0,0,1,1.92,1,2,2,0,0,1,.55,1.35A7.8,7.8,0,0,1,108.19,10.73Zm-5.43-1.22a3.35,3.35,0,0,0,.32-1.44c0-.19-.3-.29-.74-.29a1.32,1.32,0,0,0-1,.31,3.9,3.9,0,0,0-.71,1.42L98.2,16.58a3.34,3.34,0,0,0-.34,1.52c.07.17.32.26.76.26a1.31,1.31,0,0,0,1-.31,3.83,3.83,0,0,0,.68-1.36Z"/><path class="cls-2" d="M120.44,17.83l-.86,2.47H106.7l.72-2.06q7.74-5.77,9.3-7.15a6.26,6.26,0,0,0,1.82-2.15.92.92,0,0,0,0-.88,1.13,1.13,0,0,0-.9-.29,1.78,1.78,0,0,0-1.1.33,2.64,2.64,0,0,0-.78,1.27l-.48,1.38H110l.18-.52a9.26,9.26,0,0,1,.87-1.92,4.87,4.87,0,0,1,1.48-1.38,7.65,7.65,0,0,1,2.43-1,12.9,12.9,0,0,1,3.18-.35c2.33,0,4,.35,4.92,1.06a2.21,2.21,0,0,1,.84,2.71A6.88,6.88,0,0,1,122,12a98.35,98.35,0,0,1-8,5.88Z"/><path class="cls-2" d="M135.72,12.09a2.61,2.61,0,0,1,1.67.91c.29.42.16,1.4-.38,2.95a6.7,6.7,0,0,1-1.57,2.68,6.13,6.13,0,0,1-2.71,1.45,15,15,0,0,1-4.19.5,11.51,11.51,0,0,1-4.16-.57c-.93-.39-1.46-.86-1.6-1.42a5.94,5.94,0,0,1,.51-2.9l.4-1.14h5.86l-.82,2.35a2.44,2.44,0,0,0-.24,1.19c.06.17.3.26.72.26a1.38,1.38,0,0,0,1-.33,4.92,4.92,0,0,0,.8-1.68l.35-1a1.69,1.69,0,0,0,.12-1.21.92.92,0,0,0-.72-.51,13.64,13.64,0,0,0-2.26-.14l.73-2.1a19,19,0,0,0,2.62-.1,1.57,1.57,0,0,0,.86-.43,2.76,2.76,0,0,0,.58-1l.28-.8c.18-.51.21-.84.09-1s-.34-.24-.7-.24a1.4,1.4,0,0,0-.92.25,2.55,2.55,0,0,0-.61,1.09L131,10.3h-5.86l.43-1.23a4.4,4.4,0,0,1,2.51-2.81,14.34,14.34,0,0,1,5.14-.73c2.8,0,4.57.34,5.34,1a2.39,2.39,0,0,1,.51,2.81A3.58,3.58,0,0,1,138,11.1,7.26,7.26,0,0,1,135.72,12.09Z"/><path class="cls-2" d="M121.23,142.66l-9.25.44.6-2.5a4.33,4.33,0,0,0,.12-.76.76.76,0,0,0-.87-.89,1.15,1.15,0,0,0-.91.38,3.09,3.09,0,0,0-.56,1.27l-.44,1.82a4.2,4.2,0,0,0-.13.75.89.89,0,0,0,.39.84,4.59,4.59,0,0,0,1.37.47c1.27.29,2.42.55,3.44.75a16.39,16.39,0,0,1,2.57.72,4.13,4.13,0,0,1,1.6,1.05,2.38,2.38,0,0,1,.52,1.73,5.08,5.08,0,0,1-.13,1l-1,4.5a5.28,5.28,0,0,1-1.3,2.55,6.19,6.19,0,0,1-2.4,1.46,13,13,0,0,1-3.4.67c-1.3.11-2.76.16-4.39.16s-2.85,0-4-.11a11.14,11.14,0,0,1-2.9-.48,3.68,3.68,0,0,1-1.76-1.08,2.76,2.76,0,0,1-.55-1.9,7.18,7.18,0,0,1,.21-1.27l.75-3.13,9.22-.44-.67,2.81a5.9,5.9,0,0,0-.2,1.1.67.67,0,0,0,.19.6,1.08,1.08,0,0,0,.65.16,1.17,1.17,0,0,0,1-.38,4.33,4.33,0,0,0,.6-1.48l.6-2.47c0-.23.09-.44.13-.62a3.31,3.31,0,0,0,.07-.55A1,1,0,0,0,110,149a2.33,2.33,0,0,0-1.19-.43L105,148c-.77-.09-1.45-.2-2-.32a6.41,6.41,0,0,1-1.5-.5,2.26,2.26,0,0,1-.9-.79,2.14,2.14,0,0,1-.28-1.24,4.87,4.87,0,0,1,0-.51,5.41,5.41,0,0,1,.12-.55l.86-3.85a6.08,6.08,0,0,1,1.27-2.69,5.38,5.38,0,0,1,2.29-1.53,12.88,12.88,0,0,1,3.36-.67c1.3-.1,2.8-.15,4.52-.15q2.23,0,4,.12a12.2,12.2,0,0,1,2.93.51,3.91,3.91,0,0,1,1.79,1.12,2.74,2.74,0,0,1,.56,1.92,5.46,5.46,0,0,1-.17,1.24Z"/><path class="cls-2" d="M140.94,155l-.9,3.74H118.83l.94-4.05L133,139.4h-8.5l.64-3.82h20.89l-.94,4.06L131.25,155Z"/><path class="cls-2" d="M154.41,158.69h-9.14l4.6-19.29h-3.82l.93-3.82h16.78l-.93,3.82H159Z"/><path class="cls-2" d="M169.59,158.69l.64-4.64h-2.92l-1.64,4.64H157l9-23.11H180.6l-2,23.11Zm2.93-19.36h-.26l-3.64,10.91h2.22Z"/><path class="cls-2" d="M180.21,158.69l5.5-23.11,2.47-.17,2.48-.12,2.6-.07h2.85c1.52,0,2.87,0,4.06.12a12.61,12.61,0,0,1,3,.5,3.86,3.86,0,0,1,1.83,1.09,2.72,2.72,0,0,1,.57,1.93,5.34,5.34,0,0,1-.17,1.2l-.78,3.19a4.54,4.54,0,0,1-1,2.13,3.67,3.67,0,0,1-1.85,1,1.66,1.66,0,0,1,1.2.7,2.53,2.53,0,0,1,.34,1.46c0,.19,0,.37-.06.57a4.79,4.79,0,0,1-.11.6l-1,4.32a5.17,5.17,0,0,1-1.3,2.58,5.8,5.8,0,0,1-2.37,1.39,13.6,13.6,0,0,1-3.39.57c-1.3.07-2.75.1-4.35.1Zm11.54-10.13L190.22,155h1.28a1.27,1.27,0,0,0,1.06-.38,4.26,4.26,0,0,0,.54-1.48l.68-2.78c0-.18.08-.35.11-.51a2.25,2.25,0,0,0,0-.41.68.68,0,0,0-.25-.66,1.7,1.7,0,0,0-.87-.17Zm.75-3.16h1.06a1.66,1.66,0,0,0,1.16-.36,3.24,3.24,0,0,0,.7-1.56l.67-2.81a3.77,3.77,0,0,0,.12-.83c0-.59-.31-.89-1-.89l-.64,0a3,3,0,0,0-.55.08Z"/><path class="cls-2" d="M16.29,168.37q1.23,0,2.19.09a4.93,4.93,0,0,1,1.58.35,1.76,1.76,0,0,1,.89.78A2.26,2.26,0,0,1,21.1,171a5.85,5.85,0,0,1-.2.85l-1,3.4a7,7,0,0,1-.92,2,4.09,4.09,0,0,1-1.31,1.18,5.71,5.71,0,0,1-1.79.59,16.24,16.24,0,0,1-2.34.15h-1.1l-1.82,6h-5l5-16.43,1.36-.12,1.34-.09,1.42-.05Zm-.53,3.88a3.61,3.61,0,0,0,.15-.61.78.78,0,0,0-.05-.45.42.42,0,0,0-.39-.16,2.33,2.33,0,0,0-.59.08l-1.65,5.32h.61a.7.7,0,0,0,.59-.25,2.38,2.38,0,0,0,.38-.8Z"/><path class="cls-2" d="M28.71,168.37c.82,0,1.55,0,2.19.08a4.81,4.81,0,0,1,1.58.34,1.69,1.69,0,0,1,.89.78,2.2,2.2,0,0,1,.14,1.37,4.8,4.8,0,0,1-.2.87l-.93,3.08a5.76,5.76,0,0,1-1.15,2.21,3.75,3.75,0,0,1-1.64,1.11l0,6.86h-5l.82-6.57H25l-2,6.57H18l5-16.43,1.36-.12,1.35-.09,1.4-.05Zm-2.28,7.45a.69.69,0,0,0,.59-.32,4.58,4.58,0,0,0,.49-1.15l.65-2.15a3.34,3.34,0,0,0,.17-.63.51.51,0,0,0-.06-.41c-.06-.09-.19-.13-.39-.13a1.91,1.91,0,0,0-.57.08c-.36,1.15-.64,2-.83,2.67s-.34,1.09-.43,1.4l-.2.64Z"/><path class="cls-2" d="M42.41,182.41l-.82,2.66H30l.86-2.88,8.59-10.84H34.78l.69-2.71H46.89L46,171.52l-8.92,10.89Z"/><path class="cls-2" d="M53.83,168.64H58l-6.51,11.21-1.59,5.22h-5l1.6-5.22.56-11.21h4.09l-1.11,7.72h.14Z"/><path class="cls-2" d="M69,168.37q1.23,0,2.19.09a4.93,4.93,0,0,1,1.58.35,1.83,1.83,0,0,1,.9.78,2.2,2.2,0,0,1,.14,1.37,5.83,5.83,0,0,1-.19.85l-1,3.4a6.76,6.76,0,0,1-.91,2,4,4,0,0,1-1.32,1.18,5.63,5.63,0,0,1-1.79.59,16.09,16.09,0,0,1-2.33.15H65.08l-1.81,6h-5l5-16.43,1.35-.12,1.35-.09,1.42-.05Zm-.52,3.88a4.84,4.84,0,0,0,.14-.61.7.7,0,0,0,0-.45.42.42,0,0,0-.38-.16,2.33,2.33,0,0,0-.59.08l-1.66,5.32h.62a.71.71,0,0,0,.59-.25,2.4,2.4,0,0,0,.37-.8Z"/><path class="cls-2" d="M81.06,168.37c.82,0,1.54,0,2.18.08a4.52,4.52,0,0,1,1.56.34,1.74,1.74,0,0,1,.88.78,2.25,2.25,0,0,1,.13,1.39,3.06,3.06,0,0,1-.07.4q-.06.21-.12.45l-3.05,10a5.52,5.52,0,0,1-.95,1.93,3.81,3.81,0,0,1-1.41,1.08,6,6,0,0,1-1.9.46c-.72.07-1.53.1-2.45.1s-1.54,0-2.16-.07a4.54,4.54,0,0,1-1.55-.36,1.74,1.74,0,0,1-.89-.79,2.33,2.33,0,0,1-.13-1.39,6.46,6.46,0,0,1,.23-1l3-10a5,5,0,0,1,.93-1.85,3.67,3.67,0,0,1,1.39-1,6.39,6.39,0,0,1,1.89-.45C79.33,168.4,80.14,168.37,81.06,168.37Zm-.56,3.83a3.23,3.23,0,0,0,.14-.53c.06-.43-.07-.64-.4-.64a.71.71,0,0,0-.55.27,2.53,2.53,0,0,0-.41.9l-2.81,9.16a5.3,5.3,0,0,0-.19.73.6.6,0,0,0,0,.47.45.45,0,0,0,.35.12.69.69,0,0,0,.57-.28,3.64,3.64,0,0,0,.45-1Z"/><path class="cls-2" d="M88,168.64l5.06-.27-4.28,14h3.81l-.82,2.66H83Z"/><path class="cls-2" d="M97.66,168.64l5.07-.27-5.11,16.7h-5Z"/><path class="cls-2" d="M105.6,185.07h-5l4.2-13.72h-2.09l.84-2.71h9.18l-.84,2.71h-2.1Z"/><path class="cls-2" d="M113.56,168.64h9.16l-.82,2.71h-4.2l-1.2,4h3.86l-.82,2.68h-3.88l-1.34,4.42h4.32l-.82,2.66h-9.29Z"/><path class="cls-2" d="M126.72,179.31l5.05-.24-.84,2.83a4.93,4.93,0,0,1-.93,1.85,3.85,3.85,0,0,1-1.42,1,6.15,6.15,0,0,1-1.93.45c-.73.07-1.54.1-2.43.1s-1.56,0-2.19-.07a4.86,4.86,0,0,1-1.56-.35,1.66,1.66,0,0,1-.86-.76,2.24,2.24,0,0,1-.14-1.36,6.62,6.62,0,0,1,.23-.9l3-9.94a5.71,5.71,0,0,1,.93-1.9,3.68,3.68,0,0,1,1.38-1.09,6.22,6.22,0,0,1,1.9-.49c.72-.07,1.55-.11,2.48-.11s1.55,0,2.18.09a4.87,4.87,0,0,1,1.57.35,1.72,1.72,0,0,1,.89.78,2.27,2.27,0,0,1,.14,1.37,5.85,5.85,0,0,1-.2.85l-.67,2.15-5.07.25.61-2a3.13,3.13,0,0,0,.13-.53c.06-.43-.07-.64-.4-.64a.68.68,0,0,0-.54.27,2.36,2.36,0,0,0-.42.9l-2.8,9.16a5.85,5.85,0,0,0-.2.76.55.55,0,0,0,0,.45.47.47,0,0,0,.36.11.68.68,0,0,0,.56-.27,3.32,3.32,0,0,0,.46-1Z"/><path class="cls-2" d="M139.93,178h-1.59l-2.16,7h-5l5-16.43,5.06-.27-2.15,7h1.6l2.07-6.71,5.06-.27-5.1,16.7h-5Z"/><path class="cls-2" d="M151.75,177.87h-.11l-2.21,7.2H144.5l5-16.43h5.13l-.72,7.42h.11l2.28-7.42h4.87l-5,16.43h-5Z"/><path class="cls-2" d="M162.85,168.64l5.07-.27-5.11,16.7h-5Z"/><path class="cls-2" d="M172.14,179.31l5.06-.24-.84,2.83a5.09,5.09,0,0,1-.94,1.85,3.77,3.77,0,0,1-1.42,1,6,6,0,0,1-1.92.45c-.73.07-1.54.1-2.43.1s-1.56,0-2.19-.07a4.86,4.86,0,0,1-1.56-.35,1.65,1.65,0,0,1-.87-.76,2.32,2.32,0,0,1-.13-1.36,6.34,6.34,0,0,1,.22-.9l3-9.94a5.71,5.71,0,0,1,.94-1.9,3.68,3.68,0,0,1,1.38-1.09,6.15,6.15,0,0,1,1.9-.49c.71-.07,1.54-.11,2.48-.11s1.54,0,2.18.09a4.93,4.93,0,0,1,1.57.35,1.7,1.7,0,0,1,.88.78,2.2,2.2,0,0,1,.14,1.37,5.83,5.83,0,0,1-.19.85l-.67,2.15-5.08.25.62-2a4.51,4.51,0,0,0,.13-.53c.06-.43-.07-.64-.4-.64a.71.71,0,0,0-.55.27,2.53,2.53,0,0,0-.41.9l-2.8,9.16a4.54,4.54,0,0,0-.2.76.6.6,0,0,0,0,.45.5.5,0,0,0,.36.11.68.68,0,0,0,.57-.27,3.62,3.62,0,0,0,.45-1Z"/><path class="cls-2" d="M181.73,168.64h9.17l-.83,2.71h-4.19l-1.21,4h3.87l-.83,2.68h-3.87l-1.35,4.42h4.32l-.82,2.66h-9.28Z"/><path class="cls-2" d="M202.66,168.37q1.23,0,2.19.09a4.93,4.93,0,0,1,1.58.35,1.76,1.76,0,0,1,.89.78,2.12,2.12,0,0,1,.15,1.37,4.78,4.78,0,0,1-.2.85l-1,3.4a7,7,0,0,1-.91,2,4.12,4.12,0,0,1-1.32,1.18,5.63,5.63,0,0,1-1.79.59,16.19,16.19,0,0,1-2.33.15h-1.11l-1.81,6h-5l5-16.43,1.35-.12,1.35-.09,1.42-.05Zm-.52,3.88a4.84,4.84,0,0,0,.14-.61.7.7,0,0,0-.05-.45.42.42,0,0,0-.39-.16,2.46,2.46,0,0,0-.59.08l-1.65,5.32h.62a.72.72,0,0,0,.59-.25,2.4,2.4,0,0,0,.37-.8Z"/><path class="cls-2" d="M214.76,168.37c.81,0,1.54,0,2.18.08a4.57,4.57,0,0,1,1.56.34,1.74,1.74,0,0,1,.88.78,2.25,2.25,0,0,1,.13,1.39c0,.13,0,.26-.07.4l-.12.45-3,10a5.69,5.69,0,0,1-1,1.93,3.81,3.81,0,0,1-1.41,1.08,6,6,0,0,1-1.9.46c-.72.07-1.53.1-2.45.1s-1.54,0-2.16-.07a4.6,4.6,0,0,1-1.56-.36,1.76,1.76,0,0,1-.88-.79,2.26,2.26,0,0,1-.13-1.39,5.41,5.41,0,0,1,.23-1l3-10A5,5,0,0,1,209,170a3.67,3.67,0,0,1,1.39-1,6.39,6.39,0,0,1,1.89-.45C213,168.4,213.84,168.37,214.76,168.37Zm-.56,3.83a3.23,3.23,0,0,0,.14-.53c.06-.43-.07-.64-.4-.64a.7.7,0,0,0-.55.27,2.52,2.52,0,0,0-.42.9l-2.8,9.16a5.3,5.3,0,0,0-.19.73.6.6,0,0,0,.05.47.45.45,0,0,0,.35.12.72.72,0,0,0,.57-.28,4,4,0,0,0,.45-1Z"/><path class="cls-2" d="M228.46,182.41l-.81,2.66H216l.87-2.88,8.58-10.84h-4.65l.69-2.71H233l-.86,2.88-8.93,10.89Z"/><path class="cls-2" d="M236.18,177.87h-.11l-2.21,7.2h-4.93l5-16.43h5.13l-.72,7.42h.1l2.28-7.42h4.88l-5,16.43h-5Z"/><path class="cls-2" d="M248.39,185.07l.76-3.3h-1.6l-1.3,3.3h-4.72l6.94-16.43h8l-3.11,16.43Zm3.3-13.77h-.14l-3,7.77h1.21Z"/><path class="cls-2" d="M261.45,177.87h-.1l-2.21,7.2H254.2l5.05-16.43h5.12l-.72,7.42h.11l2.28-7.42h4.88l-5,16.43h-5.06Z"/><path class="cls-2" d="M281.88,173.67l-5.1.32.54-1.79a3.08,3.08,0,0,0,.13-.53c.07-.43-.06-.64-.39-.64a.65.65,0,0,0-.53.27,2.7,2.7,0,0,0-.42.9l-.4,1.3a2.88,2.88,0,0,0-.13.54.61.61,0,0,0,.13.59,1.68,1.68,0,0,0,.71.33c.67.22,1.28.39,1.82.54a6.73,6.73,0,0,1,1.34.51,1.68,1.68,0,0,1,.92,2,7.1,7.1,0,0,1-.16.71l-1,3.2a4.94,4.94,0,0,1-.93,1.82,4.13,4.13,0,0,1-1.44,1,6.15,6.15,0,0,1-1.92.48c-.72.07-1.53.11-2.41.11s-1.56,0-2.19-.07a4.73,4.73,0,0,1-1.54-.35,1.65,1.65,0,0,1-.87-.76,2.17,2.17,0,0,1-.13-1.36,5.21,5.21,0,0,1,.22-.9l.68-2.22,5.08-.32-.61,2a5.54,5.54,0,0,0-.2.78.51.51,0,0,0,.05.43.45.45,0,0,0,.34.11.67.67,0,0,0,.57-.27,4.29,4.29,0,0,0,.45-1l.54-1.76.13-.44a2.7,2.7,0,0,0,.08-.39.8.8,0,0,0-.09-.62,1,1,0,0,0-.61-.31l-2.05-.36a10.25,10.25,0,0,1-1.09-.23,2.3,2.3,0,0,1-.77-.36,1.14,1.14,0,0,1-.43-.56,1.78,1.78,0,0,1,0-.88,2.83,2.83,0,0,1,.07-.36c0-.13.07-.26.11-.4l.81-2.73a5.55,5.55,0,0,1,.93-1.92A3.57,3.57,0,0,1,273.5,169a6.09,6.09,0,0,1,1.89-.48c.72-.07,1.55-.11,2.48-.11s1.55,0,2.18.09a4.85,4.85,0,0,1,1.56.36,1.82,1.82,0,0,1,.88.8,2.25,2.25,0,0,1,.14,1.36,5.68,5.68,0,0,1-.2.88Z"/><path class="cls-2" d="M286.77,178.89h-.1l-1.89,6.18h-5l5-16.43,5.08-.27L288,174.45h.1l3.31-5.81h5.16l-4.91,7.84,0,8.59H286.4Z"/><path class="cls-2" d="M297.53,168.64l5.08-.27-5.12,16.7h-5Z"/><path class="cls-2" d="M304.18,168.64h9.16l-.82,2.71h-4.2l-1.2,4H311l-.82,2.68h-3.88l-1.34,4.42h4.32l-.82,2.66h-9.28Z"/><path class="cls-2" d="M312,185.34a5.74,5.74,0,0,1-1.52-.21,7.44,7.44,0,0,1-1.44-.57l.92-2.61a12.41,12.41,0,0,0,1.38.52,4.9,4.9,0,0,0,1.48.21.75.75,0,0,0,.58-.28,3.31,3.31,0,0,0,.47-1l3.89-12.69,5.1-.3-4.14,13.53a5.24,5.24,0,0,1-.94,1.83,3.91,3.91,0,0,1-1.43,1,6.83,6.83,0,0,1-1.93.46C313.64,185.3,312.84,185.34,312,185.34Z"/><polygon class="cls-2" points="267.29 164.1 272.79 164.1 266.92 167.74 263.75 167.74 267.29 164.1"/></g></g></svg>