<?xml version="1.0" encoding="UTF-8"?><svg id="Warstwa_2" xmlns="http://www.w3.org/2000/svg" viewBox="0 0 329.72 197.83"><defs><style>.cls-1{fill:#fff;}.cls-2{fill:#020300;}.cls-3{fill:#e20613;}.cls-4{fill:#ffec00;}.cls-5{fill:#ec7004;}.cls-6{fill:#e11e14;}.cls-7{fill:#f9b300;}.cls-8{fill:#e5007e;}</style></defs><g id="Warstwa_42"><g id="Warstwa_28"><g><path class="cls-2" d="M21.09,177.67c-.04,.3-.11,.58-.2,.86l-1.03,3.39c-.25,.82-.55,1.47-.91,1.98-.37,.5-.81,.9-1.32,1.18-.52,.29-1.11,.48-1.79,.59-.68,.1-1.46,.16-2.33,.16h-1.11l-1.82,5.95H5.58l5.03-16.43c.46-.04,.91-.09,1.35-.12,.44-.03,.89-.06,1.35-.08,.46-.03,.93-.04,1.42-.05,.48-.01,1-.01,1.55-.01,.82,0,1.55,.02,2.19,.08s1.17,.18,1.58,.35c.41,.18,.71,.44,.89,.79,.19,.34,.24,.79,.15,1.36Z"/><path class="cls-2" d="M33.51,177.65c-.05,.31-.12,.6-.21,.88l-.93,3.07c-.28,.93-.66,1.67-1.15,2.21-.49,.55-1.04,.92-1.64,1.11l-.04,6.86h-5.02l.82-6.56h-.32l-2.01,6.56h-5l5.02-16.43c.47-.04,.92-.09,1.37-.12,.44-.03,.89-.06,1.34-.08,.46-.03,.92-.04,1.4-.05,.49-.01,1.01-.01,1.57-.01,.82,0,1.55,.02,2.18,.07,.64,.05,1.17,.16,1.58,.34,.42,.18,.72,.44,.9,.78,.17,.34,.22,.8,.14,1.37Z"/><polygon class="cls-2" points="46.02 178.23 37.1 189.12 42.4 189.12 41.58 191.78 29.98 191.78 30.85 188.9 39.43 178.06 34.78 178.06 35.46 175.35 46.89 175.35 46.02 178.23"/><polygon class="cls-2" points="58.03 175.35 51.52 186.56 49.94 191.78 44.93 191.78 46.54 186.56 47.1 175.35 51.19 175.35 50.08 183.07 50.22 183.07 53.82 175.35 58.03 175.35"/><path class="cls-2" d="M73.77,177.67c-.05,.3-.11,.58-.2,.86l-1.03,3.39c-.25,.82-.56,1.47-.92,1.98-.36,.5-.8,.9-1.32,1.18-.51,.29-1.11,.48-1.79,.59-.67,.1-1.45,.16-2.33,.16h-1.1l-1.82,5.95h-5l5.02-16.43c.47-.04,.92-.09,1.35-.12,.44-.03,.89-.06,1.35-.08,.46-.03,.93-.04,1.42-.05s1.01-.01,1.56-.01c.82,0,1.55,.02,2.19,.08s1.16,.18,1.58,.35c.41,.18,.71,.44,.89,.79,.18,.34,.23,.79,.15,1.36Z"/><path class="cls-2" d="M85.81,177.67c-.02,.13-.05,.27-.08,.41-.03,.13-.07,.29-.12,.45l-3.04,9.96c-.25,.81-.57,1.45-.96,1.93-.38,.47-.85,.83-1.4,1.07s-1.19,.4-1.91,.46c-.71,.07-1.53,.1-2.44,.1-.82,0-1.54-.02-2.17-.07-.62-.05-1.14-.17-1.55-.36-.41-.18-.71-.45-.88-.79-.18-.34-.23-.8-.14-1.39,.04-.26,.12-.58,.23-.95l3.04-9.96c.24-.78,.55-1.4,.93-1.86,.38-.45,.85-.8,1.39-1.04,.55-.23,1.18-.38,1.9-.45,.71-.06,1.53-.09,2.44-.09,.82,0,1.55,.02,2.18,.07,.64,.05,1.16,.16,1.57,.34,.4,.18,.7,.44,.87,.78,.18,.34,.23,.81,.14,1.39Z"/><polygon class="cls-2" points="88.76 189.12 92.57 189.12 91.75 191.78 82.95 191.78 87.98 175.35 93.04 175.09 88.76 189.12"/><polygon class="cls-2" points="102.73 175.09 97.61 191.78 92.61 191.78 97.65 175.35 102.73 175.09"/><polygon class="cls-2" points="112.73 175.35 111.89 178.06 109.78 178.06 105.6 191.78 100.59 191.78 104.79 178.06 102.71 178.06 103.55 175.35 112.73 175.35"/><polygon class="cls-2" points="117.7 178.06 116.49 182.02 120.35 182.02 119.53 184.7 115.65 184.7 114.31 189.12 118.63 189.12 117.81 191.78 108.53 191.78 113.55 175.35 122.72 175.35 121.89 178.06 117.7 178.06"/><path class="cls-2" d="M134.2,177.67c-.04,.3-.11,.58-.2,.86l-.67,2.15-5.07,.24,.61-2c.07-.2,.11-.38,.14-.54,.06-.42-.07-.63-.4-.63-.21,0-.4,.09-.55,.27-.16,.17-.29,.48-.42,.9l-2.8,9.15c-.11,.36-.18,.61-.2,.76-.03,.23-.02,.38,.05,.45,.06,.07,.19,.11,.36,.11,.23,0,.42-.09,.57-.27,.14-.18,.29-.53,.45-1.05l.64-2.05,5.06-.24-.85,2.83c-.23,.78-.54,1.4-.93,1.86-.39,.45-.86,.8-1.42,1.03-.55,.24-1.2,.39-1.93,.45-.73,.07-1.54,.1-2.42,.1s-1.57-.02-2.2-.07-1.15-.16-1.55-.34c-.41-.18-.7-.44-.87-.77-.17-.34-.22-.79-.13-1.36,.03-.22,.11-.53,.22-.9l3.04-9.94c.25-.79,.56-1.43,.93-1.9,.38-.47,.84-.83,1.39-1.09,.54-.25,1.17-.41,1.89-.48,.72-.08,1.55-.11,2.49-.11,.81,0,1.54,.02,2.18,.08,.63,.06,1.16,.18,1.57,.35,.41,.18,.7,.44,.88,.79,.18,.34,.23,.79,.14,1.36Z"/><polygon class="cls-2" points="147.87 175.09 142.77 191.78 137.79 191.78 139.93 184.73 138.33 184.73 136.17 191.78 131.21 191.78 136.23 175.35 141.29 175.09 139.15 182.07 140.74 182.07 142.81 175.35 147.87 175.09"/><polygon class="cls-2" points="161.21 175.35 156.17 191.78 151.11 191.78 151.74 184.58 151.64 184.58 149.43 191.78 144.49 191.78 149.54 175.35 154.66 175.35 153.94 182.78 154.05 182.78 156.33 175.35 161.21 175.35"/><polygon class="cls-2" points="167.92 175.09 162.8 191.78 157.8 191.78 162.84 175.35 167.92 175.09"/><path class="cls-2" d="M171.06,147.31c-.83,4.01-1.45,7.39-1.86,10.12h-3.23c.93-2.13,2.63-5.51,5.09-10.12Z"/><path class="cls-2" d="M179.63,177.67c-.05,.3-.11,.58-.2,.86l-.67,2.15-5.07,.24,.61-2c.06-.2,.11-.38,.13-.54,.06-.42-.07-.63-.4-.63-.21,0-.39,.09-.54,.27-.16,.17-.3,.48-.42,.9l-2.8,9.15c-.11,.36-.18,.61-.2,.76-.04,.23-.02,.38,.05,.45,.06,.07,.18,.11,.36,.11,.23,0,.42-.09,.56-.27,.15-.18,.3-.53,.46-1.05l.64-2.05,5.05-.24-.84,2.83c-.23,.78-.54,1.4-.93,1.86-.39,.45-.87,.8-1.42,1.03-.56,.24-1.2,.39-1.93,.45-.73,.07-1.54,.1-2.43,.1-.83,0-1.56-.02-2.19-.07s-1.15-.16-1.56-.34c-.4-.18-.69-.44-.86-.77-.18-.34-.22-.79-.14-1.36,.04-.22,.11-.53,.23-.9l3.04-9.94c.24-.79,.55-1.43,.93-1.9,.37-.47,.83-.83,1.38-1.09,.55-.25,1.18-.41,1.9-.48,.72-.08,1.55-.11,2.48-.11,.82,0,1.55,.02,2.18,.08,.64,.06,1.16,.18,1.57,.35,.42,.18,.71,.44,.89,.79,.18,.34,.22,.79,.14,1.36Z"/><polygon class="cls-2" points="185.87 178.06 184.67 182.02 188.53 182.02 187.71 184.7 183.83 184.7 182.49 189.12 186.81 189.12 185.99 191.78 176.7 191.78 181.73 175.35 190.89 175.35 190.07 178.06 185.87 178.06"/><path class="cls-2" d="M207.47,177.67c-.05,.3-.11,.58-.2,.86l-1.03,3.39c-.25,.82-.56,1.47-.92,1.98-.36,.5-.8,.9-1.32,1.18-.51,.29-1.11,.48-1.79,.59-.67,.1-1.45,.16-2.33,.16h-1.1l-1.82,5.95h-5l5.02-16.43c.46-.04,.91-.09,1.35-.12,.44-.03,.89-.06,1.35-.08,.46-.03,.93-.04,1.42-.05s1.01-.01,1.56-.01c.81,0,1.54,.02,2.19,.08,.64,.06,1.16,.18,1.58,.35,.41,.18,.7,.44,.89,.79,.18,.34,.23,.79,.15,1.36Z"/><path class="cls-2" d="M219.51,177.67c-.02,.13-.05,.27-.08,.41-.03,.13-.07,.29-.12,.45l-3.04,9.96c-.25,.81-.57,1.45-.96,1.93-.38,.47-.85,.83-1.4,1.07-.56,.24-1.19,.4-1.91,.46-.72,.07-1.53,.1-2.44,.1-.82,0-1.54-.02-2.17-.07-.62-.05-1.14-.17-1.55-.36-.41-.18-.71-.45-.89-.79-.17-.34-.22-.8-.13-1.39,.04-.26,.11-.58,.23-.95l3.04-9.96c.24-.78,.55-1.4,.93-1.86,.38-.45,.85-.8,1.39-1.04,.54-.23,1.18-.38,1.89-.45,.72-.06,1.54-.09,2.45-.09,.82,0,1.55,.02,2.18,.07,.64,.05,1.16,.16,1.57,.34,.4,.18,.69,.44,.87,.78,.18,.34,.22,.81,.14,1.39Z"/><polygon class="cls-2" points="232.08 178.23 223.16 189.12 228.46 189.12 227.64 191.78 216.04 191.78 216.91 188.9 225.49 178.06 220.84 178.06 221.52 175.35 232.95 175.35 232.08 178.23"/><polygon class="cls-2" points="245.64 175.35 240.6 191.78 235.54 191.78 236.17 184.58 236.07 184.58 233.85 191.78 228.92 191.78 233.96 175.35 239.09 175.35 238.37 182.78 238.48 182.78 240.76 175.35 245.64 175.35"/><polygon class="cls-2" points="256.43 175.35 253.32 191.78 248.39 191.78 249.14 188.49 247.54 188.49 246.25 191.78 241.53 191.78 248.46 175.35 256.43 175.35"/><polygon class="cls-2" points="270.91 175.35 265.87 191.78 260.82 191.78 261.45 184.58 261.34 184.58 259.13 191.78 254.2 191.78 259.24 175.35 264.37 175.35 263.65 182.78 263.75 182.78 266.03 175.35 270.91 175.35"/><polygon class="cls-2" points="272.79 170.81 266.91 174.45 263.74 174.45 267.28 170.81 272.79 170.81"/><path class="cls-2" d="M282.62,177.7c-.04,.31-.11,.6-.2,.88l-.55,1.8-5.1,.32,.55-1.78c.06-.21,.11-.39,.13-.54,.06-.42-.07-.63-.4-.63-.21,0-.39,.09-.53,.27-.14,.17-.28,.48-.41,.9l-.41,1.29c-.07,.23-.11,.41-.13,.54-.04,.28,0,.48,.14,.6,.13,.12,.37,.23,.7,.33,.67,.21,1.28,.39,1.82,.53,.54,.15,.99,.32,1.35,.52,.35,.19,.61,.44,.78,.74,.17,.3,.21,.71,.13,1.23-.03,.23-.08,.47-.16,.71l-.96,3.2c-.23,.77-.55,1.37-.94,1.82-.39,.45-.87,.79-1.44,1.04-.56,.24-1.2,.4-1.92,.47-.72,.08-1.52,.11-2.41,.11-.83,0-1.56-.02-2.18-.07-.63-.05-1.14-.16-1.55-.34-.41-.18-.7-.44-.87-.77-.17-.34-.22-.79-.13-1.36,.03-.22,.11-.53,.22-.9l.68-2.22,5.09-.32-.62,2c-.11,.36-.18,.62-.2,.78-.03,.22-.02,.36,.05,.43s.18,.11,.34,.11c.25,0,.44-.09,.57-.27s.28-.53,.45-1.05l.55-1.75c.04-.17,.09-.31,.12-.44,.04-.13,.07-.26,.09-.39,.04-.28,.01-.49-.09-.63-.11-.14-.31-.24-.62-.3l-2.05-.37c-.41-.06-.77-.14-1.09-.23-.31-.09-.57-.21-.77-.35-.2-.15-.34-.34-.42-.57-.09-.22-.1-.52-.05-.87,.02-.12,.04-.24,.07-.37,.03-.13,.07-.26,.11-.39l.81-2.74c.24-.79,.55-1.43,.93-1.91,.38-.48,.84-.84,1.39-1.09,.55-.24,1.18-.4,1.9-.47,.71-.08,1.54-.11,2.48-.11,.82,0,1.54,.02,2.17,.08s1.15,.18,1.56,.37c.41,.18,.71,.45,.88,.79,.18,.34,.23,.8,.14,1.37Z"/><polygon class="cls-2" points="291.69 183.19 291.73 191.78 286.39 191.78 286.76 185.61 286.66 185.61 284.78 191.78 279.77 191.78 284.8 175.35 289.87 175.09 288.02 181.16 288.13 181.16 291.43 175.35 296.59 175.35 291.69 183.19"/><polygon class="cls-2" points="302.6 175.09 297.48 191.78 292.48 191.78 297.52 175.35 302.6 175.09"/><polygon class="cls-2" points="308.32 178.06 307.12 182.02 310.98 182.02 310.16 184.7 306.28 184.7 304.94 189.12 309.25 189.12 308.44 191.78 299.15 191.78 304.18 175.35 313.34 175.35 312.51 178.06 308.32 178.06"/><path class="cls-2" d="M322.8,175.09l-4.13,13.52c-.25,.77-.56,1.38-.95,1.83-.39,.46-.87,.8-1.43,1.04-.56,.23-1.2,.39-1.93,.46-.72,.08-1.53,.11-2.42,.11-.5,0-1.01-.07-1.51-.21-.51-.13-.99-.32-1.44-.57l.91-2.61c.47,.21,.93,.39,1.38,.52,.45,.14,.94,.21,1.48,.21,.23,0,.43-.09,.59-.28,.15-.19,.31-.53,.47-1.04l3.88-12.69,5.1-.29Z"/><path class="cls-1" d="M20.94,176.31c-.18-.35-.48-.61-.89-.79-.41-.17-.94-.29-1.58-.35s-1.37-.08-2.19-.08c-.55,0-1.07,0-1.55,.01-.49,.01-.96,.02-1.42,.05-.46,.02-.91,.05-1.35,.08-.44,.03-.89,.08-1.35,.12l-5.03,16.43h5l1.82-5.95h1.11c.87,0,1.65-.06,2.33-.16,.68-.11,1.27-.3,1.79-.59,.51-.28,.95-.68,1.32-1.18,.36-.51,.66-1.16,.91-1.98l1.03-3.39c.09-.28,.16-.56,.2-.86,.09-.57,.04-1.02-.15-1.36Zm-5.04,2.05c-.03,.19-.08,.4-.14,.61l-.96,3.12c-.11,.38-.24,.65-.37,.81-.14,.16-.34,.24-.59,.24h-.62l1.65-5.32c.2-.05,.4-.07,.59-.07,.2,0,.33,.05,.39,.16,.06,.1,.08,.25,.05,.45Z"/><path class="cls-1" d="M33.37,176.28c-.18-.34-.48-.6-.9-.78-.41-.18-.94-.29-1.58-.34-.63-.05-1.36-.07-2.18-.07-.56,0-1.08,0-1.57,.01-.48,.01-.94,.02-1.4,.05-.45,.02-.9,.05-1.34,.08-.45,.03-.9,.08-1.37,.12l-5.02,16.43h5l2.01-6.56h.32l-.82,6.56h5.02l.04-6.86c.6-.19,1.15-.56,1.64-1.11,.49-.54,.87-1.28,1.15-2.21l.93-3.07c.09-.28,.16-.57,.21-.88,.08-.57,.03-1.03-.14-1.37Zm-5.05,2c-.03,.18-.08,.39-.16,.64l-.66,2.15c-.17,.55-.34,.93-.48,1.14-.15,.22-.35,.32-.6,.32h-.57c.02-.06,.08-.28,.2-.63,.09-.31,.23-.78,.42-1.41,.2-.62,.47-1.51,.83-2.67,.16-.05,.35-.07,.57-.07,.2,0,.33,.04,.4,.12,.06,.08,.08,.22,.05,.41Z"/><path class="cls-1" d="M46.89,175.35h-11.43l-.68,2.71h4.65l-8.58,10.84-.87,2.88h11.6l.82-2.66h-5.3l8.92-10.89,.87-2.88Z"/><path class="cls-1" d="M53.82,175.35l-3.6,7.72h-.14l1.11-7.72h-4.09l-.56,11.21-1.61,5.22h5.01l1.58-5.22,6.51-11.21h-4.21Z"/><path class="cls-1" d="M73.62,176.31c-.18-.35-.48-.61-.89-.79-.42-.17-.94-.29-1.58-.35s-1.37-.08-2.19-.08c-.55,0-1.07,0-1.56,.01s-.96,.02-1.42,.05c-.46,.02-.91,.05-1.35,.08-.43,.03-.88,.08-1.35,.12l-5.02,16.43h5l1.82-5.95h1.1c.88,0,1.66-.06,2.33-.16,.68-.11,1.28-.3,1.79-.59,.52-.28,.96-.68,1.32-1.18,.36-.51,.67-1.16,.92-1.98l1.03-3.39c.09-.28,.15-.56,.2-.86,.08-.57,.03-1.02-.15-1.36Zm-5.04,2.05c-.03,.19-.08,.4-.15,.61l-.95,3.12c-.12,.38-.24,.65-.38,.81-.13,.16-.33,.24-.59,.24h-.61l1.65-5.32c.19-.05,.39-.07,.59-.07s.33,.05,.39,.16c.06,.1,.07,.25,.05,.45Z"/><path class="cls-1" d="M85.67,176.28c-.17-.34-.47-.6-.87-.78-.41-.18-.93-.29-1.57-.34-.63-.05-1.36-.07-2.18-.07-.91,0-1.73,.03-2.44,.09-.72,.07-1.35,.22-1.9,.45-.54,.24-1.01,.59-1.39,1.04-.38,.46-.69,1.08-.93,1.86l-3.04,9.96c-.11,.37-.19,.69-.23,.95-.09,.59-.04,1.05,.14,1.39,.17,.34,.47,.61,.88,.79,.41,.19,.93,.31,1.55,.36,.63,.05,1.35,.07,2.17,.07,.91,0,1.73-.03,2.44-.1,.72-.06,1.36-.22,1.91-.46s1.02-.6,1.4-1.07c.39-.48,.71-1.12,.96-1.93l3.04-9.96c.05-.16,.09-.32,.12-.45,.03-.14,.06-.28,.08-.41,.09-.58,.04-1.05-.14-1.39Zm-5.04,2.1c-.02,.16-.07,.34-.13,.54l-2.8,9.15c-.16,.51-.31,.85-.46,1.04-.14,.19-.33,.28-.56,.28-.17,0-.29-.04-.36-.12-.06-.08-.08-.24-.05-.46,.03-.17,.09-.41,.2-.74l2.8-9.15c.12-.42,.26-.73,.41-.9,.16-.18,.34-.27,.55-.27,.33,0,.46,.21,.4,.63Z"/><path class="cls-1" d="M93.04,175.09l-5.06,.26-5.03,16.43h8.8l.82-2.66h-3.81l4.28-14.03Z"/><path class="cls-1" d="M97.65,175.35l-5.04,16.43h5l5.12-16.69-5.08,.26Z"/><path class="cls-1" d="M103.55,175.35l-.84,2.71h2.08l-4.2,13.72h5.01l4.18-13.72h2.11l.84-2.71h-9.18Z"/><path class="cls-1" d="M121.89,178.06l.83-2.71h-9.17l-5.02,16.43h9.28l.82-2.66h-4.32l1.34-4.42h3.88l.82-2.68h-3.86l1.21-3.96h4.19Z"/><path class="cls-1" d="M134.06,176.31c-.18-.35-.47-.61-.88-.79-.41-.17-.94-.29-1.57-.35-.64-.06-1.37-.08-2.18-.08-.94,0-1.77,.03-2.49,.11-.72,.07-1.35,.23-1.89,.48-.55,.26-1.01,.62-1.39,1.09-.37,.47-.68,1.11-.93,1.9l-3.04,9.94c-.11,.37-.19,.68-.22,.9-.09,.57-.04,1.02,.13,1.36,.17,.33,.46,.59,.87,.77,.4,.18,.92,.29,1.55,.34s1.36,.07,2.2,.07,1.69-.03,2.42-.1c.73-.06,1.38-.21,1.93-.45,.56-.23,1.03-.58,1.42-1.03,.39-.46,.7-1.08,.93-1.86l.85-2.83-5.06,.24-.64,2.05c-.16,.52-.31,.87-.45,1.05-.15,.18-.34,.27-.57,.27-.17,0-.3-.04-.36-.11-.07-.07-.08-.22-.05-.45,.02-.15,.09-.4,.2-.76l2.8-9.15c.13-.42,.26-.73,.42-.9,.15-.18,.34-.27,.55-.27,.33,0,.46,.21,.4,.63-.03,.16-.07,.34-.14,.54l-.61,2,5.07-.24,.67-2.15c.09-.28,.16-.56,.2-.86,.09-.57,.04-1.02-.14-1.36Z"/><path class="cls-1" d="M142.81,175.35l-2.07,6.72h-1.59l2.14-6.98-5.06,.26-5.02,16.43h4.96l2.16-7.05h1.6l-2.14,7.05h4.98l5.1-16.69-5.06,.26Z"/><path class="cls-1" d="M156.33,175.35l-2.28,7.43h-.11l.72-7.43h-5.12l-5.05,16.43h4.94l2.21-7.2h.1l-.63,7.2h5.06l5.04-16.43h-4.88Z"/><path class="cls-1" d="M162.84,175.35l-5.04,16.43h5l5.12-16.69-5.08,.26Z"/><path class="cls-1" d="M179.49,176.31c-.18-.35-.47-.61-.89-.79-.41-.17-.93-.29-1.57-.35-.63-.06-1.36-.08-2.18-.08-.93,0-1.76,.03-2.48,.11-.72,.07-1.35,.23-1.9,.48-.55,.26-1.01,.62-1.38,1.09-.38,.47-.69,1.11-.93,1.9l-3.04,9.94c-.12,.37-.19,.68-.23,.9-.08,.57-.04,1.02,.14,1.36,.17,.33,.46,.59,.86,.77,.41,.18,.93,.29,1.56,.34s1.36,.07,2.19,.07c.89,0,1.7-.03,2.43-.1,.73-.06,1.37-.21,1.93-.45,.55-.23,1.03-.58,1.42-1.03,.39-.46,.7-1.08,.93-1.86l.84-2.83-5.05,.24-.64,2.05c-.16,.52-.31,.87-.46,1.05-.14,.18-.33,.27-.56,.27-.18,0-.3-.04-.36-.11-.07-.07-.09-.22-.05-.45,.02-.15,.09-.4,.2-.76l2.8-9.15c.12-.42,.26-.73,.42-.9,.15-.18,.33-.27,.54-.27,.33,0,.46,.21,.4,.63-.02,.16-.07,.34-.13,.54l-.61,2,5.07-.24,.67-2.15c.09-.28,.15-.56,.2-.86,.08-.57,.04-1.02-.14-1.36Z"/><path class="cls-1" d="M190.07,178.06l.82-2.71h-9.16l-5.03,16.43h9.29l.82-2.66h-4.32l1.34-4.42h3.88l.82-2.68h-3.86l1.2-3.96h4.2Z"/><path class="cls-1" d="M207.32,176.31c-.19-.35-.48-.61-.89-.79-.42-.17-.94-.29-1.58-.35-.65-.06-1.38-.08-2.19-.08-.55,0-1.07,0-1.56,.01s-.96,.02-1.42,.05c-.46,.02-.91,.05-1.35,.08-.44,.03-.89,.08-1.35,.12l-5.02,16.43h5l1.82-5.95h1.1c.88,0,1.66-.06,2.33-.16,.68-.11,1.28-.3,1.79-.59,.52-.28,.96-.68,1.32-1.18,.36-.51,.67-1.16,.92-1.98l1.03-3.39c.09-.28,.15-.56,.2-.86,.08-.57,.03-1.02-.15-1.36Zm-5.05,2.05c-.03,.19-.07,.4-.14,.61l-.96,3.12c-.11,.38-.23,.65-.37,.81-.14,.16-.33,.24-.59,.24h-.61l1.65-5.32c.19-.05,.39-.07,.59-.07s.33,.05,.39,.16c.06,.1,.07,.25,.04,.45Z"/><path class="cls-1" d="M219.37,176.28c-.18-.34-.47-.6-.87-.78-.41-.18-.93-.29-1.57-.34-.63-.05-1.36-.07-2.18-.07-.91,0-1.73,.03-2.45,.09-.71,.07-1.35,.22-1.89,.45-.54,.24-1.01,.59-1.39,1.04-.38,.46-.69,1.08-.93,1.86l-3.04,9.96c-.12,.37-.19,.69-.23,.95-.09,.59-.04,1.05,.13,1.39,.18,.34,.48,.61,.89,.79,.41,.19,.93,.31,1.55,.36,.63,.05,1.35,.07,2.17,.07,.91,0,1.72-.03,2.44-.1,.72-.06,1.35-.22,1.91-.46,.55-.24,1.02-.6,1.4-1.07,.39-.48,.71-1.12,.96-1.93l3.04-9.96c.05-.16,.09-.32,.12-.45,.03-.14,.06-.28,.08-.41,.08-.58,.04-1.05-.14-1.39Zm-5.04,2.1c-.03,.16-.07,.34-.13,.54l-2.8,9.15c-.16,.51-.31,.85-.46,1.04-.14,.19-.33,.28-.57,.28-.16,0-.28-.04-.35-.12-.07-.08-.08-.24-.05-.46,.02-.17,.09-.41,.2-.74l2.8-9.15c.12-.42,.26-.73,.41-.9,.16-.18,.34-.27,.55-.27,.33,0,.46,.21,.4,.63Z"/><path class="cls-1" d="M232.95,175.35h-11.43l-.68,2.71h4.65l-8.58,10.84-.87,2.88h11.6l.82-2.66h-5.3l8.92-10.89,.87-2.88Z"/><path class="cls-1" d="M240.76,175.35l-2.28,7.43h-.11l.72-7.43h-5.13l-5.04,16.43h4.93l2.22-7.2h.1l-.63,7.2h5.06l5.04-16.43h-4.88Z"/><path class="cls-1" d="M248.46,175.35l-6.93,16.43h4.72l1.29-3.29h1.6l-.75,3.29h4.93l3.11-16.43h-7.97Zm1.35,10.43h-1.21l2.94-7.76h.14l-1.87,7.76Z"/><path class="cls-1" d="M266.03,175.35l-2.28,7.43h-.1l.72-7.43h-5.13l-5.04,16.43h4.93l2.21-7.2h.11l-.63,7.2h5.05l5.04-16.43h-4.88Z"/><path class="cls-1" d="M282.48,176.33c-.17-.34-.47-.61-.88-.79-.41-.19-.93-.31-1.56-.37s-1.35-.08-2.17-.08c-.94,0-1.77,.03-2.48,.11-.72,.07-1.35,.23-1.9,.47-.55,.25-1.01,.61-1.39,1.09-.38,.48-.69,1.12-.93,1.91l-.81,2.74c-.04,.13-.08,.26-.11,.39-.03,.13-.05,.25-.07,.37-.05,.35-.04,.65,.05,.87,.08,.23,.22,.42,.42,.57,.2,.14,.46,.26,.77,.35,.32,.09,.68,.17,1.09,.23l2.05,.37c.31,.06,.51,.16,.62,.3,.1,.14,.13,.35,.09,.63-.02,.13-.05,.26-.09,.39-.03,.13-.08,.27-.12,.44l-.55,1.75c-.17,.52-.32,.87-.45,1.05s-.32,.27-.57,.27c-.16,0-.27-.04-.34-.11s-.08-.21-.05-.43c.02-.16,.09-.42,.2-.78l.62-2-5.09,.32-.68,2.22c-.11,.37-.19,.68-.22,.9-.09,.57-.04,1.02,.13,1.36,.17,.33,.46,.59,.87,.77,.41,.18,.92,.29,1.55,.34,.62,.05,1.35,.07,2.18,.07,.89,0,1.69-.03,2.41-.11,.72-.07,1.36-.23,1.92-.47,.57-.25,1.05-.59,1.44-1.04,.39-.45,.71-1.05,.94-1.82l.96-3.2c.08-.24,.13-.48,.16-.71,.08-.52,.04-.93-.13-1.23-.17-.3-.43-.55-.78-.74-.36-.2-.81-.37-1.35-.52-.54-.14-1.15-.32-1.82-.53-.33-.1-.57-.21-.7-.33-.14-.12-.18-.32-.14-.6,.02-.13,.06-.31,.13-.54l.41-1.29c.13-.42,.27-.73,.41-.9,.14-.18,.32-.27,.53-.27,.33,0,.46,.21,.4,.63-.02,.15-.07,.33-.13,.54l-.55,1.78,5.1-.32,.55-1.8c.09-.28,.16-.57,.2-.88,.09-.57,.04-1.03-.14-1.37Z"/><path class="cls-1" d="M296.59,175.35h-5.16l-3.3,5.81h-.11l1.85-6.07-5.07,.26-5.03,16.43h5.01l1.88-6.17h.1l-.37,6.17h5.34l-.04-8.59,4.9-7.84Z"/><path class="cls-1" d="M297.52,175.35l-5.04,16.43h5l5.12-16.69-5.08,.26Z"/><path class="cls-1" d="M312.51,178.06l.83-2.71h-9.16l-5.03,16.43h9.29l.81-2.66h-4.31l1.34-4.42h3.88l.82-2.68h-3.86l1.2-3.96h4.19Z"/><path class="cls-1" d="M317.7,175.38l-3.88,12.69c-.16,.51-.32,.85-.47,1.04-.16,.19-.36,.28-.59,.28-.54,0-1.03-.07-1.48-.21-.45-.13-.91-.31-1.38-.52l-.91,2.61c.45,.25,.93,.44,1.44,.57,.5,.14,1.01,.21,1.51,.21,.89,0,1.7-.03,2.42-.11,.73-.07,1.37-.23,1.93-.46,.56-.24,1.04-.58,1.43-1.04,.39-.45,.7-1.06,.95-1.83l4.13-13.52-5.1,.29Z"/><polygon class="cls-1" points="272.79 170.81 266.91 174.45 263.74 174.45 267.28 170.81 272.79 170.81"/><path class="cls-2" d="M88.88,9.26c-.31,.87-.98,1.78-2.03,2.75-1.04,.97-3.83,3.03-8.37,6.17h6.72l-.91,2.58h-13.49l.77-2.16c5.41-4.04,8.66-6.53,9.75-7.49,1.09-.96,1.73-1.71,1.92-2.24,.14-.42,.14-.72-.02-.93-.16-.2-.47-.3-.94-.3s-.85,.11-1.15,.34c-.31,.22-.58,.67-.82,1.33l-.5,1.45h-5.5l.2-.56c.3-.84,.6-1.51,.92-2,.31-.49,.83-.98,1.55-1.45,.72-.48,1.57-.84,2.55-1.08,.97-.24,2.08-.36,3.33-.36,2.44,0,4.15,.37,5.14,1.11,.98,.75,1.28,1.7,.88,2.84Z"/><path class="cls-2" d="M93.46,146.33c-1.33,4.55-2.65,9.09-3.98,13.64,.16-.82,.38-1.69,.69-2.63,0,0,2.56-8.77,3.21-10.78,.03-.08,.05-.15,.08-.23Z"/><path class="cls-2" d="M105.26,8.22c0,.52-.2,1.36-.6,2.51l-1.78,5.06c-.4,1.15-.8,1.98-1.18,2.51-.39,.52-.98,1.01-1.78,1.47-.8,.46-1.68,.78-2.65,.98-.97,.2-2.01,.3-3.12,.3-1.47,0-2.65-.1-3.55-.31-.9-.21-1.56-.54-1.98-.98-.42-.44-.67-.91-.74-1.4s.08-1.27,.46-2.34l1.86-5.29c.48-1.39,1.04-2.44,1.68-3.13,.63-.69,1.6-1.25,2.9-1.67,1.31-.42,2.79-.62,4.44-.62,1.34,0,2.49,.14,3.45,.43,.96,.29,1.63,.65,2.01,1.06,.38,.42,.57,.89,.58,1.42Z"/><path class="cls-2" d="M121.13,9.26c-.3,.87-.97,1.78-2.02,2.75-1.04,.97-3.83,3.03-8.37,6.17h6.72l-.91,2.58h-13.49l.77-2.16c5.41-4.04,8.66-6.53,9.75-7.49,1.09-.96,1.73-1.71,1.91-2.24,.15-.42,.14-.72-.01-.93-.16-.2-.47-.3-.94-.3s-.85,.11-1.16,.34c-.3,.22-.57,.67-.81,1.33l-.5,1.45h-5.5l.2-.56c.29-.84,.6-1.51,.91-2,.32-.49,.84-.98,1.56-1.45,.72-.48,1.57-.84,2.55-1.08,.97-.24,2.08-.36,3.33-.36,2.43,0,4.15,.37,5.13,1.11,.99,.75,1.29,1.7,.88,2.84Z"/><polygon class="cls-2" points="132.86 15.51 134.6 15.51 133.69 18.09 131.95 18.09 131.01 20.76 124.88 20.76 125.82 18.09 118.54 18.09 119.44 15.51 128.22 5.6 136.33 5.6 132.86 15.51"/><polygon class="cls-2" points="133.71 120.63 132.52 124.3 137.18 124.3 135.98 127.98 131.32 127.98 128.68 136.12 121.12 136.12 127.42 116.75 140.21 116.75 138.95 120.63 133.71 120.63"/><polygon class="cls-2" points="149.59 116.75 143.3 136.12 135.75 136.12 142.04 116.75 149.59 116.75"/><polygon class="cls-2" points="169.49 116.75 163.2 136.12 156.58 136.12 155.51 127.31 152.65 136.12 146.33 136.12 152.62 116.75 158.94 116.75 160.34 125.47 163.17 116.75 169.49 116.75"/><path class="cls-2" d="M171.06,147.31c-.83,4.01-1.45,7.39-1.86,10.12h-3.23c.93-2.13,2.63-5.51,5.09-10.12Z"/><polygon class="cls-2" points="185.58 116.75 183.61 136.12 175.89 136.12 176.61 132.63 173.91 132.63 172.32 136.12 164.52 136.12 174.66 116.75 185.58 116.75"/><path class="cls-2" d="M193.99,155.54c.26,.22,.22,.84-.12,1.87l-.73,2.25c-.31,.97-.7,1.58-1.14,1.83-.45,.25-1.34,.39-2.67,.42l2.19-6.74c1.39,.03,2.21,.15,2.47,.37Z"/><path class="cls-2" d="M196.82,148.35c-.47,1.43-.87,2.29-1.23,2.6-.35,.3-.98,.45-1.91,.45-.22,0-.53,0-.94,.01l1.74-5.35c.97,0,1.6,.05,1.91,.13s.52,.27,.63,.57c.11,.31,.04,.83-.2,1.59Z"/><path class="cls-2" d="M240.5,102.33c-11.71,16.97-25.73,23.64-27.97,24.63l-.15,.07-.16-.07c-1.34-.59-6.92-3.23-13.69-8.91l-1.95,5.98,2.3-.33c-.22,.68-.44,1.37-.66,2.05l-2.3,.33-2,6.16h4.59l-1.26,3.88h-12.15l2.89-8.9-1.54,.22,.67-2.05,1.54-.23,2.74-8.41h5.61c-2.85-2.51-5.86-5.55-8.82-9.18l-1.1,3.14h-63.32c-1.29,2.05-2.7,3.92-4.21,5.59-4.51,5.04-10.48,8.84-17.73,11.31-6.49,2.21-14.07,3.33-22.55,3.33h-.05c-10.3-.01-18.14-1.5-23.97-4.57-9.65-5.1-12.51-12.15-13.2-17.17-.72-5.21,.47-11.85,3.85-21.5l2.14-6.1c1.77-5.03,6.44-8.44,11.74-8.61-.8-.68-1.52-1.46-2.14-2.34-2.42-3.41-3.03-7.76-1.65-11.71l2.31-6.58c3.74-10.67,9.97-18.17,18.5-22.29,7.2-3.47,16.43-5.15,28.19-5.15h.06c12.18,.01,20.82,1.63,26.89,5.15,3.78-8.78,9.49-15.08,17.02-18.7,7.13-3.44,16.26-5.1,27.9-5.1h.07c16.55,0,26.53,3.03,32.34,9.81,3.79,4.43,11.43,16.55,.48,33.55-2.49,3.88-5.55,7.4-8.55,10.46,1.67,.53,3.2,1.27,4.54,2.09,5.23,3.21,6.45,8.03,6.63,8.87,.17-.84,1.4-5.66,6.62-8.87,5.73-3.52,14.93-5.44,23.37,3,5.48,5.48,8.86,21.6-1.87,37.15Z"/><path class="cls-1" d="M201.21,60.09c3-3.06,6.06-6.58,8.55-10.46,10.95-17,3.31-29.12-.48-33.55-5.81-6.78-15.79-9.81-32.34-9.81h-.07c-11.64,0-20.77,1.66-27.9,5.1-7.53,3.62-13.24,9.92-17.02,18.7-6.07-3.52-14.71-5.14-26.89-5.15h-.06c-11.76,0-20.99,1.68-28.19,5.15-8.53,4.12-14.76,11.62-18.5,22.29l-2.31,6.58c-1.38,3.95-.77,8.3,1.65,11.71,.62,.88,1.34,1.66,2.14,2.34-5.3,.17-9.97,3.58-11.74,8.61l-2.14,6.1c-3.38,9.65-4.57,16.29-3.85,21.5,.69,5.02,3.55,12.07,13.2,17.17,5.83,3.07,13.67,4.56,23.97,4.57h.05c8.48,0,16.06-1.12,22.55-3.33,7.25-2.47,13.22-6.27,17.73-11.31,1.51-1.67,2.92-3.54,4.21-5.59h63.32l1.1-3.14h0s3.34-9.55,3.34-9.55h0s1.51-4.27,1.51-4.27h0s.98-2.82,.98-2.82v-.03l2.85-8.1,.22-.6v-.02l.99-2.84,1.14-3.24,1.05-3h0s.01-.02,.01-.02l1.03-2.95,1.3-3.73h-8.02c1.97-1.78,4.27-3.9,6.62-6.31Zm-9.89,4.75l-.84,.76c-1.55,1.39-3.11,2.77-4.68,4.13h12.11l-2.06,5.87h0s-.45,1.31-.45,1.31l-.54,1.53-.32,.89-.2,.61h-.01v.02l-.64,1.8h0s-1.42,4.06-1.42,4.06h0s-.08,.24-.08,.24h-.01v.02l-6.42,18.35-1.04,2.95h-62.81c-1.47,2.52-3.08,4.74-4.82,6.7-4.14,4.6-9.63,8.09-16.34,10.37-6.13,2.1-13.35,3.16-21.47,3.16h-.05c-9.74-.01-17.07-1.38-22.41-4.19-8.41-4.43-10.87-10.43-11.46-14.67-.63-4.67,.5-10.82,3.7-19.94l2.14-6.1c1.35-3.83,4.95-6.38,9-6.38h12.64l1.25-3.59h-5.95c-3.08,0-5.98-1.5-7.77-4.03-1.79-2.51-2.24-5.74-1.23-8.66l2.32-6.58c3.44-9.82,9.09-16.68,16.8-20.38,6.74-3.26,15.48-4.83,26.74-4.83h.06c14.11,.01,23.05,2.19,28.46,7.04l.25-.74c3.4-9.71,9.01-16.51,16.65-20.19,6.67-3.21,15.32-4.77,26.45-4.77h.06c15.5,0,24.7,2.67,29.83,8.65,4.1,4.79,9.59,15,.2,29.57-2.77,4.29-6.31,8.19-9.65,11.45-2.17,2.14-4.25,4.01-5.99,5.57Z"/><path class="cls-1" d="M129.2,58.16c2.24-6.39,1.82-11.38-1.26-14.97-3.08-3.59-10.71-5.39-22.88-5.4-9.73,0-17.28,1.29-22.66,3.88-5.37,2.59-9.35,7.57-11.94,14.95l-2.31,6.58h25.53s2.22-6.33,2.22-6.33c1.04-2.96,2.04-4.89,3.01-5.79,.97-.91,2.34-1.36,4.11-1.36,1.56,0,2.56,.43,2.99,1.29,.44,.86,.18,2.64-.77,5.34l-1.51,4.29c-.88,2.51-1.84,4.36-2.89,5.53-1.04,1.18-2.35,1.94-3.9,2.29-1.56,.35-5.37,.52-11.43,.52l-3.93,11.21c4.95,.07,8.21,.31,9.79,.74,1.58,.43,2.57,1.33,2.97,2.7,.4,1.37,.09,3.53-.95,6.49l-1.87,5.34c-1.7,4.83-3.06,7.82-4.09,8.97-1.03,1.15-2.54,1.72-4.52,1.72-1.81,0-2.82-.45-3.03-1.36-.21-.91,.27-3.03,1.44-6.37l4.4-12.54h-25.53s-2.14,6.09-2.14,6.09c-2.58,7.34-3.66,12.5-3.25,15.48,.41,2.97,2.56,5.49,6.46,7.54,3.89,2.05,9.88,3.08,17.97,3.08,7.12,0,13.26-.88,18.43-2.64,5.17-1.76,9.27-4.34,12.32-7.73,3.04-3.39,5.64-8.15,7.79-14.29,2.9-8.27,3.8-13.53,2.69-15.77-1.11-2.24-3.43-3.86-6.96-4.85,4.47-1.59,7.83-3.34,10.06-5.26,2.23-1.92,4.11-5.04,5.62-9.36Z"/><path class="cls-1" d="M184.1,58.51c7.7-6.94,25.57-22.21,15.42-34.05-3.04-3.55-10.57-5.32-22.59-5.33-9.61,0-17.06,1.27-22.37,3.83-5.31,2.56-9.24,7.48-11.79,14.76l-2.28,6.5h25.2s2.2-6.25,2.2-6.25c1.02-2.92,2.01-4.83,2.97-5.72,.96-.89,2.31-1.34,4.06-1.34,1.54,0,2.56,.63,3,1.47,.43,.85,.42,2.52-.8,5.07-1.79,3.72-6.34,7.49-10.88,10.98l-37.66,29.98c-3.05,8.64-6.87,19.43-6.87,19.43h56.24l3.49-9.96,1.12-3.21h0l1.89-5.41h-25.1c3.15-2.55,6.29-5.11,9.42-7.69,5.17-4.27,10.33-8.57,15.31-13.06Z"/><polygon class="cls-1" points="150.09 51.78 132.44 67.31 137.83 51.78 150.09 51.78"/><path class="cls-6" d="M240.5,102.33c-11.71,16.97-25.73,23.64-27.97,24.63l-.15,.07-.16-.07c-1.34-.59-6.92-3.23-13.69-8.91-.5-.41-1.01-.84-1.52-1.3-2.85-2.51-5.86-5.55-8.82-9.18h0c-.83-1.01-1.63-2.05-2.43-3.14-.51-.68-1.01-1.38-1.51-2.1-2.07-3-3.62-6.03-4.71-8.99-1.87-4.99-2.49-9.81-2.26-14.07,.31-6.34,2.46-11.44,5.1-14.09,5.01-5,10.28-6.37,14.93-5.91,1.36,.13,2.67,.42,3.9,.82,1.67,.53,3.2,1.27,4.54,2.09,5.23,3.21,6.45,8.03,6.63,8.87,.17-.84,1.4-5.66,6.62-8.87,5.73-3.52,14.93-5.44,23.37,3,5.48,5.48,8.86,21.6-1.87,37.15Z"/><g><path class="cls-1" d="M232.5,71.65l-.95-.08-.2,4.12-.79-.04-.06,1.43,.85,.06-.2,4.97c-.04,1.34,.39,2.04,1.35,2.1,.67,.02,1.11-.38,1.29-1.19l.08-1.25-.87-.12c-.1,.65-.3,.97-.56,.97-.24,0-.38-.12-.42-.38l-.02-.36,.2-4.63,1.33,.1,.06-1.37-1.35-.18,.26-4.16Z"/><path class="cls-1" d="M240.46,77.29c-.04-.4-.1-.67-.16-.83-.24-.5-.71-.75-1.42-.75-.71-.02-1.19,.36-1.44,1.09-.12,.38-.16,.73-.16,1.11l.97-.06c-.02-.18,0-.36,.04-.55,.08-.36,.26-.51,.49-.53,.42-.02,.59,.61,.57,1.84-.41,0-.85,.12-1.31,.36-.87,.49-1.33,1.31-1.35,2.49-.04,1.07,.24,1.82,.77,2.25,.3,.22,.63,.32,1.01,.32,.61-.04,.97-.34,1.09-.93l.02,.87,1.18-.02-.31-6.65Zm-2.67,3.98c0-.42,.1-.77,.32-1.09,.28-.4,.69-.63,1.25-.65,.02,0,.04,.59,.1,1.78,.04,.93-.2,1.43-.71,1.46-.65,.04-.97-.46-.95-1.5Z"/><path class="cls-1" d="M235.59,75.67l-.97,.02-.06,8.09h1.19c-.08-2.83-.08-4.59-.04-5.26,.02-.51,.2-.91,.47-1.21,.22-.2,.46-.34,.73-.38,.04,0,.06-.42,.06-1.25-.46,.02-.91,.34-1.36,.99-.02,.02-.02-.3-.02-1.01Z"/><path class="cls-1" d="M226.88,79.05c-.02-.57-.1-1.15-.25-1.72-.32-1.15-.81-1.72-1.55-1.72-.75,.02-1.34,.44-1.76,1.29-.32,.63-.47,1.32-.47,2.06,0,1.09,.12,1.86,.37,2.34,.56,1.13,1.72,1.68,3.5,1.64,.04,0,0-.46-.08-1.37-.43,.08-.85,.04-1.27-.12-.85-.32-1.27-1.11-1.23-2.36l2.73-.04Zm-2.69-.67c-.08,0-.04-.3,.1-.91,.14-.59,.34-.89,.61-.91,.4-.02,.63,.61,.71,1.82-.73,.02-1.21,.02-1.43,0Z"/><path class="cls-1" d="M230.09,76.04c-.32-.14-.65-.22-1.01-.18-.69,.04-1.15,.51-1.32,1.42-.12,.67,.02,1.39,.46,2.12,.49,.83,.75,1.42,.75,1.74,.02,.65-.24,1.11-.79,1.35l-.83,.14,.06,1.38c1.07,0,1.84-.32,2.31-.93,.3-.4,.44-.87,.44-1.4-.04-.85-.3-1.7-.79-2.57-.42-.69-.57-1.25-.42-1.64,.12-.36,.32-.5,.59-.48,.14,0,.28,.06,.4,.14l.16-1.09Z"/><path class="cls-1" d="M234.08,87.1c-.3-.02-.49,.16-.63,.51-.06,.18-.1,.36-.12,.53l.08,.57c.12,.4,.36,.59,.75,.59,.2,.02,.37-.14,.51-.46,.12-.28,.18-.51,.16-.75-.02-.65-.28-1.01-.75-1.01Z"/><path class="cls-1" d="M227.49,90.31c-.2-.14-.46-.22-.79-.26-.46-.04-.81,.06-1.13,.32-.2,.24-.32,.34-.32,.34l-.02-1.27s-.37-.04-1.09,.02l-.08,7.72c.83,0,1.23-.02,1.23-.06,0-.12,.02-1.72,.06-4.83,.08-.57,.36-.87,.81-.89,.38,0,.61,.22,.69,.69,.06,3.34,.1,5.05,.12,5.09,.95-.02,1.42-.04,1.46-.04-.06-3.26-.14-5.07-.22-5.42-.2-.67-.43-1.15-.73-1.41Z"/><path class="cls-1" d="M232.14,91.28c-.35-.36-.75-.54-1.19-.56-.4-.02-.79,.14-1.15,.46-.67,.55-.99,1.56-.97,3.01,.02,1.88,.59,3.09,1.72,3.62,.38,.16,.79,.26,1.3,.28,.28,0,.57,0,.93-.02,.02,0,.02-.42,0-1.27-.45,.06-.87,.02-1.31-.14-.87-.3-1.31-.95-1.29-1.96,0-.04,.49-.08,1.48-.1,.97-.04,1.46-.06,1.46-.08-.04-1.52-.37-2.59-1.01-3.24Zm-1.7,.81c.12-.2,.22-.32,.32-.37,.69-.02,1.09,.67,1.19,2.04-1.21,.04-1.82,.06-1.82,.04,0-.75,.12-1.33,.32-1.7Z"/><path class="cls-1" d="M234.87,91.04l-1.25,.06,.28,7.03c-.06,2.43-.87,3.7-2.43,3.74-.02,1.22,.02,1.84,.08,1.84,1.21,0,2.18-.57,2.87-1.68,.57-.91,.87-1.92,.85-3.01,0-.14-.12-2.79-.39-7.97Z"/><path class="cls-1" d="M221.22,73.53c-.02,.57,.16,.87,.52,.87,.26,.02,.43-.14,.53-.46,.08-.22,.1-.4,.1-.57-.04-.43-.24-.65-.59-.65s-.52,.26-.56,.81Zm.32,.22s.02-.02,.02,0c0,.02,0,.06,.02,.08-.02-.02-.04-.06-.04-.08Z"/><path class="cls-1" d="M218.45,71.27l-1.03,.06-.46,11.65,1.13-.06,.08-3.66,1.15,3.6,1.46,.04-2.02-4.23,2.08-3.24-1.17-.04-1.48,2.02,.26-6.13Z"/><path class="cls-1" d="M199.14,70.33h-1.19l.18,12.54h1.18l-.18-12.54Z"/><path class="cls-1" d="M201.51,70.13h-1.19l-.2,12.86h.99v-2.75l.93,2.81,1.25-.06-1.78-4.53,2.18-3.36h-1.19l-1.19,1.78,.2-6.75Z"/><path class="cls-1" d="M204.48,76.79c.18-.22,.36-.32,.57-.32,.32,0,.56,.46,.66,1.39,0-.04-.5,.36-1.43,1.21-.14,.14-.28,.32-.42,.55-.26,.46-.4,.93-.38,1.4,0,.61,.18,1.09,.47,1.38,.22,.2,.47,.3,.75,.3,.75,0,1.23-.42,1.44-1.25l.32,1.17,1.03-.04c-.04-1.64-.2-3.36-.45-5.18-.16-1.21-.52-2-1.03-2.36-.18-.14-.47-.2-.85-.2-.87,0-1.45,.69-1.7,2.1l.81,.18,.2-.34Zm1.05,4.45c-.28,.3-.52,.38-.75,.22-.18-.1-.28-.26-.3-.46-.02-.38,.08-.73,.32-1.11,.25-.4,.59-.69,.99-.89,.02,1.29-.06,2.04-.26,2.24Z"/><path class="cls-1" d="M196.17,75.85c-.47-.46-1.01-.59-1.64-.44-.63,.18-1.07,.71-1.29,1.6-.14,.59-.22,1.09-.22,1.44-.02,.16,.02,.69,.08,1.52,.08,1.19,.58,2.06,1.49,2.59,.5,.3,1.36,.38,2.57,.2l-.2-1.58c-.65,.28-1.24,.28-1.82,.06-.34-.16-.6-.51-.77-1.09l-.14-.81c1.66-.1,2.61-.18,2.79-.24-.12-1.74-.42-2.83-.85-3.26Zm-.79,1.03c.12,.16,.22,.43,.34,.83,.12,.4,.16,.59,.1,.61-1.05,.14-1.58,.18-1.58,.14-.08-.63-.06-1.13,.06-1.48,.1-.32,.26-.47,.44-.49,.26-.02,.47,.1,.65,.4Z"/><path class="cls-1" d="M202.05,86.53c-.29-.02-.45,.24-.49,.79,0,.2,.08,.38,.22,.49,.14,.12,.26,.18,.38,.18,.35,0,.54-.26,.51-.77-.02-.43-.22-.67-.61-.69Zm.06,.53s.02,.08,0,.12c-.02,0-.06-.02-.06-.06h0s0-.06,.04-.08c0,0,.02,0,.02,.02Z"/><path class="cls-1" d="M197.7,90.67h-.73l-.77,3.21-.91-3.05-1.27,.08,1.78,6.73h.99l.59-3.96,1.58,3.96h1.19l.99-7.12h-1.19l-.79,4.35-1.46-4.19Z"/><path class="cls-1" d="M209.57,85.88l-.95-.02-.04,3.86-1.05-.04v1.68h1.07c-.1,3.25-.16,4.99-.16,5.22,0,1.23,.42,1.82,1.25,1.78,.63-.02,1.09-.45,1.37-1.31l.22-1.27h-.99c-.12,.55-.32,.81-.55,.83-.16,0-.28-.14-.36-.41l-.08-.42,.12-4.43,1.34-.06-.08-1.44-1.15-.04,.04-3.94Z"/><path class="cls-1" d="M203.22,92.01l.91,.12,.14-.4c.14-.26,.34-.4,.61-.44,.57-.06,.91,.28,1.01,.97,0,.14-.1,.28-.35,.45-.34,.24-.61,.41-.82,.57-.81,.59-1.2,1.33-1.2,2.14,0,.89,.14,1.46,.41,1.74,.2,.18,.51,.28,.99,.32,.63,.02,1.15-.49,1.56-1.56l.14,1.39,1.23-.04c-.26-3.01-.5-4.79-.71-5.38-.42-1.05-1.17-1.58-2.23-1.6-.64,0-1.09,.28-1.41,.87-.16,.28-.26,.57-.28,.85Zm2,1.88c.42-.34,.65-.47,.73-.45l.06,1.41c-.1,.65-.36,1.11-.81,1.32-.26,.14-.48,.1-.61-.12-.18-.24-.22-.55-.16-.99,.08-.4,.34-.79,.79-1.17Z"/><path class="cls-1" d="M202.74,90.61h-1.05l-.3,6.92,1.42,.06-.08-6.98Z"/><path class="cls-1" d="M216.79,76.91s.08-.57,.12-1.72c-.4,0-.79,.16-1.15,.53-.28,.4-.42,.58-.44,.58,0-.43,.02-.77,.02-1.01l-.87-.08c-.1,4.77-.2,7.32-.28,7.68l1.23-.02,.02-4.99,.32-.48c.28-.34,.64-.49,1.03-.49Z"/><path class="cls-1" d="M212.95,76.1c-.32-.42-.69-.63-1.15-.62-.3,.04-.59,.24-.91,.58-.61,.65-.97,1.64-1.07,2.99-.08,1.38,.12,2.39,.63,3.07,.34,.43,.73,.67,1.15,.67,1.24,.04,1.9-1.15,1.98-3.54,.06-1.47-.16-2.51-.63-3.15Zm-1.03,.67c.56-.02,.83,.77,.81,2.37,0,.83-.12,1.44-.37,1.88-.18,.32-.42,.48-.65,.48-.32,.02-.58-.26-.75-.81-.18-.48-.24-.97-.22-1.49,.1-1.58,.5-2.39,1.19-2.43Z"/><path class="cls-1" d="M213.35,90.09c-.49,.02-.93,.24-1.3,.67-.53,.62-.77,1.51-.71,2.69,.1,2.2,.85,3.44,2.25,3.74,.71,.14,1.41,.06,2.08-.24l-.28-1.5c-1.19,.4-2.02,.24-2.47-.46-.22-.36-.34-.83-.34-1.4,1.86-.12,2.85-.18,2.95-.2,.1-2.26-.61-3.36-2.18-3.3Zm.32,.95c.1,.02,.2,.06,.28,.12,.3,.24,.47,.75,.57,1.56,0,0-.3,.04-.89,.08-.61,.04-.97,.06-1.09,.06-.02,0-.02-.08,0-.28,0-.22,.04-.42,.1-.61,.16-.61,.46-.91,.91-.91l.12-.02Z"/><path class="cls-1" d="M218.05,90.53c-1.09,.46-1.72,1.52-1.88,3.15-.2,1.86,.18,3.15,1.14,3.88,.65,.48,1.35,.65,2.06,.5,.02-.02-.04-.5-.16-1.44-1.27-.08-1.88-.91-1.82-2.53,.02-.71,.26-1.27,.71-1.64,.42-.36,.91-.52,1.46-.47,.04,0,.06-.55,.06-1.64-.51-.1-1.03-.02-1.58,.22Z"/><path class="cls-1" d="M220.43,91.75c1.03-.06,1.56-.08,1.6-.04,.04,.02-.59,2.14-1.92,6.29,.77,.06,1.84,.1,3.22,.1,.02,0,.06-.4,.1-1.19-.81,0-1.33-.02-1.53-.02-.04,0,.24-1.11,.81-3.3,.6-2.22,.87-3.32,.83-3.32h-3.16c-.02,.2-.02,.71,.04,1.48Z"/><path class="cls-1" d="M191.54,73.37c.16,.04,.3,0,.4-.14,.45-.59,.32-1.01-.41-1.21-.22,.02-.38,.12-.48,.34-.26,.55-.1,.87,.49,1.01Z"/><path class="cls-1" d="M192.21,76.28h-.99l-.2,6.71h1.39l-.2-6.71Z"/><path class="cls-1" d="M193.4,85.76l-1.26,.08,.47,2.1h.79v-2.18Z"/><path class="cls-1" d="M193.09,90.45c.22,.02,.44,.08,.63,.18l.26-1.15c-.46-.12-.91-.16-1.38-.12-.97,.08-1.53,.56-1.7,1.38-.14,.71,.02,1.48,.52,2.32,.51,.89,.77,1.62,.73,2.16-.02,.59-.34,1.03-.93,1.33-.32,.14-.61,.24-.89,.26l.14,1.42c.49,0,.99-.14,1.48-.38,.99-.47,1.49-1.28,1.5-2.41,0-.63-.26-1.46-.75-2.47-.43-.89-.61-1.5-.49-1.86,.14-.45,.43-.67,.89-.65Z"/><path class="cls-1" d="M216.33,104.93c-.24,.61-.35,1.21-.38,1.8,0,.99,.12,1.82,.4,2.49,.36,.87,.87,1.3,1.59,1.35,.69,.02,1.18-.48,1.5-1.5,.22-.77,.32-1.68,.28-2.73-.02-.69-.16-1.31-.41-1.8-.32-.65-.81-.99-1.45-.97-.65,0-1.17,.46-1.52,1.37Zm.67,1.86c.08-1.23,.35-1.86,.83-1.86,.59-.02,.87,.61,.87,1.88,0,1.48-.3,2.22-.91,2.2-.24-.02-.43-.28-.59-.81-.16-.48-.22-.93-.2-1.41Z"/><path class="cls-1" d="M213.84,104.02c-.47,.04-.85,.28-1.17,.69-.14,.22-.26,.44-.3,.65-.1-.89-.49-1.32-1.21-1.28-.34,.02-.63,.14-.89,.37-.14,.14-.22,.24-.3,.36l.02-.83-1.07,.02-.3,7.12,1.23-.02c.04-2.51,.08-3.96,.14-4.35,.08-.67,.34-1.05,.81-1.11,.43-.04,.69,.18,.75,.69l-.18,4.81,1.31,.02,.02-4.51c.06-.57,.27-.87,.65-.89,.38-.02,.58,.24,.58,.73l.04,4.67,1.49,.02-.18-5.94c-.1-.85-.58-1.27-1.45-1.23Z"/><path class="cls-1" d="M221.6,106.26c0-.51,.14-.95,.42-1.29,.32-.42,.77-.61,1.34-.61,.08-.95,.1-1.45,.08-1.45-1.96-.1-2.99,.97-3.05,3.23-.06,1.6,.26,2.77,.91,3.5,.52,.59,1.19,.89,2.04,.89,.02,0,.02-.61,.02-1.82-.53-.08-.95-.34-1.28-.77-.32-.46-.5-1.01-.48-1.68Z"/><path class="cls-1" d="M207.47,98.54s-.26-.02-.75,0c-.06,.53-.06,.93-.02,1.15,.06,.35,.22,.65,.48,.89,.71-.32,1.05-.47,1.05-.47-.26-.22-.46-.55-.61-.97-.1-.4-.14-.57-.14-.59Z"/><path class="cls-1" d="M200.96,102.76h-1.15l-.1,11.5,1.33-.04-.02-4.17c.3,.22,.71,.32,1.25,.3,.55-.02,.97-.39,1.25-1.15,.22-.61,.31-1.32,.3-2.12-.08-1.48-.34-2.53-.83-3.17-.34-.43-.69-.63-1.09-.63-.48,.02-.77,.24-.93,.69,0,.04,0-.36,0-1.21Zm.4,2.12l.26-.08c.67,.02,1.03,.81,1.11,2.37-.1,1.25-.4,1.86-.91,1.86-.16-.02-.32-.08-.51-.2l-.22-.2c-.12-.38-.18-.95-.18-1.76,.02-.59,.04-1.07,.1-1.39,.04-.3,.16-.49,.36-.61Z"/><path class="cls-1" d="M208.32,106.51c-.02-1.09-.1-1.84-.26-2.29-.26-.79-.79-1.19-1.58-1.19-1.15-.02-1.78,1.09-1.86,3.3-.14,2.83,.42,4.21,1.64,4.19,.69-.02,1.21-.42,1.58-1.19,.32-.71,.48-1.66,.48-2.83Zm-1.88-1.94c.53-.06,.85,.55,.93,1.82,.06,1.7-.26,2.59-.97,2.65-.35,.04-.61-.36-.73-1.23-.06-.55-.08-1.05-.06-1.46,.04-.38,.12-.77,.28-1.13,.16-.42,.36-.63,.55-.65Z"/><polygon class="cls-1" points="227.26 104.54 225.87 108.67 225.16 104.1 223.89 104.04 225.12 111.22 223.06 114.76 224.76 115.5 228.78 104.61 227.26 104.54 227.26 104.54"/><polygon class="cls-1" points="221.18 76.38 221.04 82.85 222.31 82.87 222.17 76.4 221.18 76.38 221.18 76.38"/><polygon class="cls-1" points="188.26 83.19 186.87 79.45 185.88 83.19 184.7 83.19 183.31 76.48 184.3 76.48 185.29 80.63 186.08 76.48 187.07 76.48 188.46 80.63 189.25 76.08 190.43 76.08 189.44 83.19 188.26 83.19 188.26 83.19"/></g><g><polygon class="cls-8" points="133.71 120.63 132.52 124.3 137.18 124.3 135.98 127.98 131.32 127.98 128.68 136.12 121.12 136.12 127.42 116.75 140.21 116.75 138.95 120.63 133.71 120.63"/><polygon class="cls-3" points="149.59 116.75 143.3 136.12 135.75 136.12 142.04 116.75 149.59 116.75"/><polygon class="cls-5" points="169.49 116.75 163.2 136.12 156.58 136.12 155.51 127.31 152.65 136.12 146.33 136.12 152.62 116.75 158.94 116.75 160.34 125.47 163.17 116.75 169.49 116.75"/><path class="cls-7" d="M174.66,116.75l-10.14,19.37h7.8l1.59-3.49h2.7l-.72,3.49h7.72l1.97-19.37h-10.92Zm2.87,12.45h-2.6c.75-1.71,2.12-4.42,4.09-8.13-.66,3.23-1.16,5.94-1.49,8.13Z"/></g><path class="cls-4" d="M195.92,126.08l-2,6.16h4.59l-1.26,3.88h-12.15l2.89-8.9-1.54,.22,.67-2.05,1.54-.23,2.74-8.41h7.55l-.42,1.3-1.95,5.98,2.3-.33c-.22,.68-.44,1.37-.66,2.05l-2.3,.33Z"/><path class="cls-1" d="M88,6.42c-.99-.74-2.7-1.11-5.14-1.11-1.25,0-2.36,.12-3.33,.36-.98,.24-1.83,.6-2.55,1.08-.72,.47-1.24,.96-1.55,1.45-.32,.49-.62,1.16-.92,2l-.2,.56h5.5l.5-1.45c.24-.66,.51-1.11,.82-1.33,.3-.23,.69-.34,1.15-.34s.78,.1,.94,.3c.16,.21,.16,.51,.02,.93-.19,.53-.83,1.28-1.92,2.24-1.09,.96-4.34,3.45-9.75,7.49l-.77,2.16h13.49l.91-2.58h-6.72c4.54-3.14,7.33-5.2,8.37-6.17,1.05-.97,1.72-1.88,2.03-2.75,.4-1.14,.1-2.09-.88-2.84Z"/><path class="cls-1" d="M104.68,6.8c-.38-.41-1.05-.77-2.01-1.06-.96-.29-2.11-.43-3.45-.43-1.65,0-3.13,.2-4.44,.62-1.3,.42-2.27,.98-2.9,1.67-.64,.69-1.2,1.74-1.68,3.13l-1.86,5.29c-.38,1.07-.53,1.85-.46,2.34s.32,.96,.74,1.4c.42,.44,1.08,.77,1.98,.98,.9,.21,2.08,.31,3.55,.31,1.11,0,2.15-.1,3.12-.3,.97-.2,1.85-.52,2.65-.98,.8-.46,1.39-.95,1.78-1.47,.38-.53,.78-1.36,1.18-2.51l1.78-5.06c.4-1.15,.6-1.99,.6-2.51-.01-.53-.2-1-.58-1.42Zm-5.71,2.66l-2.63,7.51c-.26,.74-.5,1.22-.72,1.43-.21,.21-.55,.32-1.01,.32s-.71-.09-.79-.27c-.07-.18,.05-.71,.36-1.59l2.59-7.4c.28-.79,.52-1.28,.75-1.5,.22-.21,.56-.32,1.01-.32s.73,.1,.78,.3c.06,.21-.05,.71-.34,1.52Z"/><path class="cls-1" d="M120.25,6.42c-.98-.74-2.7-1.11-5.13-1.11-1.25,0-2.36,.12-3.33,.36-.98,.24-1.83,.6-2.55,1.08-.72,.47-1.24,.96-1.56,1.45-.31,.49-.62,1.16-.91,2l-.2,.56h5.5l.5-1.45c.24-.66,.51-1.11,.81-1.33,.31-.23,.7-.34,1.16-.34s.78,.1,.94,.3c.15,.21,.16,.51,.01,.93-.18,.53-.82,1.28-1.91,2.24-1.09,.96-4.34,3.45-9.75,7.49l-.77,2.16h13.49l.91-2.58h-6.72c4.54-3.14,7.33-5.2,8.37-6.17,1.05-.97,1.72-1.88,2.02-2.75,.41-1.14,.11-2.09-.88-2.84Z"/><path class="cls-1" d="M136.33,5.6h-8.11l-8.78,9.91-.9,2.58h7.28l-.94,2.67h6.13l.94-2.67h1.74l.91-2.58h-1.74l3.47-9.91Zm-9.6,9.91h-2.71l4.97-6.46-2.26,6.46Z"/><path class="cls-2" d="M328.38,170.75c-1.26-1.61-3.23-2.5-5.27-2.38l-5.1,.29c-.62,.04-1.23,.17-1.79,.38-.7-.27-1.45-.41-2.22-.41h-8.94c-.68-.21-1.4-.3-2.13-.26l-5.07,.27c-.05,0-.09,0-.13,0-.15-.02-.31-.02-.48-.02h-4.9c-.69-.21-1.41-.3-2.14-.26l-5.08,.27c-.53,.02-1.04,.12-1.53,.27-.72-.21-1.49-.36-2.34-.44-.58-.05-1.21-.09-1.88-.1-.85-2.55-3.23-4.28-5.93-4.28h-5.51c-1.69,0-3.31,.68-4.48,1.89l-2.57,2.65h-.99c-.48,0-.95,.05-1.4,.16-.46-.11-.93-.16-1.41-.16h-7.97c-.48,0-.95,.05-1.41,.16-.46-.11-.93-.16-1.41-.16h-4.88c-.28,0-.56,.02-.83,.05-.28-.03-.56-.05-.84-.05h-5.12c-.18,0-.35,0-.53,.02-.16,0-.32-.02-.49-.02h-11.43c-.59,0-1.17,.09-1.72,.24-.74-.21-1.52-.35-2.39-.42-.79-.06-1.68-.09-2.66-.09-1.1,0-2.11,.04-3.01,.12-1.13,.11-2.19,.34-3.18,.7-.95-.37-1.98-.61-3.16-.71-.13-.01-.28-.02-.41-.03-.11,.01-.22,.03-.33,.04,.83-2.63,1.66-5.26,2.49-7.88h0s.27-.83,.27-.83c.67-2.06,.82-3.93,.43-5.59,.81-1.03,1.46-2.29,1.94-3.75,1.2-3.71,1.01-6.78-.58-9.14-.98-1.44-2.88-3.32-6.36-4.07-.3-.07-.64-.13-.98-.18l2.55-7.86c2.4,1.42,4.17,2.25,4.99,2.62l.14,.06c.69,.31,1.43,.47,2.18,.47s1.46-.16,2.14-.46l.16-.07c2.86-1.26,17.78-8.48,30.18-26.46,6.89-9.98,8.12-19.38,7.95-25.51-.22-7.54-2.72-14.42-6.69-18.39-4.94-4.94-10.82-7.55-17-7.55-5.57,0-10.08,2.05-12.89,3.78-1.53,.93-2.8,1.97-3.87,3.04-.59-.6-1.25-1.18-1.96-1.74-.27-.21-.46-.34-.62-.45,1.56-1.89,3.07-3.9,4.43-6.02,3.73-5.78,5.88-11.65,6.4-17.43,.73-8.25-1.79-16.01-7.3-22.44C204.45,2.3,189.22,.97,176.94,.96h-.06c-12.46,0-22.35,1.84-30.21,5.63-1.32,.64-2.73,1.42-4.19,2.38-.76,.5-1.53,1.06-2.29,1.63l1.14-3.25c.57-1.62,.32-3.42-.68-4.82-.99-1.4-2.6-2.23-4.32-2.23h-8.11c-1.52,0-2.96,.65-3.97,1.79l-.39,.44c-.14-.11-.27-.22-.41-.33C121.5,.73,118.9,.03,115.29,.01c0,0-.01,0-.01-.01h-.18c-1.68,0-3.23,.18-4.62,.53-.34,.08-.68,.18-1.01,.29-.18,.06-.34,.12-.51,.18-.14,.06-.28,.11-.42,.16-.22,.09-.43,.19-.64,.29-.07,.03-.13,.06-.2,.09-.24,.12-.48,.24-.71,.37-.2-.12-.4-.24-.61-.35-.01,0-.02-.01-.03-.02-.19-.1-.39-.2-.6-.29-.03-.01-.06-.03-.09-.04-.19-.08-.39-.16-.6-.24-.04-.02-.08-.04-.13-.05-.24-.09-.49-.18-.75-.25-1.47-.45-3.1-.66-4.99-.66-2.19,0-4.23,.29-6.05,.88-.41,.13-.79,.28-1.17,.43-.05,.02-.1,.04-.15,.06-.38,.17-.75,.34-1.1,.53-.23-.16-.48-.31-.73-.45-.01,0-.02,0-.03,0-.25-.13-.5-.25-.77-.37-.02-.01-.05-.02-.08-.03-.25-.1-.51-.2-.78-.29-.05-.02-.1-.03-.15-.05-.25-.08-.51-.15-.78-.22-.08-.02-.16-.03-.24-.05-.25-.06-.5-.11-.77-.15-.12-.03-.25-.04-.38-.06-.23-.03-.46-.07-.71-.09-.2-.03-.41-.04-.61-.05-.19-.02-.38-.04-.57-.05-.42-.02-.84-.03-1.3-.03-1.67,0-3.22,.18-4.61,.53-1.55,.39-2.96,.99-4.17,1.79-1.37,.89-2.38,1.88-3.11,3.02-.54,.85-1.01,1.87-1.45,3.12l-.19,.55s-2.45,7.01-2.45,7.04l-.28,.79-.75,2.16-2.48,7.05h9.7c-6.57,3.55-14.83,10.61-19.72,24.55l-2.31,6.58c-1.48,4.21-1.34,8.77,.3,12.83-3.76,2.11-6.75,5.56-8.24,9.83l-2.15,6.1c-3.72,10.63-4.95,17.8-4.1,23.98,.71,5.11,3.72,14.66,15.98,21.13,6.61,3.48,15.26,5.18,26.44,5.18h.05c9.07,0,17.23-1.22,24.26-3.61,6.2-2.12,11.58-5.13,16.06-8.98l-3.51,10.83-.65,1.98c-1.39-.22-2.92-.33-4.62-.33-2.7,0-5.18,.31-7.37,.92-2.49,.69-4.55,1.73-6.13,3.1-1.69,1.46-2.95,3.48-3.85,6.15,0,.01-.01,.02-.01,.03-1.33,4.55-2.65,9.09-3.98,13.64-.86,2.97-1.73,5.95-2.6,8.92-.02,0-.03,0-.05,0-.75-.23-1.56-.38-2.46-.45-.79-.06-1.68-.09-2.66-.09-1.09,0-2.11,.04-3.01,.12-1.13,.11-2.19,.34-3.18,.7-.94-.37-1.98-.61-3.16-.71-.83-.07-1.75-.11-2.74-.11-.59,0-1.14,0-1.67,.01-.56,.01-1.12,.03-1.64,.06-.5,.03-1,.06-1.48,.09-.5,.04-1.01,.09-1.54,.14-.69,.07-1.36,.26-1.97,.55-.81-.38-1.7-.58-2.62-.58h-4.22c-.44,0-.89,.04-1.31,.14-.43-.1-.87-.14-1.32-.14h-15.73c-.59,0-1.16,.08-1.71,.24-.73-.21-1.52-.35-2.38-.42-.79-.06-1.69-.09-2.66-.09-.6,0-1.16,0-1.67,.01-.57,.01-1.12,.03-1.63,.06-.5,.03-.99,.06-1.47,.09-.51,.04-1.03,.09-1.55,.14-.38,.04-.75,.12-1.1,.22-.7-.2-1.45-.34-2.27-.41-.82-.07-1.74-.11-2.74-.11-.58,0-1.14,0-1.66,.01-.57,.01-1.12,.03-1.64,.06-.51,.03-1,.06-1.49,.09-.49,.04-1,.09-1.53,.14-2.5,.26-4.59,1.99-5.33,4.39L.27,189.48c-.58,1.89-.23,3.95,.95,5.55,1.18,1.59,3.04,2.53,5.02,2.53H310.71c.06,.04,.13,.09,.19,.13,.57,.09,1.14,.14,1.7,.14,1.1,0,2.12-.05,3.05-.15,1.34-.13,2.6-.44,3.72-.91,1.47-.62,2.73-1.54,3.76-2.74,.94-1.1,1.66-2.44,2.16-4,0-.03,.01-.05,.02-.07l4.13-13.52c.6-1.96,.2-4.08-1.06-5.69Zm-61.1,.06h5.51l-5.88,3.64h-3.17l3.54-3.64Zm-61.81-26.55c.63,.94,.61,2.45-.06,4.53-.46,1.41-1.11,2.39-1.96,2.94-.84,.56-2.28,.99-4.33,1.28,2.07,.33,3.36,.88,3.89,1.64,.53,.76,.54,1.92,.03,3.49l-.73,2.23c-.53,1.63-1.2,2.84-2.01,3.62-.81,.79-1.88,1.32-3.19,1.61-1.15,.25-3.23,.39-6.25,.42-.45,0-.91,0-1.4,0h-10.87l2.62-8.06,5.21-16.04h9.38c2.96,0,5.16,.15,6.58,.46,1.43,.31,2.46,.93,3.09,1.87Zm-40.77,17.44l-1.98,4.33h-9.71l12.62-24.1h13.59l-1.01,9.86-1.45,14.24h-9.6l.9-4.33h-3.36Zm-30.14-.49l-1.56,4.82h-17.33l1.14-3.5,12.36-15.77h-6.39l1.17-3.59,.4-1.24h16.48l-.16,.5-1.41,4.33-11.7,14.45h7Zm39.35-28.58l-1.59,3.49h-7.8l10.14-19.37h10.92l-1.97,19.37h-7.72l.72-3.49h-2.7Zm-10.71,3.49h-6.62l-1.07-8.81-2.86,8.81h-6.32l6.29-19.37h6.32l1.4,8.72,2.83-8.72h6.32l-6.29,19.37Zm-19.9,0h-7.55l6.29-19.37h7.55l-6.29,19.37Zm-4.35-15.49h-5.24l-1.19,3.67h4.66l-1.2,3.68h-4.66l-2.64,8.14h-7.56l6.3-19.37h12.79l-1.26,3.88Zm1.37,26.13l1.41-4.37,.15-.46h20.55l-1.57,4.83h-5.58l-6.27,19.27h-9.4l6.27-19.27h-5.56ZM128.22,5.6h8.11l-3.47,9.91h1.74l-.91,2.58h-1.74l-.94,2.67h-6.13l.94-2.67h-7.28l.9-2.58,8.78-9.91Zm-14.64,5.51c1.09-.96,1.73-1.71,1.91-2.24,.15-.42,.14-.72-.01-.93-.16-.2-.47-.3-.94-.3s-.85,.11-1.16,.34c-.3,.22-.57,.67-.81,1.33l-.5,1.45h-5.5l.2-.56c.29-.84,.6-1.51,.91-2,.32-.49,.84-.98,1.56-1.45,.72-.48,1.57-.84,2.55-1.08,.97-.24,2.08-.36,3.33-.36,2.43,0,4.15,.37,5.13,1.11,.99,.75,1.29,1.7,.88,2.84-.3,.87-.97,1.78-2.02,2.75-1.04,.97-3.83,3.03-8.37,6.17h6.72l-.91,2.58h-13.49l.77-2.16c5.41-4.04,8.66-6.53,9.75-7.49Zm-23.38-.38c.48-1.39,1.04-2.44,1.68-3.13,.63-.69,1.6-1.25,2.9-1.67,1.31-.42,2.79-.62,4.44-.62,1.34,0,2.49,.14,3.45,.43,.96,.29,1.63,.65,2.01,1.06,.38,.42,.57,.89,.58,1.42,0,.52-.2,1.36-.6,2.51l-1.78,5.06c-.4,1.15-.8,1.98-1.18,2.51-.39,.52-.98,1.01-1.78,1.47-.8,.46-1.68,.78-2.65,.98-.97,.2-2.01,.3-3.12,.3-1.47,0-2.65-.1-3.55-.31-.9-.21-1.56-.54-1.98-.98-.42-.44-.67-.91-.74-1.4s.08-1.27,.46-2.34l1.86-5.29Zm-19.4,10.03l.77-2.16c5.41-4.04,8.66-6.53,9.75-7.49,1.09-.96,1.73-1.71,1.92-2.24,.14-.42,.14-.72-.02-.93-.16-.2-.47-.3-.94-.3s-.85,.11-1.15,.34c-.31,.22-.58,.67-.82,1.33l-.5,1.45h-5.5l.2-.56c.3-.84,.6-1.51,.92-2,.31-.49,.83-.98,1.55-1.45,.72-.48,1.57-.84,2.55-1.08,.97-.24,2.08-.36,3.33-.36,2.44,0,4.15,.37,5.14,1.11,.98,.75,1.28,1.7,.88,2.84-.31,.87-.98,1.78-2.03,2.75-1.04,.97-3.83,3.03-8.37,6.17h6.72l-.91,2.58h-13.49Zm48.76,95.54c-4.51,5.04-10.48,8.84-17.73,11.31-6.49,2.21-14.07,3.33-22.55,3.33h-.05c-10.3-.01-18.14-1.5-23.97-4.57-9.65-5.1-12.51-12.15-13.2-17.17-.72-5.21,.47-11.85,3.85-21.5l2.14-6.1c1.77-5.03,6.44-8.44,11.74-8.61-.8-.68-1.52-1.46-2.14-2.34-2.42-3.41-3.03-7.76-1.65-11.71l2.31-6.58c3.74-10.67,9.97-18.17,18.5-22.29,7.2-3.47,16.43-5.15,28.19-5.15h.06c12.18,.01,20.82,1.63,26.89,5.15,3.78-8.78,9.49-15.08,17.02-18.7,7.13-3.44,16.26-5.1,27.9-5.1h.07c16.55,0,26.53,3.03,32.34,9.81,3.79,4.43,11.43,16.55,.48,33.55-2.49,3.88-5.55,7.4-8.55,10.46,1.67,.53,3.2,1.27,4.54,2.09,5.23,3.21,6.45,8.03,6.63,8.87,.17-.84,1.4-5.66,6.62-8.87,5.73-3.52,14.93-5.44,23.37,3,5.48,5.48,8.86,21.6-1.87,37.15-11.71,16.97-25.73,23.64-27.97,24.63l-.15,.07-.16-.07c-1.34-.59-6.92-3.23-13.69-8.91l-1.95,5.98,2.3-.33c-.22,.68-.44,1.37-.66,2.05l-2.3,.33-2,6.16h4.59l-1.26,3.88h-12.15l2.89-8.9-1.54,.22,.67-2.05,1.54-.23,2.74-8.41h5.61c-2.85-2.51-5.86-5.55-8.82-9.18l-1.1,3.14h-63.32c-1.29,2.05-2.7,3.92-4.21,5.59Zm-24.36,42.68l.52-1.58h8.73l-.96,2.93c-.29,.9-.36,1.49-.19,1.74,.16,.26,.55,.39,1.18,.39s1.14-.16,1.55-.49c.41-.33,.72-.81,.93-1.46,.46-1.42,.48-2.35,.04-2.78-.46-.44-1.69-1.17-3.69-2.19-2-1.03-3.31-1.78-3.91-2.25-.61-.47-1.03-1.11-1.26-1.94-.23-.82-.14-1.87,.27-3.15,.6-1.85,1.4-3.2,2.38-4.05,.05-.04,.1-.08,.15-.12,.97-.8,2.28-1.42,3.93-1.88,1.73-.48,3.72-.72,5.95-.72,2.44,0,4.44,.26,5.98,.78,.98,.34,1.72,.72,2.2,1.17,.28,.25,.47,.53,.58,.82,.29,.8,.13,2.16-.49,4.07l-.31,.96h-8.73l.58-1.79c.27-.83,.33-1.37,.18-1.59-.15-.23-.48-.35-1-.35-.57,0-1.05,.16-1.44,.47-.39,.3-.68,.77-.89,1.4-.26,.8-.29,1.41-.1,1.81,.18,.41,.91,.9,2.18,1.48,3.65,1.65,5.84,3.01,6.58,4.07,.74,1.07,.73,2.78-.04,5.14-.55,1.72-1.27,2.98-2.13,3.8-.87,.81-2.26,1.49-4.16,2.04-1.91,.55-4.01,.83-6.3,.83-2.52,0-4.56-.32-6.13-.95-1.58-.64-2.48-1.45-2.71-2.43-.23-.98-.05-2.38,.53-4.18ZM15.84,185.67c-.68,.1-1.46,.16-2.33,.16h-1.11l-1.82,5.95H5.58l5.03-16.43c.46-.04,.91-.09,1.35-.12,.44-.03,.89-.06,1.35-.08,.46-.03,.93-.04,1.42-.05,.48-.01,1-.01,1.55-.01,.82,0,1.55,.02,2.19,.08s1.17,.18,1.58,.35c.41,.18,.71,.44,.89,.79,.19,.34,.24,.79,.15,1.36-.04,.3-.11,.58-.2,.86l-1.03,3.39c-.25,.82-.55,1.47-.91,1.98-.37,.5-.81,.9-1.32,1.18-.52,.29-1.11,.48-1.79,.59Zm13.7,6.11h-5.02l.82-6.56h-.32l-2.01,6.56h-5l5.02-16.43c.47-.04,.92-.09,1.37-.12,.44-.03,.89-.06,1.34-.08,.46-.03,.92-.04,1.4-.05,.49-.01,1.01-.01,1.57-.01,.82,0,1.55,.02,2.18,.07,.64,.05,1.17,.16,1.58,.34,.42,.18,.72,.44,.9,.78,.17,.34,.22,.8,.14,1.37-.05,.31-.12,.6-.21,.88l-.93,3.07c-.28,.93-.66,1.67-1.15,2.21-.49,.55-1.04,.92-1.64,1.11l-.04,6.86Zm12.04,0h-11.6l.87-2.88,8.58-10.84h-4.65l.68-2.71h11.43l-.87,2.88-8.92,10.89h5.3l-.82,2.66Zm9.94-5.22l-1.58,5.22h-5.01l1.61-5.22,.56-11.21h4.09l-1.11,7.72h.14l3.6-7.72h4.21l-6.51,11.21Zm18.78-1.48c-.51,.29-1.11,.48-1.79,.59-.67,.1-1.45,.16-2.33,.16h-1.1l-1.82,5.95h-5l5.02-16.43c.47-.04,.92-.09,1.35-.12,.44-.03,.89-.06,1.35-.08,.46-.03,.93-.04,1.42-.05s1.01-.01,1.56-.01c.82,0,1.55,.02,2.19,.08s1.16,.18,1.58,.35c.41,.18,.71,.44,.89,.79,.18,.34,.23,.79,.15,1.36-.05,.3-.11,.58-.2,.86l-1.03,3.39c-.25,.82-.56,1.47-.92,1.98-.36,.5-.8,.9-1.32,1.18Zm11.31,5.34c-.38,.47-.85,.83-1.4,1.07s-1.19,.4-1.91,.46c-.71,.07-1.53,.1-2.44,.1-.82,0-1.54-.02-2.17-.07-.62-.05-1.14-.17-1.55-.36-.41-.18-.71-.45-.88-.79-.18-.34-.23-.8-.14-1.39,.04-.26,.12-.58,.23-.95l3.04-9.96c.24-.78,.55-1.4,.93-1.86,.38-.45,.85-.8,1.39-1.04,.55-.23,1.18-.38,1.9-.45,.71-.06,1.53-.09,2.44-.09,.82,0,1.55,.02,2.18,.07,.64,.05,1.16,.16,1.57,.34,.4,.18,.7,.44,.87,.78,.18,.34,.23,.81,.14,1.39-.02,.13-.05,.27-.08,.41-.03,.13-.07,.29-.12,.45l-3.04,9.96c-.25,.81-.57,1.45-.96,1.93Zm10.14,1.36h-8.8l5.03-16.43,5.06-.26-4.28,14.03h3.81l-.82,2.66Zm.86,0l5.04-16.43,5.08-.26-5.12,16.69h-5Zm7.98,0l4.2-13.72h-2.08l.84-2.71h9.18l-.84,2.71h-2.11l-4.18,13.72h-5.01Zm17.22,0h-9.28l5.02-16.43h9.17l-.83,2.71h-4.19l-1.21,3.96h3.86l-.82,2.68h-3.88l-1.34,4.42h4.32l-.82,2.66Zm12.18-1.31c-.39,.45-.86,.8-1.42,1.03-.55,.24-1.2,.39-1.93,.45-.73,.07-1.54,.1-2.42,.1s-1.57-.02-2.2-.07-1.15-.16-1.55-.34c-.41-.18-.7-.44-.87-.77-.17-.34-.22-.79-.13-1.36,.03-.22,.11-.53,.22-.9l3.04-9.94c.25-.79,.56-1.43,.93-1.9,.38-.47,.84-.83,1.39-1.09,.54-.25,1.17-.41,1.89-.48,.72-.08,1.55-.11,2.49-.11,.81,0,1.54,.02,2.18,.08,.63,.06,1.16,.18,1.57,.35,.41,.18,.7,.44,.88,.79,.18,.34,.23,.79,.14,1.36-.04,.3-.11,.58-.2,.86l-.67,2.15-5.07,.24,.61-2c.07-.2,.11-.38,.14-.54,.06-.42-.07-.63-.4-.63-.21,0-.4,.09-.55,.27-.16,.17-.29,.48-.42,.9l-2.8,9.15c-.11,.36-.18,.61-.2,.76-.03,.23-.02,.38,.05,.45,.06,.07,.19,.11,.36,.11,.23,0,.42-.09,.57-.27,.14-.18,.29-.53,.45-1.05l.64-2.05,5.06-.24-.85,2.83c-.23,.78-.54,1.4-.93,1.86Zm7.8,1.31l2.14-7.05h-1.6l-2.16,7.05h-4.96l5.02-16.43,5.06-.26-2.14,6.98h1.59l2.07-6.72,5.06-.26-5.1,16.69h-4.98Zm13.32,0l.63-7.2h-.1l-2.21,7.2h-4.94l5.05-16.43h5.12l-.72,7.43h.11l2.28-7.43h4.88l-5.04,16.43h-5.06Zm6.69,0l5.04-16.43,5.08-.26-5.12,16.69h-5Zm17.62-1.31c-.39,.45-.87,.8-1.42,1.03-.56,.24-1.2,.39-1.93,.45-.73,.07-1.54,.1-2.43,.1-.83,0-1.56-.02-2.19-.07s-1.15-.16-1.56-.34c-.4-.18-.69-.44-.86-.77-.18-.34-.22-.79-.14-1.36,.04-.22,.11-.53,.23-.9l3.04-9.94c.24-.79,.55-1.43,.93-1.9,.37-.47,.83-.83,1.38-1.09,.55-.25,1.18-.41,1.9-.48,.72-.08,1.55-.11,2.48-.11,.82,0,1.55,.02,2.18,.08,.64,.06,1.16,.18,1.57,.35,.42,.18,.71,.44,.89,.79,.18,.34,.22,.79,.14,1.36-.05,.3-.11,.58-.2,.86l-.67,2.15-5.07,.24,.61-2c.06-.2,.11-.38,.13-.54,.06-.42-.07-.63-.4-.63-.21,0-.39,.09-.54,.27-.16,.17-.3,.48-.42,.9l-2.8,9.15c-.11,.36-.18,.61-.2,.76-.04,.23-.02,.38,.05,.45,.06,.07,.18,.11,.36,.11,.23,0,.42-.09,.56-.27,.15-.18,.3-.53,.46-1.05l.64-2.05,5.05-.24-.84,2.83c-.23,.78-.54,1.4-.93,1.86Zm14.65-12.41h-4.2l-1.2,3.96h3.86l-.82,2.68h-3.88l-1.34,4.42h4.32l-.82,2.66h-9.29l5.03-16.43h9.16l-.82,2.71Zm13.93,7.02c-.51,.29-1.11,.48-1.79,.59-.67,.1-1.45,.16-2.33,.16h-1.1l-1.82,5.95h-5l5.02-16.43c.46-.04,.91-.09,1.35-.12,.44-.03,.89-.06,1.35-.08,.46-.03,.93-.04,1.42-.05s1.01-.01,1.56-.01c.81,0,1.54,.02,2.19,.08,.64,.06,1.16,.18,1.58,.35,.41,.18,.7,.44,.89,.79,.18,.34,.23,.79,.15,1.36-.05,.3-.11,.58-.2,.86l-1.03,3.39c-.25,.82-.56,1.47-.92,1.98-.36,.5-.8,.9-1.32,1.18Zm9.91,6.41c-.56,.24-1.19,.4-1.91,.46-.72,.07-1.53,.1-2.44,.1-.82,0-1.54-.02-2.17-.07-.62-.05-1.14-.17-1.55-.36-.41-.18-.71-.45-.89-.79-.17-.34-.22-.8-.13-1.39,.04-.26,.11-.58,.23-.95l3.04-9.96c.24-.78,.55-1.4,.93-1.86,.38-.45,.85-.8,1.39-1.04,.54-.23,1.18-.38,1.89-.45,.72-.06,1.54-.09,2.45-.09,.82,0,1.55,.02,2.18,.07,.64,.05,1.16,.16,1.57,.34,.4,.18,.69,.44,.87,.78,.18,.34,.22,.81,.14,1.39-.02,.13-.05,.27-.08,.41-.03,.13-.07,.29-.12,.45l-3.04,9.96c-.25,.81-.57,1.45-.96,1.93-.38,.47-.85,.83-1.4,1.07Zm13.73,.29h-11.6l.87-2.88,8.58-10.84h-4.65l.68-2.71h11.43l-.87,2.88-8.92,10.89h5.3l-.82,2.66Zm7.9,0l.63-7.2h-.1l-2.22,7.2h-4.93l5.04-16.43h5.13l-.72,7.43h.11l2.28-7.43h4.88l-5.04,16.43h-5.06Zm12.85,0l.75-3.29h-1.6l-1.29,3.29h-4.72l6.93-16.43h7.97l-3.11,16.43h-4.93Zm12.43,0l.63-7.2h-.11l-2.21,7.2h-4.93l5.04-16.43h5.13l-.72,7.43h.1l2.28-7.43h4.88l-5.04,16.43h-5.05Zm17.61-1.35c-.39,.45-.87,.79-1.44,1.04-.56,.24-1.2,.4-1.92,.47-.72,.08-1.52,.11-2.41,.11-.83,0-1.56-.02-2.18-.07-.63-.05-1.14-.16-1.55-.34-.41-.18-.7-.44-.87-.77-.17-.34-.22-.79-.13-1.36,.03-.22,.11-.53,.22-.9l.68-2.22,5.09-.32-.62,2c-.11,.36-.18,.62-.2,.78-.03,.22-.02,.36,.05,.43s.18,.11,.34,.11c.25,0,.44-.09,.57-.27s.28-.53,.45-1.05l.55-1.75c.04-.17,.09-.31,.12-.44,.04-.13,.07-.26,.09-.39,.04-.28,.01-.49-.09-.63-.11-.14-.31-.24-.62-.3l-2.05-.37c-.41-.06-.77-.14-1.09-.23-.31-.09-.57-.21-.77-.35-.2-.15-.34-.34-.42-.57-.09-.22-.1-.52-.05-.87,.02-.12,.04-.24,.07-.37,.03-.13,.07-.26,.11-.39l.81-2.74c.24-.79,.55-1.43,.93-1.91,.38-.48,.84-.84,1.39-1.09,.55-.24,1.18-.4,1.9-.47,.71-.08,1.54-.11,2.48-.11,.82,0,1.54,.02,2.17,.08s1.15,.18,1.56,.37c.41,.18,.71,.45,.88,.79,.18,.34,.23,.8,.14,1.37-.04,.31-.11,.6-.2,.88l-.55,1.8-5.1,.32,.55-1.78c.06-.21,.11-.39,.13-.54,.06-.42-.07-.63-.4-.63-.21,0-.39,.09-.53,.27-.14,.17-.28,.48-.41,.9l-.41,1.29c-.07,.23-.11,.41-.13,.54-.04,.28,0,.48,.14,.6,.13,.12,.37,.23,.7,.33,.67,.21,1.28,.39,1.82,.53,.54,.15,.99,.32,1.35,.52,.35,.19,.61,.44,.78,.74,.17,.3,.21,.71,.13,1.23-.03,.23-.08,.47-.16,.71l-.96,3.2c-.23,.77-.55,1.37-.94,1.82Zm7.96,1.35l.37-6.17h-.1l-1.88,6.17h-5.01l5.03-16.43,5.07-.26-1.85,6.07h.11l3.3-5.81h5.16l-4.9,7.84,.04,8.59h-5.34Zm6.09,0l5.04-16.43,5.08-.26-5.12,16.69h-5Zm6.67,0l5.03-16.43h9.16l-.83,2.71h-4.19l-1.2,3.96h3.86l-.82,2.68h-3.88l-1.34,4.42h4.31l-.81,2.66h-9.29Zm19.52-3.17c-.25,.77-.56,1.38-.95,1.83-.39,.46-.87,.8-1.43,1.04-.56,.23-1.2,.39-1.93,.46-.72,.08-1.53,.11-2.42,.11-.5,0-1.01-.07-1.51-.21-.51-.13-.99-.32-1.44-.57l.91-2.61c.47,.21,.93,.39,1.38,.52,.45,.14,.94,.21,1.48,.21,.23,0,.43-.09,.59-.28,.15-.19,.31-.53,.47-1.04l3.88-12.69,5.1-.29-4.13,13.52Z"/><path class="cls-1" d="M119.09,148.27l-.31,.96h-8.73l.58-1.79c.27-.83,.33-1.37,.18-1.59-.15-.23-.48-.35-1-.35-.57,0-1.05,.16-1.44,.47-.39,.3-.68,.77-.89,1.4-.26,.8-.29,1.41-.1,1.81,.18,.41,.91,.9,2.18,1.48,3.65,1.65,5.84,3.01,6.58,4.07,.74,1.07,.73,2.78-.04,5.14-.55,1.72-1.27,2.98-2.13,3.8-.87,.81-2.26,1.49-4.16,2.04-1.91,.55-4.01,.83-6.3,.83-2.52,0-4.56-.32-6.13-.95-1.58-.64-2.48-1.45-2.71-2.43-.23-.98-.05-2.38,.53-4.18l.52-1.58h8.73l-.96,2.93c-.29,.9-.36,1.49-.19,1.74,.16,.26,.55,.39,1.18,.39s1.14-.16,1.55-.49c.41-.33,.72-.81,.93-1.46,.46-1.42,.48-2.35,.04-2.78-.46-.44-1.69-1.17-3.69-2.19-2-1.03-3.31-1.78-3.91-2.25-.61-.47-1.03-1.11-1.26-1.94-.23-.82-.14-1.87,.27-3.15,.6-1.85,1.4-3.2,2.38-4.05,.05-.04,.1-.08,.15-.12,.97-.8,2.28-1.42,3.93-1.88,1.73-.48,3.72-.72,5.95-.72,2.44,0,4.44,.26,5.98,.78,.98,.34,1.72,.72,2.2,1.17,.28,.25,.47,.53,.58,.82,.29,.8,.13,2.16-.49,4.07Z"/><polygon class="cls-1" points="140.83 141.93 140.67 142.43 139.26 146.76 127.56 161.21 134.56 161.21 133 166.03 115.67 166.03 116.81 162.53 129.17 146.76 122.78 146.76 123.95 143.17 124.35 141.93 140.83 141.93"/><polygon class="cls-1" points="162.43 141.93 160.86 146.76 155.28 146.76 149.01 166.03 139.61 166.03 145.88 146.76 140.32 146.76 141.73 142.39 141.88 141.93 162.43 141.93"/><path class="cls-1" d="M205.47,144.26c-.63-.94-1.66-1.56-3.09-1.87-1.42-.31-3.62-.46-6.58-.46h-9.38l-5.21,16.04-2.62,8.06h10.87c.49,0,.95,0,1.4,0,3.02-.03,5.1-.17,6.25-.42,1.31-.29,2.38-.82,3.19-1.61,.81-.78,1.48-1.99,2.01-3.62l.73-2.23c.51-1.57,.5-2.73-.03-3.49-.53-.76-1.82-1.31-3.89-1.64,2.05-.29,3.49-.72,4.33-1.28,.85-.55,1.5-1.53,1.96-2.94,.67-2.08,.69-3.59,.06-4.53Zm-11.6,13.15l-.73,2.25c-.31,.97-.7,1.58-1.14,1.83-.45,.25-1.34,.39-2.67,.42l2.19-6.74c1.39,.03,2.21,.15,2.47,.37,.26,.22,.22,.84-.12,1.87Zm2.95-9.06c-.47,1.43-.87,2.29-1.23,2.6-.35,.3-.98,.45-1.91,.45-.22,0-.53,0-.94,.01l1.74-5.35c.97,0,1.6,.05,1.91,.13s.52,.27,.63,.57c.11,.31,.04,.83-.2,1.59Z"/><path class="cls-1" d="M165.63,141.93l-12.62,24.1h9.71l1.98-4.33h3.36l-.9,4.33h9.6l1.45-14.24,1.01-9.86h-13.59Zm3.57,15.5h-3.23c.93-2.13,2.63-5.51,5.09-10.12-.83,4.01-1.45,7.39-1.86,10.12Z"/></g></g></g></svg>