<?xml version="1.0" encoding="UTF-8"?><svg id="Warstwa_2" xmlns="http://www.w3.org/2000/svg" viewBox="0 0 194.8 118.69"><defs><style>.cls-1{fill:#fff;}</style></defs><g id="Warstwa_42"><g id="Warstwa_32"><g id="Warstwa_22"><path class="cls-1" d="M137.9,41.77c.21-.21,.22-.26,.24-1.08,.03-1.05-.04-1.26-.49-1.48-.3-.15-.48-.16-1.99-.16h-1.66v2.99l3.68-.05,.22-.22Zm-5.68-1.25l.02-2.92h2.98c3.45,0,3.66,.03,4.24,.62,.47,.47,.52,.73,.49,2.55-.02,1.47-.03,1.55-.22,1.89-.13,.23-.32,.42-.55,.55l-.35,.2-3.31,.02-3.31,.02,.02-2.92Zm-19.37,2.23v-.69l1.3-.94c.72-.52,1.61-1.16,1.98-1.43,.37-.27,.72-.52,.77-.54,.33-.14-.12-.18-1.9-.18h-2l.02-.69,.02-.69h6.66v1.41l-1.92,1.39c-1.05,.77-1.99,1.44-2.08,1.5-.14,.1,.09,.11,1.97,.12h2.14v1.41h-6.97v-.69Zm-4.2-2.46c.07-.1,.12-.34,.12-.54,0-.3-.04-.4-.21-.53-.19-.15-.31-.16-1.76-.16h-1.56v1.41h1.64c1.61,0,1.64,0,1.76-.17Zm-5.19,.23l.02-2.92,2.27-.02c4.34-.04,4.75,.11,4.8,1.82,.02,.7,0,.82-.16,1.13-.11,.21-.29,.4-.45,.49l-.27,.14,.29,.14c.43,.2,.6,.62,.6,1.46v.68h-1.8v-.54c0-.41-.03-.58-.15-.72-.15-.18-.18-.19-1.76-.21l-1.61-.02v1.5h-1.8l.02-2.92Zm-22.5-.02v-2.94h2.65l1.05,1.84c.87,1.53,1.06,1.82,1.14,1.72,.05-.07,.54-.9,1.09-1.84l.99-1.72h2.57v5.88h-1.72l-.02-2.03-.02-2.03-1.18,2.03-1.17,2.03-.62-.02-.62-.02-1.12-1.95c-.62-1.07-1.16-1.99-1.2-2.03-.06-.06-.08,.55-.08,1.97v2.05h-1.72v-2.94Zm17.67,1.41c.4-.19,.5-.48,.5-1.37,0-.84-.11-1.16-.46-1.37-.25-.15-.4-.16-1.72-.16-2.07,0-2.16,.07-2.1,1.71,.03,.78,.04,.85,.23,1.04,.27,.27,.74,.34,2.11,.32,.94-.02,1.19-.04,1.45-.17Zm-4.5,1.46c-.51-.18-.89-.55-1.03-1.03-.11-.38-.14-2.78-.04-3.36,.09-.5,.42-.98,.81-1.17,.48-.23,1.83-.33,3.79-.28,1.83,.05,2.31,.13,2.73,.49,.44,.37,.52,.74,.52,2.58,0,1.57,0,1.66-.19,2.02-.21,.43-.59,.71-1.11,.83-.2,.05-1.38,.08-2.7,.08-2.1,0-2.4-.02-2.78-.15Zm-18.42-2.35c-.06-.17-1.05-1.96-1.08-1.96-.04,0-1.1,1.92-1.1,1.99,0,.02,.5,.04,1.1,.04,.66,0,1.09-.03,1.08-.07Zm2.21,2.44l-.98-.02-.26-.47-.26-.47h-3.59l-.57,.94h-.98c-.54,0-.96-.03-.94-.06s.38-.69,.8-1.47c.95-1.76,1.15-2.11,1.82-3.33l.54-.98,1.13-.02,1.13-.02,.45,.83c1.55,2.87,2.72,5.07,2.7,5.08-.01,0-.46,0-1-.01Zm49.04-2.42c0-.08-1.05-1.99-1.09-1.99-.02,0-.28,.46-.58,1.02l-.53,1.02h1.1c.61,0,1.1-.02,1.1-.05Zm1.67,3.73c-.41-.17-.46-.73-.1-1.09l.24-.24h-.27c-.25,0-.3-.04-.56-.47l-.29-.47h-3.58l-.57,.94h-1.95l.23-.41c.13-.23,.83-1.52,1.57-2.88,.74-1.36,1.38-2.49,1.44-2.53,.05-.03,.58-.05,1.18-.04l1.09,.02,1.55,2.9,1.55,2.9-.43,.08c-.47,.09-.61,.22-.49,.46,.07,.13,.14,.14,.51,.1l.43-.05-.02,.41-.02,.41-.67,.02c-.37,0-.74-.02-.84-.05Zm-4.72,.94l.57-.63h.78c.43,0,.77,.01,.75,.03-.02,.02-.42,.3-.89,.63-.83,.58-.87,.6-1.32,.6h-.46l.57-.63Zm7.04,6.77c-.04-.11-.29-.86-.54-1.67-.26-.81-.64-2.03-.86-2.71-.22-.68-.4-1.26-.4-1.27s.4-.03,.89-.03h.89l.57,1.98c.32,1.09,.6,2.02,.62,2.07,.03,.05,.38-.83,.79-1.96l.74-2.05h1.64l.42,1.21c.23,.67,.55,1.6,.72,2.08l.3,.86,.33-1.06c.18-.58,.48-1.52,.65-2.08l.33-1.02,.89-.02c.82-.02,.88-.01,.84,.12-.02,.08-.46,1.39-.97,2.92l-.93,2.78-1.02,.02-1.02,.02-.16-.45c-.09-.25-.38-1.1-.65-1.9-.26-.8-.51-1.48-.54-1.51-.03-.04-.24,.48-.46,1.14-.22,.66-.52,1.54-.66,1.95l-.26,.74-1.03,.02-1.03,.02-.08-.2Zm-15.75-2v-2.19h-2.43v-1.49l3.35,.02,3.35,.02v1.41l-1.23,.02-1.23,.02v4.38h-1.8v-2.19Zm-11.42-.72l.02-2.92h2.66l3.45,4.24,.04-4.28h1.8v5.88h-2.65l-.77-.93c-.42-.51-1.21-1.46-1.75-2.11l-.98-1.18-.02,2.11-.02,2.11h-1.8l.02-2.92Zm-7.77-.02v-2.94h6.42v1.49h-4.62v.86h4.39l-.05,1.21-2.17,.02-2.17,.02v.86h4.7v1.41h-6.5v-2.94Zm-3.57,1.41c.39-.19,.47-.42,.47-1.36,0-.67-.03-.87-.14-1.04-.28-.41-.51-.46-2.32-.46h-1.65v2.98h1.69c1.36,0,1.74-.02,1.95-.12Zm-5.44-1.41v-2.94h2.64c2.92,0,3.6,.06,4.15,.34,.81,.41,.88,.63,.88,2.69,0,1.77-.06,2.04-.48,2.43-.43,.39-.63,.41-4.03,.41h-3.16v-2.94Zm-14.1,.74v-2.19h-2.43v-1.49l3.35,.02,3.35,.02v1.41l-1.23,.02-1.23,.02v4.38h-1.8v-2.19Zm53.15,.67c.38-.18,.48-.48,.48-1.42,0-1.35-.14-1.46-1.89-1.5-1.48-.04-1.99,.05-2.24,.4-.15,.21-.17,.35-.18,1.07,0,1.23,.14,1.46,.97,1.58,.72,.1,2.54,.02,2.85-.13Zm-4.22,1.55c-.49-.12-.88-.36-1.08-.66-.31-.48-.39-1.02-.36-2.52,.03-1.31,.03-1.35,.26-1.81,.3-.59,.65-.79,1.61-.9,.85-.1,3.37-.1,4.22,0,.95,.11,1.32,.31,1.61,.9l.23,.46v1.57c0,1.78-.07,2.12-.55,2.54-.49,.43-.82,.48-3.44,.47-1.3,0-2.43-.03-2.51-.05Zm-42.03,0c-.82-.15-1.33-.52-1.48-1.08-.05-.19-.09-1.19-.09-2.57v-2.25s.88,.02,.88,.02l.88,.02,.04,2.02,.04,2.02,.21,.18c.16,.14,.35,.19,.81,.24,.76,.07,1.97,0,2.24-.12,.38-.18,.41-.36,.44-2.45l.03-1.94h1.72l-.02,2.45c-.03,2.87-.02,2.83-.81,3.23l-.46,.24h-2.12c-1.17,.02-2.21,0-2.32-.01h0Zm112.03,10.55v-4.39h2.74v8.77h-2.74v-4.39Zm-12.85,0v-4.39h2.74v3.21h1.11l.95-.88c.52-.48,1.15-1.06,1.38-1.28,.24-.22,.59-.55,.79-.73l.36-.33h1.75s1.75,0,1.75,0l-.51,.49c-.61,.59-1.09,1.03-2.23,2.06-.47,.43-1.04,.95-1.26,1.16-.22,.21-.47,.43-.55,.49-.1,.08-.12,.13-.06,.17,.05,.03,1.26,1.03,2.69,2.21l2.6,2.15-3.69,.04-2.01-1.69-2.01-1.69h-1.07v3.37h-2.74v-4.39Zm-5.01,0v-4.39h2.74v8.77h-2.74v-4.39Zm-14.1-.02v-4.41l2.03,.02,2.03,.02,.22,.29c.12,.16,.45,.57,.74,.92,.28,.34,1.34,1.65,2.35,2.89l1.84,2.27,.02-3.21,.02-3.2,1.33,.02,1.33,.02v8.77l-3.95-.04-1.16-1.41c-.64-.78-1.8-2.19-2.58-3.13-.78-.95-1.44-1.74-1.48-1.75-.04-.01-.07,1.38-.07,3.15v3.18h-2.66v-4.41Zm-13.08,0v-4.41l1.33,.02,1.33,.02v3.2h5.56v-3.21h2.66v8.77h-2.66v-3.45h-5.56v3.45h-2.66v-4.41Zm-24.76,.02v-4.39h9.64v2.12h-6.89v1.33h6.5v1.8h-6.5v1.41h6.97v2.12h-9.71v-4.39Zm-7.91,1.06v-3.33h-3.68v-2.12h10.11v2.12h-3.68v6.66h-2.74v-3.33Zm-7.99-1.06v-4.39h2.66v8.77h-2.66v-4.39Zm-10.11-.02v-4.41l1.33,.02,1.33,.02,.02,3.31,.02,3.31,2.91,.02,2.91,.02,.02,1.06,.02,1.06h-8.58v-4.41h0Zm39.83,4.37c-1.25-.27-1.92-1-2.15-2.34-.14-.79-.06-4.12,.11-4.63,.38-1.15,1.1-1.65,2.73-1.85,.81-.1,5.15-.1,5.94,0,.87,.11,1.31,.28,1.68,.66,.42,.42,.59,.91,.64,1.83l.04,.72h-2.76v-.22c0-.28-.18-.53-.49-.7-.22-.12-.49-.14-2.21-.14-1.93,0-1.96,0-2.35,.2-.55,.27-.66,.61-.66,2.04,0,1.22,.07,1.58,.42,1.92,.35,.35,.81,.43,2.66,.43,2.22,0,2.58-.13,2.69-.94l.04-.32h2.72v.69c0,1.6-.6,2.36-2.08,2.64-.81,.16-6.26,.15-6.98,0h0Zm-45.43-2.31c.63-.31,.71-.55,.71-2.08,0-1.14-.02-1.28-.17-1.58-.33-.62-1.08-.77-3.43-.71-1.66,.04-2.01,.1-2.38,.41-.35,.3-.43,.64-.44,1.87,0,1.12,.07,1.52,.33,1.82,.37,.42,.78,.48,3.07,.47,1.88-.01,1.93-.02,2.31-.21Zm-6.34,2.3c-1.16-.25-1.69-.75-1.97-1.83-.1-.41-.12-.86-.1-2.74,.03-2.09,.04-2.28,.2-2.68,.33-.83,.78-1.21,1.76-1.46,.63-.16,5.88-.25,7.11-.11,1.54,.17,2.26,.65,2.61,1.75,.17,.53,.18,.7,.18,2.61,0,2.28-.06,2.76-.46,3.43-.27,.46-.83,.84-1.45,1-.25,.07-1.45,.1-3.85,.12-2.89,.02-3.58,0-4.03-.1Zm54.38,3.98c1.15-1.24,.91-1.12,2.21-1.1l1.12,.02-1.33,.92-1.33,.92h-1.39s.71-.76,.71-.76Zm36.99,5.93v-4.39h9.64v2.12h-6.97v1.33h6.5v1.88h-6.5v1.33h7.05v2.12h-9.71v-4.39Zm-4.47,0v-4.39h2.66v8.77h-2.66v-4.39Zm-12.3,0v-4.39h2.66v3.29h.53c.47,0,.56-.03,.76-.21,.13-.12,.93-.86,1.78-1.65l1.55-1.43h3.56l-.19,.18c-.2,.19-3.74,3.43-4.22,3.87l-.28,.25,.35,.32c.19,.17,1.39,1.17,2.65,2.21l2.3,1.9-1.85,.02-1.85,.02-1.97-1.65-1.97-1.65h-1.15v3.29h-2.66v-4.39Zm-25.85,0v-4.39h3.99l1.4,1.71c.77,.94,1.92,2.37,2.57,3.17,.65,.8,1.2,1.46,1.23,1.46,.03,0,.06-1.42,.06-3.17v-3.17h2.66v8.77h-1.99c-1.87,0-1.99,0-2.1-.15-.06-.08-1.08-1.32-2.26-2.75-1.18-1.43-2.31-2.8-2.51-3.04l-.35-.44-.02,3.19-.02,3.19h-2.66v-4.39Zm-5.74,.45c-.11-.18-.45-.81-.77-1.39-.31-.58-.62-1.12-.67-1.2-.08-.13-.18,.01-.78,1.14-.38,.7-.75,1.39-.84,1.53l-.15,.25h3.4l-.19-.33Zm-7.6,3.21c.68-1.27,4.1-7.53,4.26-7.8l.16-.26,1.72,.02,1.72,.02,.84,1.57c.46,.86,1.4,2.61,2.08,3.88,.68,1.27,1.36,2.53,1.51,2.8l.27,.49h-2.98l-.41-.74-.41-.74h-5.35l-.42,.72-.42,.72-1.47,.02-1.47,.02,.39-.73Zm-13.07-3.66v-4.39h2.02s2.02,0,2.02,0l2.39,2.95c1.31,1.62,2.49,3.06,2.6,3.19l.21,.24v-6.38h2.67v8.77h-1.98s-1.98-.01-1.98-.01l-.36-.45c-1.63-2.02-4.85-5.87-4.88-5.83-.03,.03-.05,1.45-.05,3.17v3.12h-2.66v-4.39Zm-11.52,3.31v-1.08l1.35-.97c.74-.53,2.14-1.54,3.1-2.23l1.75-1.26-2.98-.02-2.98-.02v-2.11h9.95l-.02,1.07-.02,1.07-2.35,1.71c-1.29,.94-2.66,1.93-3.04,2.19-.38,.26-.69,.51-.69,.55s1.41,.07,3.13,.07h3.13v2.12h-10.34v-1.08Zm92.87,1.05c-.62-.13-.83-.22-1.16-.51-.49-.43-.63-.9-.67-2.18l-.03-1.12h2.5l.04,.57c.04,.65,.19,.94,.54,1.07,.13,.05,.75,.09,1.38,.09,1.01,0,1.16,0,1.35-.14,.37-.27,.39-.48,.4-3.6v-2.92h2.67v3.39c0,3.74-.01,3.88-.48,4.5-.32,.43-.78,.7-1.46,.84-.7,.15-4.38,.15-5.08,0ZM46.97,57.55v-2.27l-.26-.09c-.6-.2-1.13-1-1.2-1.81l-.04-.47h-5.95l.04,1.47c.04,1.61,.12,2.05,.54,2.92,.29,.59,.87,1.2,1.43,1.5,.82,.44,2.46,.79,4.33,.92,.46,.03,.9,.07,.97,.07,.13,.01,.14-.14,.14-2.25Zm22.67,10.62c1.06-.31,1.53-.95,1.74-2.35,.34-2.24-.2-3.66-1.6-4.23l-.44-.18-6.84-.02-6.84-.02v6.99l6.76-.03c6.1-.02,6.8-.04,7.21-.16Zm-22.61,13.76s-.05-4.8-.05-10.61v-10.55l-.18-.05c-.1-.03-.39-.05-.65-.05-.26,0-.92-.05-1.47-.12-3.6-.42-5.1-1.41-5.82-3.84-.17-.58-.22-.92-.25-1.89-.02-.65-.02-1.56,.02-2.02l.06-.83h3.83c3.6,0,3.83,0,3.83,.14,0,.08,.03,.46,.07,.86,.11,1.11,.35,1.37,1.36,1.51l.49,.06-1.3,.02,.02,.37c.02,.33,.05,.37,.26,.45,.35,.12,10.4,.16,11.11,.05,.67-.1,1.1-.29,1.48-.62l.28-.25,3.2-.02,3.2-.02,.02-.94c.08-3.11-.72-5.25-2.29-6.14-.95-.53-2.25-.84-3.89-.92-.5-.02-3.51-.11-6.7-.19-6.67-.17-6.78-.18-7.44-.83-.37-.37-.52-.81-.52-1.53,0-.81,.26-1.4,.77-1.74,.66-.44,.94-.45,6.59-.43l5.14,.02,.35,.18c.73,.38,1.25,1.14,1.25,1.82v.23h5.78l.05-.32c.03-.18,.03-.63,0-1-.25-3.16-1.54-4.47-4.88-4.96-.99-.15-14.3-.14-15.68,0-3.18,.34-4.67,1.39-5.25,3.73-.25,1.01-.35,2.58-.25,3.81,.28,3.18,1.12,4.29,3.69,4.85,1.08,.24,2.12,.3,7.72,.46,2.93,.09,5.81,.19,6.4,.24,1.75,.13,2.41,.42,2.79,1.24,.27,.58,.29,1.5,.03,2.06l-.17,.37h-1.04c-.83-.02-.96-.03-.66-.08,.42-.07,.69-.23,.94-.57,.24-.32,.23-1.17-.02-1.51-.39-.55-.84-.59-8.21-.81-5.79-.17-6.24-.19-7.35-.36-3.76-.58-5.09-2.39-5.09-6.96,0-2.78,.5-4.43,1.71-5.64,.85-.85,2.09-1.4,3.71-1.65,1.25-.19,5.28-.28,10.94-.24,5.66,.04,6.05,.06,7.48,.45,1.61,.44,2.81,1.37,3.43,2.66,.55,1.15,.76,2.5,.67,4.2l-.05,.97h-7.58v-.46c0-.61-.18-1.19-.45-1.44-.45-.42-.47-.42-5.54-.42-5.03,0-5.6,.04-6.02,.38-.22,.18-.39,.76-.31,1.1,.12,.56,.19,.67,.52,.83,.51,.25,1.46,.3,7.53,.44,6.88,.15,7.6,.21,9.06,.75,.87,.32,1.45,.7,2.06,1.34,1.15,1.22,1.69,3.13,1.69,5.99v1.05h-.98l-.1,.7c-.18,1.31-.61,2.18-1.47,2.97-.61,.56-1.27,.89-2.19,1.11-1.61,.38-2.08,.41-9.14,.44l-6.64,.03,.02,.44,.02,.44,5.84,.02c7.37,.03,9.03-.07,10.83-.66,1.18-.39,2.46-1.45,3.02-2.51,.3-.56,.62-1.67,.7-2.41l.06-.55h1.88c4.36,.02,6.71,.62,8.36,2.15,1.83,1.69,2.52,3.96,2.52,8.2,0,6.53-1.77,9.36-6.24,10.02-.7,.1-2.07,.12-9.56,.12h-8.74v6.89h-4.3c-2.36,0-4.32-.02-4.35-.05Zm101.83,.05c-1.99-.14-2.55-.6-2.61-2.17l-.03-.8h2.68v.2c0,.31,.22,.65,.45,.72,.12,.03,1.2,.06,2.41,.06,1.96,0,2.22-.01,2.41-.14,.42-.27,.34-1-.12-1.22-.16-.07-.92-.13-2.66-.18-3.02-.09-3.64-.16-4.21-.44-.37-.19-.46-.28-.65-.66-.19-.38-.23-.57-.27-1.27-.09-1.76,.35-2.57,1.59-2.91,.38-.1,1-.14,3.29-.17,3.03-.04,3.94,.02,4.57,.29,.78,.34,1.05,.81,1.1,1.86l.03,.72h-1.3c-1.24,0-1.3,0-1.3-.15,0-.26-.18-.56-.4-.68-.17-.09-.63-.11-2.16-.11-2.01,0-2.47,.06-2.61,.31-.2,.37-.02,.9,.34,1.02,.13,.04,1.48,.12,2.99,.16,2.79,.08,3.19,.12,3.72,.39,.77,.39,1.06,1.08,1.06,2.51,0,.92-.01,1.01-.22,1.43-.42,.86-.95,1.12-2.56,1.24-1.14,.08-4.28,.08-5.52,0Zm-58.8-2.27c.45-.1,.74-.3,.93-.65,.11-.21,.14-.46,.14-1.5,0-1.42-.09-1.73-.57-2.05-.36-.24-.92-.3-2.8-.29-2.84,0-3.05,.18-3.05,2.34,0,1.01,.01,1.13,.2,1.49,.2,.4,.41,.55,.9,.67,.38,.09,3.83,.08,4.26-.01Zm-4.97,2.28c-1.39-.08-2.14-.37-2.59-1.02-.44-.63-.46-.8-.49-3.16-.03-2.47,.04-3.04,.46-3.67,.63-.96,1.57-1.15,5.52-1.15,2.29,0,3.51,.08,4.16,.27,1.01,.29,1.54,1.06,1.69,2.47,.11,1.05,.04,3.8-.11,4.35-.39,1.38-1.06,1.79-3.19,1.92-1.27,.08-4.01,.08-5.44,0Zm-20.88,34.91c2.26-.2,3.89-.43,6.01-.84l1.27-.24,.02-5.84,.02-5.84,1.1-.33c3.16-.95,6.68-2.43,9.24-3.91l.63-.36,4.11,4.11c2.26,2.26,4.14,4.11,4.17,4.11,.08,0,1.53-.97,2.43-1.62,1.25-.91,2.7-2.06,3.89-3.08,1.05-.89,4.27-4.04,5.11-4.98,1.98-2.23,3.47-4.13,4.98-6.36l.67-.99-1.98-1.99-1.99-1.99h-7.44s-7.44,0-7.44,0l-1.1,1.1c-6.16,6.21-14.17,10.23-22.84,11.46-2.12,.3-3.39,.39-5.64,.38-5.42-.01-10.11-.9-14.99-2.85-9.3-3.71-16.96-10.84-21.4-19.93-3.47-7.11-4.74-15.09-3.68-23.07,1.89-14.21,11.64-26.67,25.07-32.03,6.06-2.41,12.52-3.32,19.08-2.68,4.68,.46,9.36,1.82,13.75,4,4.02,1.99,7.25,4.3,10.47,7.48l1.3,1.29h14.87l1.99-1.99,1.99-1.99-.65-.96c-4.06-6.01-9.45-11.41-15.47-15.48-.69-.46-.97-.61-1.06-.56-.07,.04-1.93,1.89-4.15,4.11-2.22,2.22-4.06,4.04-4.09,4.04s-.39-.18-.77-.4c-2.6-1.46-6.23-2.96-9.63-3.98l-.51-.15-.02-5.8c-.02-4.51-.04-5.81-.12-5.87-.2-.16-3.43-.7-5.66-.95-3.7-.41-8.34-.44-12.03-.08-2,.2-5.45,.74-6.29,.98-.13,.04-.14,.39-.14,5.87v5.83l-.8,.24c-3.3,1-6.13,2.16-8.84,3.61-.72,.38-1.33,.7-1.37,.7s-1.92-1.85-4.19-4.12l-4.12-4.12-1.17,.8c-5.13,3.49-9.83,7.98-13.51,12.88-.84,1.12-2.14,2.95-2.29,3.24-.09,.17,.1,.37,4.04,4.32l4.14,4.14-.33,.58c-.57,.99-2,3.97-2.5,5.21-.53,1.33-1.21,3.28-1.54,4.43l-.22,.76H2.93l-.07,.18c-.11,.28-.61,3.25-.79,4.6-.78,6.09-.59,12.17,.55,18.16l.24,1.27H14.57l.19,.69c.76,2.78,2.42,6.8,3.92,9.5l.47,.84-4.11,4.1c-2.26,2.26-4.11,4.14-4.11,4.19,0,.11,1.22,1.9,2.1,3.09,3.3,4.43,7.52,8.64,11.88,11.87,1.22,.9,2.94,2.07,3.05,2.07,.05,0,1.93-1.85,4.19-4.1l4.1-4.1,1.05,.57c2.74,1.5,5.65,2.72,8.68,3.63l1.26,.38,.02,5.83,.02,5.84,.18,.04c1.75,.43,5.81,.97,8.52,1.15,1.59,.1,6.62,.04,8.23-.11Zm-7.52,1.76c-3.34-.17-6.7-.61-9.83-1.28l-1.17-.25-.02-5.88-.02-5.88-1.15-.38c-2.28-.75-5.2-1.98-7.14-3.01l-.81-.43-4.17,4.17-4.17,4.17-1.56-1.04c-6.96-4.63-12.69-10.42-17.21-17.43l-.61-.94,4.16-4.16,4.16-4.16-.66-1.33c-1.14-2.28-2.05-4.48-2.77-6.71l-.35-1.08-5.89-.02-5.89-.02-.21-1.02c-1.8-8.54-1.81-16.87-.04-25.15l.25-1.17,5.88-.02,5.88-.02,.41-1.23c.77-2.32,1.33-3.7,2.53-6.15l.87-1.79-4.14-4.14c-2.28-2.28-4.14-4.17-4.13-4.21,.01-.12,1.63-2.54,2.45-3.67,3.75-5.15,8.35-9.72,13.51-13.41,1.11-.79,3.11-2.12,3.3-2.2,.07-.03,1.69,1.54,4.26,4.12l4.15,4.16,.72-.38c1.92-1.02,4.9-2.28,7.2-3.03l1.16-.38V1.6l.18-.07c.24-.1,2.66-.58,4.15-.82C53.3,.17,55.58,0,59.38,0c4.61,0,7.66,.3,11.93,1.18,.93,.19,1.71,.35,1.72,.35,.01,0,.02,2.66,.02,5.91v5.91l.25,.05c.53,.11,3.44,1.17,4.73,1.73,.74,.32,1.98,.89,2.75,1.28l1.4,.7,4.15-4.15c2.28-2.28,4.17-4.15,4.21-4.15s.72,.44,1.53,.97c3.36,2.23,6.26,4.58,8.99,7.29,1.86,1.86,2.4,2.44,4.33,4.73,1.13,1.34,4.48,6.08,4.48,6.33,0,.04-1.21,1.28-2.69,2.75l-2.69,2.68h-16.14l-1.6-1.59c-3.72-3.7-7.57-6.32-12.22-8.3-6.35-2.71-13.19-3.67-20.08-2.79-4.15,.53-8.07,1.7-11.95,3.57-11.09,5.35-19.1,15.86-21.29,27.92-1.48,8.15-.34,16.49,3.28,23.89,5.38,11.04,15.73,18.94,27.75,21.2,4.26,.8,8.95,.87,13.18,.19,5.38-.86,10.49-2.83,14.97-5.77,2.52-1.65,4.14-2.97,6.36-5.17l1.6-1.59h16.2l5.35,5.35-.18,.32c-.38,.67-1.79,2.72-2.74,4.01-3.53,4.74-7.77,8.95-12.5,12.42-1.09,.8-3.7,2.56-3.86,2.6-.05,.01-1.95-1.84-4.23-4.12l-4.14-4.14-1.32,.66c-2.34,1.17-5.2,2.34-7.14,2.92l-.72,.22v11.78l-.25,.04c-.14,.02-.78,.15-1.43,.29-2.48,.51-4.82,.84-7.49,1.06-1.82,.15-5.51,.21-7.21,.12Z"/></g></g></g></svg>