<?xml version="1.0" encoding="utf-8"?>
<!-- Generator: Adobe Illustrator 24.3.0, SVG Export Plug-In . SVG Version: 6.00 Build 0)  -->
<svg version="1.1" id="Warstwa_1" xmlns="http://www.w3.org/2000/svg" xmlns:xlink="http://www.w3.org/1999/xlink" x="0px" y="0px"
	 viewBox="0 0 1500 1500" style="enable-background:new 0 0 1500 1500;" xml:space="preserve">
<style type="text/css">
	.st0{fill:#E12318;}
	.st1{fill:#FFFFFF;}
</style>
<g>
	<g>
		<g>
			<g>
				<g>
					<path class="st0" d="M726.7,1371.8c-15.1-6.7-81.8-38.1-169.6-105.9c-107-82.7-201.2-184.8-280-303.3
						C176.2,811.5,158,669.8,160.5,577.5c3-111.1,37.7-211.7,92.8-269.1l0.2-0.2c36.7-37.8,76.7-66.4,119-84.9
						c38.7-16.9,79.4-25.5,120.9-25.5c78.7,0,142.4,30.2,182,55.6c29.4,18.8,54.5,41.9,74.9,68.9c20.4-27,45.5-50.1,74.9-68.9
						c39.5-25.3,103.2-55.6,181.9-55.6c41.5,0,82.2,8.6,120.9,25.5c42.3,18.5,82.3,47.1,119,84.9l0.2,0.2
						c55.1,57.5,89.8,158.1,92.8,269.1c2.5,92.3-15.7,234-116.6,385c-176.3,265.5-387.8,380-448.9,409l-24.3,11.9L726.7,1371.8z"/>
					<path class="st1" d="M1007.2,247.7c64.9,0,136.1,25.2,204,95.2c84,87.6,136.2,344.1-29.3,591.9
						c-179.5,270.3-394.7,375.4-429,391.6l-2.5,1.3l-2.5-1.3c-34.4-15-249.5-121.4-429-391.6C153.2,687.1,205.4,430.5,289.4,343
						c68-70.1,139.1-95.3,204-95.2c59.1,0,113.1,20.9,155,47.7c80.2,51.3,99.3,127.6,101.8,141.4c2.5-13.8,21.6-90.1,101.9-141.4
						C894,268.6,948,247.7,1007.2,247.7 M1007.2,147.7c-38.4,0-77.2,6.3-115.1,18.8c-32.6,10.7-64.2,25.7-93.7,44.7l0,0
						c-17.1,11-33.2,23.3-48,37c-14.8-13.6-30.8-26-48-37c-29.6-19-61.1-34-93.7-44.7c-38-12.5-76.7-18.8-115.1-18.8
						c-48.5,0-95.9,10-141,29.7c-48.2,21.1-93.6,53.4-134.8,95.9l-0.2,0.2l-0.2,0.2c-31.4,32.8-57.8,78-76.3,130.7
						c-18.3,52-28.8,111.4-30.4,171.7c-1.8,66.8,6.9,134.6,25.7,201.3c21,74.1,54.4,145.7,99.2,212.9
						c196.7,296.2,433.6,410.5,469.9,426.8l0.8,0.4l44.1,21.7l44.1-21.7l1.9-1c32.6-15.5,98.4-50.3,177.7-111.4
						c49.8-38.4,97.6-81.5,142.3-128.3c54.3-56.9,104.4-119.6,148.8-186.6c44.8-67.1,78.2-138.8,99.2-212.9
						c18.9-66.7,27.6-134.4,25.7-201.3c-1.6-60.3-12.1-119.7-30.4-171.7c-18.5-52.7-44.9-97.9-76.3-130.7l-0.2-0.2l-0.2-0.2
						c-41.2-42.5-86.6-74.8-134.8-95.9C1103,157.7,1055.6,147.7,1007.2,147.7L1007.2,147.7z"/>
				</g>
			</g>
		</g>
	</g>
</g>
</svg>
