<?xml version="1.0" encoding="UTF-8" standalone="no"?>
<svg
   id="Warstwa_2"
   viewBox="0 0 176.99669 173.17027"
   version="1.1"
   sodipodi:docname="Zasób 15.svg"
   width="176.99669"
   height="173.17027"
   inkscape:version="1.3 (0e150ed6c4, 2023-07-21)"
   xmlns:inkscape="http://www.inkscape.org/namespaces/inkscape"
   xmlns:sodipodi="http://sodipodi.sourceforge.net/DTD/sodipodi-0.dtd"
   xmlns="http://www.w3.org/2000/svg"
   xmlns:svg="http://www.w3.org/2000/svg">
  <sodipodi:namedview
     id="namedview42"
     pagecolor="#ffffff"
     bordercolor="#000000"
     borderopacity="0"
     inkscape:showpageshadow="false"
     inkscape:pageopacity="0.0"
     inkscape:pagecheckerboard="0"
     inkscape:deskcolor="#d1d1d1"
     showborder="false"
     borderlayer="false"
     shape-rendering="crispEdges"
     inkscape:zoom="0.71305218"
     inkscape:cx="435.452"
     inkscape:cy="-66.615041"
     inkscape:window-width="1920"
     inkscape:window-height="1009"
     inkscape:window-x="2552"
     inkscape:window-y="156"
     inkscape:window-maximized="1"
     inkscape:current-layer="Warstwa_2" />
  <defs
     id="defs1">
    <style
       id="style1">.cls-1{fill:#fff;}.cls-2{fill:#e11617;}.cls-3{fill:#222d50;}</style>
  </defs>
  <g
     id="g7"
     transform="translate(-41.356653,2.7435915e-4)">
    <path
       class="cls-3"
       d="M 218.32,58 C 217.85,41.25 212.19,25.88 203.18,16.88 180.45,-5.85 153.5,-2.39 135.86,8.43 c -2.23,1.37 -4.22,2.83 -6.01,4.35 -1.78,-1.52 -3.77,-2.98 -6,-4.35 -17.64,-10.82 -44.59,-14.29 -67.32,8.45 -9.01,9 -14.67,24.38 -15.14,41.12 -0.38,13.41 2.31,33.95 17.3,55.68 26.58,38.51 58.63,53.99 64.84,56.73 l 6.32,2.76 6.38,-2.78 c 6.15,-2.72 38.21,-18.2 64.78,-56.71 15,-21.73 17.69,-42.27 17.31,-55.68 z m -88.47,98.8 -0.32,-0.14 C 124.84,154.6 95.54,140.65 71.04,105.16 48.61,72.65 55.69,38.93 67.13,27.49 84.79,9.83 104.02,13.86 116.01,21.22 c 10.92,6.7 13.47,16.78 13.84,18.54 0.38,-1.76 2.93,-11.84 13.85,-18.54 11.99,-7.36 31.22,-11.39 48.88,6.27 11.44,11.44 18.52,45.16 -3.91,77.67 -24.5,35.49 -53.8,49.44 -58.49,51.5 z"
       id="path4" />
    <g
       id="g6">
      <path
         class="cls-1"
         d="M 210.82,58.21 C 210.4,43.33 205.56,29.87 197.88,22.19 173.15,-2.55 147.16,10.3 139.78,14.83 c -4.24,2.6 -7.47,5.64 -9.93,8.66 -2.45,-3.02 -5.68,-6.06 -9.92,-8.66 -7.38,-4.53 -33.37,-17.38 -58.1,7.35 -7.68,7.69 -12.52,21.16 -12.95,36.03 -0.35,12.29 2.14,31.15 15.99,51.21 25.43,36.85 55.8,51.53 61.66,54.11 l 3.32,1.46 3.35,-1.47 c 5.84,-2.57 36.21,-17.25 61.64,-54.1 13.85,-20.06 16.33,-38.92 15.98,-51.21 z m -22.15,46.95 c -24.5,35.49 -53.8,49.44 -58.49,51.5 l -0.33,0.14 -0.32,-0.14 C 124.84,154.6 95.54,140.65 71.04,105.16 48.61,72.65 55.69,38.93 67.13,27.49 84.79,9.83 104.02,13.86 116.01,21.22 c 10.92,6.7 13.47,16.78 13.84,18.54 0.38,-1.76 2.93,-11.84 13.85,-18.54 11.99,-7.36 31.22,-11.39 48.88,6.27 11.44,11.44 18.52,45.16 -3.91,77.67 z"
         id="path5" />
      <path
         class="cls-2"
         d="m 188.67,105.16 c -24.5,35.49 -53.8,49.44 -58.49,51.5 l -0.33,0.14 -0.32,-0.14 C 124.84,154.6 95.54,140.65 71.04,105.16 48.61,72.65 55.69,38.93 67.13,27.49 84.79,9.83 104.02,13.86 116.01,21.22 c 10.92,6.7 13.47,16.78 13.84,18.54 0.38,-1.76 2.93,-11.84 13.85,-18.54 11.99,-7.36 31.22,-11.39 48.88,6.27 11.44,11.44 18.52,45.16 -3.91,77.67 z"
         id="path6" />
    </g>
  </g>
</svg>
