<svg xmlns="http://www.w3.org/2000/svg" viewBox="0 0 177 173.17"><defs><style>.cls-1{fill:#e11617;}.cls-2{fill:#fff;}</style></defs><g id="Warstwa_2" data-name="Warstwa 2"><g id="Warstwa_19" data-name="Warstwa 19"><path class="cls-1" d="M177,58c-.48-16.75-6.14-32.12-15.14-41.12C139.09-5.86,112.14-2.39,94.5,8.43a48.25,48.25,0,0,0-6,4.35,48.25,48.25,0,0,0-6-4.35C64.86-2.39,37.91-5.86,15.17,16.88,6.17,25.88.51,41.25,0,58c-.38,13.4,2.31,34,17.31,55.68,26.58,38.51,58.63,54,64.83,56.73l6.33,2.76,6.37-2.78c6.16-2.72,38.21-18.2,64.79-56.71C174.66,92,177.35,71.4,177,58Z"/><path class="cls-2" d="M169.47,58.21c-.42-14.88-5.26-28.35-12.94-36C131.79-2.55,105.8,10.3,98.42,14.82a39.22,39.22,0,0,0-9.92,8.66,39.22,39.22,0,0,0-9.92-8.66C71.2,10.3,45.21-2.55,20.48,22.18,12.79,29.86,8,43.33,7.53,58.21c-.35,12.29,2.14,31.15,16,51.21C48.94,146.26,79.32,161,85.17,163.53L88.5,165l3.35-1.46c5.83-2.57,36.21-17.25,61.64-54.1C167.33,89.36,169.82,70.5,169.47,58.21Zm-22.15,46.95c-24.5,35.49-53.81,49.43-58.49,51.5l-.33.14-.32-.14c-4.69-2.07-34-16-58.49-51.5C7.25,72.65,14.33,38.93,25.78,27.49,43.44,9.83,62.66,13.86,74.65,21.22A30.18,30.18,0,0,1,88.5,39.75a30.18,30.18,0,0,1,13.85-18.53c12-7.36,31.21-11.39,48.87,6.27C162.67,38.93,169.75,72.65,147.32,105.16Z"/></g></g></svg>