<svg xmlns="http://www.w3.org/2000/svg" viewBox="0 0 132.38 127.74">
    <defs>
        <style>.cls-1{fill:#e21617;}.cls-2{fill:#fff;}.cls-3{fill:#e52522;}</style>
    </defs>
    <path class="cls-1" d="M121.7,12.19C106.07-3.44,89.06.13,78.44,6.64A26.71,26.71,0,0,0,66.19,23,26.71,26.71,0,0,0,53.93,6.64C43.32.13,26.3-3.44,10.67,12.19c-10.13,10.13-16.4,40,3.46,68.75,21.68,31.42,47.62,43.76,51.77,45.58l.29.13.29-.13c4.15-1.83,30.09-14.17,51.77-45.58C138.1,52.17,131.83,22.32,121.7,12.19Z"/>
    <path class="cls-2" d="M103.42,24.16,101.67,24l-.37,7.62-1.46-.07-.11,2.64,1.58.11-.37,9.19c-.07,2.49.73,3.77,2.49,3.88,1.25,0,2.05-.7,2.38-2.2l.15-2.31-1.61-.22c-.18,1.21-.55,1.79-1,1.79a.71.71,0,0,1-.77-.7l0-.66.37-8.57,2.45.18.11-2.53-2.49-.33Z"/>
    <path class="cls-2" d="M118.14,34.6a6.69,6.69,0,0,0-.29-1.54,2.64,2.64,0,0,0-2.64-1.39,2.61,2.61,0,0,0-2.67,2,6.63,6.63,0,0,0-.29,2.05l1.8-.11a3.3,3.3,0,0,1,.07-1c.15-.66.48-1,.91-1,.77,0,1.1,1.13,1.06,3.41a5.24,5.24,0,0,0-2.42.66,5,5,0,0,0-2.49,4.61c-.07,2,.44,3.37,1.43,4.17a3.07,3.07,0,0,0,1.87.59,2,2,0,0,0,2-1.72l0,1.61,2.2,0ZM113.2,42a3.43,3.43,0,0,1,.59-2,2.8,2.8,0,0,1,2.31-1.21s.07,1.1.18,3.3c.07,1.72-.37,2.64-1.32,2.71C113.75,44.81,113.16,43.9,113.2,42Z"/>
    <path class="cls-2" d="M109.14,31.59l-1.79,0-.11,15h2.2c-.15-5.24-.15-8.5-.07-9.74a3.35,3.35,0,0,1,.88-2.23,2.55,2.55,0,0,1,1.36-.7,9.24,9.24,0,0,0,.11-2.31,3.52,3.52,0,0,0-2.53,1.83A13,13,0,0,1,109.14,31.59Z"/>
    <path class="cls-2" d="M93,37.85a13.68,13.68,0,0,0-.47-3.19c-.59-2.12-1.5-3.19-2.86-3.19a3.66,3.66,0,0,0-3.26,2.38,8.43,8.43,0,0,0-.88,3.81A9.64,9.64,0,0,0,86.25,42c1,2.09,3.19,3.11,6.48,3a13.14,13.14,0,0,0-.15-2.53,4.27,4.27,0,0,1-2.34-.22c-1.57-.59-2.34-2.05-2.27-4.36Zm-5-1.25c-.15,0-.07-.55.18-1.68s.62-1.65,1.14-1.68c.73,0,1.17,1.14,1.32,3.37Q88.65,36.66,88,36.61Z"/>
    <path class="cls-2" d="M99,32.29A3.62,3.62,0,0,0,97.09,32c-1.28.07-2.12,1-2.45,2.64a5.63,5.63,0,0,0,.84,3.92,8.34,8.34,0,0,1,1.39,3.22,2.37,2.37,0,0,1-1.47,2.49l-1.54.26L94,47a5.09,5.09,0,0,0,4.28-1.72,4.22,4.22,0,0,0,.8-2.6A10.53,10.53,0,0,0,97.6,38c-.77-1.28-1.06-2.31-.77-3s.59-.92,1.1-.88a1.36,1.36,0,0,1,.73.26Z"/>
    <path class="cls-2" d="M106.35,52.76c-.55,0-.92.29-1.17,1a4.78,4.78,0,0,0-.22,1l.15,1.06a1.34,1.34,0,0,0,1.39,1.1c.37,0,.7-.26,1-.84a2.89,2.89,0,0,0,.29-1.39C107.71,53.42,107.23,52.76,106.35,52.76Z"/>
    <path class="cls-2" d="M94.16,58.69a3.15,3.15,0,0,0-1.46-.48,2.73,2.73,0,0,0-2.09.59,5.32,5.32,0,0,1-.59.62l0-2.34a6.49,6.49,0,0,0-2,0L87.82,71.4a8.76,8.76,0,0,0,2.27-.11c0-.22,0-3.19.11-8.94.15-1.06.66-1.61,1.5-1.65s1.14.4,1.28,1.28c.11,6.19.18,9.34.22,9.41,1.76,0,2.64-.07,2.71-.07-.11-6-.26-9.37-.4-10A5.51,5.51,0,0,0,94.16,58.69Z"/>
    <path class="cls-2" d="M102.76,60.48a3.24,3.24,0,0,0-2.2-1,3,3,0,0,0-2.12.84c-1.25,1-1.83,2.89-1.79,5.57q.05,5.22,3.19,6.7a6.71,6.71,0,0,0,2.42.51c.51,0,1.06,0,1.72,0a18.64,18.64,0,0,0,0-2.34,4.94,4.94,0,0,1-2.42-.26,3.37,3.37,0,0,1-2.38-3.63,12.1,12.1,0,0,1,2.75-.18c1.79-.07,2.71-.11,2.71-.15C104.56,63.67,103.94,61.69,102.76,60.48ZM99.61,62a2,2,0,0,1,.59-.7c1.28,0,2,1.25,2.2,3.77-2.23.07-3.37.11-3.37.07A7,7,0,0,1,99.61,62Z"/>
    <path class="cls-2" d="M107.82,60l-2.31.11.51,13c-.11,4.5-1.61,6.85-4.5,6.92a12,12,0,0,0,.15,3.41A6,6,0,0,0,107,80.37a10,10,0,0,0,1.57-5.57C108.55,74.55,108.33,69.64,107.82,60Z"/>
    <path class="cls-2" d="M82.55,27.64c0,1.06.29,1.61,1,1.61.48,0,.81-.26,1-.84a3,3,0,0,0,.18-1.06q-.11-1.21-1.1-1.21C83,26.14,82.62,26.61,82.55,27.64Zm.59.4s0,0,0,0a.22.22,0,0,0,0,.15A.27.27,0,0,1,83.14,28Z"/>
    <path class="cls-2" d="M77.42,23.46l-1.9.11-.84,21.57L76.76,45l.15-6.77L79,44.92l2.71.07L78,37.16l3.85-6-2.16-.07-2.75,3.74Z"/>
    <path class="cls-2" d="M41.68,21.71h-2.2l.33,23.22H42Z"/>
    <path class="cls-2" d="M46.08,21.34h-2.2l-.37,23.8h1.83V40.05l1.72,5.2,2.31-.11-3.3-8.39,4-6.23h-2.2l-2.2,3.3Z"/>
    <path class="cls-2" d="M51.57,33.68a1.33,1.33,0,0,1,1.06-.59c.59,0,1,.84,1.21,2.56a20.27,20.27,0,0,0-2.64,2.23,4.94,4.94,0,0,0-.77,1,4.88,4.88,0,0,0-.7,2.6,3.55,3.55,0,0,0,.88,2.56,2,2,0,0,0,1.39.55,2.63,2.63,0,0,0,2.67-2.31l.59,2.16,1.9-.07a83,83,0,0,0-.84-9.59c-.29-2.23-1-3.7-1.9-4.36a2.63,2.63,0,0,0-1.57-.37c-1.61,0-2.67,1.28-3.15,3.88l1.5.33Zm1.94,8.24c-.51.55-1,.7-1.39.4a1,1,0,0,1-.55-.84,3.4,3.4,0,0,1,.59-2.05A4.65,4.65,0,0,1,54,37.78C54,40.16,53.88,41.55,53.51,41.92Z"/>
    <path class="cls-2" d="M36.19,31.92a3,3,0,0,0-3-.81c-1.17.33-2,1.32-2.38,3a12.8,12.8,0,0,0-.4,2.67c0,.29,0,1.28.15,2.82a5.62,5.62,0,0,0,2.75,4.8c.92.55,2.53.7,4.76.37l-.37-2.93a4.33,4.33,0,0,1-3.37.11,3,3,0,0,1-1.43-2l-.26-1.5A47.23,47.23,0,0,0,37.76,38C37.55,34.74,37,32.73,36.19,31.92Zm-1.46,1.9a5.43,5.43,0,0,1,.62,1.54c.22.73.29,1.1.18,1.14a13.63,13.63,0,0,1-2.93.26A6.47,6.47,0,0,1,32.71,34c.18-.59.48-.88.81-.92A1.25,1.25,0,0,1,34.73,33.83Z"/>
    <path class="cls-2" d="M47.07,51.7c-.55,0-.84.44-.92,1.46a1.19,1.19,0,0,0,.4.92,1.1,1.1,0,0,0,.7.33c.66,0,1-.48,1-1.43S47.8,51.73,47.07,51.7Zm.11,1c0,.07,0,.15,0,.22a.12.12,0,0,1-.11-.11h0c0-.07,0-.11.07-.15A0,0,0,0,1,47.18,52.69Z"/>
    <path class="cls-2" d="M39,59.35H37.66l-1.43,5.93-1.68-5.64-2.34.15,3.3,12.45h1.83l1.1-7.32,2.93,7.32h2.2l1.83-13.18h-2.2l-1.46,8.06Z"/>
    <path class="cls-2" d="M61,50.49l-1.76,0-.07,7.14-1.94-.07v3.11h2c-.18,6-.29,9.23-.29,9.67q0,3.41,2.31,3.3,1.76-.06,2.53-2.42l.4-2.34H62.3c-.22,1-.59,1.5-1,1.54s-.51-.26-.66-.77l-.15-.77.22-8.2,2.49-.11L63,57.85l-2.12-.07Z"/>
    <path class="cls-2" d="M49.23,61.84l1.68.22.26-.73a1.44,1.44,0,0,1,1.13-.81c1.06-.11,1.68.51,1.87,1.79,0,.26-.18.51-.66.84s-1.14.77-1.5,1.06a4.83,4.83,0,0,0-2.23,4c0,1.65.26,2.71.77,3.22a3.08,3.08,0,0,0,1.83.59c1.17,0,2.12-.92,2.89-2.89l.26,2.56,2.27-.07c-.48-5.57-.92-8.86-1.32-10a4.26,4.26,0,0,0-4.14-3,2.74,2.74,0,0,0-2.6,1.61A3.79,3.79,0,0,0,49.23,61.84Zm3.7,3.48c.77-.62,1.21-.88,1.36-.84l.11,2.6a3,3,0,0,1-1.5,2.45.77.77,0,0,1-1.14-.22,2.39,2.39,0,0,1-.29-1.83A3.89,3.89,0,0,1,52.93,65.32Z"/>
    <path class="cls-2" d="M48.35,59.24H46.41l-.55,12.82,2.64.11Z"/>
    <path class="cls-2" d="M74.35,33.9a17.55,17.55,0,0,0,.22-3.19,2.87,2.87,0,0,0-2.12,1,7,7,0,0,1-.81,1.06c0-.81,0-1.43,0-1.87l-1.61-.15c-.18,8.83-.37,13.55-.51,14.21l2.27,0,0-9.23.59-.88A2.39,2.39,0,0,1,74.35,33.9Z"/>
    <path class="cls-2" d="M67.24,32.4a2.48,2.48,0,0,0-2.12-1.14,3,3,0,0,0-1.68,1.06,8.79,8.79,0,0,0-2,5.53c-.15,2.56.22,4.43,1.17,5.68a2.76,2.76,0,0,0,2.12,1.24c2.31.07,3.52-2.12,3.66-6.55C68.52,35.51,68.12,33.57,67.24,32.4Zm-1.9,1.24c1,0,1.54,1.43,1.5,4.39a6.87,6.87,0,0,1-.7,3.48,1.46,1.46,0,0,1-1.21.88c-.59,0-1.06-.48-1.39-1.5a7,7,0,0,1-.4-2.75Q63.42,33.75,65.34,33.64Z"/>
    <path class="cls-3" d="M66.84,38c0-3-.48-4.43-1.5-4.39q-1.92.11-2.2,4.5a7,7,0,0,0,.4,2.75c.33,1,.81,1.54,1.39,1.5a1.46,1.46,0,0,0,1.21-.88A6.87,6.87,0,0,0,66.84,38Z"/>
    <path class="cls-2" d="M68,58.29a3.28,3.28,0,0,0-2.42,1.24,6.81,6.81,0,0,0-1.32,5q.27,6.1,4.17,6.92A6.32,6.32,0,0,0,72.26,71l-.51-2.78c-2.2.73-3.73.44-4.58-.84a5,5,0,0,1-.62-2.6c3.44-.22,5.27-.33,5.46-.37C72.19,60.23,70.87,58.18,68,58.29ZM68.56,60a1.27,1.27,0,0,1,.51.22c.55.44.88,1.39,1.06,2.89,0,0-.55.07-1.65.15s-1.79.11-2,.11c0,0,0-.15,0-.51a3.89,3.89,0,0,1,.18-1.14c.29-1.14.84-1.68,1.68-1.68Z"/>
    <path class="cls-2" d="M76.69,59.09c-2,.84-3.19,2.82-3.48,5.82-.37,3.44.33,5.82,2.12,7.18a4.6,4.6,0,0,0,3.81.92s-.07-.92-.29-2.67c-2.34-.15-3.48-1.68-3.37-4.69a3.88,3.88,0,0,1,1.32-3,3.63,3.63,0,0,1,2.71-.88,15.92,15.92,0,0,0,.11-3A4.91,4.91,0,0,0,76.69,59.09Z"/>
    <path class="cls-2" d="M81.09,61.36a16.85,16.85,0,0,1,3-.07c.07,0-1.1,4-3.55,11.65,1.43.11,3.4.18,6,.18a14.61,14.61,0,0,0,.18-2.2c-1.5,0-2.45,0-2.82,0-.07,0,.44-2.05,1.5-6.12s1.61-6.15,1.54-6.15H81A19.28,19.28,0,0,0,81.09,61.36Z"/>
    <path class="cls-2" d="M27.62,27.34a.64.64,0,0,0,.73-.26c.84-1.1.59-1.87-.77-2.23a1,1,0,0,0-.88.62C26.23,26.5,26.52,27.09,27.62,27.34Z"/>
    <path class="cls-2" d="M28.87,32.73H27l-.37,12.41h2.56Z"/>
    <path class="cls-2" d="M31.06,50.27l-2.34.15.88,3.88h1.46Z"/>
    <path class="cls-2" d="M30.48,58.95a3.3,3.3,0,0,1,1.17.33l.48-2.12a7.54,7.54,0,0,0-2.56-.22,3.11,3.11,0,0,0-3.15,2.56,6,6,0,0,0,1,4.28,7.74,7.74,0,0,1,1.36,4A2.75,2.75,0,0,1,27,70.23a5.17,5.17,0,0,1-1.65.48l.26,2.64a6.36,6.36,0,0,0,2.75-.7,4.68,4.68,0,0,0,2.78-4.47,11.21,11.21,0,0,0-1.39-4.58c-.81-1.65-1.14-2.78-.92-3.44A1.52,1.52,0,0,1,30.48,58.95Z"/>
    <path class="cls-2" d="M73.51,85.75a10,10,0,0,0-.7,3.33,12.19,12.19,0,0,0,.73,4.61c.66,1.61,1.61,2.42,2.93,2.49s2.2-.88,2.78-2.78a16.4,16.4,0,0,0,.51-5.05A7.72,7.72,0,0,0,79,85a2.79,2.79,0,0,0-2.67-1.79C75.12,83.23,74.16,84.07,73.51,85.75Zm1.24,3.44c.15-2.27.66-3.44,1.54-3.44,1.1,0,1.61,1.14,1.61,3.48,0,2.75-.55,4.1-1.69,4.06-.44,0-.8-.51-1.1-1.5A7.12,7.12,0,0,1,74.75,89.19Z"/>
    <path class="cls-2" d="M68.89,84.07a3,3,0,0,0-2.16,1.28,3.54,3.54,0,0,0-.55,1.21c-.18-1.65-.92-2.45-2.23-2.38a2.57,2.57,0,0,0-1.65.7,4,4,0,0,0-.55.66l0-1.54-2,0-.55,13.18,2.27,0c.07-4.65.15-7.32.26-8.06.15-1.25.62-1.94,1.5-2.05s1.28.33,1.39,1.28l-.33,8.9,2.42,0,0-8.35Q67,87.34,68,87.29c.7,0,1.06.44,1.06,1.35l.07,8.64,2.75,0-.33-11A2.29,2.29,0,0,0,68.89,84.07Z"/>
    <path class="cls-2" d="M83.25,88.2A3.65,3.65,0,0,1,84,85.82a3,3,0,0,1,2.49-1.14A21,21,0,0,0,86.65,82C83,81.83,81.12,83.81,81,88c-.11,3,.48,5.13,1.68,6.48a4.73,4.73,0,0,0,3.77,1.65s0-1.13,0-3.37a3.55,3.55,0,0,1-2.38-1.43A5,5,0,0,1,83.25,88.2Z"/>
    <path class="cls-2" d="M57.1,73.92a6.69,6.69,0,0,0-1.39,0,8.39,8.39,0,0,0,0,2.12,2.81,2.81,0,0,0,.88,1.65c1.32-.59,1.94-.88,1.94-.88A4.33,4.33,0,0,1,57.36,75C57.17,74.29,57.1,74,57.1,73.92Z"/>
    <path class="cls-2" d="M45.05,81.72H42.93L42.75,103l2.45-.07,0-7.73a3.61,3.61,0,0,0,2.31.55c1,0,1.79-.73,2.31-2.12a10.92,10.92,0,0,0,.55-3.92C50.18,87,49.7,85,48.79,83.85a2.53,2.53,0,0,0-2-1.17A1.73,1.73,0,0,0,45.05,84Zm.73,3.92.48-.15c1.24,0,1.9,1.5,2.05,4.39-.18,2.31-.73,3.44-1.68,3.44a2.4,2.4,0,0,1-1-.37l-.4-.37a11.63,11.63,0,0,1-.33-3.26,19.51,19.51,0,0,1,.18-2.56A1.44,1.44,0,0,1,45.78,85.64Z"/>
    <path class="cls-2" d="M58.67,88.68a15.26,15.26,0,0,0-.48-4.25,2.86,2.86,0,0,0-2.93-2.2c-2.12,0-3.3,2-3.44,6.12-.26,5.24.77,7.8,3,7.76a3.31,3.31,0,0,0,2.93-2.2A13.1,13.1,0,0,0,58.67,88.68ZM55.2,85.09c1-.11,1.57,1,1.72,3.37.11,3.15-.48,4.8-1.79,4.91-.66.07-1.14-.66-1.35-2.27a17.91,17.91,0,0,1-.11-2.71,7,7,0,0,1,.51-2.09C54.46,85.53,54.83,85.13,55.2,85.09Z"/>
    <polyline class="cls-2" points="93.72 85.02 91.16 92.67 89.84 84.21 87.49 84.1 89.77 97.4 85.96 103.95 89.11 105.31 96.54 85.17 93.72 85.02"/>
    <polyline class="cls-2" points="82.48 32.91 82.22 44.88 84.56 44.92 84.31 32.95 82.48 32.91"/>
    <polyline class="cls-2" points="21.54 45.51 18.98 38.59 17.15 45.51 14.95 45.51 12.39 33.09 14.22 33.09 16.05 40.78 17.52 33.09 19.35 33.09 21.91 40.78 23.37 32.36 25.57 32.36 23.74 45.51 21.54 45.51"/>
</svg>